<svg class="inline_icon inline_icon--reading_size inline_icon--up_1" src="thumbs_down.svg" xmlns="http://www.w3.org/2000/svg" viewBox="0 0 21.62 21.36"><path d="M8 21.36a2.12 2.12 0 0 1-1.06-.29c-2.5-1.42-1-5-.16-6.95.11-.27.25-.6.31-.77a.78.78 0 0 0-.6-.36H2.37A2.29 2.29 0 0 1 0 10.64c0-.82 1.59-5.4 2.92-9.09A2.39 2.39 0 0 1 5.1.07h10.56v12.79l-.84.13A3.45 3.45 0 0 0 13 14.08a13.16 13.16 0 0 0-.82 1.85c-1.06 2.69-2 4.79-3.49 5.31a2.06 2.06 0 0 1-.69.12zM5.1 2.07a.48.48 0 0 0-.31.17C3.48 5.89 2.07 10.06 2 10.68c0 .22.1.32.37.32h4.1a2.61 2.61 0 0 1 2.61 2.4 4.29 4.29 0 0 1-.48 1.51c-.46 1.09-1.65 3.89-.7 4.42.52 0 1.3-1.4 2.38-4.14a10 10 0 0 1 1.13-2.38 5.27 5.27 0 0 1 2.25-1.56V2.07zM16.76 0h4.86v12.96h-4.86z"/></svg>