<?xml version="1.0" standalone="no"?>
<!DOCTYPE svg PUBLIC "-//W3C//DTD SVG 1.1//EN" "http://www.w3.org/Graphics/SVG/1.1/DTD/svg11.dtd" >
<svg>
<metadata>
Created by FontForge 20120731 at Thu Aug 22 04:28:29 2019
 By www
(c)2013 Optimo.
</metadata>
<defs>
<font id="Programme-Regular" horiz-adv-x="552" >
  <font-face 
    font-family="Programme Regular"
    font-weight="400"
    font-stretch="normal"
    units-per-em="1000"
    panose-1="2 11 5 3 2 2 2 2 2 4"
    ascent="821"
    descent="-179"
    x-height="496"
    cap-height="670"
    bbox="-61 -215 1178 962"
    underline-thickness="50"
    underline-position="-100"
    unicode-range="U+000D-FB02"
  />
<missing-glyph horiz-adv-x="473" 
d="M20 520q0 73 20 126t53 80.5t68.5 40t74.5 12.5t74.5 -12.5t69 -40t53.5 -80.5t20 -126q0 -94 -41 -214.5t-92.5 -202.5t-83.5 -82q-26 0 -63.5 50.5t-71 123.5t-57.5 163.5t-24 161.5zM205 164q0 -14 9 -23t23 -9t24 9t10 23t-10 24t-24 10t-23 -10t-9 -24zM256 343
q170 46 170 201q0 16 -1 24q-71 -4 -120 -71t-49 -154zM217 343q0 87 -49 154t-120 71q-1 -8 -1 -24q0 -156 170 -201z" />
    <glyph glyph-name="fi" unicode="fi" horiz-adv-x="608" 
d="M108 496v12q0 58 6.5 83.5t25.5 47.5q35 41 107 41q40 0 80 -8v-87q-18 5 -43 5q-46 0 -59 -15q-12 -12 -12 -48v-31h136v-85h-136v-411h-105v411h-91v85h91zM539 0h-105v496h105v-496zM424 625q0 27 18 45t45 18t45 -18t18 -45t-18 -45t-45 -18t-45 18t-18 45z" />
    <glyph glyph-name="fl" unicode="fl" horiz-adv-x="614" 
d="M108 496v12q0 58 6.5 83.5t25.5 47.5q35 41 107 41q40 0 80 -8v-87q-18 5 -43 5q-46 0 -59 -15q-12 -12 -12 -48v-31h136v-85h-136v-411h-105v411h-91v85h91zM542 0h-105v670h105v-670z" />
    <glyph glyph-name=".notdef" horiz-adv-x="473" 
d="M20 520q0 73 20 126t53 80.5t68.5 40t74.5 12.5t74.5 -12.5t69 -40t53.5 -80.5t20 -126q0 -94 -41 -214.5t-92.5 -202.5t-83.5 -82q-26 0 -63.5 50.5t-71 123.5t-57.5 163.5t-24 161.5zM205 164q0 -14 9 -23t23 -9t24 9t10 23t-10 24t-24 10t-23 -10t-9 -24zM256 343
q170 46 170 201q0 16 -1 24q-71 -4 -120 -71t-49 -154zM217 343q0 87 -49 154t-120 71q-1 -8 -1 -24q0 -156 170 -201z" />
    <glyph glyph-name=".null" horiz-adv-x="0" 
 />
    <glyph glyph-name="nonmarkingreturn" horiz-adv-x="333" 
 />
    <glyph glyph-name="NULL" horiz-adv-x="0" 
 />
    <glyph glyph-name="NULL" horiz-adv-x="0" 
 />
    <glyph glyph-name="CR" unicode="&#xd;" horiz-adv-x="0" 
 />
    <glyph glyph-name="space" unicode=" " horiz-adv-x="246" 
 />
    <glyph glyph-name="exclam" unicode="!" horiz-adv-x="284" 
d="M92 670h100v-486h-100v486zM73 55q0 29 20.5 49t48.5 20t48.5 -20t20.5 -49t-20.5 -49t-48.5 -20t-48.5 20t-20.5 49z" />
    <glyph glyph-name="quotedbl" unicode="&#x22;" horiz-adv-x="391" 
d="M71 440l-10 230h100l-10 -230h-80zM240 440l-10 230h100l-10 -230h-80z" />
    <glyph glyph-name="numbersign" unicode="#" horiz-adv-x="673" 
d="M412 0h-96l38 188h-95l-37 -188h-95l37 188h-128v90h146l26 128h-133v90h150l35 174h95l-35 -174h95l35 174h95l-35 -174h127v-90h-144l-26 -128h131v-90h-149zM303 406l-26 -128h95l26 128h-95z" />
    <glyph glyph-name="dollar" unicode="$" horiz-adv-x="521" 
d="M298 -104h-100v89q-95 11 -150 52v105h7q22 -22 77.5 -42.5t109.5 -20.5q64 0 100 30t36 77q0 43 -26 67t-80 43l-75 27q-149 52 -149 182q0 63 44.5 112t116.5 65v88h100v-85q86 -13 129 -45v-106h-7q-24 22 -67.5 39.5t-90.5 17.5q-53 0 -84.5 -25t-31.5 -64
q0 -33 21 -51.5t66 -34.5l89 -32q154 -55 154 -193q0 -80 -52 -135t-137 -69v-91z" />
    <glyph glyph-name="percent" unicode="%" horiz-adv-x="842" 
d="M189 379q35 0 53 31.5t18 81.5q0 49 -18.5 81.5t-52.5 32.5t-52.5 -32.5t-18.5 -81.5q0 -50 18 -81.5t53 -31.5zM653 -8q-72 0 -114 51.5t-42 133.5t42.5 134t113.5 52t113.5 -52t42.5 -134t-42 -133.5t-114 -51.5zM189 307q-72 0 -114 51.5t-42 133.5t42.5 134t113.5 52
t113.5 -52t42.5 -134t-42 -133.5t-114 -51.5zM653 64q35 0 53 31.5t18 81.5q0 49 -18.5 81.5t-52.5 32.5t-52.5 -32.5t-18.5 -81.5q0 -50 18 -81.5t53 -31.5zM673 663l-409 -663h-93v7l407 663h95v-7z" />
    <glyph glyph-name="ampersand" unicode="&#x26;" horiz-adv-x="631" 
d="M637 7v-7h-103l-50 60q-64 -78 -190 -78q-106 0 -173.5 64.5t-67.5 158.5q0 64 35.5 116.5t106.5 83.5q-78 66 -78 133q0 62 46 104t118 42t119.5 -42t47.5 -103q0 -42 -32 -86.5t-81 -71.5l84 -102q22 -26 52 -70h1q0 7 0.5 31.5t0.5 51.5v56h89v-56q0 -116 -24 -161z
M155 209q0 -51 40.5 -92t100.5 -41q94 0 131 50l-172 211q-100 -45 -100 -128zM278 443q73 50 73 94q0 28 -18 46t-52 18q-31 0 -49 -18.5t-18 -45.5q0 -36 64 -94z" />
    <glyph glyph-name="quotesingle" unicode="'" horiz-adv-x="222" 
d="M161 670l-10 -230h-80l-10 230h100z" />
    <glyph glyph-name="parenleft" unicode="(" horiz-adv-x="330" 
d="M40 270q0 134 47.5 241.5t116.5 176.5h114v-7q-176 -171 -176 -411q0 -124 50 -231t126 -179v-7h-116q-66 64 -114 175t-48 242z" />
    <glyph glyph-name="parenright" unicode=")" horiz-adv-x="330" 
d="M290 270q0 -131 -48 -242t-114 -175h-116v7q76 72 126 179t50 231q0 240 -176 411v7h114q69 -69 116.5 -176.5t47.5 -241.5z" />
    <glyph glyph-name="asterisk" unicode="*" horiz-adv-x="508" 
d="M344 255l-90 123l-90 -123l-73 54l91 123l-146 47l28 86l145 -48v153h90v-153l145 48l28 -86l-146 -47l91 -123z" />
    <glyph glyph-name="plus" unicode="+" horiz-adv-x="538" 
d="M319 20h-100v192h-181v92h181v192h100v-192h181v-92h-181v-192z" />
    <glyph glyph-name="comma" unicode="," horiz-adv-x="261" 
d="M30 -110l50 230h120l-99 -230h-71z" />
    <glyph glyph-name="hyphen" unicode="-" horiz-adv-x="392" 
d="M331 212h-270v92h270v-92z" />
    <glyph glyph-name="period" unicode="." horiz-adv-x="252" 
d="M53 59q0 32 21 52.5t52 20.5t52 -20.5t21 -52.5t-21 -52.5t-52 -20.5t-52 20.5t-21 52.5z" />
    <glyph glyph-name="slash" unicode="/" horiz-adv-x="419" 
d="M133 0h-106l261 670h106z" />
    <glyph glyph-name="zero" unicode="0" horiz-adv-x="594" 
d="M297 -14q-124 0 -187.5 96.5t-63.5 251.5q0 153 66 251.5t185 98.5q124 0 187.5 -97.5t63.5 -252.5q0 -156 -62.5 -252t-188.5 -96zM297 82q72 0 108.5 68t36.5 184q0 112 -36.5 183.5t-108.5 71.5q-69 0 -107 -72t-38 -183q0 -113 36.5 -182.5t108.5 -69.5z" />
    <glyph glyph-name="one" unicode="1" horiz-adv-x="357" 
d="M33 469v105l153 96h81v-670h-105v546l-122 -77h-7z" />
    <glyph glyph-name="two" unicode="2" horiz-adv-x="515" 
d="M194 92h275v-92h-420v72l217 251q5 6 25 28.5t26.5 31.5t18.5 27t16 33.5t4 32.5q0 53 -37 83t-96 30q-48 0 -95.5 -26t-69.5 -58h-7v111q27 27 74.5 47.5t107.5 20.5q105 0 166.5 -57t61.5 -147q0 -86 -91 -188l-102 -118q-56 -64 -74 -82z" />
    <glyph glyph-name="three" unicode="3" horiz-adv-x="516" 
d="M440 598l-161 -165q88 -12 142.5 -72.5t54.5 -140.5q0 -108 -73 -171t-179 -63q-103 0 -172 52v101h7q26 -25 69 -41.5t88 -16.5q67 0 110.5 39t43.5 97q0 62 -43 98.5t-111 36.5q-51 0 -89 -16h-5v63l122 122q30 30 63 57h-255v92h388v-72z" />
    <glyph glyph-name="four" unicode="4" horiz-adv-x="555" 
d="M25 213l271 457h134v-448h87v-92h-87v-130h-105v130h-300v83zM328 555h-1q-16 -45 -50 -101l-138 -232h186v234q0 67 3 99z" />
    <glyph glyph-name="five" unicode="5" horiz-adv-x="539" 
d="M169 578v-153q37 31 110 31q91 0 157.5 -63t66.5 -167q0 -113 -72 -176.5t-181 -63.5q-51 0 -101.5 15.5t-79.5 37.5v104h7q23 -23 73.5 -42.5t97.5 -19.5q67 0 108.5 40.5t41.5 104.5q0 65 -37.5 102t-97.5 37q-81 0 -114 -61h-79v366h385v-92h-285z" />
    <glyph glyph-name="six" unicode="6" horiz-adv-x="569" 
d="M39 225q0 66 38 130q9 14 71.5 109.5t129.5 205.5h113v-7l-93 -154q-7 -12 -43 -64q24 10 60 10q93 0 157.5 -69t64.5 -161q0 -94 -66.5 -166.5t-181.5 -72.5t-182.5 72t-67.5 167zM145 226q0 -61 40.5 -103t101.5 -42q62 0 103 41.5t41 103.5q0 60 -41.5 101.5
t-102.5 41.5q-62 0 -102 -41t-40 -102z" />
    <glyph glyph-name="seven" unicode="7" horiz-adv-x="498" 
d="M32 670h472l-328 -670h-115l282 578h-311v92z" />
    <glyph glyph-name="eight" unicode="8" horiz-adv-x="564" 
d="M282 -14q-99 0 -168 56.5t-69 149.5q0 57 29.5 102t72.5 64q-36 14 -58 54.5t-22 85.5q0 87 64 136.5t151 49.5t151 -49.5t64 -136.5q0 -45 -22 -85.5t-58 -54.5q43 -19 72.5 -64t29.5 -102q0 -93 -69 -149.5t-168 -56.5zM282 82q53 0 92.5 30.5t39.5 84.5q0 49 -38 83
t-94 34t-94 -34t-38 -83q0 -54 39.5 -84.5t92.5 -30.5zM393 498q0 44 -31 68.5t-80 24.5t-80 -24.5t-31 -68.5q0 -45 32 -71.5t79 -26.5t79 26.5t32 71.5z" />
    <glyph glyph-name="nine" unicode="9" horiz-adv-x="568" 
d="M534 445q0 -66 -38 -130q-9 -14 -71.5 -109.5t-129.5 -205.5h-113v7l93 154q7 12 43 64q-24 -10 -60 -10q-93 0 -157.5 69t-64.5 161q0 94 66.5 166.5t181.5 72.5t182.5 -72t67.5 -167zM428 444q0 61 -40.5 103t-101.5 42q-62 0 -103 -41.5t-41 -103.5q0 -60 41.5 -101.5
t102.5 -41.5q62 0 102 41t40 102z" />
    <glyph glyph-name="colon" unicode=":" horiz-adv-x="268" 
d="M61 59q0 32 21 52.5t52 20.5t52 -20.5t21 -52.5t-21 -52.5t-52 -20.5t-52 20.5t-21 52.5zM61 412q0 32 21 52.5t52 20.5t52 -20.5t21 -52.5t-21 -52.5t-52 -20.5t-52 20.5t-21 52.5z" />
    <glyph glyph-name="semicolon" unicode=";" horiz-adv-x="282" 
d="M38 -110l50 230h120l-99 -230h-71zM74 412q0 32 21 52.5t52 20.5t52 -20.5t21 -52.5t-21 -52.5t-52 -20.5t-52 20.5t-21 52.5z" />
    <glyph glyph-name="less" unicode="&#x3c;" horiz-adv-x="504" 
d="M201 248l247 -148v-100h-7l-410 244v7l410 245h7v-100z" />
    <glyph glyph-name="equal" unicode="=" horiz-adv-x="573" 
d="M511 308h-449v92h449v-92zM511 115h-449v93h449v-93z" />
    <glyph glyph-name="greater" unicode="&#x3e;" horiz-adv-x="504" 
d="M56 100l247 148l-247 148v100h7l410 -245v-7l-410 -244h-7v100z" />
    <glyph glyph-name="question" unicode="?" horiz-adv-x="451" 
d="M238 375q23 20 34.5 31t24 33.5t12.5 47.5q0 47 -33.5 74t-81.5 27q-45 0 -88 -23.5t-64 -53.5h-7v108q65 65 169 65q96 0 153.5 -56t57.5 -140q0 -32 -9 -59t-28 -50t-32.5 -36t-38.5 -34q-51 -40 -51 -110v-15h-104v15q0 58 16.5 96t69.5 80zM133 55q0 29 20.5 49
t48.5 20t48.5 -20t20.5 -49t-20.5 -49t-48.5 -20t-48.5 20t-20.5 49z" />
    <glyph glyph-name="at" unicode="@" horiz-adv-x="951" 
d="M674 467v-295q0 -60 52 -60q38 0 59 47t21 123q0 124 -93 215.5t-228 91.5q-146 0 -244.5 -98.5t-98.5 -243.5q0 -140 97.5 -236.5t234.5 -96.5q118 0 183 50h7v-103q-82 -42 -191 -42q-188 0 -312 123t-124 303q0 120 54 219.5t158 159.5t238 60q93 0 173 -35.5t133 -93
t83 -128.5t30 -143q0 -121 -51.5 -192t-133.5 -71q-79 0 -112 58q-55 -58 -147 -58q-41 0 -79 13.5t-71 40.5t-53 72t-20 102t22 103t56 72t70.5 39.5t69.5 13.5q75 0 126 -41v31h91zM583 156v192q-43 38 -106 38q-60 0 -97 -38t-37 -97q0 -65 37 -102t95 -37q69 0 108 44z
" />
    <glyph glyph-name="A" unicode="A" horiz-adv-x="658" 
d="M272 670h116l265 -670h-111l-64 161h-301l-64 -161h-110zM292 462l-79 -208h231l-78 208q-14 36 -36 99h-2z" />
    <glyph glyph-name="B" unicode="B" horiz-adv-x="630" 
d="M81 0v670h278q56 0 98.5 -17.5t65 -46.5t33 -59t10.5 -61q0 -47 -20 -88.5t-54 -56.5q39 -12 67.5 -54.5t28.5 -94.5q0 -83 -53 -137.5t-167 -54.5h-287zM349 575h-161v-189h164q106 0 106 98q0 40 -27.5 65.5t-81.5 25.5zM185 293v-198h183q112 0 112 100q0 42 -27.5 70
t-85.5 28h-182z" />
    <glyph glyph-name="C" unicode="C" horiz-adv-x="633" 
d="M585 149h7v-108q-86 -59 -203 -59q-153 0 -253 100t-100 253q0 152 101 252.5t253 100.5q115 0 197 -54v-107h-7q-76 64 -189 64q-107 0 -176.5 -73.5t-69.5 -182.5q0 -110 68 -182t177 -72q56 0 111.5 20t83.5 48z" />
    <glyph glyph-name="D" unicode="D" horiz-adv-x="672" 
d="M81 670h212q89 0 156.5 -29t106.5 -77.5t58 -106.5t19 -122q0 -156 -89 -245.5t-256 -89.5h-207v670zM292 574h-104v-478h91q246 0 246 239q0 120 -63 179.5t-170 59.5z" />
    <glyph glyph-name="E" unicode="E" horiz-adv-x="588" 
d="M81 670h456v-96h-349v-172h329v-95h-329v-211h354v-96h-461v670z" />
    <glyph glyph-name="F" unicode="F" horiz-adv-x="559" 
d="M81 670h441v-96h-334v-172h313v-95h-313v-307h-107v670z" />
    <glyph glyph-name="G" unicode="G" horiz-adv-x="667" 
d="M390 688q115 0 197 -54v-107h-7q-76 64 -188 64q-109 0 -178 -75t-69 -183q0 -111 69.5 -182.5t180.5 -71.5q78 0 122 23v169h-176v94h277v-318q-85 -65 -226 -65q-157 0 -256.5 99t-99.5 252q0 150 101 252.5t253 102.5z" />
    <glyph glyph-name="H" unicode="H" horiz-adv-x="695" 
d="M614 0h-107v308h-319v-308h-107v670h107v-266h319v266h107v-670z" />
    <glyph glyph-name="I" unicode="I" horiz-adv-x="269" 
d="M188 0h-107v670h107v-670z" />
    <glyph glyph-name="J" unicode="J" horiz-adv-x="400" 
d="M324 670v-497q0 -99 -41 -141q-48 -50 -143 -50q-66 0 -122 21v95q54 -19 105 -19q50 0 73 22q15 14 18 36t3 77v456h107z" />
    <glyph glyph-name="K" unicode="K" horiz-adv-x="607" 
d="M188 222v-222h-107v670h107v-316l287 316h119v-7l-266 -300l281 -356v-7h-123l-233 294z" />
    <glyph glyph-name="L" unicode="L" horiz-adv-x="526" 
d="M508 0h-427v670h107v-574h320v-96z" />
    <glyph glyph-name="M" unicode="M" horiz-adv-x="793" 
d="M712 0h-102v451q0 61 3 96h-1q-10 -36 -38 -96l-126 -278h-100l-128 276q-22 49 -39 98h-1q3 -57 3 -96v-451h-102v670h144l134 -302l37 -90h1l37 90l133 302h145v-670z" />
    <glyph glyph-name="N" unicode="N" horiz-adv-x="711" 
d="M190 670l262 -398q53 -81 73 -117h1q-3 29 -3 121v394h107v-670h-111l-273 408q-40 59 -60 104h-1q3 -45 3 -104v-408h-107v670h109z" />
    <glyph glyph-name="O" unicode="O" horiz-adv-x="778" 
d="M389 -18q-151 0 -252.5 101.5t-101.5 251.5t101.5 251.5t252.5 101.5t252.5 -101.5t101.5 -251.5t-101.5 -251.5t-252.5 -101.5zM389 80q105 0 175 74t70 181t-70 181.5t-175 74.5t-175 -74.5t-70 -181.5t70 -181t175 -74z" />
    <glyph glyph-name="P" unicode="P" horiz-adv-x="591" 
d="M341 241h-153v-241h-107v670h269q101 0 158.5 -65t57.5 -150q0 -93 -63.5 -153.5t-161.5 -60.5zM188 574v-237h146q59 0 91.5 29.5t32.5 88.5q0 119 -123 119h-147z" />
    <glyph glyph-name="Q" unicode="Q" horiz-adv-x="777" 
d="M727 -11v-7h-115l-41 51q-77 -51 -182 -51q-151 0 -252.5 101.5t-101.5 251.5t101.5 251.5t252.5 101.5t252.5 -101.5t101.5 -251.5q0 -142 -100 -247zM413 222v7h115l52 -64q54 60 54 170q0 107 -70 181.5t-175 74.5t-175 -74.5t-70 -181.5t70.5 -181t177.5 -74
q77 0 117 26z" />
    <glyph glyph-name="R" unicode="R" horiz-adv-x="615" 
d="M188 574v-217h155q49 0 76 27.5t27 80.5q0 51 -33 80t-89 29h-136zM407 271l189 -264v-7h-117l-182 264h-109v-264h-107v670h261q103 0 158 -60.5t55 -144.5q0 -77 -42 -129.5t-106 -64.5z" />
    <glyph glyph-name="S" unicode="S" horiz-adv-x="516" 
d="M156 502q0 -33 21 -51.5t66 -34.5l89 -32q154 -55 154 -193q0 -93 -68.5 -151t-175.5 -58q-57 0 -110.5 15.5t-84.5 39.5v105h7q22 -22 77.5 -42.5t109.5 -20.5q64 0 100 30t36 77q0 43 -26 67t-80 43l-75 27q-149 52 -149 182q0 76 62 129.5t156 53.5q49 0 98 -14.5
t74 -33.5v-106h-7q-24 22 -67.5 39.5t-90.5 17.5q-53 0 -84.5 -25t-31.5 -64z" />
    <glyph glyph-name="T" unicode="T" horiz-adv-x="589" 
d="M348 0h-107v574h-224v96h555v-96h-224v-574z" />
    <glyph glyph-name="U" unicode="U" horiz-adv-x="662" 
d="M74 229v441h107v-442q0 -71 40.5 -109.5t109.5 -38.5t109.5 38.5t40.5 109.5v442h107v-441q0 -120 -70 -183.5t-187 -63.5t-187 63.5t-70 183.5z" />
    <glyph glyph-name="V" unicode="V" horiz-adv-x="644" 
d="M385 0h-125l-247 670h117l155 -446q25 -73 37 -114h1q11 39 37 114l155 446h115z" />
    <glyph glyph-name="W" unicode="W" horiz-adv-x="967" 
d="M328 300l105 370h103l104 -370l43 -157h1l45 157l111 370h112l-214 -670h-108l-119 408q-13 45 -27 114h-1q-1 -4 -10 -44t-18 -70l-118 -408h-108l-214 670h113l111 -370q22 -73 44 -157h1q7 25 22 78.5t22 78.5z" />
    <glyph glyph-name="X" unicode="X" horiz-adv-x="628" 
d="M-3 7l255 344l-230 312v7h120l173 -239l174 239h118v-7l-231 -310l254 -346v-7h-120l-197 274l-198 -274h-118v7z" />
    <glyph glyph-name="Y" unicode="Y" horiz-adv-x="609" 
d="M595 670v-7l-236 -361v-302h-107v301l-240 362v7h117l176 -272l175 272h115z" />
    <glyph glyph-name="Z" unicode="Z" horiz-adv-x="553" 
d="M33 574v96h503l-341 -574h328v-96h-508l341 574h-323z" />
    <glyph glyph-name="bracketleft" unicode="[" horiz-adv-x="330" 
d="M297 -72v-75h-209v835h209v-75h-109v-685h109z" />
    <glyph glyph-name="backslash" unicode="\" horiz-adv-x="419" 
d="M392 0h-106l-261 670h106z" />
    <glyph glyph-name="bracketright" unicode="]" horiz-adv-x="330" 
d="M33 -147v75h109v685h-109v75h209v-835h-209z" />
    <glyph glyph-name="asciicircum" unicode="^" horiz-adv-x="451" 
d="M301 335l-75 202h-1l-75 -202h-106l140 335h83l140 -335h-106z" />
    <glyph glyph-name="underscore" unicode="_" 
d="M490 -145h-428v90h428v-90z" />
    <glyph glyph-name="grave" unicode="`" horiz-adv-x="345" 
d="M187 549l-122 121h137l78 -121h-93z" />
    <glyph glyph-name="a" unicode="a" horiz-adv-x="514" 
d="M93 372h-7v95q19 14 64.5 28.5t94.5 14.5q92 0 148.5 -45.5t56.5 -130.5v-334h-95v40q-18 -20 -55.5 -37t-87.5 -17q-77 0 -128 43.5t-51 117.5q0 77 61 121.5t152 44.5q60 0 99 -17v28q0 94 -111 94q-42 0 -80.5 -13.5t-60.5 -32.5zM264 233q-55 0 -90 -22t-35 -61
q0 -38 28 -57.5t72 -19.5q66 0 106 44v101q-24 15 -81 15z" />
    <glyph glyph-name="b" unicode="b" horiz-adv-x="601" 
d="M315 -14q-96 0 -151 55v-41h-95v670h105v-206q56 46 141 46q106 0 178 -73t72 -187q0 -115 -73.5 -189.5t-176.5 -74.5zM296 80q72 0 117.5 47.5t45.5 121.5q0 75 -44 121t-119 46q-76 0 -122 -48v-243q17 -18 50 -31.5t72 -13.5z" />
    <glyph glyph-name="c" unicode="c" horiz-adv-x="492" 
d="M446 125h7v-100q-68 -39 -156 -39q-114 0 -187.5 73t-73.5 190q0 110 74.5 185.5t187.5 75.5q86 0 149 -36v-100h-7q-50 41 -136 41q-69 0 -115.5 -44.5t-46.5 -121.5q0 -82 47 -124.5t118 -42.5q88 0 139 43z" />
    <glyph glyph-name="d" unicode="d" horiz-adv-x="601" 
d="M286 -14q-106 0 -178 73t-72 187q0 115 73.5 189.5t176.5 74.5q85 0 141 -46v206h105v-670h-95v41q-55 -55 -151 -55zM303 80q81 0 124 45v243q-46 48 -122 48q-72 0 -117.5 -47.5t-45.5 -121.5q0 -76 43.5 -121.5t117.5 -45.5z" />
    <glyph glyph-name="e" unicode="e" horiz-adv-x="531" 
d="M498 205h-356q3 -55 46 -90.5t116 -35.5q99 0 158 50h7v-98q-64 -45 -172 -45q-117 0 -188.5 70t-71.5 190q0 114 69 189t168 75q105 0 165.5 -72.5t60.5 -196.5zM142 290h254q-2 58 -34.5 93.5t-87.5 35.5q-54 0 -90.5 -38t-41.5 -91z" />
    <glyph glyph-name="f" unicode="f" horiz-adv-x="365" 
d="M108 496v12q0 58 6.5 83.5t25.5 47.5q35 41 107 41q40 0 80 -8v-87q-18 5 -43 5q-46 0 -59 -15q-12 -12 -12 -48v-31h136v-85h-136v-411h-105v411h-91v85h91z" />
    <glyph glyph-name="g" unicode="g" horiz-adv-x="597" 
d="M423 44v24q-58 -50 -144 -50q-103 0 -172.5 67.5t-69.5 176.5q0 108 70 178t178 70q96 0 149 -55v41h94v-461q0 -106 -61 -158q-65 -56 -179 -56q-124 0 -192 33v97h8q60 -36 169 -36q83 0 122 36q28 28 28 93zM423 166v202q-44 48 -123 48q-68 0 -112.5 -42.5
t-44.5 -110.5q0 -72 43 -111.5t109 -39.5q83 0 128 54z" />
    <glyph glyph-name="h" unicode="h" 
d="M174 670v-210q59 50 130 50q88 0 136 -49.5t48 -141.5v-319h-105v309q0 52 -27.5 79.5t-78.5 27.5q-30 0 -61 -16.5t-42 -32.5v-367h-105v670h105z" />
    <glyph glyph-name="i" unicode="i" horiz-adv-x="243" 
d="M174 0h-105v496h105v-496zM59 625q0 27 18 45t45 18t45 -18t18 -45t-18 -45t-45 -18t-45 18t-18 45z" />
    <glyph glyph-name="j" unicode="j" horiz-adv-x="247" 
d="M178 496v-499q0 -60 -5.5 -85t-25.5 -46q-35 -41 -104 -41q-51 0 -86 8v91q20 -5 46 -5q42 0 55 14q10 11 12.5 31.5t2.5 75.5v456h105zM63 625q0 27 18 45t45 18t45 -18t18 -45t-18 -45t-45 -18t-45 18t-18 45z" />
    <glyph glyph-name="k" unicode="k" horiz-adv-x="519" 
d="M174 0h-105v670h105v-397l202 223h117v-10l-206 -229l227 -247v-10h-125l-215 237v-237z" />
    <glyph glyph-name="l" unicode="l" horiz-adv-x="249" 
d="M177 0h-105v670h105v-670z" />
    <glyph glyph-name="m" unicode="m" horiz-adv-x="820" 
d="M174 372v-372h-105v496h95v-49q20 24 56.5 44t83.5 20q40 0 76.5 -19.5t56.5 -52.5q23 28 64 50t85 22q78 0 124 -48t46 -141v-322h-105v316q0 103 -87 103q-29 0 -58 -13.5t-45 -32.5q4 -20 4 -47v-326h-105v315q0 104 -87 104q-29 0 -57 -15t-42 -32z" />
    <glyph glyph-name="n" unicode="n" 
d="M174 367v-367h-105v496h95v-46q19 21 58 40.5t82 19.5q88 0 136 -49.5t48 -141.5v-319h-105v309q0 52 -27 79.5t-78 27.5q-30 0 -61.5 -16.5t-42.5 -32.5z" />
    <glyph glyph-name="o" unicode="o" horiz-adv-x="592" 
d="M35 248q0 112 75.5 187t185.5 75q111 0 186 -74.5t75 -187.5t-75 -187.5t-186 -74.5t-186 74.5t-75 187.5zM141 248q0 -72 43 -119t112 -47q68 0 111.5 47.5t43.5 118.5t-43.5 119t-111.5 48q-70 0 -112.5 -47t-42.5 -120z" />
    <glyph glyph-name="p" unicode="p" horiz-adv-x="601" 
d="M315 -14q-83 0 -141 48v-199h-105v661h95v-40q56 54 151 54q106 0 178 -73t72 -187q0 -115 -73.5 -189.5t-176.5 -74.5zM295 80q73 0 118.5 47.5t45.5 121.5q0 75 -44.5 121t-119.5 46q-77 0 -121 -44v-244q17 -18 49.5 -33t71.5 -15z" />
    <glyph glyph-name="q" unicode="q" horiz-adv-x="601" 
d="M286 510q97 0 151 -54v40h95v-661h-105v199q-58 -48 -141 -48q-106 0 -178 73t-72 187q0 115 73.5 189.5t176.5 74.5zM306 416q-72 0 -118 -47.5t-46 -121.5q0 -75 44.5 -121t119.5 -46t121 48v244q-44 44 -121 44z" />
    <glyph glyph-name="r" unicode="r" horiz-adv-x="351" 
d="M334 501v-99q-15 5 -44 5q-83 0 -116 -51v-356h-105v496h95v-47q43 57 124 57q33 0 46 -5z" />
    <glyph glyph-name="s" unicode="s" horiz-adv-x="427" 
d="M357 381h-7q-20 17 -55.5 28t-68.5 11q-35 0 -56 -13t-21 -33q0 -21 12.5 -32.5t37.5 -22.5l91 -40q103 -46 103 -143q0 -69 -51.5 -109.5t-136.5 -40.5q-44 0 -89 13t-67 29v96h7q18 -15 64 -31t79 -16q42 0 66.5 15t24.5 42q0 40 -54 63l-77 32q-112 51 -112 140
q0 62 46 101.5t117 39.5q45 0 86 -12t61 -26v-91z" />
    <glyph glyph-name="t" unicode="t" horiz-adv-x="373" 
d="M121 156v255h-108v85h108v130h105v-130h125v-85h-125v-227v-10q0 -42 2 -57t12 -23q16 -13 58 -13q23 0 48 5v-87q-41 -9 -84 -9q-74 0 -109 35q-20 22 -26 47t-6 84z" />
    <glyph glyph-name="u" unicode="u" horiz-adv-x="548" 
d="M374 129v367h105v-496h-95v46q-19 -21 -58 -40.5t-82 -19.5q-80 0 -130 50t-50 137v323h105v-307q0 -107 101 -107q32 0 61.5 15t42.5 32z" />
    <glyph glyph-name="v" unicode="v" horiz-adv-x="539" 
d="M325 0h-110l-195 496h112l96 -269q28 -68 42 -116h1q3 9 41 116l95 269h111z" />
    <glyph glyph-name="w" unicode="w" horiz-adv-x="837" 
d="M639 0h-109l-83 266q-21 70 -29 101h-1q-6 -32 -27 -101l-81 -266h-110l-177 496h107l95 -282q11 -33 20.5 -67t10.5 -36h1q12 51 28 103l86 282h98l86 -282q11 -35 30 -103h1q9 32 32 103l96 282h102z" />
    <glyph glyph-name="x" unicode="x" horiz-adv-x="527" 
d="M122 0h-115v7l194 252l-173 230v7h117l119 -165l119 165h115v-7l-172 -230l195 -252v-7h-117l-141 188z" />
    <glyph glyph-name="y" unicode="y" horiz-adv-x="532" 
d="M134 -165l81 194l-196 467h109l104 -267q11 -28 18.5 -48.5t10.5 -28.5l6 -16h1q16 38 36 93l100 267h111l-275 -661h-106z" />
    <glyph glyph-name="z" unicode="z" horiz-adv-x="479" 
d="M41 406v90h417l-267 -406h251v-90h-424l266 406h-243z" />
    <glyph glyph-name="braceleft" unicode="{" horiz-adv-x="301" 
d="M135 272v-2q27 -12 38 -39t11 -87v-131q0 -51 11.5 -66.5t66.5 -15.5v-77h-21q-99 0 -128.5 31t-29.5 108v192q0 55 -40 61v50q40 6 40 61v192q0 77 29.5 108t128.5 31h21v-77q-55 0 -66.5 -15.5t-11.5 -66.5v-131q0 -63 -10.5 -88t-38.5 -38z" />
    <glyph glyph-name="bar" unicode="|" horiz-adv-x="276" 
d="M188 -147h-100v835h100v-835z" />
    <glyph glyph-name="braceright" unicode="}" horiz-adv-x="301" 
d="M166 270v2q-28 13 -38.5 38t-10.5 88v131q0 51 -11.5 66.5t-66.5 15.5v77h21q99 0 128.5 -31t29.5 -108v-192q0 -55 40 -61v-50q-40 -6 -40 -61v-192q0 -77 -29.5 -108t-128.5 -31h-21v77q55 0 66.5 15.5t11.5 66.5v131q0 60 11 87t38 39z" />
    <glyph glyph-name="asciitilde" unicode="~" horiz-adv-x="518" 
d="M69 226h-7v94q11 13 37 23.5t58 10.5q22 0 42.5 -6t29 -10.5t30.5 -17.5q56 -35 107 -35q50 0 83 30h7v-94q-10 -11 -39 -22t-60 -11q-16 0 -30.5 2.5t-28 7.5t-21.5 8t-21 10.5t-16 8.5q-5 2 -22 10.5t-24 11t-20.5 6t-26.5 3.5q-48 0 -78 -30z" />
    <glyph glyph-name="uni00A0" unicode="&#xa0;" horiz-adv-x="246" 
 />
    <glyph glyph-name="exclamdown" unicode="&#xa1;" horiz-adv-x="266" 
d="M183 -165h-100v477h100v-477zM64 441q0 29 20.5 49t48.5 20t48.5 -20t20.5 -49t-20.5 -49t-48.5 -20t-48.5 20t-20.5 49z" />
    <glyph glyph-name="cent" unicode="&#xa2;" horiz-adv-x="508" 
d="M338 -12v-92h-100v97q-89 18 -143.5 87.5t-54.5 168.5q0 93 55 163.5t143 90.5v97h100v-92q60 -6 113 -34v-100h-7q-50 41 -136 41q-69 0 -115.5 -44.5t-46.5 -121.5q0 -82 47 -124.5t118 -42.5q88 0 139 43h7v-100q-52 -31 -119 -37z" />
    <glyph glyph-name="sterling" unicode="&#xa3;" horiz-adv-x="520" 
d="M100 510q0 69 47 119q55 59 154 59q82 0 146 -56v-105h-8q-52 65 -136 65q-44 0 -70.5 -25t-26.5 -60q0 -38 34 -112h160v-85h-123q18 -47 18 -88q0 -82 -72 -127v-2h259v-93h-433v88q58 14 99 47.5t41 87.5q0 47 -17 87h-123v85h82q-31 66 -31 115z" />
    <glyph glyph-name="currency" unicode="&#xa4;" horiz-adv-x="534" 
d="M438 206l45 -44l-67 -67l-44 44q-47 -29 -105 -29t-105 29l-44 -44l-67 67l45 44q-29 47 -29 104q0 56 29 103l-45 45l67 67l44 -45q46 30 105 30q56 0 105 -30l44 45l67 -67l-45 -45q29 -47 29 -103q0 -57 -29 -104zM385 310q0 52 -33.5 85.5t-84.5 33.5t-84.5 -33.5
t-33.5 -85.5t33.5 -85.5t84.5 -33.5t84.5 33.5t33.5 85.5z" />
    <glyph glyph-name="yen" unicode="&#xa5;" horiz-adv-x="643" 
d="M270 168h-163v78h163v59h-163v78h115l-192 280v7h116l176 -272l175 272h115v-7l-189 -280h115v-78h-162v-59h162v-78h-162v-168h-106v168z" />
    <glyph glyph-name="brokenbar" unicode="&#xa6;" horiz-adv-x="280" 
d="M191 366h-102v322h102v-322zM191 -146h-102v322h102v-322z" />
    <glyph glyph-name="section" unicode="&#xa7;" horiz-adv-x="473" 
d="M245 597q-35 0 -55 -18t-20 -43q0 -10 2.5 -18.5t9.5 -17.5t12.5 -15t17.5 -14.5t18.5 -12.5t22.5 -14t21 -13l54 -33q51 -31 80 -67t29 -87q0 -94 -90 -137q65 -56 65 -136q0 -69 -50.5 -110t-134.5 -41q-91 0 -154 43v103h7q21 -21 60.5 -37.5t80.5 -16.5q37 0 61.5 15
t24.5 41q0 31 -18.5 52t-74.5 55l-88 54q-89 55 -89 153q0 94 86 135q-58 53 -58 118q0 61 44 107t121 46q83 0 151 -41v-106h-7q-56 56 -129 56zM141 288q0 -38 30 -65.5t91 -60.5l3 -2q34 5 50.5 25.5t16.5 50.5q0 16 -8 31t-16.5 25t-31 25t-33 21t-40.5 23
q-62 -15 -62 -73z" />
    <glyph glyph-name="dieresis" unicode="&#xa8;" horiz-adv-x="456" 
d="M65 619q0 26 17.5 43t42.5 17t42.5 -17t17.5 -43t-17.5 -43t-42.5 -17t-42.5 17t-17.5 43zM271 619q0 26 17.5 43t42.5 17t42.5 -17t17.5 -43t-17.5 -43t-42.5 -17t-42.5 17t-17.5 43z" />
    <glyph glyph-name="copyright" unicode="&#xa9;" horiz-adv-x="837" 
d="M548 243h5v-85q-46 -34 -116 -34q-93 0 -155 59t-62 151t61.5 151.5t155.5 59.5q65 0 114 -32v-83h-6q-40 40 -107 40q-62 0 -99 -38.5t-37 -97.5q0 -57 39 -95.5t96 -38.5q32 0 62.5 12.5t48.5 30.5zM797 332q0 -159 -109.5 -268t-268.5 -109t-269 109t-110 268
q0 158 110 267t269 109q158 0 268 -109t110 -267zM717 332q0 126 -86.5 214t-211.5 88q-126 0 -212.5 -88t-86.5 -214t86.5 -213.5t212.5 -87.5t212 87.5t86 213.5z" />
    <glyph glyph-name="ordfeminine" unicode="&#xaa;" horiz-adv-x="362" 
d="M88 596h-5v65q33 23 93 23q123 0 123 -114v-188h-72v20q-25 -27 -81 -27q-39 0 -71 24.5t-32 71.5q0 48 35 75t90 27q32 0 55 -10v9q0 46 -56 46q-47 0 -79 -22zM178 514q-27 0 -42.5 -11.5t-15.5 -29.5q0 -17 13.5 -27t32.5 -10q33 0 57 24v47q-19 7 -45 7z" />
    <glyph glyph-name="guillemotleft" unicode="&#xab;" horiz-adv-x="544" 
d="M39 250l142 201h105v-7l-137 -194l129 -190v-7h-105zM253 250l142 201h105v-7l-137 -194l129 -190v-7h-105z" />
    <glyph glyph-name="logicalnot" unicode="&#xac;" horiz-adv-x="571" 
d="M503 122h-105v186h-339v92h444v-278z" />
    <glyph glyph-name="uni00AD" unicode="&#xad;" horiz-adv-x="400" 
d="M339 212h-278v92h278v-92z" />
    <glyph glyph-name="registered" unicode="&#xae;" horiz-adv-x="837" 
d="M592 131h-89l-104 155h-48v-155h-78v406h170q66 0 101.5 -36.5t35.5 -90.5q0 -41 -28 -74t-72 -41l112 -159v-5zM351 463v-105h77q73 0 73 52q0 53 -74 53h-76zM797 332q0 -159 -109.5 -268t-268.5 -109t-269 109t-110 268q0 158 110 267t269 109q158 0 268 -109
t110 -267zM717 332q0 126 -86.5 214t-211.5 88q-126 0 -212.5 -88t-86.5 -214t86.5 -213.5t212.5 -87.5t212 87.5t86 213.5z" />
    <glyph glyph-name="macron" unicode="&#xaf;" horiz-adv-x="445" 
d="M380 588h-315v82h315v-82z" />
    <glyph glyph-name="degree" unicode="&#xb0;" horiz-adv-x="364" 
d="M320 540q0 -59 -39.5 -98.5t-98.5 -39.5t-98.5 39.5t-39.5 98.5t39.5 98.5t98.5 39.5t98.5 -39.5t39.5 -98.5zM110 540q0 -34 19.5 -54.5t52.5 -20.5t52.5 20.5t19.5 54.5t-19.5 54.5t-52.5 20.5t-52.5 -20.5t-19.5 -54.5z" />
    <glyph glyph-name="plusminus" unicode="&#xb1;" horiz-adv-x="565" 
d="M507 0h-449v92h449v-92zM332 140h-100v139h-174v92h174v139h100v-139h175v-92h-175v-139z" />
    <glyph glyph-name="twosuperior" unicode="&#xb2;" horiz-adv-x="369" 
d="M157 361h153v-64h-249v52l131 147q36 38 36 68q0 26 -17.5 41t-49.5 15q-28 0 -53 -13.5t-38 -31.5h-6v70q42 39 108 39q55 0 92 -30.5t37 -78.5q0 -24 -9.5 -47t-18.5 -35t-25 -31l-41 -47q-11 -14 -20.5 -24.5t-18 -18t-11.5 -11.5z" />
    <glyph glyph-name="threesuperior" unicode="&#xb3;" horiz-adv-x="350" 
d="M97 467v54l59 58q18 18 32 28q-18 -2 -44 -2h-85v65h225v-40l-90 -92q49 -9 79.5 -41.5t30.5 -81.5q0 -61 -42 -96.5t-104 -35.5q-31 0 -59 9t-40 21v68h6q14 -14 39.5 -23.5t48.5 -9.5q34 0 55.5 20t21.5 47q0 29 -19 48t-58 19q-38 0 -53 -15h-3z" />
    <glyph glyph-name="acute" unicode="&#xb4;" horiz-adv-x="345" 
d="M280 670l-122 -121h-93l78 121h137z" />
    <glyph glyph-name="mu" unicode="&#xb5;" horiz-adv-x="585" 
d="M188 -165h-105v661h105v-307q0 -107 101 -107q32 0 61.5 15t42.5 32v367h105v-496h-95v46q-18 -21 -56.5 -40.5t-80.5 -19.5q-52 0 -78 24v-175z" />
    <glyph glyph-name="paragraph" unicode="&#xb6;" horiz-adv-x="642" 
d="M264 -165v466h-8q-101 0 -163.5 44t-62.5 140q0 90 62 137.5t164 47.5h341v-80h-76v-755h-83v755h-88v-755h-86z" />
    <glyph glyph-name="periodcentered" unicode="&#xb7;" horiz-adv-x="264" 
d="M59 324q0 32 21 52.5t52 20.5t52 -20.5t21 -52.5t-21 -52.5t-52 -20.5t-52 20.5t-21 52.5z" />
    <glyph glyph-name="cedilla" unicode="&#xb8;" horiz-adv-x="307" 
d="M172 -58h79v-152h-186v73h107v79z" />
    <glyph glyph-name="onesuperior" unicode="&#xb9;" horiz-adv-x="264" 
d="M122 578l-80 -50h-5v75l106 67h53v-373h-74v281z" />
    <glyph glyph-name="ordmasculine" unicode="&#xba;" horiz-adv-x="406" 
d="M42 527q0 69 45.5 113t116.5 44q68 0 114 -44t46 -113q0 -70 -46 -114.5t-114 -44.5q-71 0 -116.5 44.5t-45.5 114.5zM121 527q0 -39 23.5 -64t59.5 -25q35 0 58 25.5t23 63.5t-23 62.5t-58 24.5q-37 0 -60 -24.5t-23 -62.5z" />
    <glyph glyph-name="guillemotright" unicode="&#xbb;" horiz-adv-x="544" 
d="M363 451l142 -201l-134 -197h-105v7l129 190l-137 194v7h105zM149 451l142 -201l-134 -197h-105v7l129 190l-137 194v7h105z" />
    <glyph glyph-name="onequarter" unicode="&#xbc;" horiz-adv-x="751" 
d="M438 66v55l150 252h79v-243h50v-64h-50v-66h-68v66h-161zM602 286h-1q-16 -40 -37 -75l-48 -81h83v71q0 42 3 85zM613 665l-399 -665h-84v5l398 665h85v-5zM118 578l-80 -50h-5v75l106 67h53v-373h-74v281z" />
    <glyph glyph-name="onehalf" unicode="&#xbd;" horiz-adv-x="781" 
d="M613 665l-399 -665h-84v5l398 665h85v-5zM589 64h153v-64h-249v52l131 147q36 38 36 68q0 26 -17.5 41t-49.5 15q-28 0 -53 -13.5t-38 -31.5h-6v70q42 39 108 39q55 0 92 -30.5t37 -78.5q0 -24 -9.5 -47t-18.5 -35t-25 -31l-41 -47q-11 -14 -20.5 -24.5t-18 -18
t-11.5 -11.5zM118 578l-80 -50h-5v75l106 67h53v-373h-74v281z" />
    <glyph glyph-name="threequarters" unicode="&#xbe;" horiz-adv-x="780" 
d="M468 66v55l150 252h79v-243h50v-64h-50v-66h-68v66h-161zM644 665l-399 -665h-84v5l398 665h85v-5zM84 467v54l59 58q18 18 32 28q-18 -2 -44 -2h-85v65h225v-40l-90 -92q49 -9 79.5 -41.5t30.5 -81.5q0 -61 -42 -96.5t-104 -35.5q-31 0 -59 9t-40 21v68h6
q14 -14 39.5 -23.5t48.5 -9.5q34 0 55.5 20t21.5 47q0 29 -19 48t-58 19q-38 0 -53 -15h-3zM632 286h-1q-16 -40 -37 -75l-48 -81h83v71q0 42 3 85z" />
    <glyph glyph-name="questiondown" unicode="&#xbf;" horiz-adv-x="442" 
d="M207 123q-71 -54 -71 -109q0 -46 33 -71.5t82 -25.5q45 0 86.5 23t65.5 54h7v-108q-65 -65 -169 -65q-97 0 -154 54.5t-57 137.5q0 32 8.5 58t28.5 49.5t31.5 34.5t39.5 34q51 40 51 111v12h104v-12q0 -59 -17 -98.5t-69 -78.5zM312 441q0 -29 -20.5 -49t-48.5 -20
t-48.5 20t-20.5 49t20.5 49t48.5 20t48.5 -20t20.5 -49z" />
    <glyph glyph-name="Agrave" unicode="&#xc0;" horiz-adv-x="658" 
d="M272 670h116l265 -670h-111l-64 161h-301l-64 -161h-110zM292 462l-79 -208h231l-78 208q-14 36 -36 99h-2zM290 727l-122 121h137l78 -121h-93z" />
    <glyph glyph-name="Aacute" unicode="&#xc1;" horiz-adv-x="658" 
d="M272 670h116l265 -670h-111l-64 161h-301l-64 -161h-110zM292 462l-79 -208h231l-78 208q-14 36 -36 99h-2zM484 848l-122 -121h-93l78 121h137z" />
    <glyph glyph-name="Acircumflex" unicode="&#xc2;" horiz-adv-x="658" 
d="M272 670h116l265 -670h-111l-64 161h-301l-64 -161h-110zM292 462l-79 -208h231l-78 208q-14 36 -36 99h-2zM392 848l94 -121h-93l-64 67l-64 -67h-93l94 121h126z" />
    <glyph glyph-name="Atilde" unicode="&#xc3;" horiz-adv-x="658" 
d="M277 782q-27 0 -27 -38l-67 12q0 47 24 74t64 27q31 0 63 -21.5t47 -21.5q27 0 27 38l67 -12q0 -47 -24 -74t-64 -27q-31 0 -63 21.5t-47 21.5zM272 670h116l265 -670h-111l-64 161h-301l-64 -161h-110zM292 462l-79 -208h231l-78 208q-14 36 -36 99h-2z" />
    <glyph glyph-name="Adieresis" unicode="&#xc4;" horiz-adv-x="658" 
d="M272 670h116l265 -670h-111l-64 161h-301l-64 -161h-110zM292 462l-79 -208h231l-78 208q-14 36 -36 99h-2zM167 797q0 26 17.5 43t42.5 17t42.5 -17t17.5 -43t-17.5 -43t-42.5 -17t-42.5 17t-17.5 43zM373 797q0 26 17.5 43t42.5 17t42.5 -17t17.5 -43t-17.5 -43
t-42.5 -17t-42.5 17t-17.5 43z" />
    <glyph glyph-name="Aring" unicode="&#xc5;" horiz-adv-x="658" 
d="M429 719q0 -43 -33 -71l257 -648h-111l-64 161h-301l-64 -161h-110l260 647q-33 27 -33 72q0 40 28.5 68t70.5 28q41 0 70.5 -28t29.5 -68zM292 462l-79 -208h231l-78 208q-14 36 -36 99h-2zM374 719q0 20 -12.5 33.5t-32.5 13.5t-33 -13.5t-13 -33.5t13 -34t33 -14
t32.5 13.5t12.5 34.5z" />
    <glyph glyph-name="AE" unicode="&#xc6;" horiz-adv-x="931" 
d="M325 670h555v-96h-349v-171h329v-96h-329v-211h354v-96h-461v161h-238l-80 -161h-114zM424 575h-40l-153 -321h193v321z" />
    <glyph glyph-name="Ccedilla" unicode="&#xc7;" horiz-adv-x="633" 
d="M585 149h7v-108q-86 -59 -203 -59q-153 0 -253 100t-100 253q0 152 101 252.5t253 100.5q115 0 197 -54v-107h-7q-76 64 -189 64q-107 0 -176.5 -73.5t-69.5 -182.5q0 -110 68 -182t177 -72q56 0 111.5 20t83.5 48zM349 -58h79v-152h-186v73h107v79z" />
    <glyph glyph-name="Egrave" unicode="&#xc8;" horiz-adv-x="588" 
d="M81 670h456v-96h-349v-172h329v-95h-329v-211h354v-96h-461v670zM286 727l-122 121h137l78 -121h-93z" />
    <glyph glyph-name="Eacute" unicode="&#xc9;" horiz-adv-x="588" 
d="M81 670h456v-96h-349v-172h329v-95h-329v-211h354v-96h-461v670zM453 848l-122 -121h-93l78 121h137z" />
    <glyph glyph-name="Ecircumflex" unicode="&#xca;" horiz-adv-x="588" 
d="M81 670h456v-96h-349v-172h329v-95h-329v-211h354v-96h-461v670zM374 848l94 -121h-93l-64 67l-64 -67h-93l94 121h126z" />
    <glyph glyph-name="Edieresis" unicode="&#xcb;" horiz-adv-x="588" 
d="M81 670h456v-96h-349v-172h329v-95h-329v-211h354v-96h-461v670zM150 797q0 26 17.5 43t42.5 17t42.5 -17t17.5 -43t-17.5 -43t-42.5 -17t-42.5 17t-17.5 43zM356 797q0 26 17.5 43t42.5 17t42.5 -17t17.5 -43t-17.5 -43t-42.5 -17t-42.5 17t-17.5 43z" />
    <glyph glyph-name="Igrave" unicode="&#xcc;" horiz-adv-x="269" 
d="M188 0h-107v670h107v-670zM107 727l-122 121h137l78 -121h-93z" />
    <glyph glyph-name="Iacute" unicode="&#xcd;" horiz-adv-x="269" 
d="M188 0h-107v670h107v-670zM283 848l-122 -121h-93l78 121h137z" />
    <glyph glyph-name="Icircumflex" unicode="&#xce;" horiz-adv-x="269" 
d="M188 0h-107v670h107v-670zM197 848l94 -121h-93l-64 67l-64 -67h-93l94 121h126z" />
    <glyph glyph-name="Idieresis" unicode="&#xcf;" horiz-adv-x="269" 
d="M188 0h-107v670h107v-670zM-28 797q0 26 17.5 43t42.5 17t42.5 -17t17.5 -43t-17.5 -43t-42.5 -17t-42.5 17t-17.5 43zM178 797q0 26 17.5 43t42.5 17t42.5 -17t17.5 -43t-17.5 -43t-42.5 -17t-42.5 17t-17.5 43z" />
    <glyph glyph-name="Eth" unicode="&#xd0;" horiz-adv-x="686" 
d="M5 294v85h90v291h212q89 0 156.5 -29t106.5 -77.5t58 -106.5t19 -122q0 -156 -89 -245.5t-256 -89.5h-207v294h-90zM306 574h-104v-195h161v-85h-161v-198h91q246 0 246 239q0 120 -63 179.5t-170 59.5z" />
    <glyph glyph-name="Ntilde" unicode="&#xd1;" horiz-adv-x="711" 
d="M190 670l262 -398q53 -81 73 -117h1q-3 29 -3 121v394h107v-670h-111l-273 408q-40 59 -60 104h-1q3 -45 3 -104v-408h-107v670h109zM297 784q-13 0 -22 -11.5t-9 -28.5l-72 12q0 43 26 72t67 29q33 0 66 -23q3 -2 10 -7t10.5 -6.5t9 -4.5t11 -4t11.5 -1q13 0 21.5 12
t8.5 29l72 -12q0 -47 -27 -74t-68 -27q-34 0 -69 22q-31 23 -46 23z" />
    <glyph glyph-name="Ograve" unicode="&#xd2;" horiz-adv-x="778" 
d="M389 -18q-151 0 -252.5 101.5t-101.5 251.5t101.5 251.5t252.5 101.5t252.5 -101.5t101.5 -251.5t-101.5 -251.5t-252.5 -101.5zM389 80q105 0 175 74t70 181t-70 181.5t-175 74.5t-175 -74.5t-70 -181.5t70 -181t175 -74zM348 727l-122 121h137l78 -121h-93z" />
    <glyph glyph-name="Oacute" unicode="&#xd3;" horiz-adv-x="778" 
d="M389 -18q-151 0 -252.5 101.5t-101.5 251.5t101.5 251.5t252.5 101.5t252.5 -101.5t101.5 -251.5t-101.5 -251.5t-252.5 -101.5zM389 80q105 0 175 74t70 181t-70 181.5t-175 74.5t-175 -74.5t-70 -181.5t70 -181t175 -74zM548 848l-122 -121h-93l78 121h137z" />
    <glyph glyph-name="Ocircumflex" unicode="&#xd4;" horiz-adv-x="778" 
d="M389 -18q-151 0 -252.5 101.5t-101.5 251.5t101.5 251.5t252.5 101.5t252.5 -101.5t101.5 -251.5t-101.5 -251.5t-252.5 -101.5zM389 80q105 0 175 74t70 181t-70 181.5t-175 74.5t-175 -74.5t-70 -181.5t70 -181t175 -74zM452 848l94 -121h-93l-64 67l-64 -67h-93
l94 121h126z" />
    <glyph glyph-name="Otilde" unicode="&#xd5;" horiz-adv-x="778" 
d="M389 -18q-151 0 -252.5 101.5t-101.5 251.5t101.5 251.5t252.5 101.5t252.5 -101.5t101.5 -251.5t-101.5 -251.5t-252.5 -101.5zM389 80q105 0 175 74t70 181t-70 181.5t-175 74.5t-175 -74.5t-70 -181.5t70 -181t175 -74zM337 784q-13 0 -22 -11.5t-9 -28.5l-72 12
q0 43 26 72t67 29q33 0 66 -23q3 -2 10 -7t10.5 -6.5t9 -4.5t11 -4t11.5 -1q13 0 21.5 12t8.5 29l72 -12q0 -47 -27 -74t-68 -27q-34 0 -69 22q-31 23 -46 23z" />
    <glyph glyph-name="Odieresis" unicode="&#xd6;" horiz-adv-x="778" 
d="M389 -18q-151 0 -252.5 101.5t-101.5 251.5t101.5 251.5t252.5 101.5t252.5 -101.5t101.5 -251.5t-101.5 -251.5t-252.5 -101.5zM389 80q105 0 175 74t70 181t-70 181.5t-175 74.5t-175 -74.5t-70 -181.5t70 -181t175 -74zM226 797q0 26 17.5 43t42.5 17t42.5 -17
t17.5 -43t-17.5 -43t-42.5 -17t-42.5 17t-17.5 43zM432 797q0 26 17.5 43t42.5 17t42.5 -17t17.5 -43t-17.5 -43t-42.5 -17t-42.5 17t-17.5 43z" />
    <glyph glyph-name="multiply" unicode="&#xd7;" horiz-adv-x="563" 
d="M281 326l170 170l68 -68l-170 -170l171 -171l-68 -67l-171 171l-171 -171l-67 67l171 171l-170 170l68 68z" />
    <glyph glyph-name="Oslash" unicode="&#xd8;" horiz-adv-x="778" 
d="M389 -18q-108 0 -190 52l-56 -63l-67 61l53 59q-94 100 -94 244q0 150 101.5 251.5t252.5 101.5q119 0 210 -66l55 63l67 -61l-56 -64q78 -96 78 -225q0 -150 -101.5 -251.5t-252.5 -101.5zM389 591q-105 0 -175 -74.5t-70 -181.5q0 -95 55 -164l331 374q-62 46 -141 46z
M389 80q105 0 175 74t70 181q0 82 -41 144l-325 -367q53 -32 121 -32z" />
    <glyph glyph-name="Ugrave" unicode="&#xd9;" horiz-adv-x="662" 
d="M313 727l-122 121h137l78 -121h-93zM74 229v441h107v-442q0 -71 40.5 -109.5t109.5 -38.5t109.5 38.5t40.5 109.5v442h107v-441q0 -120 -70 -183.5t-187 -63.5t-187 63.5t-70 183.5z" />
    <glyph glyph-name="Uacute" unicode="&#xda;" horiz-adv-x="662" 
d="M74 229v441h107v-442q0 -71 40.5 -109.5t109.5 -38.5t109.5 38.5t40.5 109.5v442h107v-441q0 -120 -70 -183.5t-187 -63.5t-187 63.5t-70 183.5zM477 848l-122 -121h-93l78 121h137z" />
    <glyph glyph-name="Ucircumflex" unicode="&#xdb;" horiz-adv-x="662" 
d="M74 229v441h107v-442q0 -71 40.5 -109.5t109.5 -38.5t109.5 38.5t40.5 109.5v442h107v-441q0 -120 -70 -183.5t-187 -63.5t-187 63.5t-70 183.5zM394 848l94 -121h-93l-64 67l-64 -67h-93l94 121h126z" />
    <glyph glyph-name="Udieresis" unicode="&#xdc;" horiz-adv-x="662" 
d="M74 229v441h107v-442q0 -71 40.5 -109.5t109.5 -38.5t109.5 38.5t40.5 109.5v442h107v-441q0 -120 -70 -183.5t-187 -63.5t-187 63.5t-70 183.5zM168 797q0 26 17.5 43t42.5 17t42.5 -17t17.5 -43t-17.5 -43t-42.5 -17t-42.5 17t-17.5 43zM374 797q0 26 17.5 43t42.5 17
t42.5 -17t17.5 -43t-17.5 -43t-42.5 -17t-42.5 17t-17.5 43z" />
    <glyph glyph-name="Yacute" unicode="&#xdd;" horiz-adv-x="609" 
d="M450 848l-122 -121h-93l78 121h137zM595 670v-7l-236 -361v-302h-107v301l-240 362v7h117l176 -272l175 272h115z" />
    <glyph glyph-name="Thorn" unicode="&#xde;" horiz-adv-x="606" 
d="M186 0h-105v670h105v-106h165q102 0 166 -57.5t64 -160.5q0 -105 -64.5 -163.5t-164.5 -58.5h-166v-124zM186 216h151q66 0 102.5 33.5t36.5 95.5t-36.5 94.5t-103.5 32.5h-150v-256z" />
    <glyph glyph-name="germandbls" unicode="&#xdf;" horiz-adv-x="555" 
d="M295 78q53 0 85.5 34.5t32.5 79.5q0 52 -32.5 83t-87.5 31h-56v96h47q47 0 74 28t27 74q0 41 -27.5 65t-72.5 24q-47 0 -79 -33.5t-32 -96.5v-463h-105v468q0 100 59 160t157 60q94 0 149 -54t55 -128q0 -93 -78 -144v-1q41 -17 74 -61t33 -109q0 -90 -58.5 -148
t-154.5 -58q-50 0 -83 12v94h10q28 -13 63 -13z" />
    <glyph glyph-name="agrave" unicode="&#xe0;" horiz-adv-x="514" 
d="M93 372h-7v95q19 14 64.5 28.5t94.5 14.5q92 0 148.5 -45.5t56.5 -130.5v-334h-95v40q-18 -20 -55.5 -37t-87.5 -17q-77 0 -128 43.5t-51 117.5q0 77 61 121.5t152 44.5q60 0 99 -17v28q0 94 -111 94q-42 0 -80.5 -13.5t-60.5 -32.5zM264 233q-55 0 -90 -22t-35 -61
q0 -38 28 -57.5t72 -19.5q66 0 106 44v101q-24 15 -81 15zM223 549l-122 121h137l78 -121h-93z" />
    <glyph glyph-name="aacute" unicode="&#xe1;" horiz-adv-x="514" 
d="M397 670l-122 -121h-93l78 121h137zM93 372h-7v95q19 14 64.5 28.5t94.5 14.5q92 0 148.5 -45.5t56.5 -130.5v-334h-95v40q-18 -20 -55.5 -37t-87.5 -17q-77 0 -128 43.5t-51 117.5q0 77 61 121.5t152 44.5q60 0 99 -17v28q0 94 -111 94q-42 0 -80.5 -13.5t-60.5 -32.5z
M264 233q-55 0 -90 -22t-35 -61q0 -38 28 -57.5t72 -19.5q66 0 106 44v101q-24 15 -81 15z" />
    <glyph glyph-name="acircumflex" unicode="&#xe2;" horiz-adv-x="514" 
d="M319 670l94 -121h-93l-64 67l-64 -67h-93l94 121h126zM93 372h-7v95q19 14 64.5 28.5t94.5 14.5q92 0 148.5 -45.5t56.5 -130.5v-334h-95v40q-18 -20 -55.5 -37t-87.5 -17q-77 0 -128 43.5t-51 117.5q0 77 61 121.5t152 44.5q60 0 99 -17v28q0 94 -111 94
q-42 0 -80.5 -13.5t-60.5 -32.5zM264 233q-55 0 -90 -22t-35 -61q0 -38 28 -57.5t72 -19.5q66 0 106 44v101q-24 15 -81 15z" />
    <glyph glyph-name="atilde" unicode="&#xe3;" horiz-adv-x="514" 
d="M93 372h-7v95q19 14 64.5 28.5t94.5 14.5q92 0 148.5 -45.5t56.5 -130.5v-334h-95v40q-18 -20 -55.5 -37t-87.5 -17q-77 0 -128 43.5t-51 117.5q0 77 61 121.5t152 44.5q60 0 99 -17v28q0 94 -111 94q-42 0 -80.5 -13.5t-60.5 -32.5zM264 233q-55 0 -90 -22t-35 -61
q0 -38 28 -57.5t72 -19.5q66 0 106 44v101q-24 15 -81 15zM202 604q-27 0 -27 -38l-67 12q0 47 24 74t64 27q31 0 63 -21.5t47 -21.5q27 0 27 38l67 -12q0 -47 -24 -74t-64 -27q-31 0 -63 21.5t-47 21.5z" />
    <glyph glyph-name="adieresis" unicode="&#xe4;" horiz-adv-x="514" 
d="M93 372h-7v95q19 14 64.5 28.5t94.5 14.5q92 0 148.5 -45.5t56.5 -130.5v-334h-95v40q-18 -20 -55.5 -37t-87.5 -17q-77 0 -128 43.5t-51 117.5q0 77 61 121.5t152 44.5q60 0 99 -17v28q0 94 -111 94q-42 0 -80.5 -13.5t-60.5 -32.5zM264 233q-55 0 -90 -22t-35 -61
q0 -38 28 -57.5t72 -19.5q66 0 106 44v101q-24 15 -81 15zM91 619q0 26 17.5 43t42.5 17t42.5 -17t17.5 -43t-17.5 -43t-42.5 -17t-42.5 17t-17.5 43zM297 619q0 26 17.5 43t42.5 17t42.5 -17t17.5 -43t-17.5 -43t-42.5 -17t-42.5 17t-17.5 43z" />
    <glyph glyph-name="aring" unicode="&#xe5;" horiz-adv-x="514" 
d="M93 372h-7v95q19 14 64.5 28.5t94.5 14.5q92 0 148.5 -45.5t56.5 -130.5v-334h-95v40q-18 -20 -55.5 -37t-87.5 -17q-77 0 -128 43.5t-51 117.5q0 77 61 121.5t152 44.5q60 0 99 -17v28q0 94 -111 94q-42 0 -80.5 -13.5t-60.5 -32.5zM264 233q-55 0 -90 -22t-35 -61
q0 -38 28 -57.5t72 -19.5q66 0 106 44v101q-24 15 -81 15zM356 630q0 -40 -29.5 -68t-70.5 -28q-42 0 -70.5 28t-28.5 68t28.5 68t70.5 28q41 0 70.5 -28t29.5 -68zM301 630q0 20 -12.5 33.5t-32.5 13.5t-33 -13.5t-13 -33.5t13 -34t33 -14t32.5 13.5t12.5 34.5z" />
    <glyph glyph-name="ae" unicode="&#xe6;" horiz-adv-x="832" 
d="M798 205h-356q3 -56 45.5 -91t116.5 -35q101 0 158 50h7v-98q-64 -45 -172 -45q-122 0 -192 76q-67 -76 -191 -76q-77 0 -129 43.5t-52 117.5q0 77 61 121.5t152 44.5q60 0 99 -17v28q0 94 -111 94q-42 0 -80.5 -13.5t-60.5 -32.5h-7v95q19 14 64.5 28.5t94.5 14.5
q117 0 165 -74q65 74 164 74q105 0 165.5 -72.5t60.5 -196.5q0 -8 -2 -36zM264 233q-55 0 -90 -22t-35 -61q0 -38 28 -57.5t72 -19.5q66 0 106 44v101q-24 15 -81 15zM442 290h254q-2 58 -34 93.5t-88 35.5q-54 0 -90 -37.5t-42 -91.5z" />
    <glyph glyph-name="ccedilla" unicode="&#xe7;" horiz-adv-x="492" 
d="M446 125h7v-100q-68 -39 -156 -39q-114 0 -187.5 73t-73.5 190q0 110 74.5 185.5t187.5 75.5q86 0 149 -36v-100h-7q-50 41 -136 41q-69 0 -115.5 -44.5t-46.5 -121.5q0 -82 47 -124.5t118 -42.5q88 0 139 43zM257 -58h79v-152h-186v73h107v79z" />
    <glyph glyph-name="egrave" unicode="&#xe8;" horiz-adv-x="531" 
d="M243 549l-122 121h137l78 -121h-93zM497 205h-356q3 -55 46 -90.5t116 -35.5q99 0 158 50h7v-98q-64 -45 -172 -45q-117 0 -188.5 70t-71.5 190q0 114 69 189t168 75q105 0 165.5 -72.5t60.5 -196.5zM141 290h254q-2 58 -34.5 93.5t-87.5 35.5q-54 0 -90.5 -38t-41.5 -91
z" />
    <glyph glyph-name="eacute" unicode="&#xe9;" horiz-adv-x="531" 
d="M425 670l-122 -121h-93l78 121h137zM498 205h-356q3 -55 46 -90.5t116 -35.5q99 0 158 50h7v-98q-64 -45 -172 -45q-117 0 -188.5 70t-71.5 190q0 114 69 189t168 75q105 0 165.5 -72.5t60.5 -196.5zM142 290h254q-2 58 -34.5 93.5t-87.5 35.5q-54 0 -90.5 -38t-41.5 -91
z" />
    <glyph glyph-name="ecircumflex" unicode="&#xea;" horiz-adv-x="531" 
d="M340 670l94 -121h-93l-64 67l-64 -67h-93l94 121h126zM498 205h-356q3 -55 46 -90.5t116 -35.5q99 0 158 50h7v-98q-64 -45 -172 -45q-117 0 -188.5 70t-71.5 190q0 114 69 189t168 75q105 0 165.5 -72.5t60.5 -196.5zM142 290h254q-2 58 -34.5 93.5t-87.5 35.5
q-54 0 -90.5 -38t-41.5 -91z" />
    <glyph glyph-name="edieresis" unicode="&#xeb;" horiz-adv-x="531" 
d="M113 619q0 26 17.5 43t42.5 17t42.5 -17t17.5 -43t-17.5 -43t-42.5 -17t-42.5 17t-17.5 43zM319 619q0 26 17.5 43t42.5 17t42.5 -17t17.5 -43t-17.5 -43t-42.5 -17t-42.5 17t-17.5 43zM498 205h-356q3 -55 46 -90.5t116 -35.5q99 0 158 50h7v-98q-64 -45 -172 -45
q-117 0 -188.5 70t-71.5 190q0 114 69 189t168 75q105 0 165.5 -72.5t60.5 -196.5zM142 290h254q-2 58 -34.5 93.5t-87.5 35.5q-54 0 -90.5 -38t-41.5 -91z" />
    <glyph glyph-name="igrave" unicode="&#xec;" horiz-adv-x="243" 
d="M174 0h-105v496h105v-496zM93 549l-122 121h137l78 -121h-93z" />
    <glyph glyph-name="iacute" unicode="&#xed;" horiz-adv-x="243" 
d="M174 0h-105v496h105v-496zM272 670l-122 -121h-93l78 121h137z" />
    <glyph glyph-name="icircumflex" unicode="&#xee;" horiz-adv-x="243" 
d="M174 0h-105v496h105v-496zM185 670l94 -121h-93l-64 67l-64 -67h-93l94 121h126z" />
    <glyph glyph-name="idieresis" unicode="&#xef;" horiz-adv-x="243" 
d="M174 0h-105v496h105v-496zM-41 619q0 26 17.5 43t42.5 17t42.5 -17t17.5 -43t-17.5 -43t-42.5 -17t-42.5 17t-17.5 43zM165 619q0 26 17.5 43t42.5 17t42.5 -17t17.5 -43t-17.5 -43t-42.5 -17t-42.5 17t-17.5 43z" />
    <glyph glyph-name="eth" unicode="&#xf0;" horiz-adv-x="587" 
d="M257 537l-129 -49l-26 69l108 41l-45 61v11h121l25 -33l93 36l27 -69l-74 -28l100 -132q95 -116 95 -206q0 -109 -72.5 -180.5t-184.5 -71.5t-185.5 71.5t-73.5 180.5q0 103 67 173t165 70q26 0 33 -2zM142 238q0 -69 43.5 -114.5t109.5 -45.5t108.5 45.5t42.5 114.5
q0 37 -26 77.5t-55 69.5q-27 13 -66 13q-66 0 -111.5 -45.5t-45.5 -114.5z" />
    <glyph glyph-name="ntilde" unicode="&#xf1;" 
d="M174 367v-367h-105v496h95v-46q19 21 58 40.5t82 19.5q88 0 136 -49.5t48 -141.5v-319h-105v309q0 52 -27 79.5t-78 27.5q-30 0 -61.5 -16.5t-42.5 -32.5zM220 606q-13 0 -22 -11.5t-9 -28.5l-72 12q0 43 26 72t67 29q33 0 66 -23q3 -2 10 -7t10.5 -6.5t9 -4.5t11 -4
t11.5 -1q13 0 21.5 12t8.5 29l72 -12q0 -47 -27 -74t-68 -27q-34 0 -69 22q-31 23 -46 23z" />
    <glyph glyph-name="ograve" unicode="&#xf2;" horiz-adv-x="592" 
d="M258 549l-122 121h137l78 -121h-93zM35 248q0 112 75.5 187t185.5 75q111 0 186 -74.5t75 -187.5t-75 -187.5t-186 -74.5t-186 74.5t-75 187.5zM141 248q0 -72 43 -119t112 -47q68 0 111.5 47.5t43.5 118.5t-43.5 119t-111.5 48q-70 0 -112.5 -47t-42.5 -120z" />
    <glyph glyph-name="oacute" unicode="&#xf3;" horiz-adv-x="592" 
d="M35 248q0 112 75.5 187t185.5 75q111 0 186 -74.5t75 -187.5t-75 -187.5t-186 -74.5t-186 74.5t-75 187.5zM141 248q0 -72 43 -119t112 -47q68 0 111.5 47.5t43.5 118.5t-43.5 119t-111.5 48q-70 0 -112.5 -47t-42.5 -120zM446 670l-122 -121h-93l78 121h137z" />
    <glyph glyph-name="ocircumflex" unicode="&#xf4;" horiz-adv-x="592" 
d="M35 248q0 112 75.5 187t185.5 75q111 0 186 -74.5t75 -187.5t-75 -187.5t-186 -74.5t-186 74.5t-75 187.5zM141 248q0 -72 43 -119t112 -47q68 0 111.5 47.5t43.5 118.5t-43.5 119t-111.5 48q-70 0 -112.5 -47t-42.5 -120zM359 670l94 -121h-93l-64 67l-64 -67h-93
l94 121h126z" />
    <glyph glyph-name="otilde" unicode="&#xf5;" horiz-adv-x="592" 
d="M35 248q0 112 75.5 187t185.5 75q111 0 186 -74.5t75 -187.5t-75 -187.5t-186 -74.5t-186 74.5t-75 187.5zM141 248q0 -72 43 -119t112 -47q68 0 111.5 47.5t43.5 118.5t-43.5 119t-111.5 48q-70 0 -112.5 -47t-42.5 -120zM243 606q-13 0 -22 -11.5t-9 -28.5l-72 12
q0 43 26 72t67 29q33 0 66 -23q3 -2 10 -7t10.5 -6.5t9 -4.5t11 -4t11.5 -1q13 0 21.5 12t8.5 29l72 -12q0 -47 -27 -74t-68 -27q-34 0 -69 22q-31 23 -46 23z" />
    <glyph glyph-name="odieresis" unicode="&#xf6;" horiz-adv-x="592" 
d="M35 248q0 112 75.5 187t185.5 75q111 0 186 -74.5t75 -187.5t-75 -187.5t-186 -74.5t-186 74.5t-75 187.5zM141 248q0 -72 43 -119t112 -47q68 0 111.5 47.5t43.5 118.5t-43.5 119t-111.5 48q-70 0 -112.5 -47t-42.5 -120zM133 619q0 26 17.5 43t42.5 17t42.5 -17
t17.5 -43t-17.5 -43t-42.5 -17t-42.5 17t-17.5 43zM339 619q0 26 17.5 43t42.5 17t42.5 -17t17.5 -43t-17.5 -43t-42.5 -17t-42.5 17t-17.5 43z" />
    <glyph glyph-name="divide" unicode="&#xf7;" horiz-adv-x="555" 
d="M206 73q0 32 21 52.5t52 20.5t52 -20.5t21 -52.5t-21 -52.5t-52 -20.5t-52 20.5t-21 52.5zM206 437q0 32 21 52.5t52 20.5t52 -20.5t21 -52.5t-21 -52.5t-52 -20.5t-52 20.5t-21 52.5zM508 212h-461v92h461v-92z" />
    <glyph glyph-name="oslash" unicode="&#xf8;" horiz-adv-x="592" 
d="M35 248q0 112 75.5 187t185.5 75q77 0 141 -39l34 40l63 -54l-35 -41q58 -73 58 -168q0 -113 -75 -187.5t-186 -74.5q-70 0 -131 33l-38 -45l-63 54l36 43q-65 71 -65 177zM141 248q0 -56 26 -97l206 244q-35 20 -77 20q-70 0 -112.5 -47t-42.5 -120zM296 82
q68 0 111.5 47.5t43.5 118.5q0 46 -21 86l-201 -239q27 -13 67 -13z" />
    <glyph glyph-name="ugrave" unicode="&#xf9;" horiz-adv-x="548" 
d="M374 129v367h105v-496h-95v46q-19 -21 -58 -40.5t-82 -19.5q-80 0 -130 50t-50 137v323h105v-307q0 -107 101 -107q32 0 61.5 15t42.5 32zM246 549l-122 121h137l78 -121h-93z" />
    <glyph glyph-name="uacute" unicode="&#xfa;" horiz-adv-x="548" 
d="M374 129v367h105v-496h-95v46q-19 -21 -58 -40.5t-82 -19.5q-80 0 -130 50t-50 137v323h105v-307q0 -107 101 -107q32 0 61.5 15t42.5 32zM422 670l-122 -121h-93l78 121h137z" />
    <glyph glyph-name="ucircumflex" unicode="&#xfb;" horiz-adv-x="548" 
d="M337 670l94 -121h-93l-64 67l-64 -67h-93l94 121h126zM374 129v367h105v-496h-95v46q-19 -21 -58 -40.5t-82 -19.5q-80 0 -130 50t-50 137v323h105v-307q0 -107 101 -107q32 0 61.5 15t42.5 32z" />
    <glyph glyph-name="udieresis" unicode="&#xfc;" horiz-adv-x="548" 
d="M374 129v367h105v-496h-95v46q-19 -21 -58 -40.5t-82 -19.5q-80 0 -130 50t-50 137v323h105v-307q0 -107 101 -107q32 0 61.5 15t42.5 32zM115 619q0 26 17.5 43t42.5 17t42.5 -17t17.5 -43t-17.5 -43t-42.5 -17t-42.5 17t-17.5 43zM321 619q0 26 17.5 43t42.5 17
t42.5 -17t17.5 -43t-17.5 -43t-42.5 -17t-42.5 17t-17.5 43z" />
    <glyph glyph-name="yacute" unicode="&#xfd;" horiz-adv-x="534" 
d="M416 670l-122 -121h-93l78 121h137zM136 -165l81 194l-198 467h109l106 -267q11 -28 18.5 -48.5t10.5 -28.5l6 -16h1q16 38 36 93l100 267h111l-275 -661h-106z" />
    <glyph glyph-name="thorn" unicode="&#xfe;" horiz-adv-x="601" 
d="M315 -14q-86 0 -141 47v-198h-105v835h105v-206q56 46 141 46q106 0 178 -73t72 -187q0 -115 -73.5 -189.5t-176.5 -74.5zM296 80q72 0 117.5 47.5t45.5 121.5q0 75 -44 121t-119 46q-76 0 -122 -48v-243q17 -18 50 -31.5t72 -13.5z" />
    <glyph glyph-name="ydieresis" unicode="&#xff;" horiz-adv-x="534" 
d="M136 -165l81 194l-198 467h109l106 -267q11 -28 18.5 -48.5t10.5 -28.5l6 -16h1q16 38 36 93l100 267h111l-275 -661h-106zM107 619q0 26 17.5 43t42.5 17t42.5 -17t17.5 -43t-17.5 -43t-42.5 -17t-42.5 17t-17.5 43zM313 619q0 26 17.5 43t42.5 17t42.5 -17t17.5 -43
t-17.5 -43t-42.5 -17t-42.5 17t-17.5 43z" />
    <glyph glyph-name="Amacron" unicode="&#x100;" horiz-adv-x="658" 
d="M272 670h116l265 -670h-111l-64 161h-301l-64 -161h-110zM292 462l-79 -208h231l-78 208q-14 36 -36 99h-2zM486 766h-315v82h315v-82z" />
    <glyph glyph-name="amacron" unicode="&#x101;" horiz-adv-x="514" 
d="M93 372h-7v95q19 14 64.5 28.5t94.5 14.5q92 0 148.5 -45.5t56.5 -130.5v-334h-95v40q-18 -20 -55.5 -37t-87.5 -17q-77 0 -128 43.5t-51 117.5q0 77 61 121.5t152 44.5q60 0 99 -17v28q0 94 -111 94q-42 0 -80.5 -13.5t-60.5 -32.5zM264 233q-55 0 -90 -22t-35 -61
q0 -38 28 -57.5t72 -19.5q66 0 106 44v101q-24 15 -81 15zM412 588h-315v82h315v-82z" />
    <glyph glyph-name="Abreve" unicode="&#x102;" horiz-adv-x="658" 
d="M272 670h116l265 -670h-111l-64 161h-301l-64 -161h-110zM292 462l-79 -208h231l-78 208q-14 36 -36 99h-2zM328 723q-62 0 -106 33.5t-50 91.5h87q3 -19 22.5 -37t46.5 -18q32 0 49 17t20 38h87q-6 -58 -50 -91.5t-106 -33.5z" />
    <glyph glyph-name="abreve" unicode="&#x103;" horiz-adv-x="514" 
d="M93 372h-7v95q19 14 64.5 28.5t94.5 14.5q92 0 148.5 -45.5t56.5 -130.5v-334h-95v40q-18 -20 -55.5 -37t-87.5 -17q-77 0 -128 43.5t-51 117.5q0 77 61 121.5t152 44.5q60 0 99 -17v28q0 94 -111 94q-42 0 -80.5 -13.5t-60.5 -32.5zM264 233q-55 0 -90 -22t-35 -61
q0 -38 28 -57.5t72 -19.5q66 0 106 44v101q-24 15 -81 15zM262 545q-62 0 -106 33.5t-50 91.5h87q3 -19 22.5 -37t46.5 -18q32 0 49 17t20 38h87q-6 -58 -50 -91.5t-106 -33.5z" />
    <glyph glyph-name="Aogonek" unicode="&#x104;" horiz-adv-x="658" 
d="M656 -128h3v-79q-18 -8 -48 -8q-49 0 -81 30t-32 83q0 57 43 102l-63 161h-301l-64 -161h-110l269 670h116l265 -670h-23q-44 -41 -44 -87q0 -21 12 -33t33 -12q14 0 25 4zM292 462l-79 -208h231l-78 208q-14 36 -36 99h-2z" />
    <glyph glyph-name="aogonek" unicode="&#x105;" horiz-adv-x="514" 
d="M468 -128h3v-79q-18 -8 -48 -8q-49 0 -81 30t-32 83q0 55 45 104v38q-18 -20 -55.5 -37t-87.5 -17q-77 0 -128 43.5t-51 117.5q0 77 61 121.5t152 44.5q60 0 99 -17v28q0 94 -111 94q-42 0 -80.5 -13.5t-60.5 -32.5h-7v95q19 14 64.5 28.5t94.5 14.5q92 0 148.5 -45.5
t56.5 -130.5v-334h-8q-44 -41 -44 -87q0 -21 12 -33t33 -12q14 0 25 4zM264 233q-55 0 -90 -22t-35 -61q0 -38 28 -57.5t72 -19.5q66 0 106 44v101q-24 15 -81 15z" />
    <glyph glyph-name="Cacute" unicode="&#x106;" horiz-adv-x="633" 
d="M529 848l-122 -121h-93l78 121h137zM585 149h7v-108q-86 -59 -203 -59q-153 0 -253 100t-100 253q0 152 101 252.5t253 100.5q115 0 197 -54v-107h-7q-76 64 -189 64q-107 0 -176.5 -73.5t-69.5 -182.5q0 -110 68 -182t177 -72q56 0 111.5 20t83.5 48z" />
    <glyph glyph-name="cacute" unicode="&#x107;" horiz-adv-x="492" 
d="M446 125h7v-100q-68 -39 -156 -39q-114 0 -187.5 73t-73.5 190q0 110 74.5 185.5t187.5 75.5q86 0 149 -36v-100h-7q-50 41 -136 41q-69 0 -115.5 -44.5t-46.5 -121.5q0 -82 47 -124.5t118 -42.5q88 0 139 43zM435 670l-122 -121h-93l78 121h137z" />
    <glyph glyph-name="Ccircumflex" unicode="&#x108;" horiz-adv-x="633" 
d="M435 848l94 -121h-93l-64 67l-64 -67h-93l94 121h126zM585 149h7v-108q-86 -59 -203 -59q-153 0 -253 100t-100 253q0 152 101 252.5t253 100.5q115 0 197 -54v-107h-7q-76 64 -189 64q-107 0 -176.5 -73.5t-69.5 -182.5q0 -110 68 -182t177 -72q56 0 111.5 20t83.5 48z
" />
    <glyph glyph-name="ccircumflex" unicode="&#x109;" horiz-adv-x="492" 
d="M446 125h7v-100q-68 -39 -156 -39q-114 0 -187.5 73t-73.5 190q0 110 74.5 185.5t187.5 75.5q86 0 149 -36v-100h-7q-50 41 -136 41q-69 0 -115.5 -44.5t-46.5 -121.5q0 -82 47 -124.5t118 -42.5q88 0 139 43zM343 670l94 -121h-93l-64 67l-64 -67h-93l94 121h126z" />
    <glyph glyph-name="Cdotaccent" unicode="&#x10a;" horiz-adv-x="633" 
d="M308 794q0 27 18 45t45 18t45 -18t18 -45t-18 -45t-45 -18t-45 18t-18 45zM585 149h7v-108q-86 -59 -203 -59q-153 0 -253 100t-100 253q0 152 101 252.5t253 100.5q115 0 197 -54v-107h-7q-76 64 -189 64q-107 0 -176.5 -73.5t-69.5 -182.5q0 -110 68 -182t177 -72
q56 0 111.5 20t83.5 48z" />
    <glyph glyph-name="cdotaccent" unicode="&#x10b;" horiz-adv-x="492" 
d="M446 125h7v-100q-68 -39 -156 -39q-114 0 -187.5 73t-73.5 190q0 110 74.5 185.5t187.5 75.5q86 0 149 -36v-100h-7q-50 41 -136 41q-69 0 -115.5 -44.5t-46.5 -121.5q0 -82 47 -124.5t118 -42.5q88 0 139 43zM219 616q0 27 18 45t45 18t45 -18t18 -45t-18 -45t-45 -18
t-45 18t-18 45z" />
    <glyph glyph-name="Ccaron" unicode="&#x10c;" horiz-adv-x="633" 
d="M585 149h7v-108q-86 -59 -203 -59q-153 0 -253 100t-100 253q0 152 101 252.5t253 100.5q115 0 197 -54v-107h-7q-76 64 -189 64q-107 0 -176.5 -73.5t-69.5 -182.5q0 -110 68 -182t177 -72q56 0 111.5 20t83.5 48zM524 848l-94 -121h-126l-94 121h93l64 -67l64 67h93z
" />
    <glyph glyph-name="ccaron" unicode="&#x10d;" horiz-adv-x="492" 
d="M446 125h7v-100q-68 -39 -156 -39q-114 0 -187.5 73t-73.5 190q0 110 74.5 185.5t187.5 75.5q86 0 149 -36v-100h-7q-50 41 -136 41q-69 0 -115.5 -44.5t-46.5 -121.5q0 -82 47 -124.5t118 -42.5q88 0 139 43zM440 670l-94 -121h-126l-94 121h93l64 -67l64 67h93z" />
    <glyph glyph-name="Dcaron" unicode="&#x10e;" horiz-adv-x="672" 
d="M81 670h212q89 0 156.5 -29t106.5 -77.5t58 -106.5t19 -122q0 -156 -89 -245.5t-256 -89.5h-207v670zM292 574h-104v-478h91q246 0 246 239q0 120 -63 179.5t-170 59.5zM460 848l-94 -121h-126l-94 121h93l64 -67l64 67h93z" />
    <glyph glyph-name="dcaron" unicode="&#x10f;" horiz-adv-x="604" 
d="M286 -14q-106 0 -178 73t-72 187q0 115 73.5 189.5t176.5 74.5q85 0 141 -46v206h105v-670h-95v41q-55 -55 -151 -55zM303 80q81 0 124 45v243q-46 48 -122 48q-72 0 -117.5 -47.5t-45.5 -121.5q0 -76 43.5 -121.5t117.5 -45.5zM658 549h-86l42 121h114z" />
    <glyph glyph-name="Dcroat" unicode="&#x110;" horiz-adv-x="686" 
d="M5 294v85h90v291h212q89 0 156.5 -29t106.5 -77.5t58 -106.5t19 -122q0 -156 -89 -245.5t-256 -89.5h-207v294h-90zM306 574h-104v-195h161v-85h-161v-198h91q246 0 246 239q0 120 -63 179.5t-170 59.5z" />
    <glyph glyph-name="dcroat" unicode="&#x111;" horiz-adv-x="601" 
d="M286 -14q-106 0 -178 73t-72 187q0 115 73.5 189.5t176.5 74.5q85 0 141 -46v81h-144v75h144v50h105v-50h90v-75h-90v-545h-95v41q-55 -55 -151 -55zM303 80q81 0 124 45v243q-46 48 -122 48q-72 0 -117.5 -47.5t-45.5 -121.5q0 -76 43.5 -121.5t117.5 -45.5z" />
    <glyph glyph-name="Emacron" unicode="&#x112;" horiz-adv-x="588" 
d="M467 766h-315v82h315v-82zM81 670h456v-96h-349v-172h329v-95h-329v-211h354v-96h-461v670z" />
    <glyph glyph-name="emacron" unicode="&#x113;" horiz-adv-x="531" 
d="M431 588h-315v82h315v-82zM497 205h-356q3 -55 46 -90.5t116 -35.5q99 0 158 50h7v-98q-64 -45 -172 -45q-117 0 -188.5 70t-71.5 190q0 114 69 189t168 75q105 0 165.5 -72.5t60.5 -196.5zM141 290h254q-2 58 -34.5 93.5t-87.5 35.5q-54 0 -90.5 -38t-41.5 -91z" />
    <glyph glyph-name="Ebreve" unicode="&#x114;" horiz-adv-x="588" 
d="M320 723q-62 0 -106 33.5t-50 91.5h87q3 -19 22.5 -37t46.5 -18q32 0 49 17t20 38h87q-6 -58 -50 -91.5t-106 -33.5zM81 670h456v-96h-349v-172h329v-95h-329v-211h354v-96h-461v670z" />
    <glyph glyph-name="ebreve" unicode="&#x115;" horiz-adv-x="531" 
d="M275 545q-62 0 -106 33.5t-50 91.5h87q3 -19 22.5 -37t46.5 -18q32 0 49 17t20 38h87q-6 -58 -50 -91.5t-106 -33.5zM497 205h-356q3 -55 46 -90.5t116 -35.5q99 0 158 50h7v-98q-64 -45 -172 -45q-117 0 -188.5 70t-71.5 190q0 114 69 189t168 75q105 0 165.5 -72.5
t60.5 -196.5zM141 290h254q-2 58 -34.5 93.5t-87.5 35.5q-54 0 -90.5 -38t-41.5 -91z" />
    <glyph glyph-name="Edotaccent" unicode="&#x116;" horiz-adv-x="588" 
d="M81 670h456v-96h-349v-172h329v-95h-329v-211h354v-96h-461v670zM251 794q0 27 18 45t45 18t45 -18t18 -45t-18 -45t-45 -18t-45 18t-18 45z" />
    <glyph glyph-name="edotaccent" unicode="&#x117;" horiz-adv-x="531" 
d="M212 616q0 27 18 45t45 18t45 -18t18 -45t-18 -45t-45 -18t-45 18t-18 45zM497 205h-356q3 -55 46 -90.5t116 -35.5q99 0 158 50h7v-98q-64 -45 -172 -45q-117 0 -188.5 70t-71.5 190q0 114 69 189t168 75q105 0 165.5 -72.5t60.5 -196.5zM141 290h254q-2 58 -34.5 93.5
t-87.5 35.5q-54 0 -90.5 -38t-41.5 -91z" />
    <glyph glyph-name="Eogonek" unicode="&#x118;" horiz-adv-x="588" 
d="M81 670h456v-96h-349v-172h329v-95h-329v-211h354v-96q-44 -41 -44 -87q0 -21 12 -33t33 -12q14 0 25 4h3v-79q-18 -8 -48 -8q-49 0 -81 30t-32 83q0 54 43 102h-372v670z" />
    <glyph glyph-name="eogonek" unicode="&#x119;" horiz-adv-x="531" 
d="M497 205h-356q3 -56 45.5 -91t116.5 -35q101 0 158 50h7v-98q-71 -57 -71 -118q0 -21 12 -33t33 -12q14 0 25 4h3v-79q-18 -8 -48 -8q-49 0 -81 30.5t-32 83.5q0 41 31 90q-21 -3 -44 -3q-117 0 -188.5 69.5t-71.5 190.5q0 114 69 189t168 75q105 0 165.5 -72.5
t60.5 -196.5q0 -10 -2 -36zM141 290h254q-2 58 -34 93.5t-88 35.5q-54 0 -90 -37.5t-42 -91.5z" />
    <glyph glyph-name="Ecaron" unicode="&#x11a;" horiz-adv-x="588" 
d="M81 670h456v-96h-349v-172h329v-95h-329v-211h354v-96h-461v670zM470 848l-94 -121h-126l-94 121h93l64 -67l64 67h93z" />
    <glyph glyph-name="ecaron" unicode="&#x11b;" horiz-adv-x="531" 
d="M432 670l-94 -121h-126l-94 121h93l64 -67l64 67h93zM497 205h-356q3 -55 46 -90.5t116 -35.5q99 0 158 50h7v-98q-64 -45 -172 -45q-117 0 -188.5 70t-71.5 190q0 114 69 189t168 75q105 0 165.5 -72.5t60.5 -196.5zM141 290h254q-2 58 -34.5 93.5t-87.5 35.5
q-54 0 -90.5 -38t-41.5 -91z" />
    <glyph glyph-name="Gcircumflex" unicode="&#x11c;" horiz-adv-x="667" 
d="M437 848l94 -121h-93l-64 67l-64 -67h-93l94 121h126zM517 102v169h-176v94h277v-318q-85 -65 -226 -65q-157 0 -256.5 99t-99.5 252q0 151 101.5 253t253.5 102q114 0 196 -54v-107h-7q-76 64 -188 64q-109 0 -178 -75t-69 -183q0 -111 69.5 -182.5t180.5 -71.5
q78 0 122 23z" />
    <glyph glyph-name="gcircumflex" unicode="&#x11d;" horiz-adv-x="597" 
d="M353 670l94 -121h-93l-64 67l-64 -67h-93l94 121h126zM423 44v24q-58 -50 -144 -50q-103 0 -172.5 67.5t-69.5 176.5q0 108 70 178t178 70q96 0 149 -55v41h94v-461q0 -106 -61 -158q-65 -56 -179 -56q-124 0 -192 33v97h8q60 -36 169 -36q83 0 122 36q28 28 28 93z
M423 166v202q-44 48 -123 48q-68 0 -112.5 -42.5t-44.5 -110.5q0 -72 43 -111.5t109 -39.5q83 0 128 54z" />
    <glyph glyph-name="Gbreve" unicode="&#x11e;" horiz-adv-x="667" 
d="M366 723q-62 0 -106 33.5t-50 91.5h87q3 -19 22.5 -37t46.5 -18q32 0 49 17t20 38h87q-6 -58 -50 -91.5t-106 -33.5zM517 102v169h-176v94h277v-318q-85 -65 -226 -65q-157 0 -256.5 99t-99.5 252q0 151 101.5 253t253.5 102q114 0 196 -54v-107h-7q-76 64 -188 64
q-109 0 -178 -75t-69 -183q0 -111 69.5 -182.5t180.5 -71.5q78 0 122 23z" />
    <glyph glyph-name="gbreve" unicode="&#x11f;" horiz-adv-x="597" 
d="M295 545q-62 0 -106 33.5t-50 91.5h87q3 -19 22.5 -37t46.5 -18q32 0 49 17t20 38h87q-6 -58 -50 -91.5t-106 -33.5zM423 44v24q-58 -50 -144 -50q-103 0 -172.5 67.5t-69.5 176.5q0 108 70 178t178 70q96 0 149 -55v41h94v-461q0 -106 -61 -158q-65 -56 -179 -56
q-124 0 -192 33v97h8q60 -36 169 -36q83 0 122 36q28 28 28 93zM423 166v202q-44 48 -123 48q-68 0 -112.5 -42.5t-44.5 -110.5q0 -72 43 -111.5t109 -39.5q83 0 128 54z" />
    <glyph glyph-name="Gdotaccent" unicode="&#x120;" horiz-adv-x="667" 
d="M517 102v169h-176v94h277v-318q-85 -65 -226 -65q-157 0 -256.5 99t-99.5 252q0 151 101.5 253t253.5 102q114 0 196 -54v-107h-7q-76 64 -188 64q-109 0 -178 -75t-69 -183q0 -111 69.5 -182.5t180.5 -71.5q78 0 122 23zM317 794q0 27 18 45t45 18t45 -18t18 -45
t-18 -45t-45 -18t-45 18t-18 45z" />
    <glyph glyph-name="gdotaccent" unicode="&#x121;" horiz-adv-x="597" 
d="M229 616q0 27 18 45t45 18t45 -18t18 -45t-18 -45t-45 -18t-45 18t-18 45zM423 44v24q-58 -50 -144 -50q-103 0 -172.5 67.5t-69.5 176.5q0 108 70 178t178 70q96 0 149 -55v41h94v-461q0 -106 -61 -158q-65 -56 -179 -56q-124 0 -192 33v97h8q60 -36 169 -36
q83 0 122 36q28 28 28 93zM423 166v202q-44 48 -123 48q-68 0 -112.5 -42.5t-44.5 -110.5q0 -72 43 -111.5t109 -39.5q83 0 128 54z" />
    <glyph glyph-name="Gcommaaccent" unicode="&#x122;" horiz-adv-x="667" 
d="M517 102v169h-176v94h277v-318q-85 -65 -226 -65q-157 0 -256.5 99t-99.5 252q0 151 101.5 253t253.5 102q114 0 196 -54v-107h-7q-76 64 -188 64q-109 0 -178 -75t-69 -183q0 -111 69.5 -182.5t180.5 -71.5q78 0 122 23zM270 -210l57 147h121l-97 -147h-81z" />
    <glyph glyph-name="gcommaaccent" unicode="&#x123;" horiz-adv-x="597" 
d="M423 44v24q-58 -50 -144 -50q-103 0 -172.5 67.5t-69.5 176.5q0 108 70 178t178 70q96 0 149 -55v41h94v-461q0 -106 -61 -158q-65 -56 -179 -56q-124 0 -192 33v97h8q60 -36 169 -36q83 0 122 36q28 28 28 93zM423 166v202q-44 48 -123 48q-68 0 -112.5 -42.5
t-44.5 -110.5q0 -72 43 -111.5t109 -39.5q83 0 128 54zM402 696l-57 -147h-121l97 147h81z" />
    <glyph glyph-name="Hcircumflex" unicode="&#x124;" horiz-adv-x="695" 
d="M412 848l94 -121h-93l-64 67l-64 -67h-93l94 121h126zM614 0h-107v308h-319v-308h-107v670h107v-266h319v266h107v-670z" />
    <glyph glyph-name="hcircumflex" unicode="&#x125;" 
d="M185 848l94 -121h-93l-64 67l-64 -67h-93l94 121h126zM174 670v-210q59 50 130 50q88 0 136 -49.5t48 -141.5v-319h-105v309q0 52 -27.5 79.5t-78.5 27.5q-30 0 -61 -16.5t-42 -32.5v-367h-105v670h105z" />
    <glyph glyph-name="Hbar" unicode="&#x126;" horiz-adv-x="713" 
d="M623 0h-107v308h-319v-308h-107v502h-82v80h82v88h107v-88h319v88h107v-88h81v-80h-81v-502zM197 404h319v98h-319v-98z" />
    <glyph glyph-name="hbar" unicode="&#x127;" 
d="M174 545v-85q59 50 130 50q88 0 136 -49.5t48 -141.5v-319h-105v309q0 52 -27.5 79.5t-78.5 27.5q-30 0 -61 -16.5t-42 -32.5v-367h-105v545h-90v75h90v50h105v-50h144v-75h-144z" />
    <glyph glyph-name="Itilde" unicode="&#x128;" horiz-adv-x="269" 
d="M188 0h-107v670h107v-670zM84 782q-27 0 -27 -38l-67 12q0 47 24 74t64 27q31 0 63 -21.5t47 -21.5q27 0 27 38l67 -12q0 -47 -24 -74t-64 -27q-31 0 -63 21.5t-47 21.5z" />
    <glyph glyph-name="itilde" unicode="&#x129;" horiz-adv-x="243" 
d="M174 0h-105v496h105v-496zM70 604q-27 0 -27 -38l-67 12q0 47 24 74t64 27q31 0 63 -21.5t47 -21.5q27 0 27 38l67 -12q0 -47 -24 -74t-64 -27q-31 0 -63 21.5t-47 21.5z" />
    <glyph glyph-name="Imacron" unicode="&#x12a;" horiz-adv-x="269" 
d="M188 0h-107v670h107v-670zM291 766h-315v82h315v-82z" />
    <glyph glyph-name="imacron" unicode="&#x12b;" horiz-adv-x="243" 
d="M174 0h-105v496h105v-496zM280 588h-315v82h315v-82z" />
    <glyph glyph-name="Ibreve" unicode="&#x12c;" horiz-adv-x="269" 
d="M188 0h-107v670h107v-670zM134 723q-62 0 -106 33.5t-50 91.5h87q3 -19 22.5 -37t46.5 -18q32 0 49 17t20 38h87q-6 -58 -50 -91.5t-106 -33.5z" />
    <glyph glyph-name="ibreve" unicode="&#x12d;" horiz-adv-x="243" 
d="M174 0h-105v496h105v-496zM122 545q-62 0 -106 33.5t-50 91.5h87q3 -19 22.5 -37t46.5 -18q32 0 49 17t20 38h87q-6 -58 -50 -91.5t-106 -33.5z" />
    <glyph glyph-name="Iogonek" unicode="&#x12e;" horiz-adv-x="269" 
d="M195 -128h3v-79q-18 -8 -48 -8q-49 0 -81 30t-32 83t44 103v669h107v-670h-19q-44 -41 -44 -87q0 -21 12 -33t33 -12q14 0 25 4z" />
    <glyph glyph-name="iogonek" unicode="&#x12f;" horiz-adv-x="243" 
d="M184 -128h3v-79q-18 -8 -48 -8q-49 0 -81 30t-32 83q0 54 43 102v496h105v-496h-16q-44 -41 -44 -87q0 -21 12 -33t33 -12q14 0 25 4zM59 625q0 27 18 45t45 18t45 -18t18 -45t-18 -45t-45 -18t-45 18t-18 45z" />
    <glyph glyph-name="Idotaccent" unicode="&#x130;" horiz-adv-x="269" 
d="M188 0h-107v670h107v-670zM73 794q0 27 18 45t45 18t45 -18t18 -45t-18 -45t-45 -18t-45 18t-18 45z" />
    <glyph glyph-name="dotlessi" unicode="&#x131;" horiz-adv-x="243" 
d="M174 0h-105v496h105v-496z" />
    <glyph glyph-name="IJ" unicode="&#x132;" horiz-adv-x="669" 
d="M188 0h-107v670h107v-670zM593 670v-497q0 -99 -41 -141q-48 -50 -143 -50q-66 0 -122 21v95q54 -19 105 -19q50 0 73 22q15 14 18 36t3 77v456h107z" />
    <glyph glyph-name="ij" unicode="&#x133;" horiz-adv-x="490" 
d="M174 0h-105v496h105v-496zM59 625q0 27 18 45t45 18t45 -18t18 -45t-18 -45t-45 -18t-45 18t-18 45zM421 496v-499q0 -60 -5.5 -85t-25.5 -46q-35 -41 -104 -41q-51 0 -86 8v91q20 -5 46 -5q42 0 55 14q10 11 12.5 31.5t2.5 75.5v456h105zM306 625q0 27 18 45t45 18
t45 -18t18 -45t-18 -45t-45 -18t-45 18t-18 45z" />
    <glyph glyph-name="Jcircumflex" unicode="&#x134;" horiz-adv-x="400" 
d="M324 670v-497q0 -99 -41 -141q-48 -50 -143 -50q-66 0 -122 21v95q54 -19 105 -19q50 0 73 22q15 14 18 36t3 77v456h107zM333 848l94 -121h-93l-64 67l-64 -67h-93l94 121h126z" />
    <glyph glyph-name="jcircumflex" unicode="&#x135;" horiz-adv-x="243" 
d="M174 496v-503q0 -60 -5.5 -85t-25.5 -46q-35 -41 -104 -41q-51 0 -86 8v90q17 -4 45 -4q45 0 58 14q3 3 5 6.5t3.5 8.5t2.5 10t1.5 13.5t0.5 15.5v20.5v24.5v30.5v36.5v401h105zM185 670l94 -121h-93l-64 67l-64 -67h-93l94 121h126z" />
    <glyph glyph-name="Kcommaaccent" unicode="&#x136;" horiz-adv-x="607" 
d="M212 -210l57 147h121l-97 -147h-81zM188 222v-222h-107v670h107v-316l287 316h119v-7l-266 -300l281 -356v-7h-123l-233 294z" />
    <glyph glyph-name="kcommaaccent" unicode="&#x137;" horiz-adv-x="519" 
d="M174 0h-105v670h105v-397l202 223h117v-10l-206 -229l227 -247v-10h-125l-215 237v-237zM165 -210l57 147h121l-97 -147h-81z" />
    <glyph glyph-name="kgreenlandic" unicode="&#x138;" horiz-adv-x="538" 
d="M174 0h-105v496h105v-223l202 223h132v-92h-89l-132 -147l227 -247v-10h-125l-215 237v-237z" />
    <glyph glyph-name="Lacute" unicode="&#x139;" horiz-adv-x="526" 
d="M283 848l-122 -121h-93l78 121h137zM508 0h-427v670h107v-574h320v-96z" />
    <glyph glyph-name="lacute" unicode="&#x13a;" horiz-adv-x="251" 
d="M179 0h-107v670h107v-670zM274 848l-122 -121h-93l78 121h137z" />
    <glyph glyph-name="Lcommaaccent" unicode="&#x13b;" horiz-adv-x="526" 
d="M508 0h-427v670h107v-574h320v-96zM188 -210l57 147h121l-97 -147h-81z" />
    <glyph glyph-name="lcommaaccent" unicode="&#x13c;" horiz-adv-x="249" 
d="M2 -210l57 147h121l-97 -147h-81zM177 0h-105v670h105v-670z" />
    <glyph glyph-name="Lcaron" unicode="&#x13d;" horiz-adv-x="527" 
d="M508 0h-427v670h107v-574h320v-96zM374 549h-86l42 121h114z" />
    <glyph glyph-name="lcaron" unicode="&#x13e;" horiz-adv-x="249" 
d="M177 0h-105v670h105v-670zM303 549h-86l42 121h114z" />
    <glyph glyph-name="Ldot" unicode="&#x13f;" horiz-adv-x="526" 
d="M508 0h-427v670h107v-574h320v-96zM275 317q0 27 18 45t45 18t45 -18t18 -45t-18 -45t-45 -18t-45 18t-18 45z" />
    <glyph glyph-name="ldot" unicode="&#x140;" horiz-adv-x="355" 
d="M177 0h-105v670h105v-670zM232 317q0 27 18 45t45 18t45 -18t18 -45t-18 -45t-45 -18t-45 18t-18 45z" />
    <glyph glyph-name="Lslash" unicode="&#x141;" horiz-adv-x="573" 
d="M555 0h-427v255l-122 -47v98l122 47v317h107v-276l196 76v-98l-196 -76v-200h320v-96z" />
    <glyph glyph-name="lslash" unicode="&#x142;" horiz-adv-x="391" 
d="M247 0h-105v255l-122 -47v98l122 47v317h105v-276l124 48v-98l-124 -48v-296z" />
    <glyph glyph-name="Nacute" unicode="&#x143;" horiz-adv-x="711" 
d="M190 670l262 -398q53 -81 73 -117h1q-3 29 -3 121v394h107v-670h-111l-273 408q-40 59 -60 104h-1q3 -45 3 -104v-408h-107v670h109zM509 848l-122 -121h-93l78 121h137z" />
    <glyph glyph-name="nacute" unicode="&#x144;" 
d="M174 367v-367h-105v496h95v-46q19 21 58 40.5t82 19.5q88 0 136 -49.5t48 -141.5v-319h-105v309q0 52 -27 79.5t-78 27.5q-30 0 -61.5 -16.5t-42.5 -32.5zM433 670l-122 -121h-93l78 121h137z" />
    <glyph glyph-name="Ncommaaccent" unicode="&#x145;" horiz-adv-x="711" 
d="M252 -210l57 147h121l-97 -147h-81zM190 670l262 -398q53 -81 73 -117h1q-3 29 -3 121v394h107v-670h-111l-273 408q-40 59 -60 104h-1q3 -45 3 -104v-408h-107v670h109z" />
    <glyph glyph-name="ncommaaccent" unicode="&#x146;" 
d="M174 367v-367h-105v496h95v-46q19 21 58 40.5t82 19.5q88 0 136 -49.5t48 -141.5v-319h-105v309q0 52 -27 79.5t-78 27.5q-30 0 -61.5 -16.5t-42.5 -32.5zM167 -210l57 147h121l-97 -147h-81z" />
    <glyph glyph-name="Ncaron" unicode="&#x147;" horiz-adv-x="711" 
d="M190 670l262 -398q53 -81 73 -117h1q-3 29 -3 121v394h107v-670h-111l-273 408q-40 59 -60 104h-1q3 -45 3 -104v-408h-107v670h109zM512 848l-94 -121h-126l-94 121h93l64 -67l64 67h93z" />
    <glyph glyph-name="ncaron" unicode="&#x148;" 
d="M174 367v-367h-105v496h95v-46q19 21 58 40.5t82 19.5q88 0 136 -49.5t48 -141.5v-319h-105v309q0 52 -27 79.5t-78 27.5q-30 0 -61.5 -16.5t-42.5 -32.5zM446 670l-94 -121h-126l-94 121h93l64 -67l64 67h93z" />
    <glyph glyph-name="napostrophe" unicode="&#x149;" horiz-adv-x="587" 
d="M20 523l57 147h121l-97 -147h-81zM209 367v-367h-105v496h95v-46q19 21 58 40.5t82 19.5q88 0 136 -49.5t48 -141.5v-319h-105v309q0 52 -27 79.5t-78 27.5q-30 0 -61.5 -16.5t-42.5 -32.5z" />
    <glyph glyph-name="Eng" unicode="&#x14a;" horiz-adv-x="711" 
d="M190 670l262 -398q53 -81 73 -117h1q-3 29 -3 121v394h107v-677q0 -57 -7 -83t-27 -48q-38 -41 -110 -41q-49 0 -87 7v88q15 -4 51 -4q46 0 60 16q15 19 15 68l-279 412q-40 59 -60 104h-1q3 -45 3 -104v-408h-107v670h109z" />
    <glyph glyph-name="eng" unicode="&#x14b;" 
d="M174 367v-367h-105v496h95v-46q19 21 58 40.5t82 19.5q88 0 136 -49.5t48 -141.5v-326q0 -57 -7 -83t-27 -48q-38 -41 -110 -41q-49 0 -87 7v88q15 -4 51 -4q46 0 60 16q15 17 15 72v309q0 52 -27 79.5t-78 27.5q-30 0 -61.5 -16.5t-42.5 -32.5z" />
    <glyph glyph-name="Omacron" unicode="&#x14c;" horiz-adv-x="778" 
d="M389 -18q-151 0 -252.5 101.5t-101.5 251.5t101.5 251.5t252.5 101.5t252.5 -101.5t101.5 -251.5t-101.5 -251.5t-252.5 -101.5zM389 80q105 0 175 74t70 181t-70 181.5t-175 74.5t-175 -74.5t-70 -181.5t70 -181t175 -74zM547 766h-315v82h315v-82z" />
    <glyph glyph-name="omacron" unicode="&#x14d;" horiz-adv-x="592" 
d="M35 248q0 112 75.5 187t185.5 75q111 0 186 -74.5t75 -187.5t-75 -187.5t-186 -74.5t-186 74.5t-75 187.5zM141 248q0 -72 43 -119t112 -47q68 0 111.5 47.5t43.5 118.5t-43.5 119t-111.5 48q-70 0 -112.5 -47t-42.5 -120zM454 588h-315v82h315v-82z" />
    <glyph glyph-name="Obreve" unicode="&#x14e;" horiz-adv-x="778" 
d="M389 -18q-151 0 -252.5 101.5t-101.5 251.5t101.5 251.5t252.5 101.5t252.5 -101.5t101.5 -251.5t-101.5 -251.5t-252.5 -101.5zM389 80q105 0 175 74t70 181t-70 181.5t-175 74.5t-175 -74.5t-70 -181.5t70 -181t175 -74zM389 723q-62 0 -106 33.5t-50 91.5h87
q3 -19 22.5 -37t46.5 -18q32 0 49 17t20 38h87q-6 -58 -50 -91.5t-106 -33.5z" />
    <glyph glyph-name="obreve" unicode="&#x14f;" horiz-adv-x="592" 
d="M35 248q0 112 75.5 187t185.5 75q111 0 186 -74.5t75 -187.5t-75 -187.5t-186 -74.5t-186 74.5t-75 187.5zM141 248q0 -72 43 -119t112 -47q68 0 111.5 47.5t43.5 118.5t-43.5 119t-111.5 48q-70 0 -112.5 -47t-42.5 -120zM296 545q-62 0 -106 33.5t-50 91.5h87
q3 -19 22.5 -37t46.5 -18q32 0 49 17t20 38h87q-6 -58 -50 -91.5t-106 -33.5z" />
    <glyph glyph-name="Ohungarumlaut" unicode="&#x150;" horiz-adv-x="778" 
d="M389 -18q-151 0 -252.5 101.5t-101.5 251.5t101.5 251.5t252.5 101.5t252.5 -101.5t101.5 -251.5t-101.5 -251.5t-252.5 -101.5zM389 80q105 0 175 74t70 181t-70 181.5t-175 74.5t-175 -74.5t-70 -181.5t70 -181t175 -74zM440 848l-122 -121h-93l78 121h137zM646 848
l-122 -121h-93l78 121h137z" />
    <glyph glyph-name="ohungarumlaut" unicode="&#x151;" horiz-adv-x="592" 
d="M352 670l-122 -121h-93l78 121h137zM558 670l-122 -121h-93l78 121h137zM35 248q0 112 75.5 187t185.5 75q111 0 186 -74.5t75 -187.5t-75 -187.5t-186 -74.5t-186 74.5t-75 187.5zM141 248q0 -72 43 -119t112 -47q68 0 111.5 47.5t43.5 118.5t-43.5 119t-111.5 48
q-70 0 -112.5 -47t-42.5 -120z" />
    <glyph glyph-name="OE" unicode="&#x152;" horiz-adv-x="1132" 
d="M630 670h451v-96h-344v-171h324v-96h-324v-211h349v-96h-456v81q-96 -99 -241 -99q-151 0 -252.5 101.5t-101.5 251.5t101.5 251.5t252.5 101.5q143 0 241 -101v83zM389 80q106 0 178 72.5t72 182.5q0 111 -71.5 183.5t-178.5 72.5q-105 0 -175 -74.5t-70 -181.5t70 -181
t175 -74z" />
    <glyph glyph-name="oe" unicode="&#x153;" horiz-adv-x="940" 
d="M906 205h-356q3 -56 45.5 -91t116.5 -35q101 0 158 50h7v-98q-64 -45 -172 -45q-140 0 -207 96q-75 -96 -202 -96q-111 0 -186 74.5t-75 187.5q0 112 75.5 187t185.5 75q63 0 116 -26t87 -72q69 98 183 98q105 0 165.5 -72.5t60.5 -196.5q0 -5 -0.5 -13.5t-0.5 -11.5
q-1 -4 -1 -11zM141 248q0 -72 43 -119t112 -47q68 0 111.5 47.5t43.5 118.5t-43.5 119t-111.5 48q-70 0 -112.5 -47t-42.5 -120zM550 290h254q-2 58 -34 93.5t-88 35.5q-54 0 -90 -37.5t-42 -91.5z" />
    <glyph glyph-name="Racute" unicode="&#x154;" horiz-adv-x="615" 
d="M188 574v-217h155q49 0 76 27.5t27 80.5q0 51 -33 80t-89 29h-136zM407 271l189 -264v-7h-117l-182 264h-109v-264h-107v670h261q103 0 158 -60.5t55 -144.5q0 -77 -42 -129.5t-106 -64.5zM428 848l-122 -121h-93l78 121h137z" />
    <glyph glyph-name="racute" unicode="&#x155;" horiz-adv-x="351" 
d="M328 670l-122 -121h-93l78 121h137zM334 501v-99q-15 5 -44 5q-83 0 -116 -51v-356h-105v496h95v-47q43 57 124 57q33 0 46 -5z" />
    <glyph glyph-name="Rcommaaccent" unicode="&#x156;" horiz-adv-x="615" 
d="M188 574v-217h155q49 0 76 27.5t27 80.5q0 51 -33 80t-89 29h-136zM407 271l189 -264v-7h-117l-182 264h-109v-264h-107v670h261q103 0 158 -60.5t55 -144.5q0 -77 -42 -129.5t-106 -64.5zM198 -210l57 147h121l-97 -147h-81z" />
    <glyph glyph-name="rcommaaccent" unicode="&#x157;" horiz-adv-x="351" 
d="M4 -210l57 147h121l-97 -147h-81zM334 501v-99q-15 5 -44 5q-83 0 -116 -51v-356h-105v496h95v-47q43 57 124 57q33 0 46 -5z" />
    <glyph glyph-name="Rcaron" unicode="&#x158;" horiz-adv-x="615" 
d="M188 574v-217h155q49 0 76 27.5t27 80.5q0 51 -33 80t-89 29h-136zM407 271l189 -264v-7h-117l-182 264h-109v-264h-107v670h261q103 0 158 -60.5t55 -144.5q0 -77 -42 -129.5t-106 -64.5zM455 848l-94 -121h-126l-94 121h93l64 -67l64 67h93z" />
    <glyph glyph-name="rcaron" unicode="&#x159;" horiz-adv-x="351" 
d="M356 670l-94 -121h-126l-94 121h93l64 -67l64 67h93zM334 501v-99q-15 5 -44 5q-83 0 -116 -51v-356h-105v496h95v-47q43 57 124 57q33 0 46 -5z" />
    <glyph glyph-name="Sacute" unicode="&#x15a;" horiz-adv-x="516" 
d="M397 848l-122 -121h-93l78 121h137zM156 502q0 -33 21 -51.5t66 -34.5l89 -32q154 -55 154 -193q0 -93 -68.5 -151t-175.5 -58q-57 0 -110.5 15.5t-84.5 39.5v105h7q22 -22 77.5 -42.5t109.5 -20.5q64 0 100 30t36 77q0 43 -26 67t-80 43l-75 27q-149 52 -149 182
q0 76 62 129.5t156 53.5q49 0 98 -14.5t74 -33.5v-106h-7q-24 22 -67.5 39.5t-90.5 17.5q-53 0 -84.5 -25t-31.5 -64z" />
    <glyph glyph-name="sacute" unicode="&#x15b;" horiz-adv-x="427" 
d="M367 670l-122 -121h-93l78 121h137zM357 381h-7q-20 17 -55.5 28t-68.5 11q-35 0 -56 -13t-21 -33q0 -21 12.5 -32.5t37.5 -22.5l91 -40q103 -46 103 -143q0 -69 -51.5 -109.5t-136.5 -40.5q-44 0 -89 13t-67 29v96h7q18 -15 64 -31t79 -16q42 0 66.5 15t24.5 42
q0 40 -54 63l-77 32q-112 51 -112 140q0 62 46 101.5t117 39.5q45 0 86 -12t61 -26v-91z" />
    <glyph glyph-name="Scircumflex" unicode="&#x15c;" horiz-adv-x="516" 
d="M319 848l94 -121h-93l-64 67l-64 -67h-93l94 121h126zM156 502q0 -33 21 -51.5t66 -34.5l89 -32q154 -55 154 -193q0 -93 -68.5 -151t-175.5 -58q-57 0 -110.5 15.5t-84.5 39.5v105h7q22 -22 77.5 -42.5t109.5 -20.5q64 0 100 30t36 77q0 43 -26 67t-80 43l-75 27
q-149 52 -149 182q0 76 62 129.5t156 53.5q49 0 98 -14.5t74 -33.5v-106h-7q-24 22 -67.5 39.5t-90.5 17.5q-53 0 -84.5 -25t-31.5 -64z" />
    <glyph glyph-name="scircumflex" unicode="&#x15d;" horiz-adv-x="427" 
d="M276 670l94 -121h-93l-64 67l-64 -67h-93l94 121h126zM357 381h-7q-20 17 -55.5 28t-68.5 11q-35 0 -56 -13t-21 -33q0 -21 12.5 -32.5t37.5 -22.5l91 -40q103 -46 103 -143q0 -69 -51.5 -109.5t-136.5 -40.5q-44 0 -89 13t-67 29v96h7q18 -15 64 -31t79 -16
q42 0 66.5 15t24.5 42q0 40 -54 63l-77 32q-112 51 -112 140q0 62 46 101.5t117 39.5q45 0 86 -12t61 -26v-91z" />
    <glyph glyph-name="Scedilla" unicode="&#x15e;" horiz-adv-x="516" 
d="M240 -58h79v-152h-186v73h107v79zM156 502q0 -33 21 -51.5t66 -34.5l89 -32q154 -55 154 -193q0 -93 -68.5 -151t-175.5 -58q-57 0 -110.5 15.5t-84.5 39.5v105h7q22 -22 77.5 -42.5t109.5 -20.5q64 0 100 30t36 77q0 43 -26 67t-80 43l-75 27q-149 52 -149 182
q0 76 62 129.5t156 53.5q49 0 98 -14.5t74 -33.5v-106h-7q-24 22 -67.5 39.5t-90.5 17.5q-53 0 -84.5 -25t-31.5 -64z" />
    <glyph glyph-name="scedilla" unicode="&#x15f;" horiz-adv-x="427" 
d="M186 -58h79v-152h-186v73h107v79zM357 381h-7q-20 17 -55.5 28t-68.5 11q-35 0 -56 -13t-21 -33q0 -21 12.5 -32.5t37.5 -22.5l91 -40q103 -46 103 -143q0 -69 -51.5 -109.5t-136.5 -40.5q-44 0 -89 13t-67 29v96h7q18 -15 64 -31t79 -16q42 0 66.5 15t24.5 42
q0 40 -54 63l-77 32q-112 51 -112 140q0 62 46 101.5t117 39.5q45 0 86 -12t61 -26v-91z" />
    <glyph glyph-name="Scaron" unicode="&#x160;" horiz-adv-x="516" 
d="M156 502q0 -33 21 -51.5t66 -34.5l89 -32q154 -55 154 -193q0 -93 -68.5 -151t-175.5 -58q-57 0 -110.5 15.5t-84.5 39.5v105h7q22 -22 77.5 -42.5t109.5 -20.5q64 0 100 30t36 77q0 43 -26 67t-80 43l-75 27q-149 52 -149 182q0 76 62 129.5t156 53.5q49 0 98 -14.5
t74 -33.5v-106h-7q-24 22 -67.5 39.5t-90.5 17.5q-53 0 -84.5 -25t-31.5 -64zM411 848l-94 -121h-126l-94 121h93l64 -67l64 67h93z" />
    <glyph glyph-name="scaron" unicode="&#x161;" horiz-adv-x="427" 
d="M366 670l-94 -121h-126l-94 121h93l64 -67l64 67h93zM357 381h-7q-20 17 -55.5 28t-68.5 11q-35 0 -56 -13t-21 -33q0 -21 12.5 -32.5t37.5 -22.5l91 -40q103 -46 103 -143q0 -69 -51.5 -109.5t-136.5 -40.5q-44 0 -89 13t-67 29v96h7q18 -15 64 -31t79 -16q42 0 66.5 15
t24.5 42q0 40 -54 63l-77 32q-112 51 -112 140q0 62 46 101.5t117 39.5q45 0 86 -12t61 -26v-91z" />
    <glyph glyph-name="uni0162" unicode="&#x162;" horiz-adv-x="589" 
d="M348 0h-107v574h-224v96h555v-96h-224v-574zM269 -58h79v-152h-186v73h107v79z" />
    <glyph glyph-name="uni0163" unicode="&#x163;" horiz-adv-x="373" 
d="M192 -58h79v-152h-186v73h107v79zM121 156v255h-108v85h108v130h105v-130h125v-85h-125v-227v-10q0 -42 2 -57t12 -23q16 -13 58 -13q23 0 48 5v-87q-41 -9 -84 -9q-74 0 -109 35q-20 22 -26 47t-6 84z" />
    <glyph glyph-name="Tcaron" unicode="&#x164;" horiz-adv-x="589" 
d="M348 0h-107v574h-224v96h555v-96h-224v-574zM451 848l-94 -121h-126l-94 121h93l64 -67l64 67h93z" />
    <glyph glyph-name="tcaron" unicode="&#x165;" horiz-adv-x="373" 
d="M121 156v255h-108v85h108v130h105v-130h125v-85h-125v-227v-10q0 -42 2 -57t12 -23q16 -13 58 -13q23 0 48 5v-87q-41 -9 -84 -9q-74 0 -109 35q-20 22 -26 47t-6 84zM372 549h-86l42 121h114z" />
    <glyph glyph-name="Tbar" unicode="&#x166;" horiz-adv-x="593" 
d="M350 0h-107v314h-120v85h120v175h-224v96h555v-96h-224v-175h120v-85h-120v-314z" />
    <glyph glyph-name="tbar" unicode="&#x167;" horiz-adv-x="379" 
d="M125 324v87h-108v85h108v130h105v-130h125v-85h-125v-87h125v-85h-125v-55v-10q0 -42 2 -57t12 -23q16 -13 58 -13q23 0 48 5v-87q-41 -9 -84 -9q-74 0 -109 35q-20 22 -26 47t-6 84v83h-108v85h108z" />
    <glyph glyph-name="Utilde" unicode="&#x168;" horiz-adv-x="662" 
d="M74 229v441h107v-442q0 -71 40.5 -109.5t109.5 -38.5t109.5 38.5t40.5 109.5v442h107v-441q0 -120 -70 -183.5t-187 -63.5t-187 63.5t-70 183.5zM278 784q-13 0 -22 -11.5t-9 -28.5l-72 12q0 43 26 72t67 29q33 0 66 -23q3 -2 10 -7t10.5 -6.5t9 -4.5t11 -4t11.5 -1
q13 0 21.5 12t8.5 29l72 -12q0 -47 -27 -74t-68 -27q-34 0 -69 22q-31 23 -46 23z" />
    <glyph glyph-name="utilde" unicode="&#x169;" horiz-adv-x="548" 
d="M374 129v367h105v-496h-95v46q-19 -21 -58 -40.5t-82 -19.5q-80 0 -130 50t-50 137v323h105v-307q0 -107 101 -107q32 0 61.5 15t42.5 32zM221 606q-13 0 -22 -11.5t-9 -28.5l-72 12q0 43 26 72t67 29q33 0 66 -23q3 -2 10 -7t10.5 -6.5t9 -4.5t11 -4t11.5 -1
q13 0 21.5 12t8.5 29l72 -12q0 -47 -27 -74t-68 -27q-34 0 -69 22q-31 23 -46 23z" />
    <glyph glyph-name="Umacron" unicode="&#x16a;" horiz-adv-x="662" 
d="M74 229v441h107v-442q0 -71 40.5 -109.5t109.5 -38.5t109.5 38.5t40.5 109.5v442h107v-441q0 -120 -70 -183.5t-187 -63.5t-187 63.5t-70 183.5zM489 766h-315v82h315v-82z" />
    <glyph glyph-name="umacron" unicode="&#x16b;" horiz-adv-x="548" 
d="M374 129v367h105v-496h-95v46q-19 -21 -58 -40.5t-82 -19.5q-80 0 -130 50t-50 137v323h105v-307q0 -107 101 -107q32 0 61.5 15t42.5 32zM425 588h-315v82h315v-82z" />
    <glyph glyph-name="Ubreve" unicode="&#x16c;" horiz-adv-x="662" 
d="M74 229v441h107v-442q0 -71 40.5 -109.5t109.5 -38.5t109.5 38.5t40.5 109.5v442h107v-441q0 -120 -70 -183.5t-187 -63.5t-187 63.5t-70 183.5zM331 723q-62 0 -106 33.5t-50 91.5h87q3 -19 22.5 -37t46.5 -18q32 0 49 17t20 38h87q-6 -58 -50 -91.5t-106 -33.5z" />
    <glyph glyph-name="ubreve" unicode="&#x16d;" horiz-adv-x="548" 
d="M374 129v367h105v-496h-95v46q-19 -21 -58 -40.5t-82 -19.5q-80 0 -130 50t-50 137v323h105v-307q0 -107 101 -107q32 0 61.5 15t42.5 32zM279 545q-62 0 -106 33.5t-50 91.5h87q3 -19 22.5 -37t46.5 -18q32 0 49 17t20 38h87q-6 -58 -50 -91.5t-106 -33.5z" />
    <glyph glyph-name="Uring" unicode="&#x16e;" horiz-adv-x="662" 
d="M74 229v441h107v-442q0 -71 40.5 -109.5t109.5 -38.5t109.5 38.5t40.5 109.5v442h107v-441q0 -120 -70 -183.5t-187 -63.5t-187 63.5t-70 183.5zM431 719q0 -40 -29.5 -68t-70.5 -28q-42 0 -70.5 28t-28.5 68t28.5 68t70.5 28q41 0 70.5 -28t29.5 -68zM376 719
q0 20 -12.5 33.5t-32.5 13.5t-33 -13.5t-13 -33.5t13 -34t33 -14t32.5 13.5t12.5 34.5z" />
    <glyph glyph-name="uring" unicode="&#x16f;" horiz-adv-x="548" 
d="M372 630q0 -40 -29.5 -68t-70.5 -28q-42 0 -70.5 28t-28.5 68t28.5 68t70.5 28q41 0 70.5 -28t29.5 -68zM317 630q0 20 -12.5 33.5t-32.5 13.5t-33 -13.5t-13 -33.5t13 -34t33 -14t32.5 13.5t12.5 34.5zM374 129v367h105v-496h-95v46q-19 -21 -58 -40.5t-82 -19.5
q-80 0 -130 50t-50 137v323h105v-307q0 -107 101 -107q32 0 61.5 15t42.5 32z" />
    <glyph glyph-name="Uhungarumlaut" unicode="&#x170;" horiz-adv-x="662" 
d="M365 848l-122 -121h-93l78 121h137zM571 848l-122 -121h-93l78 121h137zM74 229v441h107v-442q0 -71 40.5 -109.5t109.5 -38.5t109.5 38.5t40.5 109.5v442h107v-441q0 -120 -70 -183.5t-187 -63.5t-187 63.5t-70 183.5z" />
    <glyph glyph-name="uhungarumlaut" unicode="&#x171;" horiz-adv-x="548" 
d="M374 129v367h105v-496h-95v46q-19 -21 -58 -40.5t-82 -19.5q-80 0 -130 50t-50 137v323h105v-307q0 -107 101 -107q32 0 61.5 15t42.5 32zM331 670l-122 -121h-93l78 121h137zM537 670l-122 -121h-93l78 121h137z" />
    <glyph glyph-name="Uogonek" unicode="&#x172;" horiz-adv-x="662" 
d="M74 229v441h107v-442q0 -71 40.5 -109.5t109.5 -38.5t109.5 38.5t40.5 109.5v442h107v-441q0 -107 -56.5 -169.5t-152.5 -74.5q-29 -35 -29 -72q0 -21 12 -33t33 -12q14 0 25 4h3v-79q-18 -8 -48 -8q-49 0 -81 30t-32 83q0 42 30 86q-100 10 -159 72.5t-59 172.5z" />
    <glyph glyph-name="uogonek" unicode="&#x173;" horiz-adv-x="548" 
d="M374 129v367h105v-496h-8q-44 -41 -44 -87q0 -21 12 -33t33 -12q14 0 25 4h3v-79q-18 -8 -48 -8q-49 0 -81 30t-32 83q0 55 45 104v44q-19 -21 -58 -40.5t-82 -19.5q-80 0 -130 50t-50 137v323h105v-307q0 -107 101 -107q32 0 61.5 15t42.5 32z" />
    <glyph glyph-name="Wcircumflex" unicode="&#x174;" horiz-adv-x="967" 
d="M546 848l94 -121h-93l-64 67l-64 -67h-93l94 121h126zM328 300l105 370h103l104 -370l43 -157h1l45 157l111 370h112l-214 -670h-108l-119 408q-13 45 -27 114h-1q-1 -4 -10 -44t-18 -70l-118 -408h-108l-214 670h113l111 -370q22 -73 44 -157h1q7 25 22 78.5t22 78.5z
" />
    <glyph glyph-name="wcircumflex" unicode="&#x175;" horiz-adv-x="837" 
d="M480 670l94 -121h-93l-64 67l-64 -67h-93l94 121h126zM639 0h-109l-83 266q-21 70 -29 101h-1q-6 -32 -27 -101l-81 -266h-110l-177 496h107l95 -282q11 -33 20.5 -67t10.5 -36h1q12 51 28 103l86 282h98l86 -282q11 -35 30 -103h1q9 32 32 103l96 282h102z" />
    <glyph glyph-name="Ycircumflex" unicode="&#x176;" horiz-adv-x="609" 
d="M595 670v-7l-236 -361v-302h-107v301l-240 362v7h117l176 -272l175 272h115zM368 848l94 -121h-93l-64 67l-64 -67h-93l94 121h126z" />
    <glyph glyph-name="ycircumflex" unicode="&#x177;" horiz-adv-x="534" 
d="M136 -165l81 194l-198 467h109l106 -267q11 -28 18.5 -48.5t10.5 -28.5l6 -16h1q16 38 36 93l100 267h111l-275 -661h-106zM332 670l94 -121h-93l-64 67l-64 -67h-93l94 121h126z" />
    <glyph glyph-name="Ydieresis" unicode="&#x178;" horiz-adv-x="609" 
d="M595 670v-7l-236 -361v-302h-107v301l-240 362v7h117l176 -272l175 272h115zM142 797q0 26 17.5 43t42.5 17t42.5 -17t17.5 -43t-17.5 -43t-42.5 -17t-42.5 17t-17.5 43zM348 797q0 26 17.5 43t42.5 17t42.5 -17t17.5 -43t-17.5 -43t-42.5 -17t-42.5 17t-17.5 43z" />
    <glyph glyph-name="Zacute" unicode="&#x179;" horiz-adv-x="553" 
d="M418 848l-122 -121h-93l78 121h137zM33 574v96h503l-341 -574h328v-96h-508l341 574h-323z" />
    <glyph glyph-name="zacute" unicode="&#x17a;" horiz-adv-x="479" 
d="M394 670l-122 -121h-93l78 121h137zM41 406v90h417l-267 -406h251v-90h-424l266 406h-243z" />
    <glyph glyph-name="Zdotaccent" unicode="&#x17b;" horiz-adv-x="553" 
d="M212 794q0 27 18 45t45 18t45 -18t18 -45t-18 -45t-45 -18t-45 18t-18 45zM33 574v96h503l-341 -574h328v-96h-508l341 574h-323z" />
    <glyph glyph-name="zdotaccent" unicode="&#x17c;" horiz-adv-x="479" 
d="M179 616q0 27 18 45t45 18t45 -18t18 -45t-18 -45t-45 -18t-45 18t-18 45zM41 406v90h417l-267 -406h251v-90h-424l266 406h-243z" />
    <glyph glyph-name="Zcaron" unicode="&#x17d;" horiz-adv-x="553" 
d="M439 848l-94 -121h-126l-94 121h93l64 -67l64 67h93zM33 574v96h503l-341 -574h328v-96h-508l341 574h-323z" />
    <glyph glyph-name="zcaron" unicode="&#x17e;" horiz-adv-x="479" 
d="M41 406v90h417l-267 -406h251v-90h-424l266 406h-243zM399 670l-94 -121h-126l-94 121h93l64 -67l64 67h93z" />
    <glyph glyph-name="florin" unicode="&#x192;" horiz-adv-x="446" 
d="M79 8l72 403h-81v85h96l12 64q24 123 159 123q45 0 74 -11v-88h-10q-23 9 -52 9q-41 0 -56 -24t-22 -73h140v-85h-155l-83 -464q-24 -126 -160 -126q-45 0 -74 11v88h10q23 -9 52 -9q41 0 56 24t22 73z" />
    <glyph glyph-name="Aringacute" unicode="&#x1fa;" horiz-adv-x="658" 
d="M3 0l259 646q-33 31 -33 73q0 40 28.5 68t70.5 28q41 0 70.5 -28t29.5 -68q0 -42 -32 -71l257 -648h-111l-64 161h-301l-64 -161h-110zM292 462l-79 -208h231l-78 208q-14 36 -36 99h-2zM498 962l-122 -121h-93l78 121h137zM373 719q0 20 -12.5 33.5t-32.5 13.5
t-33 -13.5t-13 -33.5t13 -34t33 -14t32.5 13.5t12.5 34.5z" />
    <glyph glyph-name="aringacute" unicode="&#x1fb;" horiz-adv-x="514" 
d="M356 630q0 -40 -29.5 -68t-70.5 -28q-42 0 -70.5 28t-28.5 68t28.5 68t70.5 28q41 0 70.5 -28t29.5 -68zM301 630q0 20 -12.5 33.5t-32.5 13.5t-33 -13.5t-13 -33.5t13 -34t33 -14t32.5 13.5t12.5 34.5zM420 874l-122 -121h-93l78 121h137zM93 372h-7v95q19 14 64.5 28.5
t94.5 14.5q92 0 148.5 -45.5t56.5 -130.5v-334h-95v40q-18 -20 -55.5 -37t-87.5 -17q-77 0 -128 43.5t-51 117.5q0 77 61 121.5t152 44.5q60 0 99 -17v28q0 94 -111 94q-42 0 -80.5 -13.5t-60.5 -32.5zM264 233q-55 0 -90 -22t-35 -61q0 -38 28 -57.5t72 -19.5q66 0 106 44
v101q-24 15 -81 15z" />
    <glyph glyph-name="AEacute" unicode="&#x1fc;" horiz-adv-x="931" 
d="M622 848l-122 -121h-93l78 121h137zM325 670h555v-96h-349v-171h329v-96h-329v-211h354v-96h-461v161h-238l-80 -161h-114zM424 575h-40l-153 -321h193v321z" />
    <glyph glyph-name="aeacute" unicode="&#x1fd;" horiz-adv-x="832" 
d="M798 205h-356q3 -56 45.5 -91t116.5 -35q101 0 158 50h7v-98q-64 -45 -172 -45q-122 0 -192 76q-67 -76 -191 -76q-77 0 -129 43.5t-52 117.5q0 77 61 121.5t152 44.5q60 0 99 -17v28q0 94 -111 94q-42 0 -80.5 -13.5t-60.5 -32.5h-7v95q19 14 64.5 28.5t94.5 14.5
q117 0 165 -74q65 74 164 74q105 0 165.5 -72.5t60.5 -196.5q0 -5 -0.5 -13.5t-0.5 -11.5q-1 -4 -1 -11zM264 233q-55 0 -90 -22t-35 -61q0 -38 28 -57.5t72 -19.5q66 0 106 44v101q-24 15 -81 15zM442 290h254q-2 58 -34 93.5t-88 35.5q-54 0 -90 -37.5t-42 -91.5zM580 670
l-122 -121h-93l78 121h137z" />
    <glyph glyph-name="Oslashacute" unicode="&#x1fe;" horiz-adv-x="778" 
d="M389 -18q-108 0 -190 52l-56 -63l-67 61l53 59q-94 100 -94 244q0 150 101.5 251.5t252.5 101.5q119 0 210 -66l55 63l67 -61l-56 -64q78 -96 78 -225q0 -150 -101.5 -251.5t-252.5 -101.5zM389 591q-105 0 -175 -74.5t-70 -181.5q0 -95 55 -164l331 374q-62 46 -141 46z
M389 80q105 0 175 74t70 181q0 82 -41 144l-325 -367q53 -32 121 -32zM548 848l-122 -121h-93l78 121h137z" />
    <glyph glyph-name="oslashacute" unicode="&#x1ff;" horiz-adv-x="591" 
d="M35 248q0 112 75.5 187t185.5 75q77 0 141 -39l34 40l63 -54l-35 -41q58 -73 58 -168q0 -113 -75 -187.5t-186 -74.5q-70 0 -131 33l-38 -45l-63 54l36 43q-65 71 -65 177zM141 248q0 -56 26 -97l206 244q-35 20 -77 20q-70 0 -112.5 -47t-42.5 -120zM296 82
q68 0 111.5 47.5t43.5 118.5q0 46 -21 86l-201 -239q27 -13 67 -13zM445 670l-122 -121h-93l78 121h137z" />
    <glyph glyph-name="uni0218" unicode="&#x218;" horiz-adv-x="516" 
d="M156 502q0 -33 21 -51.5t66 -34.5l89 -32q154 -55 154 -193q0 -93 -68.5 -151t-175.5 -58q-57 0 -110.5 15.5t-84.5 39.5v105h7q22 -22 77.5 -42.5t109.5 -20.5q64 0 100 30t36 77q0 43 -26 67t-80 43l-75 27q-149 52 -149 182q0 76 62 129.5t156 53.5q49 0 98 -14.5
t74 -33.5v-106h-7q-24 22 -67.5 39.5t-90.5 17.5q-53 0 -84.5 -25t-31.5 -64zM154 -210l57 147h121l-97 -147h-81z" />
    <glyph glyph-name="uni0219" unicode="&#x219;" horiz-adv-x="427" 
d="M357 381h-7q-20 17 -55.5 28t-68.5 11q-35 0 -56 -13t-21 -33q0 -21 12.5 -32.5t37.5 -22.5l91 -40q103 -46 103 -143q0 -69 -51.5 -109.5t-136.5 -40.5q-44 0 -89 13t-67 29v96h7q18 -15 64 -31t79 -16q42 0 66.5 15t24.5 42q0 40 -54 63l-77 32q-112 51 -112 140
q0 62 46 101.5t117 39.5q45 0 86 -12t61 -26v-91zM104 -210l57 147h121l-97 -147h-81z" />
    <glyph glyph-name="uni021A" unicode="&#x21a;" horiz-adv-x="589" 
d="M348 0h-107v574h-224v96h555v-96h-224v-574zM176 -210l57 147h121l-97 -147h-81z" />
    <glyph glyph-name="uni021B" unicode="&#x21b;" horiz-adv-x="373" 
d="M109 -210l57 147h121l-97 -147h-81zM121 156v255h-108v85h108v130h105v-130h125v-85h-125v-227v-10q0 -42 2 -57t12 -23q16 -13 58 -13q23 0 48 5v-87q-41 -9 -84 -9q-74 0 -109 35q-20 22 -26 47t-6 84z" />
    <glyph glyph-name="apostrophemod" unicode="&#x2bc;" horiz-adv-x="261" 
d="M50 440l50 230h121l-100 -230h-71z" />
    <glyph glyph-name="circumflex" unicode="&#x2c6;" horiz-adv-x="444" 
d="M285 670l94 -121h-93l-64 67l-64 -67h-93l94 121h126z" />
    <glyph glyph-name="caron" unicode="&#x2c7;" horiz-adv-x="444" 
d="M379 670l-94 -121h-126l-94 121h93l64 -67l64 67h93z" />
    <glyph glyph-name="breve" unicode="&#x2d8;" horiz-adv-x="442" 
d="M221 545q-62 0 -106 33.5t-50 91.5h87q3 -19 22.5 -37t46.5 -18q32 0 49 17t20 38h87q-6 -58 -50 -91.5t-106 -33.5z" />
    <glyph glyph-name="dotaccent" unicode="&#x2d9;" horiz-adv-x="256" 
d="M65 616q0 27 18 45t45 18t45 -18t18 -45t-18 -45t-45 -18t-45 18t-18 45z" />
    <glyph glyph-name="ring" unicode="&#x2da;" horiz-adv-x="329" 
d="M264 630q0 -40 -29.5 -68t-70.5 -28q-42 0 -70.5 28t-28.5 68t28.5 68t70.5 28q41 0 70.5 -28t29.5 -68zM209 630q0 20 -12.5 33.5t-32.5 13.5t-33 -13.5t-13 -33.5t13 -34t33 -14t32.5 13.5t12.5 34.5z" />
    <glyph glyph-name="ogonek" unicode="&#x2db;" horiz-adv-x="291" 
d="M223 -128h3v-79q-18 -8 -48 -8q-49 0 -81 30t-32 83q0 55 46 105h86v-3q-44 -41 -44 -87q0 -21 12 -33t33 -12q14 0 25 4z" />
    <glyph glyph-name="tilde" unicode="&#x2dc;" horiz-adv-x="443" 
d="M168 606q-13 0 -22 -11.5t-9 -28.5l-72 12q0 43 26 72t67 29q33 0 66 -23q3 -2 10 -7t10.5 -6.5t9 -4.5t11 -4t11.5 -1q13 0 21.5 12t8.5 29l72 -12q0 -47 -27 -74t-68 -27q-34 0 -69 22q-31 23 -46 23z" />
    <glyph glyph-name="hungarumlaut" unicode="&#x2dd;" horiz-adv-x="551" 
d="M280 670l-122 -121h-93l78 121h137zM486 670l-122 -121h-93l78 121h137z" />
    <glyph glyph-name="uni0394" unicode="&#x394;" horiz-adv-x="711" 
d="M413 670l274 -670h-663l274 670h115zM539 96l-179 446h-9l-179 -446h367z" />
    <glyph glyph-name="uni03A9" unicode="&#x3a9;" horiz-adv-x="858" 
d="M429 591q-105 0 -175 -74.5t-70 -181.5q0 -82 55.5 -153.5t132.5 -88.5v-93h-333v93h159v3q-19 14 -37 32t-39 47.5t-34 71t-13 88.5q0 150 101.5 251.5t252.5 101.5t252.5 -101.5t101.5 -251.5q0 -47 -13 -88.5t-34 -71t-39 -47.5t-37 -32v-3h159v-93h-333v93
q77 17 132.5 88.5t55.5 153.5q0 107 -70 181.5t-175 74.5z" />
    <glyph glyph-name="uni03BC" unicode="&#x3bc;" horiz-adv-x="585" 
d="M188 -165h-105v661h105v-307q0 -107 101 -107q32 0 61.5 15t42.5 32v367h105v-496h-95v46q-18 -21 -56.5 -40.5t-80.5 -19.5q-52 0 -78 24v-175z" />
    <glyph glyph-name="pi" unicode="&#x3c0;" horiz-adv-x="651" 
d="M241 0h-105v411h-110v85h566v-85h-110v-250q0 -29 2.5 -41t12.5 -22q16 -16 59 -16q36 0 51 4v-88q-38 -7 -87 -7q-72 0 -110 41q-20 22 -26.5 47.5t-6.5 83.5v248h-136v-411z" />
    <glyph glyph-name="Wgrave" unicode="&#x1e80;" horiz-adv-x="967" 
d="M441 727l-122 121h137l78 -121h-93zM328 300l105 370h103l104 -370l43 -157h1l45 157l111 370h112l-214 -670h-108l-119 408q-13 45 -27 114h-1q-1 -4 -10 -44t-18 -70l-118 -408h-108l-214 670h113l111 -370q22 -73 44 -157h1q7 25 22 78.5t22 78.5z" />
    <glyph glyph-name="wgrave" unicode="&#x1e81;" horiz-adv-x="837" 
d="M377 549l-122 121h137l78 -121h-93zM639 0h-109l-83 266q-21 70 -29 101h-1q-6 -32 -27 -101l-81 -266h-110l-177 496h107l95 -282q11 -33 20.5 -67t10.5 -36h1q12 51 28 103l86 282h98l86 -282q11 -35 30 -103h1q9 32 32 103l96 282h102z" />
    <glyph glyph-name="Wacute" unicode="&#x1e82;" horiz-adv-x="967" 
d="M328 300l105 370h103l104 -370l43 -157h1l45 157l111 370h112l-214 -670h-108l-119 408q-13 45 -27 114h-1q-1 -4 -10 -44t-18 -70l-118 -408h-108l-214 670h113l111 -370q22 -73 44 -157h1q7 25 22 78.5t22 78.5zM647 848l-122 -121h-93l78 121h137z" />
    <glyph glyph-name="wacute" unicode="&#x1e83;" horiz-adv-x="837" 
d="M575 670l-122 -121h-93l78 121h137zM639 0h-109l-83 266q-21 70 -29 101h-1q-6 -32 -27 -101l-81 -266h-110l-177 496h107l95 -282q11 -33 20.5 -67t10.5 -36h1q12 51 28 103l86 282h98l86 -282q11 -35 30 -103h1q9 32 32 103l96 282h102z" />
    <glyph glyph-name="Wdieresis" unicode="&#x1e84;" horiz-adv-x="967" 
d="M320 797q0 26 17.5 43t42.5 17t42.5 -17t17.5 -43t-17.5 -43t-42.5 -17t-42.5 17t-17.5 43zM526 797q0 26 17.5 43t42.5 17t42.5 -17t17.5 -43t-17.5 -43t-42.5 -17t-42.5 17t-17.5 43zM328 300l105 370h103l104 -370l43 -157h1l45 157l111 370h112l-214 -670h-108
l-119 408q-13 45 -27 114h-1q-1 -4 -10 -44t-18 -70l-118 -408h-108l-214 670h113l111 -370q22 -73 44 -157h1q7 25 22 78.5t22 78.5z" />
    <glyph glyph-name="wdieresis" unicode="&#x1e85;" horiz-adv-x="837" 
d="M254 619q0 26 17.5 43t42.5 17t42.5 -17t17.5 -43t-17.5 -43t-42.5 -17t-42.5 17t-17.5 43zM460 619q0 26 17.5 43t42.5 17t42.5 -17t17.5 -43t-17.5 -43t-42.5 -17t-42.5 17t-17.5 43zM639 0h-109l-83 266q-21 70 -29 101h-1q-6 -32 -27 -101l-81 -266h-110l-177 496
h107l95 -282q11 -33 20.5 -67t10.5 -36h1q12 51 28 103l86 282h98l86 -282q11 -35 30 -103h1q9 32 32 103l96 282h102z" />
    <glyph glyph-name="Ygrave" unicode="&#x1ef2;" horiz-adv-x="609" 
d="M595 670v-7l-236 -361v-302h-107v301l-240 362v7h117l176 -272l175 272h115zM278 727l-122 121h137l78 -121h-93z" />
    <glyph glyph-name="ygrave" unicode="&#x1ef3;" horiz-adv-x="534" 
d="M236 549l-122 121h137l78 -121h-93zM136 -165l81 194l-198 467h109l106 -267q11 -28 18.5 -48.5t10.5 -28.5l6 -16h1q16 38 36 93l100 267h111l-275 -661h-106z" />
    <glyph glyph-name="enspace" unicode="&#x2002;" horiz-adv-x="500" 
 />
    <glyph glyph-name="emspace" unicode="&#x2003;" horiz-adv-x="1000" 
 />
    <glyph glyph-name="threeperemspace" unicode="&#x2004;" horiz-adv-x="333" 
 />
    <glyph glyph-name="fourperemspace" unicode="&#x2005;" horiz-adv-x="250" 
 />
    <glyph glyph-name="thinspace" unicode="&#x2009;" horiz-adv-x="133" 
 />
    <glyph glyph-name="hairspace" unicode="&#x200a;" horiz-adv-x="75" 
 />
    <glyph glyph-name="endash" unicode="&#x2013;" horiz-adv-x="620" 
d="M559 212h-498v92h498v-92z" />
    <glyph glyph-name="emdash" unicode="&#x2014;" horiz-adv-x="811" 
d="M750 212h-689v92h689v-92z" />
    <glyph glyph-name="quoteleft" unicode="&#x2018;" horiz-adv-x="260" 
d="M219 670l-50 -230h-124l100 230h74z" />
    <glyph glyph-name="quoteright" unicode="&#x2019;" horiz-adv-x="248" 
d="M52 440l50 230h121l-100 -230h-71z" />
    <glyph glyph-name="quotesinglbase" unicode="&#x201a;" horiz-adv-x="262" 
d="M30 -110l50 230h121l-100 -230h-71z" />
    <glyph glyph-name="quotedblleft" unicode="&#x201c;" horiz-adv-x="450" 
d="M219 670l-50 -230h-124l100 230h74zM409 670l-50 -230h-124l100 230h74z" />
    <glyph glyph-name="quotedblright" unicode="&#x201d;" horiz-adv-x="439" 
d="M52 440l50 230h121l-100 -230h-71zM243 440l50 230h121l-100 -230h-71z" />
    <glyph glyph-name="quotedblbase" unicode="&#x201e;" horiz-adv-x="453" 
d="M30 -110l50 230h121l-100 -230h-71zM221 -110l50 230h121l-100 -230h-71z" />
    <glyph glyph-name="dagger" unicode="&#x2020;" horiz-adv-x="504" 
d="M302 -147h-100v553h-170v90h170v192h100v-192h170v-90h-170v-553z" />
    <glyph glyph-name="daggerdbl" unicode="&#x2021;" 
d="M326 -147h-100v192h-170v90h170v271h-170v90h170v192h100v-192h170v-90h-170v-271h170v-90h-170v-192z" />
    <glyph glyph-name="bullet" unicode="&#x2022;" horiz-adv-x="426" 
d="M358 287q0 -61 -41.5 -103t-103.5 -42t-103.5 42t-41.5 103t41.5 103t103.5 42t103.5 -42t41.5 -103z" />
    <glyph glyph-name="ellipsis" unicode="&#x2026;" horiz-adv-x="860" 
d="M53 59q0 32 21 52.5t52 20.5t52 -20.5t21 -52.5t-21 -52.5t-52 -20.5t-52 20.5t-21 52.5zM357 59q0 32 21 52.5t52 20.5t52 -20.5t21 -52.5t-21 -52.5t-52 -20.5t-52 20.5t-21 52.5zM661 59q0 32 21 52.5t52 20.5t52 -20.5t21 -52.5t-21 -52.5t-52 -20.5t-52 20.5
t-21 52.5z" />
    <glyph glyph-name="perthousand" unicode="&#x2030;" horiz-adv-x="1211" 
d="M190 379q35 0 53 31.5t18 81.5q0 49 -18.5 81.5t-52.5 32.5t-52.5 -32.5t-18.5 -81.5q0 -50 18 -81.5t53 -31.5zM654 -8q-72 0 -114 51.5t-42 133.5t42.5 134t113.5 52t113.5 -52t42.5 -134t-42 -133.5t-114 -51.5zM190 307q-72 0 -114 51.5t-42 133.5t42.5 134t113.5 52
t113.5 -52t42.5 -134t-42 -133.5t-114 -51.5zM654 64q35 0 53 31.5t18 81.5q0 49 -18.5 81.5t-52.5 32.5t-52.5 -32.5t-18.5 -81.5q0 -50 18 -81.5t53 -31.5zM1022 -8q-72 0 -114 51.5t-42 133.5t42.5 134t113.5 52t113.5 -52t42.5 -134t-42 -133.5t-114 -51.5zM1022 64
q35 0 53 31.5t18 81.5q0 49 -18.5 81.5t-52.5 32.5t-52.5 -32.5t-18.5 -81.5q0 -50 18 -81.5t53 -31.5zM680 663l-409 -663h-93v7l407 663h95v-7z" />
    <glyph glyph-name="guilsinglleft" unicode="&#x2039;" horiz-adv-x="330" 
d="M39 250l142 201h105v-7l-137 -194l129 -190v-7h-105z" />
    <glyph glyph-name="guilsinglright" unicode="&#x203a;" horiz-adv-x="330" 
d="M149 451l142 -201l-134 -197h-105v7l129 190l-137 194v7h105z" />
    <glyph glyph-name="fraction" unicode="&#x2044;" horiz-adv-x="471" 
d="M478 665l-399 -665h-84v5l398 665h85v-5z" />
    <glyph glyph-name="Euro" unicode="&#x20ac;" horiz-adv-x="611" 
d="M114 226h-78v78h67q-1 11 -1 33q0 17 1 26h-67v78h77q26 115 106 181t184 66q86 0 156 -40v-101h-7q-52 45 -144 45q-64 0 -113.5 -39t-72.5 -112h245v-78h-259v-26q0 -22 1 -33h258v-78h-243q23 -70 72.5 -107t111.5 -37q92 0 144 45h7v-101q-70 -40 -156 -40
q-104 0 -183 63.5t-106 176.5z" />
    <glyph glyph-name="trademark" unicode="&#x2122;" horiz-adv-x="941" 
d="M263 264h-78v332h-130v74h338v-74h-130v-332zM701 353h-86l-94 238h-2q0 -21 1 -32q2 -38 2 -63v-232h-77v406h120l93 -237l93 237h118v-406h-77v232q0 25 2 63l2 32h-2z" />
    <glyph glyph-name="Omega" unicode="&#x2126;" horiz-adv-x="858" 
d="M429 591q-105 0 -175 -74.5t-70 -181.5q0 -82 55.5 -153.5t132.5 -88.5v-93h-333v93h159v3q-19 14 -37 32t-39 47.5t-34 71t-13 88.5q0 150 101.5 251.5t252.5 101.5t252.5 -101.5t101.5 -251.5q0 -47 -13 -88.5t-34 -71t-39 -47.5t-37 -32v-3h159v-93h-333v93
q77 17 132.5 88.5t55.5 153.5q0 107 -70 181.5t-175 74.5z" />
    <glyph glyph-name="arrowleft" unicode="&#x2190;" horiz-adv-x="746" 
d="M270 47l-210 211l210 210h123v-8l-159 -154h462v-96h-462l157 -154v-9h-121z" />
    <glyph glyph-name="arrowup" unicode="&#x2191;" horiz-adv-x="561" 
d="M70 362l211 210l210 -210v-123h-8l-154 159v-462h-96v462l-154 -157h-9v121z" />
    <glyph glyph-name="arrowright" unicode="&#x2192;" horiz-adv-x="746" 
d="M696 258l-210 -211h-121v9l157 154h-462v96h462l-159 154v8h123z" />
    <glyph glyph-name="arrowdown" unicode="&#x2193;" horiz-adv-x="561" 
d="M281 -64l-211 210v121h9l154 -157v462h96v-462l154 159h8v-123z" />
    <glyph glyph-name="uni2196" unicode="&#x2196;" horiz-adv-x="599" 
d="M85 198v298h297l87 -87l-6 -6l-221 3l327 -326l-68 -68l-327 327l2 -220l-6 -7z" />
    <glyph glyph-name="uni2197" unicode="&#x2197;" horiz-adv-x="599" 
d="M514 496v-298l-85 -86l-6 7l2 220l-327 -327l-68 68l327 326l-221 -3l-6 6l87 87h297z" />
    <glyph glyph-name="uni2198" unicode="&#x2198;" horiz-adv-x="600" 
d="M515 298l-1 -298h-297l-87 87l6 6l221 -3l-327 326l68 68l327 -327l-2 220l6 7z" />
    <glyph glyph-name="uni2199" unicode="&#x2199;" horiz-adv-x="600" 
d="M86 0l-1 298l86 86l6 -7l-2 -220l327 327l68 -68l-327 -326l221 3l6 -6l-87 -87h-297z" />
    <glyph glyph-name="partialdiff" unicode="&#x2202;" horiz-adv-x="588" 
d="M37 238q0 103 67 173t165 70q26 0 33 -2l-139 184v7h124l171 -226q95 -121 95 -206q0 -109 -72.5 -180.5t-184.5 -71.5t-185.5 71.5t-73.5 180.5zM143 238q0 -69 43.5 -114.5t109.5 -45.5t108.5 45.5t42.5 114.5q0 37 -26 77.5t-55 69.5q-27 13 -66 13
q-66 0 -111.5 -45.5t-45.5 -114.5z" />
    <glyph glyph-name="Delta" unicode="&#x2206;" horiz-adv-x="711" 
d="M413 670l274 -670h-663l274 670h115zM539 96l-179 446h-9l-179 -446h367z" />
    <glyph glyph-name="product" unicode="&#x220f;" horiz-adv-x="870" 
d="M729 -165h-107v739h-374v-739h-107v739h-110v96h808v-96h-110v-739z" />
    <glyph glyph-name="summation" unicode="&#x2211;" horiz-adv-x="560" 
d="M412 258v-11l-241 -316h346v-96h-481v77l255 341l-255 340v77h481v-96h-346z" />
    <glyph glyph-name="minus" unicode="&#x2212;" horiz-adv-x="573" 
d="M511 212h-449v92h449v-92z" />
    <glyph glyph-name="uni2219" unicode="&#x2219;" horiz-adv-x="264" 
d="M59 324q0 32 21 52.5t52 20.5t52 -20.5t21 -52.5t-21 -52.5t-52 -20.5t-52 20.5t-21 52.5z" />
    <glyph glyph-name="radical" unicode="&#x221a;" horiz-adv-x="615" 
d="M29 496h206l113 -333l158 507h104l-207 -670h-106l-139 411h-129v85z" />
    <glyph glyph-name="infinity" unicode="&#x221e;" horiz-adv-x="924" 
d="M467 231l-78 100q-23 26 -35 39t-39 29t-53 16q-50 0 -80.5 -30t-30.5 -71t30.5 -71t80.5 -30q67 0 123 58h2v-105q-24 -22 -61.5 -35t-72.5 -13q-88 0 -145 58.5t-57 137.5t57 137.5t145 58.5q115 0 204 -113l78 -100q65 -84 127 -84q51 1 81 30t30 71q0 41 -30.5 71
t-80.5 30q-67 0 -123 -58h-2v105q24 22 61.5 35t72.5 13q88 0 145 -58.5t57 -137.5t-57 -137.5t-145 -58.5q-114 0 -204 113z" />
    <glyph glyph-name="integral" unicode="&#x222b;" horiz-adv-x="494" 
d="M343 496l-98 -549q-24 -126 -160 -126q-45 0 -74 11v88h10q23 -9 52 -9q41 0 56 24t22 73l99 552q24 123 159 123q45 0 74 -11v-88h-10q-23 9 -52 9q-41 0 -56 -24t-22 -73z" />
    <glyph glyph-name="approxequal" unicode="&#x2248;" horiz-adv-x="578" 
d="M74 308h-7v89q39 39 106 39q45 0 126 -34q81 -35 122 -35q50 0 83 30h7v-89q-30 -38 -92 -38q-26 0 -53 7t-54 17.5t-32 12.5q-7 2 -26.5 9.5t-30.5 11t-27 7t-29 3.5q-63 0 -93 -30zM74 119h-7v89q39 39 106 39q45 0 126 -34q81 -35 122 -35q50 0 83 30h7v-89
q-30 -38 -92 -38q-26 0 -53 7t-54 17.5t-32 12.5q-7 2 -26.5 9.5t-30.5 11t-27 7t-29 3.5q-63 0 -93 -30z" />
    <glyph glyph-name="notequal" unicode="&#x2260;" horiz-adv-x="597" 
d="M359 515h86l-46 -115h124v-92h-161l-39 -100h200v-93h-237l-46 -115h-86l46 115h-126v93h163l39 100h-202v92h239z" />
    <glyph glyph-name="lessequal" unicode="&#x2264;" horiz-adv-x="569" 
d="M512 0h-456v92h456v-92zM56 279v87l449 144h7v-96l-325 -91l325 -92v-96h-7z" />
    <glyph glyph-name="greaterequal" unicode="&#x2265;" horiz-adv-x="569" 
d="M513 0h-456v92h456v-92zM513 366v-87l-449 -144h-7v96l325 92l-325 91v96h7z" />
    <glyph glyph-name="dotmath" unicode="&#x22c5;" horiz-adv-x="458" 
d="M52 234q0 74 52 125.5t125 51.5t125 -51.5t52 -125.5t-52 -125.5t-125 -51.5t-125 51.5t-52 125.5z" />
    <glyph glyph-name="lozenge" unicode="&#x25ca;" horiz-adv-x="507" 
d="M254 559h-1l-121 -224l121 -224h1l121 224zM209 670h89l175 -335l-175 -335h-89l-175 335z" />
    <glyph glyph-name="commaaccent" unicode="&#xf6c3;" horiz-adv-x="308" 
d="M65 -210l57 147h121l-97 -147h-81z" />
    <glyph glyph-name="uniF8FF" unicode="&#xf8ff;" horiz-adv-x="794" 
d="M44 335q0 147 103 250t250 103t250 -103t103 -250t-102.5 -250t-250.5 -103t-250.5 103t-102.5 250z" />
    <glyph glyph-name="h.ss03" 
d="M378 0v411h-204v-411h-105v670h105v-174h309v-496h-105z" />
    <glyph glyph-name="ugrave.ss03" horiz-adv-x="548" 
d="M246 549l-122 121h137l78 -121h-93zM374 85v411h105v-496h-410v496h105v-411h200z" />
    <glyph glyph-name="udieresis.ss03" horiz-adv-x="548" 
d="M115 619q0 26 17.5 43t42.5 17t42.5 -17t17.5 -43t-17.5 -43t-42.5 -17t-42.5 17t-17.5 43zM321 619q0 26 17.5 43t42.5 17t42.5 -17t17.5 -43t-17.5 -43t-42.5 -17t-42.5 17t-17.5 43zM374 85v411h105v-496h-410v496h105v-411h200z" />
    <glyph glyph-name="hcircumflex.ss03" 
d="M185 848l94 -121h-93l-64 67l-64 -67h-93l94 121h126zM378 0v411h-204v-411h-105v670h105v-174h309v-496h-105z" />
    <glyph glyph-name="brokenbar.case" horiz-adv-x="286" 
d="M194 432h-102v322h102v-322zM194 -80h-102v322h102v-322z" />
    <glyph glyph-name="ntilde.ss03" 
d="M220 606q-13 0 -22 -11.5t-9 -28.5l-72 12q0 43 26 72t67 29q33 0 66 -23q3 -2 10 -7t10.5 -6.5t9 -4.5t11 -4t11.5 -1q13 0 21.5 12t8.5 29l72 -12q0 -47 -27 -74t-68 -27q-34 0 -69 22q-31 23 -46 23zM378 0v411h-204v-411h-105v496h414v-496h-105z" />
    <glyph glyph-name="uogonek.ss03" horiz-adv-x="548" 
d="M374 85v411h105v-496h-8q-44 -41 -44 -87q0 -21 12 -33t33 -12q14 0 25 4h3v-79q-18 -8 -48 -8q-49 0 -81 30t-32 83q0 54 43 102h-313v496h105v-411h200z" />
    <glyph glyph-name="eng.ss03" 
d="M378 411h-204v-411h-105v496h414v-661h-231v92h126v484z" />
    <glyph glyph-name="ncaron.ss03" 
d="M446 670l-94 -121h-126l-94 121h93l64 -67l64 67h93zM378 0v411h-204v-411h-105v496h414v-496h-105z" />
    <glyph glyph-name="uhungarumlaut.ss03" horiz-adv-x="548" 
d="M331 670l-122 -121h-93l78 121h137zM537 670l-122 -121h-93l78 121h137zM374 85v411h105v-496h-410v496h105v-411h200z" />
    <glyph glyph-name="uring.ss03" horiz-adv-x="548" 
d="M372 630q0 -40 -29.5 -68t-70.5 -28q-42 0 -70.5 28t-28.5 68t28.5 68t70.5 28q41 0 70.5 -28t29.5 -68zM317 630q0 20 -12.5 33.5t-32.5 13.5t-33 -13.5t-13 -33.5t13 -34t33 -14t32.5 13.5t12.5 34.5zM374 85v411h105v-496h-410v496h105v-411h200z" />
    <glyph glyph-name="ubreve.ss03" horiz-adv-x="548" 
d="M279 545q-62 0 -106 33.5t-50 91.5h87q3 -19 22.5 -37t46.5 -18q32 0 49 17t20 38h87q-6 -58 -50 -91.5t-106 -33.5zM374 85v411h105v-496h-410v496h105v-411h200z" />
    <glyph glyph-name="umacron.ss03" horiz-adv-x="548" 
d="M425 588h-315v82h315v-82zM374 85v411h105v-496h-410v496h105v-411h200z" />
    <glyph glyph-name="utilde.ss03" horiz-adv-x="548" 
d="M221 606q-13 0 -22 -11.5t-9 -28.5l-72 12q0 43 26 72t67 29q33 0 66 -23q3 -2 10 -7t10.5 -6.5t9 -4.5t11 -4t11.5 -1q13 0 21.5 12t8.5 29l72 -12q0 -47 -27 -74t-68 -27q-34 0 -69 22q-31 23 -46 23zM374 85v411h105v-496h-410v496h105v-411h200z" />
    <glyph glyph-name="nacute.ss03" 
d="M433 670l-122 -121h-93l78 121h137zM378 0v411h-204v-411h-105v496h414v-496h-105z" />
    <glyph glyph-name="ncommaaccent.ss03" 
d="M378 0v411h-204v-411h-105v496h414v-496h-105zM167 -210l57 147h121l-97 -147h-81z" />
    <glyph glyph-name="napostrophe.ss03" 
d="M-15 523l57 147h121l-97 -147h-81zM378 0v411h-204v-411h-105v496h414v-496h-105z" />
    <glyph glyph-name="hbar.ss03" 
d="M378 0v411h-204v-411h-105v545h-90v75h90v50h105v-50h144v-75h-144v-49h309v-496h-105z" />
    <glyph glyph-name="acute.uc" horiz-adv-x="349" 
d="M284 670l-121 -95h-98l76 95h143z" />
    <glyph glyph-name="grave.uc" horiz-adv-x="349" 
d="M186 575l-121 95h143l76 -95h-98z" />
    <glyph glyph-name="dieresis.uc" horiz-adv-x="462" 
d="M65 619q0 26 17.5 43t42.5 17t42.5 -17t17.5 -43t-17.5 -43t-42.5 -17t-42.5 17t-17.5 43zM277 619q0 26 17.5 43t42.5 17t42.5 -17t17.5 -43t-17.5 -43t-42.5 -17t-42.5 17t-17.5 43z" />
    <glyph glyph-name="tilde.uc" horiz-adv-x="443" 
d="M168 611q-13 0 -22 -11.5t-9 -28.5l-72 12q0 43 25.5 69.5t67.5 26.5q33 0 66 -23q3 -2 10 -7t10.5 -6.5t9 -4.5t11 -4t11.5 -1q13 0 21.5 12t8.5 29l72 -10q0 -46 -27 -72t-68 -26q-34 0 -69 22q-31 23 -46 23z" />
    <glyph glyph-name="macron.uc" horiz-adv-x="445" 
d="M380 594h-315v76h315v-76z" />
    <glyph glyph-name="breve.uc" horiz-adv-x="402" 
d="M254 670h83q-6 -48 -43 -76t-93 -28t-93 28t-43 76h83q5 -45 53 -45q46 0 53 45z" />
    <glyph glyph-name="dotaccent.uc" horiz-adv-x="244" 
d="M65 622q0 24 17 40.5t40 16.5t40 -16.5t17 -40.5t-16.5 -40t-40.5 -16t-40.5 16t-16.5 40z" />
    <glyph glyph-name="ring.uc" horiz-adv-x="329" 
d="M264 592q0 -40 -29.5 -68t-70.5 -28q-42 0 -70.5 28t-28.5 68t28.5 68t70.5 28q41 0 70.5 -28t29.5 -68zM209 592q0 20 -12.5 33.5t-32.5 13.5t-33 -13.5t-13 -33.5t13 -34t33 -14t32.5 13.5t12.5 34.5z" />
    <glyph glyph-name="hungarumlaut.uc" horiz-adv-x="562" 
d="M284 670l-121 -95h-98l76 95h143zM497 670l-121 -95h-98l76 95h143z" />
    <glyph glyph-name="caron.uc" horiz-adv-x="446" 
d="M381 670l-100 -95h-116l-100 95h104l54 -41l54 41h104z" />
    <glyph glyph-name="circumflex.uc" horiz-adv-x="446" 
d="M281 670l100 -95h-104l-54 41l-54 -41h-104l100 95h116z" />
    <glyph glyph-name="uni00AD.case" horiz-adv-x="402" 
d="M340 273h-278v92h278v-92z" />
    <glyph glyph-name="endash.case" horiz-adv-x="622" 
d="M560 273h-498v92h498v-92z" />
    <glyph glyph-name="emdash.case" horiz-adv-x="813" 
d="M751 273h-689v92h689v-92z" />
    <glyph glyph-name="hyphen.case" horiz-adv-x="394" 
d="M332 273h-270v92h270v-92z" />
    <glyph glyph-name="guillemotleft.case" horiz-adv-x="555" 
d="M45 319l142 201h105v-7l-137 -194l129 -190v-7h-105zM259 319l142 201h105v-7l-137 -194l129 -190v-7h-105z" />
    <glyph glyph-name="guillemotright.case" horiz-adv-x="555" 
d="M368 520l142 -201l-134 -197h-105v7l129 190l-137 194v7h105zM154 520l142 -201l-134 -197h-105v7l129 190l-137 194v7h105z" />
    <glyph glyph-name="guilsinglleft.case" horiz-adv-x="341" 
d="M45 319l142 201h105v-7l-137 -194l129 -190v-7h-105z" />
    <glyph glyph-name="guilsinglright.case" horiz-adv-x="341" 
d="M154 520l142 -201l-134 -197h-105v7l129 190l-137 194v7h105z" />
    <glyph glyph-name="parenleft.case" horiz-adv-x="338" 
d="M41 329q0 134 47.5 241.5t116.5 176.5h114v-7q-176 -171 -176 -411q0 -124 50 -231t126 -179v-7h-116q-66 64 -114 175t-48 242z" />
    <glyph glyph-name="parenright.case" horiz-adv-x="338" 
d="M297 329q0 -131 -48 -242t-114 -175h-116v7q76 72 126 179t50 231q0 240 -176 411v7h114q69 -69 116.5 -176.5t47.5 -241.5z" />
    <glyph glyph-name="bracketleft.case" horiz-adv-x="338" 
d="M300 -13v-75h-209v835h209v-75h-109v-685h109z" />
    <glyph glyph-name="bracketright.case" horiz-adv-x="338" 
d="M38 -88v75h109v685h-109v75h209v-835h-209z" />
    <glyph glyph-name="braceleft.case" horiz-adv-x="308" 
d="M138 330v-2q27 -12 38 -39t11 -87v-131q0 -51 11.5 -66.5t66.5 -15.5v-77h-21q-99 0 -128.5 31t-29.5 108v192q0 55 -40 61v50q40 6 40 61v192q0 77 29.5 108t128.5 31h21v-77q-55 0 -66.5 -15.5t-11.5 -66.5v-131q0 -63 -10.5 -88t-38.5 -38z" />
    <glyph glyph-name="braceright.case" horiz-adv-x="308" 
d="M170 328v2q-28 13 -38.5 38t-10.5 88v131q0 51 -11.5 66.5t-66.5 15.5v77h21q99 0 128.5 -31t29.5 -108v-192q0 -55 40 -61v-50q-40 -6 -40 -61v-192q0 -77 -29.5 -108t-128.5 -31h-21v77q55 0 66.5 15.5t11.5 66.5v131q0 60 11 87t38 39z" />
    <glyph glyph-name="bar.case" horiz-adv-x="282" 
d="M191 -88h-100v835h100v-835z" />
    <glyph glyph-name="minus.case" horiz-adv-x="573" 
d="M511 273h-449v92h449v-92z" />
    <glyph glyph-name="multiply.case" horiz-adv-x="565" 
d="M282 385l170 170l68 -68l-170 -170l171 -171l-68 -67l-171 171l-171 -171l-67 67l171 171l-170 170l68 68z" />
    <glyph glyph-name="plus.case" horiz-adv-x="537" 
d="M317 81h-100v192h-181v92h181v192h100v-192h183v-92h-183v-192z" />
    <glyph glyph-name="less.case" horiz-adv-x="521" 
d="M203 319l247 -148v-100h-7l-410 244v7l410 245h7v-100z" />
    <glyph glyph-name="equal.case" horiz-adv-x="573" 
d="M511 370h-449v92h449v-92zM511 177h-449v93h449v-93z" />
    <glyph glyph-name="greater.case" horiz-adv-x="521" 
d="M71 171l247 148l-247 148v100h7l410 -245v-7l-410 -244h-7v100z" />
    <glyph glyph-name="notequal.case" horiz-adv-x="620" 
d="M370 578h86l-46 -115h124v-92h-161l-39 -100h200v-93h-237l-46 -115h-86l46 115h-126v93h163l39 100h-202v92h239z" />
    <glyph glyph-name="plusminus.case" horiz-adv-x="581" 
d="M515 64h-449v92h449v-92zM340 204h-100v139h-174v92h174v139h100v-139h175v-92h-175v-139z" />
    <glyph glyph-name="lessequal.case" horiz-adv-x="592" 
d="M521 64h-456v92h456v-92zM65 344v87l449 144h7v-96l-325 -91l325 -92v-96h-7z" />
    <glyph glyph-name="greaterequal.case" horiz-adv-x="592" 
d="M527 64h-456v92h456v-92zM527 431v-87l-449 -144h-7v96l325 92l-325 91v96h7z" />
    <glyph glyph-name="logicalnot.case" horiz-adv-x="563" 
d="M496 180h-105v186h-339v92h444v-278z" />
    <glyph glyph-name="approxequal.case" horiz-adv-x="579" 
d="M73 369h-7v89q39 39 106 39q45 0 126 -34q81 -35 122 -35q50 0 83 30h7v-89q-30 -38 -92 -38q-26 0 -53 7t-54 17.5t-32 12.5q-7 2 -26.5 9.5t-30.5 11t-27 7t-29 3.5q-63 0 -93 -30zM73 180h-7v89q39 39 106 39q45 0 126 -34q81 -35 122 -35q50 0 83 30h7v-89
q-30 -38 -92 -38q-26 0 -53 7t-54 17.5t-32 12.5q-7 2 -26.5 9.5t-30.5 11t-27 7t-29 3.5q-63 0 -93 -30z" />
    <glyph glyph-name="divide.case" horiz-adv-x="559" 
d="M208 134q0 32 21 52.5t52 20.5t52 -20.5t21 -52.5t-21 -52.5t-52 -20.5t-52 20.5t-21 52.5zM208 498q0 32 21 52.5t52 20.5t52 -20.5t21 -52.5t-21 -52.5t-52 -20.5t-52 20.5t-21 52.5zM510 273h-461v92h461v-92z" />
    <glyph glyph-name="two.posf" horiz-adv-x="481" 
d="M205 92h228v-92h-382v86l210 160q58 45 58 94q0 34 -27 54.5t-73 20.5q-45 0 -87.5 -22t-65.5 -49h-10v104q29 24 76.5 43t89.5 19q90 0 146.5 -44t56.5 -115q0 -94 -93 -165l-73 -56q-34 -25 -54 -38z" />
    <glyph glyph-name="zero.posf" horiz-adv-x="612" 
d="M41 248q0 112 75.5 187t188.5 75q114 0 190 -75.5t76 -186.5q0 -112 -76 -187t-190 -75q-113 0 -188.5 75t-75.5 187zM146 248q0 -69 45.5 -115.5t113.5 -46.5t114.5 47t46.5 115t-46.5 115t-114.5 47t-113.5 -46.5t-45.5 -115.5z" />
    <glyph glyph-name="three.posf" horiz-adv-x="506" 
d="M279 267q85 -13 138.5 -73.5t53.5 -138.5q0 -108 -73 -171t-179 -63q-103 0 -172 52v101h7q26 -25 69 -41.5t88 -16.5q67 0 110.5 39t43.5 97q0 62 -43 98.5t-111 36.5q-51 0 -89 -16h-5v54l122 122q29 28 63 57h-255v92h388v-72l-123 -126q-22 -22 -33 -31z" />
    <glyph glyph-name="four.posf" horiz-adv-x="540" 
d="M18 0v80l279 416h121v-404h87v-92h-87v-165h-105v165h-295zM317 364h-1l-17 -29l-40 -62l-122 -181h176v129q0 44 2 98z" />
    <glyph glyph-name="five.posf" horiz-adv-x="518" 
d="M153 404v-144q37 31 110 31q91 0 157.5 -63t66.5 -167q0 -113 -72 -176.5t-181 -63.5q-51 0 -101.5 15.5t-79.5 37.5v104h7q23 -23 73.5 -42.5t97.5 -19.5q67 0 108.5 40.5t41.5 104.5q0 65 -37.5 102t-97.5 37q-81 0 -114 -61h-79v357h385v-92h-285z" />
    <glyph glyph-name="six.posf" horiz-adv-x="569" 
d="M39 225q0 69 38 130q12 21 74 115t127 200h113v-7l-93 -154q-7 -12 -43 -64q24 10 60 10q93 0 157.5 -69t64.5 -161q0 -94 -66.5 -166.5t-181.5 -72.5t-182.5 72t-67.5 167zM145 226q0 -61 40.5 -103t101.5 -42q62 0 103 41.5t41 103.5q0 60 -41.5 101.5t-102.5 41.5
q-62 0 -102 -41t-40 -102z" />
    <glyph glyph-name="seven.posf" horiz-adv-x="493" 
d="M27 496h472l-324 -661h-115l278 569h-311v92z" />
    <glyph glyph-name="eight.posf" horiz-adv-x="564" 
d="M282 -14q-99 0 -168 56.5t-69 149.5q0 57 29.5 102t72.5 64q-36 14 -58 54.5t-22 85.5q0 87 64 136.5t151 49.5t151 -49.5t64 -136.5q0 -45 -22 -85.5t-58 -54.5q43 -19 72.5 -64t29.5 -102q0 -93 -69 -149.5t-168 -56.5zM282 82q53 0 92.5 30.5t39.5 84.5q0 49 -38 83
t-94 34t-94 -34t-38 -83q0 -54 39.5 -84.5t92.5 -30.5zM393 498q0 44 -31 68.5t-80 24.5t-80 -24.5t-31 -68.5q0 -45 32 -71.5t79 -26.5t79 26.5t32 71.5z" />
    <glyph glyph-name="nine.posf" horiz-adv-x="555" 
d="M523 271q0 -69 -38 -130q-10 -17 -70 -107t-126 -199h-113v7l88 145q7 12 43 64q-24 -10 -60 -10q-93 0 -157.5 69t-64.5 161q0 94 66.5 166.5t181.5 72.5t182.5 -72t67.5 -167zM417 270q0 61 -40.5 103t-101.5 42q-62 0 -103 -41.5t-41 -103.5q0 -60 41.5 -101.5
t102.5 -41.5q62 0 102 41t40 102z" />
    <glyph glyph-name="m.ss03" horiz-adv-x="820" 
d="M646 0v411h-183v-411h-105v411h-184v-411h-105v496h682v-496h-105z" />
    <glyph glyph-name="n.ss03" 
d="M378 0v411h-204v-411h-105v496h414v-496h-105z" />
    <glyph glyph-name="u.ss03" horiz-adv-x="548" 
d="M374 85v411h105v-496h-410v496h105v-411h200z" />
    <glyph glyph-name="zero.tlf" horiz-adv-x="570" 
d="M285 -14q-124 0 -187.5 96.5t-63.5 251.5q0 153 66 251.5t185 98.5q124 0 187.5 -97.5t63.5 -252.5q0 -156 -62.5 -252t-188.5 -96zM285 82q72 0 108.5 68t36.5 184q0 112 -36.5 183.5t-108.5 71.5q-69 0 -107 -72t-38 -183q0 -113 36.5 -182.5t108.5 -69.5z" />
    <glyph glyph-name="two.tlf" horiz-adv-x="570" 
d="M221 92h275v-92h-420v72l217 251q5 6 25 28.5t26.5 31.5t18.5 27t16 33.5t4 32.5q0 53 -37 83t-96 30q-48 0 -95.5 -26t-69.5 -58h-7v111q27 27 74.5 47.5t107.5 20.5q105 0 166.5 -57t61.5 -147q0 -86 -91 -188l-102 -118q-56 -64 -74 -82z" />
    <glyph glyph-name="three.tlf" horiz-adv-x="570" 
d="M465 598l-161 -165q88 -12 142.5 -72.5t54.5 -140.5q0 -108 -73 -171t-179 -63q-103 0 -172 52v101h7q26 -25 69 -41.5t88 -16.5q67 0 110.5 39t43.5 97q0 62 -43 98.5t-111 36.5q-51 0 -89 -16h-5v63l122 122q29 29 63 57h-255v92h388v-72z" />
    <glyph glyph-name="four.tlf" horiz-adv-x="570" 
d="M32 213l271 457h134v-448h87v-92h-87v-130h-105v130h-300v83zM335 555h-1q-22 -51 -50 -101l-138 -232h186v234q0 68 3 99z" />
    <glyph glyph-name="five.tlf" horiz-adv-x="570" 
d="M179 578v-153q37 31 110 31q91 0 157.5 -63t66.5 -167q0 -113 -72 -176.5t-181 -63.5q-51 0 -101.5 15.5t-79.5 37.5v104h7q23 -23 73.5 -42.5t97.5 -19.5q67 0 108.5 40.5t41.5 104.5q0 65 -37.5 102t-97.5 37q-81 0 -114 -61h-79v366h385v-92h-285z" />
    <glyph glyph-name="six.tlf" horiz-adv-x="570" 
d="M39 225q0 69 38 130q12 21 74 115t127 200h113v-7l-93 -154q-7 -12 -43 -64q24 10 60 10q93 0 157.5 -69t64.5 -161q0 -94 -66.5 -166.5t-181.5 -72.5t-182.5 72t-67.5 167zM145 226q0 -61 40.5 -103t101.5 -42q62 0 103 41.5t41 103.5q0 60 -41.5 101.5t-102.5 41.5
q-62 0 -102 -41t-40 -102z" />
    <glyph glyph-name="seven.tlf" horiz-adv-x="570" 
d="M68 670h472l-328 -670h-115l282 578h-311v92z" />
    <glyph glyph-name="eight.tlf" horiz-adv-x="570" 
d="M285 -14q-99 0 -168 56.5t-69 149.5q0 57 29.5 102t72.5 64q-36 14 -58 54.5t-22 85.5q0 87 64 136.5t151 49.5t151 -49.5t64 -136.5q0 -45 -22 -85.5t-58 -54.5q43 -19 72.5 -64t29.5 -102q0 -93 -69 -149.5t-168 -56.5zM285 82q53 0 92.5 30.5t39.5 84.5q0 49 -38 83
t-94 34t-94 -34t-38 -83q0 -54 39.5 -84.5t92.5 -30.5zM396 498q0 44 -31 68.5t-80 24.5t-80 -24.5t-31 -68.5q0 -45 32 -71.5t79 -26.5t79 26.5t32 71.5z" />
    <glyph glyph-name="nine.tlf" horiz-adv-x="570" 
d="M536 445q0 -69 -38 -130q-12 -21 -74 -115t-127 -200h-113v7l93 154q7 12 43 64q-24 -10 -60 -10q-93 0 -157.5 69t-64.5 161q0 94 66.5 166.5t181.5 72.5t182.5 -72t67.5 -167zM430 444q0 61 -40.5 103t-101.5 42q-62 0 -103 -41.5t-41 -103.5q0 -60 41.5 -101.5
t102.5 -41.5q62 0 102 41t40 102z" />
    <glyph glyph-name="idotaccent" horiz-adv-x="243" 
d="M174 0h-105v496h105v-496zM59 625q0 27 18 45t45 18t45 -18t18 -45t-18 -45t-45 -18t-45 18t-18 45z" />
    <glyph glyph-name="question.ss01" horiz-adv-x="501" 
d="M344 184h-277l238 390h-252v96h421l-242 -397h112v-89zM146 55q0 29 20.5 49t48.5 20t48.5 -20t20.5 -49t-20.5 -49t-48.5 -20t-48.5 20t-20.5 49z" />
    <glyph glyph-name="ampersand.ss01" horiz-adv-x="625" 
d="M511 0l-33 50q-76 -68 -183 -68q-108 0 -179.5 66t-71.5 164q0 153 164 230l-151 228h389v-96h-212l182 -276q12 -18 25.5 -41t21 -36t8.5 -14v141h89v-60q0 -109 -26 -163l76 -118v-7h-99zM150 217q0 -60 47 -100t104 -40q79 0 122 46l-165 243q-49 -21 -78.5 -60
t-29.5 -89z" />
    <glyph glyph-name="at.ss01" horiz-adv-x="1008" 
d="M921 660v-452q0 -90 -40.5 -138t-120.5 -48q-90 0 -129 62q-60 -58 -145 -58q-87 0 -156 59.5t-69 168.5q0 56 22 102t56.5 72t71 40t70.5 14q73 0 124 -41v31h91v-290q0 -69 62 -69q34 0 47.5 23t13.5 81v351h-626v-631h493v-92h-595v815h830zM605 159v195
q-44 37 -106 37q-59 0 -96.5 -39t-37.5 -96q0 -62 37.5 -100.5t94.5 -38.5q69 0 108 42z" />
    <glyph glyph-name="one.ss01" horiz-adv-x="345" 
d="M21 578v92h234v-670h-105v578h-129z" />
    <glyph glyph-name="G.ss01" horiz-adv-x="667" 
d="M517 102v169h-270v94h371v-318q-85 -65 -226 -65q-157 0 -256.5 99t-99.5 252q0 151 101.5 253t253.5 102q114 0 196 -54v-107h-7q-76 64 -188 64q-109 0 -178 -75t-69 -183q0 -111 69.5 -182.5t180.5 -71.5q78 0 122 23z" />
    <glyph glyph-name="J.ss01" horiz-adv-x="405" 
d="M324 0h-306v96h199v574h107v-670z" />
    <glyph glyph-name="K.ss01" horiz-adv-x="612" 
d="M188 670v-199l71 -77l227 276h120v-7l-279 -344l282 -312v-7h-127l-294 324v-324h-107v670h107z" />
    <glyph glyph-name="Q.ss01" horiz-adv-x="778" 
d="M389 -18q-151 0 -252.5 101.5t-101.5 251.5t101.5 251.5t252.5 101.5t252.5 -101.5t101.5 -251.5q0 -103 -51 -186t-137 -128l153 -179v-7h-125l-126 153q-33 -6 -68 -6zM389 80q105 0 175 74t70 181t-70 181.5t-175 74.5t-175 -74.5t-70 -181.5t70 -181t175 -74z" />
    <glyph glyph-name="R.ss01" horiz-adv-x="613" 
d="M555 462q0 -71 -46.5 -126.5t-127.5 -81.5l215 -247v-7h-126l-282 327v-327h-107v670h259q106 0 160.5 -61t54.5 -147zM188 472l130 -142q50 12 89 46t39 86q0 50 -31.5 81t-89.5 31h-137v-102z" />
    <glyph glyph-name="S.ss01" horiz-adv-x="543" 
d="M85 121h10q57 -44 137 -44q147 0 172 130q-57 -29 -124 -29q-98 0 -169.5 67.5t-71.5 178.5q0 117 77 190.5t186 73.5q91 0 154 -39v-100h-10q-57 43 -133 43q-62 0 -112.5 -32.5t-61.5 -98.5q54 29 125 29q100 0 170 -69.5t70 -176.5q0 -119 -76.5 -190.5t-185.5 -71.5
q-96 0 -157 39v100zM298 270q57 0 101 24q-16 47 -56 75t-98 28q-57 0 -102 -25q15 -46 56 -74t99 -28z" />
    <glyph glyph-name="U.ss01" horiz-adv-x="658" 
d="M81 0v670h107v-574h282v574h107v-670h-496z" />
    <glyph glyph-name="e.ss01" horiz-adv-x="524" 
d="M381 290v107q-30 22 -83 22q-65 0 -108.5 -37t-49.5 -92h241zM301 -14q-116 0 -190.5 72t-74.5 190t76 190t181 72q110 0 181 -64v-241h-334q6 -60 55.5 -93t110.5 -33q99 0 156 50h7v-98q-64 -45 -168 -45z" />
    <glyph glyph-name="f.ss01" horiz-adv-x="365" 
d="M108 670h219v-85h-114v-89h136v-85h-136v-411h-105v411h-91v85h91v174z" />
    <glyph glyph-name="g.ss01" horiz-adv-x="597" 
d="M423 166v203q-47 47 -123 47q-68 0 -112.5 -42.5t-44.5 -110.5q0 -72 43.5 -111.5t109.5 -39.5q82 0 127 54zM423 -73v141q-58 -50 -144 -50q-103 0 -172.5 67.5t-69.5 176.5q0 108 70 178t178 70q96 0 149 -55v41h94v-661h-432v92h327z" />
    <glyph glyph-name="j.ss01" horiz-adv-x="243" 
d="M174 -165h-221v85h116v576h105v-661zM59 625q0 27 18 45t45 18t45 -18t18 -45t-18 -45t-45 -18t-45 18t-18 45z" />
    <glyph glyph-name="r.ss01" horiz-adv-x="350" 
d="M174 404v-404h-105v496h265v-92h-160z" />
    <glyph glyph-name="t.ss01" horiz-adv-x="394" 
d="M231 496h125v-85h-125v-319h120v-92h-225v411h-108v85h108v130h105v-130z" />
    <glyph glyph-name="ae.ss01" horiz-adv-x="827" 
d="M604 -14q-122 0 -195 79q-68 -79 -199 -79q-75 0 -126 44t-51 117q0 77 61 121.5t152 44.5q60 0 99 -17v28q0 94 -111 94q-42 0 -80.5 -13.5t-60.5 -32.5h-7v95q19 14 64.5 28.5t94.5 14.5q119 0 173 -72q72 72 178 72q110 0 181 -64v-241h-326q1 -47 33 -82
q47 -44 125 -44q99 0 156 50h7v-98q-64 -45 -168 -45zM264 233q-55 0 -90 -22t-35 -61q0 -38 28 -57.5t72 -19.5q35 0 63 13t42 29v103q-26 15 -80 15zM684 290v107q-30 22 -83 22q-65 0 -108.5 -37t-49.5 -92h241z" />
    <glyph glyph-name="aeacute.ss01" horiz-adv-x="827" 
d="M604 -14q-122 0 -195 79q-68 -79 -199 -79q-75 0 -126 44t-51 117q0 77 61 121.5t152 44.5q60 0 99 -17v28q0 94 -111 94q-42 0 -80.5 -13.5t-60.5 -32.5h-7v95q19 14 64.5 28.5t94.5 14.5q119 0 173 -72q72 72 178 72q110 0 181 -64v-241h-326q1 -47 33 -82
q47 -44 125 -44q99 0 156 50h7v-98q-64 -45 -168 -45zM264 233q-55 0 -90 -22t-35 -61q0 -38 28 -57.5t72 -19.5q35 0 63 13t42 29v103q-26 15 -80 15zM684 290v107q-30 22 -83 22q-65 0 -108.5 -37t-49.5 -92h241zM578 670l-122 -121h-93l78 121h137z" />
    <glyph glyph-name="eacute.ss01" horiz-adv-x="524" 
d="M381 290v107q-30 22 -83 22q-65 0 -108.5 -37t-49.5 -92h241zM301 -14q-116 0 -190.5 72t-74.5 190t76 190t181 72q110 0 181 -64v-241h-334q6 -60 55.5 -93t110.5 -33q99 0 156 50h7v-98q-64 -45 -168 -45zM431 670l-122 -121h-93l78 121h137z" />
    <glyph glyph-name="ecircumflex.ss01" horiz-adv-x="524" 
d="M381 290v107q-30 22 -83 22q-65 0 -108.5 -37t-49.5 -92h241zM301 -14q-116 0 -190.5 72t-74.5 190t76 190t181 72q110 0 181 -64v-241h-334q6 -60 55.5 -93t110.5 -33q99 0 156 50h7v-98q-64 -45 -168 -45zM350 670l94 -121h-93l-64 67l-64 -67h-93l94 121h126z" />
    <glyph glyph-name="edieresis.ss01" horiz-adv-x="524" 
d="M127 619q0 26 17.5 43t42.5 17t42.5 -17t17.5 -43t-17.5 -43t-42.5 -17t-42.5 17t-17.5 43zM333 619q0 26 17.5 43t42.5 17t42.5 -17t17.5 -43t-17.5 -43t-42.5 -17t-42.5 17t-17.5 43zM381 290v107q-30 22 -83 22q-65 0 -108.5 -37t-49.5 -92h241zM301 -14
q-116 0 -190.5 72t-74.5 190t76 190t181 72q110 0 181 -64v-241h-334q6 -60 55.5 -93t110.5 -33q99 0 156 50h7v-98q-64 -45 -168 -45z" />
    <glyph glyph-name="egrave.ss01" horiz-adv-x="524" 
d="M381 290v107q-30 22 -83 22q-65 0 -108.5 -37t-49.5 -92h241zM301 -14q-116 0 -190.5 72t-74.5 190t76 190t181 72q110 0 181 -64v-241h-334q6 -60 55.5 -93t110.5 -33q99 0 156 50h7v-98q-64 -45 -168 -45zM266 549l-122 121h137l78 -121h-93z" />
    <glyph glyph-name="emacron.ss01" horiz-adv-x="524" 
d="M439 588h-315v82h315v-82zM381 290v107q-30 22 -83 22q-65 0 -108.5 -37t-49.5 -92h241zM301 -14q-116 0 -190.5 72t-74.5 190t76 190t181 72q110 0 181 -64v-241h-334q6 -60 55.5 -93t110.5 -33q99 0 156 50h7v-98q-64 -45 -168 -45z" />
    <glyph glyph-name="ebreve.ss01" horiz-adv-x="524" 
d="M293 545q-62 0 -106 33.5t-50 91.5h87q3 -19 22.5 -37t46.5 -18q32 0 49 17t20 38h87q-6 -58 -50 -91.5t-106 -33.5zM381 290v107q-30 22 -83 22q-65 0 -108.5 -37t-49.5 -92h241zM301 -14q-116 0 -190.5 72t-74.5 190t76 190t181 72q110 0 181 -64v-241h-334
q6 -60 55.5 -93t110.5 -33q99 0 156 50h7v-98q-64 -45 -168 -45z" />
    <glyph glyph-name="edotaccent.ss01" horiz-adv-x="524" 
d="M381 290v107q-30 22 -83 22q-65 0 -108.5 -37t-49.5 -92h241zM301 -14q-116 0 -190.5 72t-74.5 190t76 190t181 72q110 0 181 -64v-241h-334q6 -60 55.5 -93t110.5 -33q99 0 156 50h7v-98q-64 -45 -168 -45zM230 616q0 27 18 45t45 18t45 -18t18 -45t-18 -45t-45 -18
t-45 18t-18 45z" />
    <glyph glyph-name="eogonek.ss01" horiz-adv-x="524" 
d="M301 -14q-116 0 -190.5 72t-74.5 190t76 190t181 72q110 0 181 -64v-241h-334q6 -60 55.5 -93t110.5 -33q99 0 156 50h7v-98l-8 -6q-65 -54 -65 -112q0 -21 12 -33t33 -12q14 0 25 4h3v-79q-18 -8 -48 -8q-49 0 -81 30.5t-32 83.5q0 43 29 89q-24 -2 -36 -2zM381 290v107
q-30 22 -83 22q-65 0 -108.5 -37t-49.5 -92h241z" />
    <glyph glyph-name="ecaron.ss01" horiz-adv-x="524" 
d="M451 670l-94 -121h-126l-94 121h93l64 -67l64 67h93zM381 290v107q-30 22 -83 22q-65 0 -108.5 -37t-49.5 -92h241zM301 -14q-116 0 -190.5 72t-74.5 190t76 190t181 72q110 0 181 -64v-241h-334q6 -60 55.5 -93t110.5 -33q99 0 156 50h7v-98q-64 -45 -168 -45z" />
    <glyph glyph-name="Gcircumflex.ss01" horiz-adv-x="667" 
d="M437 848l94 -121h-93l-64 67l-64 -67h-93l94 121h126zM517 102v169h-270v94h371v-318q-85 -65 -226 -65q-157 0 -256.5 99t-99.5 252q0 151 101.5 253t253.5 102q114 0 196 -54v-107h-7q-76 64 -188 64q-109 0 -178 -75t-69 -183q0 -111 69.5 -182.5t180.5 -71.5
q78 0 122 23z" />
    <glyph glyph-name="gcircumflex.ss01" horiz-adv-x="597" 
d="M353 670l94 -121h-93l-64 67l-64 -67h-93l94 121h126zM423 166v203q-47 47 -123 47q-68 0 -112.5 -42.5t-44.5 -110.5q0 -72 43.5 -111.5t109.5 -39.5q82 0 127 54zM423 -73v141q-58 -50 -144 -50q-103 0 -172.5 67.5t-69.5 176.5q0 108 70 178t178 70q96 0 149 -55v41
h94v-661h-432v92h327z" />
    <glyph glyph-name="Gbreve.ss01" horiz-adv-x="667" 
d="M366 723q-62 0 -106 33.5t-50 91.5h87q3 -19 22.5 -37t46.5 -18q32 0 49 17t20 38h87q-6 -58 -50 -91.5t-106 -33.5zM517 102v169h-270v94h371v-318q-85 -65 -226 -65q-157 0 -256.5 99t-99.5 252q0 151 101.5 253t253.5 102q114 0 196 -54v-107h-7q-76 64 -188 64
q-109 0 -178 -75t-69 -183q0 -111 69.5 -182.5t180.5 -71.5q78 0 122 23z" />
    <glyph glyph-name="gbreve.ss01" horiz-adv-x="597" 
d="M293 545q-62 0 -106 33.5t-50 91.5h87q3 -19 22.5 -37t46.5 -18q32 0 49 17t20 38h87q-6 -58 -50 -91.5t-106 -33.5zM423 166v203q-47 47 -123 47q-68 0 -112.5 -42.5t-44.5 -110.5q0 -72 43.5 -111.5t109.5 -39.5q82 0 127 54zM423 -73v141q-58 -50 -144 -50
q-103 0 -172.5 67.5t-69.5 176.5q0 108 70 178t178 70q96 0 149 -55v41h94v-661h-432v92h327z" />
    <glyph glyph-name="Gdotaccent.ss01" horiz-adv-x="667" 
d="M517 102v169h-270v94h371v-318q-85 -65 -226 -65q-157 0 -256.5 99t-99.5 252q0 151 101.5 253t253.5 102q114 0 196 -54v-107h-7q-76 64 -188 64q-109 0 -178 -75t-69 -183q0 -111 69.5 -182.5t180.5 -71.5q78 0 122 23zM317 794q0 27 18 45t45 18t45 -18t18 -45
t-18 -45t-45 -18t-45 18t-18 45z" />
    <glyph glyph-name="gdotaccent.ss01" horiz-adv-x="597" 
d="M423 166v203q-47 47 -123 47q-68 0 -112.5 -42.5t-44.5 -110.5q0 -72 43.5 -111.5t109.5 -39.5q82 0 127 54zM423 -73v141q-58 -50 -144 -50q-103 0 -172.5 67.5t-69.5 176.5q0 108 70 178t178 70q96 0 149 -55v41h94v-661h-432v92h327zM234 616q0 27 18 45t45 18t45 -18
t18 -45t-18 -45t-45 -18t-45 18t-18 45z" />
    <glyph glyph-name="Gcommaaccent.ss01" horiz-adv-x="667" 
d="M517 102v169h-270v94h371v-318q-85 -65 -226 -65q-157 0 -256.5 99t-99.5 252q0 151 101.5 253t253.5 102q114 0 196 -54v-107h-7q-76 64 -188 64q-109 0 -178 -75t-69 -183q0 -111 69.5 -182.5t180.5 -71.5q78 0 122 23zM270 -210l57 147h121l-97 -147h-81z" />
    <glyph glyph-name="gcommaaccent.ss01" horiz-adv-x="597" 
d="M423 166v203q-47 47 -123 47q-68 0 -112.5 -42.5t-44.5 -110.5q0 -72 43.5 -111.5t109.5 -39.5q82 0 127 54zM423 -73v141q-58 -50 -144 -50q-103 0 -172.5 67.5t-69.5 176.5q0 108 70 178t178 70q96 0 149 -55v41h94v-661h-432v92h327zM407 696l-57 -147h-131l97 147h91
z" />
    <glyph glyph-name="ij.ss01" horiz-adv-x="486" 
d="M174 0h-105v496h105v-496zM59 625q0 27 18 45t45 18t45 -18t18 -45t-18 -45t-45 -18t-45 18t-18 45zM417 -165h-221v85h116v576h105v-661zM302 625q0 27 18 45t45 18t45 -18t18 -45t-18 -45t-45 -18t-45 18t-18 45z" />
    <glyph glyph-name="IJ.ss01" horiz-adv-x="674" 
d="M188 0h-107v670h107v-670zM593 0h-306v96h199v574h107v-670z" />
    <glyph glyph-name="Jcircumflex.ss01" horiz-adv-x="405" 
d="M324 0h-306v96h199v574h107v-670zM333 848l94 -121h-93l-64 67l-64 -67h-93l94 121h126z" />
    <glyph glyph-name="jcircumflex.ss01" horiz-adv-x="243" 
d="M184 670l94 -121h-93l-64 67l-64 -67h-93l94 121h126zM174 -165h-221v85h116v576h105v-661z" />
    <glyph glyph-name="Kcommaaccent.ss01" horiz-adv-x="612" 
d="M188 670v-199l71 -77l227 276h120v-7l-279 -344l282 -312v-7h-127l-294 324v-324h-107v670h107zM212 -210l57 147h121l-97 -147h-81z" />
    <glyph glyph-name="eng.ss01" 
d="M174 367v-367h-105v496h95v-46q19 21 58 40.5t82 19.5q88 0 136 -49.5t48 -141.5v-484h-231v92h126v382q0 52 -27 79.5t-78 27.5q-30 0 -61.5 -16.5t-42.5 -32.5z" />
    <glyph glyph-name="Eng.ss01" horiz-adv-x="711" 
d="M190 670l262 -398q53 -81 73 -117h1q-3 29 -3 121v394h107v-835h-231v92h126v69l-279 412q-40 59 -60 104h-1q3 -45 3 -104v-408h-107v670h109z" />
    <glyph glyph-name="oe.ss01" horiz-adv-x="933" 
d="M710 -14q-140 0 -210 99q-74 -99 -204 -99q-111 0 -186 74.5t-75 187.5q0 112 75.5 187t185.5 75q131 0 205 -101q35 48 88 74.5t113 26.5q110 0 181 -64v-241h-334q6 -60 55.5 -93t110.5 -33q99 0 156 50h7v-98q-64 -45 -168 -45zM141 248q0 -72 43 -119t112 -47
q68 0 111.5 47.5t43.5 118.5t-43.5 119t-111.5 48q-70 0 -112.5 -47t-42.5 -120zM790 290v107q-30 22 -83 22q-65 0 -108.5 -37t-49.5 -92h241z" />
    <glyph glyph-name="Racute.ss01" horiz-adv-x="613" 
d="M555 462q0 -71 -46.5 -126.5t-127.5 -81.5l215 -247v-7h-126l-282 327v-327h-107v670h259q106 0 160.5 -61t54.5 -147zM188 472l130 -142q50 12 89 46t39 86q0 50 -31.5 81t-89.5 31h-137v-102zM428 848l-122 -121h-93l78 121h137z" />
    <glyph glyph-name="racute.ss01" horiz-adv-x="350" 
d="M174 404v-404h-105v496h265v-92h-160zM328 670l-122 -121h-93l78 121h137z" />
    <glyph glyph-name="Rcommaaccent.ss01" horiz-adv-x="613" 
d="M555 462q0 -71 -46.5 -126.5t-127.5 -81.5l215 -247v-7h-126l-282 327v-327h-107v670h259q106 0 160.5 -61t54.5 -147zM188 472l130 -142q50 12 89 46t39 86q0 50 -31.5 81t-89.5 31h-137v-102zM198 -210l57 147h121l-97 -147h-81z" />
    <glyph glyph-name="rcommaaccent.ss01" horiz-adv-x="350" 
d="M174 404v-404h-105v496h265v-92h-160zM4 -210l57 147h121l-97 -147h-81z" />
    <glyph glyph-name="Rcaron.ss01" horiz-adv-x="613" 
d="M555 462q0 -71 -46.5 -126.5t-127.5 -81.5l215 -247v-7h-126l-282 327v-327h-107v670h259q106 0 160.5 -61t54.5 -147zM188 472l130 -142q50 12 89 46t39 86q0 50 -31.5 81t-89.5 31h-137v-102zM455 848l-94 -121h-126l-94 121h93l64 -67l64 67h93z" />
    <glyph glyph-name="rcaron.ss01" horiz-adv-x="350" 
d="M174 404v-404h-105v496h265v-92h-160zM356 670l-94 -121h-126l-94 121h93l64 -67l64 67h93z" />
    <glyph glyph-name="Sacute.ss01" horiz-adv-x="543" 
d="M436 848l-122 -121h-93l78 121h137zM85 121h10q57 -44 137 -44q147 0 172 130q-57 -29 -124 -29q-98 0 -169.5 67.5t-71.5 178.5q0 117 77 190.5t186 73.5q91 0 154 -39v-100h-10q-57 43 -133 43q-62 0 -112.5 -32.5t-61.5 -98.5q54 29 125 29q100 0 170 -69.5t70 -176.5
q0 -119 -76.5 -190.5t-185.5 -71.5q-96 0 -157 39v100zM298 270q57 0 101 24q-16 47 -56 75t-98 28q-57 0 -102 -25q15 -46 56 -74t99 -28z" />
    <glyph glyph-name="Scircumflex.ss01" horiz-adv-x="543" 
d="M341 848l94 -121h-93l-64 67l-64 -67h-93l94 121h126zM85 121h10q57 -44 137 -44q147 0 172 130q-57 -29 -124 -29q-98 0 -169.5 67.5t-71.5 178.5q0 117 77 190.5t186 73.5q91 0 154 -39v-100h-10q-57 43 -133 43q-62 0 -112.5 -32.5t-61.5 -98.5q54 29 125 29
q100 0 170 -69.5t70 -176.5q0 -119 -76.5 -190.5t-185.5 -71.5q-96 0 -157 39v100zM298 270q57 0 101 24q-16 47 -56 75t-98 28q-57 0 -102 -25q15 -46 56 -74t99 -28z" />
    <glyph glyph-name="Scaron.ss01" horiz-adv-x="543" 
d="M85 121h10q57 -44 137 -44q147 0 172 130q-57 -29 -124 -29q-98 0 -169.5 67.5t-71.5 178.5q0 117 77 190.5t186 73.5q91 0 154 -39v-100h-10q-57 43 -133 43q-62 0 -112.5 -32.5t-61.5 -98.5q54 29 125 29q100 0 170 -69.5t70 -176.5q0 -119 -76.5 -190.5t-185.5 -71.5
q-96 0 -157 39v100zM298 270q57 0 101 24q-16 47 -56 75t-98 28q-57 0 -102 -25q15 -46 56 -74t99 -28zM437 848l-94 -121h-126l-94 121h93l64 -67l64 67h93z" />
    <glyph glyph-name="Scedilla.ss01" horiz-adv-x="543" 
d="M249 -58h79v-152h-186v73h107v79zM85 121h10q57 -44 137 -44q147 0 172 130q-57 -29 -124 -29q-98 0 -169.5 67.5t-71.5 178.5q0 117 77 190.5t186 73.5q91 0 154 -39v-100h-10q-57 43 -133 43q-62 0 -112.5 -32.5t-61.5 -98.5q54 29 125 29q100 0 170 -69.5t70 -176.5
q0 -119 -76.5 -190.5t-185.5 -71.5q-96 0 -157 39v100zM298 270q57 0 101 24q-16 47 -56 75t-98 28q-57 0 -102 -25q15 -46 56 -74t99 -28z" />
    <glyph glyph-name="uni0218.ss01" horiz-adv-x="543" 
d="M148 -210l57 147h121l-97 -147h-81zM85 121h10q57 -44 137 -44q147 0 172 130q-57 -29 -124 -29q-98 0 -169.5 67.5t-71.5 178.5q0 117 77 190.5t186 73.5q91 0 154 -39v-100h-10q-57 43 -133 43q-62 0 -112.5 -32.5t-61.5 -98.5q54 29 125 29q100 0 170 -69.5t70 -176.5
q0 -119 -76.5 -190.5t-185.5 -71.5q-96 0 -157 39v100zM298 270q57 0 101 24q-16 47 -56 75t-98 28q-57 0 -102 -25q15 -46 56 -74t99 -28z" />
    <glyph glyph-name="uni0163.ss01" horiz-adv-x="394" 
d="M231 496h125v-85h-125v-319h120v-92h-225v411h-108v85h108v130h105v-130zM197 -58h79v-152h-186v73h107v79z" />
    <glyph glyph-name="uni021B.ss01" horiz-adv-x="394" 
d="M114 -210l57 147h121l-97 -147h-81zM231 496h125v-85h-125v-319h120v-92h-225v411h-108v85h108v130h105v-130z" />
    <glyph glyph-name="tcaron.ss01" horiz-adv-x="394" 
d="M231 496h125v-85h-125v-319h120v-92h-225v411h-108v85h108v130h105v-130zM377 549h-86l42 121h114z" />
    <glyph glyph-name="tbar.ss01" horiz-adv-x="426" 
d="M251 496h125v-85h-125v-87h125v-85h-125v-147h120v-92h-225v239h-108v85h108v87h-108v85h108v130h105v-130z" />
    <glyph glyph-name="Uacute.ss01" horiz-adv-x="658" 
d="M81 0v670h107v-574h282v574h107v-670h-496zM472 848l-122 -121h-93l78 121h137z" />
    <glyph glyph-name="Ucircumflex.ss01" horiz-adv-x="658" 
d="M81 0v670h107v-574h282v574h107v-670h-496zM392 848l94 -121h-93l-64 67l-64 -67h-93l94 121h126z" />
    <glyph glyph-name="ucircumflex.ss03" horiz-adv-x="548" 
d="M337 670l94 -121h-93l-64 67l-64 -67h-93l94 121h126zM374 85v411h105v-496h-410v496h105v-411h200z" />
    <glyph glyph-name="Ugrave.ss01" horiz-adv-x="658" 
d="M81 0v670h107v-574h282v574h107v-670h-496zM305 727l-122 121h137l78 -121h-93z" />
    <glyph glyph-name="Udieresis.ss01" horiz-adv-x="658" 
d="M81 0v670h107v-574h282v574h107v-670h-496zM165 797q0 26 17.5 43t42.5 17t42.5 -17t17.5 -43t-17.5 -43t-42.5 -17t-42.5 17t-17.5 43zM371 797q0 26 17.5 43t42.5 17t42.5 -17t17.5 -43t-17.5 -43t-42.5 -17t-42.5 17t-17.5 43z" />
    <glyph glyph-name="Utilde.ss01" horiz-adv-x="658" 
d="M81 0v670h107v-574h282v574h107v-670h-496zM276 784q-13 0 -22 -11.5t-9 -28.5l-72 12q0 43 26 72t67 29q33 0 66 -23q3 -2 10 -7t10.5 -6.5t9 -4.5t11 -4t11.5 -1q13 0 21.5 12t8.5 29l72 -12q0 -47 -27 -74t-68 -27q-34 0 -69 22q-31 23 -46 23z" />
    <glyph glyph-name="Umacron.ss01" horiz-adv-x="658" 
d="M81 0v670h107v-574h282v574h107v-670h-496zM487 766h-315v82h315v-82z" />
    <glyph glyph-name="Ubreve.ss01" horiz-adv-x="658" 
d="M81 0v670h107v-574h282v574h107v-670h-496zM329 723q-62 0 -106 33.5t-50 91.5h87q3 -19 22.5 -37t46.5 -18q32 0 49 17t20 38h87q-6 -58 -50 -91.5t-106 -33.5z" />
    <glyph glyph-name="Uring.ss01" horiz-adv-x="658" 
d="M81 0v670h107v-574h282v574h107v-670h-496zM429 719q0 -40 -29.5 -68t-70.5 -28q-42 0 -70.5 28t-28.5 68t28.5 68t70.5 28q41 0 70.5 -28t29.5 -68zM374 719q0 20 -12.5 33.5t-32.5 13.5t-33 -13.5t-13 -33.5t13 -34t33 -14t32.5 13.5t12.5 34.5z" />
    <glyph glyph-name="Uhungarumlaut.ss01" horiz-adv-x="658" 
d="M81 0v670h107v-574h282v574h107v-670h-496zM388 848l-122 -121h-93l78 121h137zM594 848l-122 -121h-93l78 121h137z" />
    <glyph glyph-name="Uogonek.ss01" horiz-adv-x="658" 
d="M81 0v670h107v-574h282v574h107v-670h-192q-44 -41 -44 -87q0 -21 12 -33t33 -12q14 0 25 4h3v-79q-18 -8 -48 -8q-49 0 -81 30t-32 83q0 54 43 102h-215z" />
    <glyph glyph-name="fi.ss01" horiz-adv-x="608" 
d="M108 670h219v-85h-114v-89h136v-85h-136v-411h-105v411h-91v85h91v174zM539 0h-105v496h105v-496zM424 625q0 27 18 45t45 18t45 -18t18 -45t-18 -45t-45 -18t-45 18t-18 45z" />
    <glyph glyph-name="fl.ss01" horiz-adv-x="614" 
d="M108 670h219v-85h-114v-89h136v-85h-136v-411h-105v411h-91v85h91v174zM542 0h-105v670h105v-670z" />
    <glyph glyph-name="dollar.ss01" horiz-adv-x="537" 
d="M313 -104h-100v87q-82 6 -131 38v100h10q57 -44 137 -44q147 0 172 130q-57 -29 -124 -29q-98 0 -169.5 67.5t-71.5 178.5q0 95 53.5 164t137.5 91v91h100v-83q71 -6 126 -38v-100h-10q-57 43 -133 43q-62 0 -112.5 -32.5t-61.5 -98.5q54 29 125 29q100 0 170 -69.5
t70 -176.5q0 -97 -52.5 -164.5t-135.5 -87.5v-96zM295 270q57 0 101 24q-16 47 -56 75t-98 28q-57 0 -102 -25q15 -46 56 -74t99 -28z" />
    <glyph glyph-name="florin.ss01" horiz-adv-x="444" 
d="M197 670h211v-85h-122l-16 -89h140v-85h-156l-103 -576h-211v85h121l89 491h-81v85h97z" />
    <glyph glyph-name="germandbls.ss01" horiz-adv-x="583" 
d="M369 398h194l-217 -398h-109l168 306h-193l151 272h-189v-578h-105v670h451z" />
    <glyph glyph-name="registered.ss01" horiz-adv-x="857" 
d="M763 670v-670h-669v670h669zM685 74v522h-513v-522h513zM602 131h-89l-104 155h-48v-155h-78v406h170q66 0 101.5 -36.5t35.5 -90.5q0 -41 -28 -74t-72 -41l112 -159v-5zM361 463v-105h77q73 0 73 52q0 53 -74 53h-76z" />
    <glyph glyph-name="registered.alt" horiz-adv-x="578" 
d="M523 465q0 -98 -67.5 -165.5t-166.5 -67.5t-166.5 67.5t-67.5 165.5t67.5 165.5t166.5 67.5q98 0 166 -67.5t68 -165.5zM468 465q0 76 -52 128.5t-127 52.5q-76 0 -127.5 -52.5t-51.5 -128.5t51.5 -128.5t127.5 -52.5q75 0 127 53t52 128zM399 349h-61l-61 92h-23v-92
h-54v240h105q41 0 61.5 -22t20.5 -54q0 -53 -55 -67l67 -94v-3zM254 542v-56h42q37 0 37 27q0 29 -39 29h-40z" />
    <glyph glyph-name="registered.alt.ss01" horiz-adv-x="540" 
d="M473 670v-406h-406v406h406zM425 309v316h-311v-316h311zM376 349h-61l-61 92h-23v-92h-54v240h105q41 0 61.5 -22t20.5 -54q0 -53 -55 -67l67 -94v-3zM231 542v-56h42q37 0 37 27q0 29 -39 29h-40z" />
    <glyph glyph-name="copyright.ss01" horiz-adv-x="857" 
d="M571 243h5v-85q-46 -34 -116 -34q-93 0 -155 59t-62 151t61.5 151.5t155.5 59.5q65 0 114 -32v-83h-6q-40 40 -107 40q-62 0 -99 -38.5t-37 -97.5q0 -57 39 -95.5t96 -38.5q32 0 62.5 12.5t48.5 30.5zM763 670v-670h-669v670h669zM685 74v522h-513v-522h513z" />
    <glyph glyph-name="pi.ss01" horiz-adv-x="646" 
d="M484 411v-326h115v-85h-220v411h-136v-411h-105v411h-110v85h566v-85h-110z" />
    <glyph glyph-name="integral.ss01" horiz-adv-x="488" 
d="M267 670h211v-85h-122l-135 -750h-211v85h121z" />
    <glyph glyph-name="questiondown.ss01" horiz-adv-x="492" 
d="M150 313h277l-233 -382h252v-96h-421l237 389h-112v89zM359 441q0 -29 -20.5 -49t-48.5 -20t-48.5 20t-20.5 49t20.5 49t48.5 20t48.5 -20t20.5 -49z" />
    <glyph glyph-name="onesuperior.ss01" horiz-adv-x="251" 
d="M34 603v67h149v-373h-73v306h-76z" />
    <glyph glyph-name="onequarter.ss01" horiz-adv-x="740" 
d="M426 66v55l150 252h79v-243h50v-64h-50v-66h-68v66h-161zM590 286h-1q-16 -40 -37 -75l-48 -81h83v71q0 42 3 85zM31 603v67h149v-373h-73v306h-76zM601 665l-399 -665h-84v5l398 665h85v-5z" />
    <glyph glyph-name="onehalf.ss01" horiz-adv-x="771" 
d="M31 603v67h149v-373h-73v306h-76zM601 665l-399 -665h-84v5l398 665h85v-5zM577 64h153v-64h-249v52l131 147q36 38 36 68q0 26 -17.5 41t-49.5 15q-28 0 -53 -13.5t-38 -31.5h-6v70q42 39 108 39q55 0 92 -30.5t37 -78.5q0 -24 -9.5 -47t-18.5 -35t-25 -31l-41 -47
q-11 -14 -20.5 -24.5t-18 -18t-11.5 -11.5z" />
    <glyph glyph-name="at.case" horiz-adv-x="943" 
d="M678 534v-295q0 -60 52 -60q38 0 59 47t21 123q0 124 -93 215.5t-228 91.5q-146 0 -244.5 -98.5t-98.5 -243.5q0 -140 97.5 -236.5t234.5 -96.5q118 0 183 50h7v-103q-82 -42 -191 -42q-188 0 -312 123t-124 303q0 120 54 219.5t158 159.5t238 60q93 0 173 -35.5t133 -93
t83 -128.5t30 -143q0 -121 -51.5 -192t-133.5 -71q-79 0 -112 58q-55 -58 -147 -58q-41 0 -79 13.5t-71 40.5t-53 72t-20 102t22 103t56 72t70.5 39.5t69.5 13.5q75 0 126 -41v31h91zM587 223v192q-43 38 -106 38q-60 0 -97 -38t-37 -97q0 -65 37 -102t95 -37q69 0 108 44z
" />
    <glyph glyph-name="at.case.ss01" horiz-adv-x="1007" 
d="M921 716v-451q0 -90 -40.5 -138t-120.5 -48q-90 0 -129 62q-60 -58 -145 -58q-87 0 -156 59.5t-69 168.5q0 56 22 102t56.5 72t71 40t70.5 14q73 0 124 -41v31h91v-290q0 -69 62 -69q34 0 47.5 23t13.5 81v350h-626v-631h493v-92h-595v815h830zM605 216v195
q-44 37 -106 37q-59 0 -96.5 -39t-37.5 -96q0 -62 37.5 -100.5t94.5 -38.5q69 0 108 42z" />
    <glyph glyph-name="one.tlf" horiz-adv-x="570" 
d="M118 0v93h129v453l-122 -77h-7v105l153 96h81v-577h129v-93h-363z" />
    <glyph glyph-name="one.tlf.ss01" horiz-adv-x="570" 
d="M115 0v93h129v485h-129v92h234v-577h129v-93h-363z" />
    <glyph glyph-name="one.posf" horiz-adv-x="352" 
d="M31 298v103l151 95h83v-496h-105v373l-119 -75h-10z" />
    <glyph glyph-name="one.posf.ss01" horiz-adv-x="347" 
d="M26 404v92h234v-496h-105v404h-129z" />
    <glyph glyph-name="uacute.ss03" horiz-adv-x="548" 
d="M422 670l-122 -121h-93l78 121h137zM374 85v411h105v-496h-410v496h105v-411h200z" />
    </font>
</defs>
</svg>
