<?xml version="1.0" standalone="no"?>
<!DOCTYPE svg PUBLIC "-//W3C//DTD SVG 1.1//EN" "http://www.w3.org/Graphics/SVG/1.1/DTD/svg11.dtd" >
<svg>
<metadata>
Created by FontForge 20120731 at Thu Aug 22 02:52:41 2019
 By www
(c)2013 Optimo.
</metadata>
<defs>
<font id="Programme-Bold" horiz-adv-x="563" >
  <font-face
    font-family="Programme Bold"
    font-weight="700"
    font-stretch="normal"
    units-per-em="1000"
    panose-1="2 11 8 3 2 2 2 2 2 4"
    ascent="821"
    descent="-179"
    x-height="496"
    cap-height="670"
    bbox="-66 -215 1207 962"
    underline-thickness="50"
    underline-position="-100"
    unicode-range="U+000D-FB02"
  />
<missing-glyph horiz-adv-x="476"
d="M24 520q0 73 20 126t53 80.5t68.5 40t74.5 12.5t74.5 -12.5t69 -40t53.5 -80.5t20 -126q0 -94 -41 -214.5t-92.5 -202.5t-83.5 -82q-26 0 -63.5 50.5t-71 123.5t-57.5 163.5t-24 161.5zM209 164q0 -14 9 -23t23 -9t24 9t10 23t-10 24t-24 10t-23 -10t-9 -24zM260 343
q89 24 133 81t36 144q-71 -4 -120 -71t-49 -154zM221 343q0 87 -49 154t-120 71q-8 -87 36 -144t133 -81z" />
    <glyph glyph-name="fi" unicode="fi" horiz-adv-x="637"
d="M241 496h138v-104h-138v-392h-131v392h-98v104h98v21q0 88 35.5 126t119.5 38q48 0 93 -9v-107q-18 5 -49 5q-34 0 -51 -10t-17 -44v-20zM579 0h-131v496h131v-496zM439 616q0 31 20.5 51.5t53.5 20.5t53.5 -20.5t20.5 -51.5t-20.5 -51.5t-53.5 -20.5t-53.5 20.5
t-20.5 51.5z" />
    <glyph glyph-name="fl" unicode="fl" horiz-adv-x="637"
d="M241 496h138v-104h-138v-392h-131v392h-98v104h98v21q0 88 35.5 126t119.5 38q48 0 93 -9v-107q-18 5 -49 5q-34 0 -51 -10t-17 -44v-20zM579 0h-131v670h131v-670z" />
    <glyph glyph-name=".notdef" horiz-adv-x="476"
d="M24 520q0 73 20 126t53 80.5t68.5 40t74.5 12.5t74.5 -12.5t69 -40t53.5 -80.5t20 -126q0 -94 -41 -214.5t-92.5 -202.5t-83.5 -82q-26 0 -63.5 50.5t-71 123.5t-57.5 163.5t-24 161.5zM209 164q0 -14 9 -23t23 -9t24 9t10 23t-10 24t-24 10t-23 -10t-9 -24zM260 343
q89 24 133 81t36 144q-71 -4 -120 -71t-49 -154zM221 343q0 87 -49 154t-120 71q-8 -87 36 -144t133 -81z" />
    <glyph glyph-name=".null" horiz-adv-x="0"
 />
    <glyph glyph-name="nonmarkingreturn" horiz-adv-x="333"
 />
    <glyph glyph-name="NULL" horiz-adv-x="0"
 />
    <glyph glyph-name="NULL" horiz-adv-x="0"
 />
    <glyph glyph-name="CR" unicode="&#xd;" horiz-adv-x="0"
 />
    <glyph glyph-name="space" unicode=" " horiz-adv-x="232"
 />
    <glyph glyph-name="exclam" unicode="!" horiz-adv-x="296"
d="M65 70q0 38 23.5 61t59.5 23t59.5 -23t23.5 -61q0 -36 -23.5 -60t-59.5 -24t-59.5 24t-23.5 60zM211 199h-126v471h126v-471z" />
    <glyph glyph-name="quotedbl" unicode="&#x22;" horiz-adv-x="393"
d="M67 440l-17 230h124l-17 -230h-90zM237 440l-17 230h123l-17 -230h-89z" />
    <glyph glyph-name="numbersign" unicode="#" horiz-adv-x="701"
d="M462 0h-116l32 164h-122l-32 -164h-116l32 164h-105v109h127l22 114h-110v109h132l35 174h116l-35 -174h122l35 174h116l-35 -174h106v-109h-128l-22 -114h111v-109h-133zM300 387l-22 -114h122l22 114h-122z" />
    <glyph glyph-name="dollar" unicode="$" horiz-adv-x="537"
d="M331 -104h-111v88q-97 8 -167 51v128h10q28 -26 81.5 -44.5t100.5 -18.5q64 0 95.5 25t31.5 61q0 34 -21 54.5t-70 38.5l-86 31q-71 26 -112.5 70.5t-41.5 121.5q0 63 47 113t127 66v89h111v-85q70 -9 122 -42v-125h-10q-25 22 -68 37t-90 15q-49 0 -77.5 -19t-28.5 -48
q0 -32 18.5 -48t66.5 -33l88 -33q82 -31 120 -77.5t38 -122.5q0 -75 -46.5 -128.5t-127.5 -70.5v-94z" />
    <glyph glyph-name="percent" unicode="%" horiz-adv-x="868"
d="M694 660l-408 -660h-112v10l406 660h114v-10zM193 303q-73 0 -117 52.5t-44 134.5t44 135t117 53t117 -53t44 -135t-44 -134.5t-117 -52.5zM193 398q28 0 44 24t16 68q0 45 -16 69.5t-44 24.5t-44 -24.5t-16 -69.5q0 -44 16 -68t44 -24zM675 -9q-73 0 -117 52.5
t-44 134.5t44 135t117 53t117 -53t44 -135t-44 -134.5t-117 -52.5zM675 86q28 0 44 24t16 68q0 45 -16 69.5t-44 24.5t-44 -24.5t-16 -69.5q0 -44 16 -68t44 -24z" />
    <glyph glyph-name="ampersand" unicode="&#x26;" horiz-adv-x="644"
d="M652 10v-10h-125l-43 51q-65 -69 -185 -69q-113 0 -182.5 62t-69.5 161q0 64 39 120.5t102 82.5q-70 62 -70 127q0 67 48 110t123 43q80 0 129 -44t49 -111q0 -46 -30.5 -89t-78.5 -71l70 -92q30 -38 42 -59h1q1 19 1 75v55h111v-74q0 -95 -32 -145q15 -20 50 -62t51 -61
zM178 208q0 -45 35.5 -78t94.5 -33q68 0 105 35l-154 185q-36 -19 -58.5 -47.5t-22.5 -61.5zM347 530q0 23 -13.5 38.5t-40.5 15.5q-26 0 -40 -15t-14 -37q0 -25 49 -79q59 42 59 77z" />
    <glyph glyph-name="quotesingle" unicode="'" horiz-adv-x="230"
d="M67 440l-17 230h130l-17 -230h-96z" />
    <glyph glyph-name="parenleft" unicode="(" horiz-adv-x="327"
d="M32 280q0 212 166 408h125v-9q-77 -91 -122.5 -186.5t-45.5 -212.5q0 -118 44 -219t114 -199v-9h-125q-156 203 -156 427z" />
    <glyph glyph-name="parenright" unicode=")" horiz-adv-x="327"
d="M295 280q0 -224 -156 -427h-125v9q70 98 114 199t44 219q0 117 -45.5 212.5t-122.5 186.5v9h125q166 -196 166 -408z" />
    <glyph glyph-name="asterisk" unicode="*" horiz-adv-x="510"
d="M81 318l86 109l-134 38l37 114l131 -49l-6 140h120l-6 -140l131 49l37 -114l-135 -38l87 -109l-97 -70l-77 115l-77 -115z" />
    <glyph glyph-name="plus" unicode="+" horiz-adv-x="542"
d="M335 18h-131v182h-170v114h170v182h131v-182h173v-114h-173v-182z" />
    <glyph glyph-name="comma" unicode="," horiz-adv-x="264"
d="M113 -105h-86l46 240h143z" />
    <glyph glyph-name="hyphen" unicode="-" horiz-adv-x="390"
d="M335 200h-280v114h280v-114z" />
    <glyph glyph-name="period" unicode="." horiz-adv-x="256"
d="M44 70q0 35 24.5 59.5t59.5 24.5t59.5 -24.5t24.5 -59.5t-24.5 -59.5t-59.5 -24.5t-59.5 24.5t-24.5 59.5z" />
    <glyph glyph-name="slash" unicode="/" horiz-adv-x="442"
d="M159 0h-135l261 670h135z" />
    <glyph glyph-name="zero" unicode="0" horiz-adv-x="606"
d="M304 -14q-126 0 -194.5 95.5t-68.5 254.5q0 151 72.5 249.5t189.5 98.5q118 0 190 -98.5t72 -249.5q0 -158 -68 -254t-193 -96zM303 569q-61 0 -96 -66.5t-35 -166.5q0 -98 33 -166t98 -68q47 0 77.5 35t42 85t11.5 114q0 101 -34 167t-97 66z" />
    <glyph glyph-name="one" unicode="1" horiz-adv-x="366"
d="M281 0h-131v518l-104 -67h-10v123l149 96h96v-670z" />
    <glyph glyph-name="two" unicode="2" horiz-adv-x="521"
d="M213 114h265v-114h-434v91l231 261q20 23 31 37t22 37.5t11 45.5q0 46 -31.5 72t-86.5 26q-48 0 -93 -23.5t-69 -54.5h-10v124q26 26 77.5 47t114.5 21q97 0 162.5 -54t65.5 -139q0 -41 -17 -82t-32 -61.5t-46 -56.5l-73 -83q-22 -25 -50 -54t-38 -40z" />
    <glyph glyph-name="three" unicode="3" horiz-adv-x="516"
d="M116 311v95l104 104q41 41 54 49q-4 0 -32 -1.5t-43 -1.5h-150v114h398v-70l-160 -163q84 -15 139.5 -74t55.5 -144q0 -108 -74.5 -170.5t-183.5 -62.5q-54 0 -103 16.5t-72 36.5v120h10q25 -25 70 -41.5t86 -16.5q61 0 98.5 35.5t37.5 82.5q0 49 -34.5 83.5t-101.5 34.5
q-30 0 -58 -9t-36 -17h-5z" />
    <glyph glyph-name="four" unicode="4" horiz-adv-x="565"
d="M23 119v99l269 452h148v-437h91v-114h-91v-119h-126v119h-291zM318 510h-2q-19 -47 -66 -130l-85 -147h149v128q0 42 2 87t2 62z" />
    <glyph glyph-name="five" unicode="5" horiz-adv-x="548"
d="M166 286h-101v384h403v-114h-278v-128q40 28 102 28q91 0 157 -63t66 -164t-71.5 -172t-192.5 -71q-53 0 -105 18t-81 42v124h10q30 -30 78.5 -49.5t98.5 -19.5q55 0 93.5 36.5t38.5 91.5q0 52 -33.5 83.5t-83.5 31.5q-34 0 -61 -16.5t-40 -41.5z" />
    <glyph glyph-name="six" unicode="6" horiz-adv-x="580"
d="M333 456q88 0 154.5 -66.5t66.5 -158.5q0 -100 -74.5 -172.5t-183.5 -72.5q-111 0 -186 71t-75 174q0 79 60 170l173 269h142v-10l-78 -119q-45 -70 -70 -98q28 13 71 13zM423 229q0 53 -37.5 86.5t-92.5 33.5q-52 0 -89.5 -35.5t-37.5 -86.5q0 -53 38 -89t92 -36
q56 0 91.5 37.5t35.5 89.5z" />
    <glyph glyph-name="seven" unicode="7" horiz-adv-x="508"
d="M33 670h483l-327 -670h-141l271 556h-286v114z" />
    <glyph glyph-name="eight" unicode="8" horiz-adv-x="583"
d="M291 -14q-118 0 -185.5 60.5t-67.5 155.5q0 49 31.5 97.5t68.5 65.5q-29 15 -50.5 51t-21.5 74q0 88 60.5 141t164.5 53t165.5 -54t61.5 -139q0 -36 -22 -73.5t-49 -52.5q37 -18 67 -64.5t30 -96.5q0 -96 -67 -157t-186 -61zM288 408h7q41 0 66.5 25t25.5 55q0 35 -26 58
t-70 23t-69 -23t-25 -58q0 -30 25 -55t66 -25zM291 101q58 0 90 30t32 75q0 43 -32 71.5t-85 28.5h-10q-52 0 -84.5 -28.5t-32.5 -71.5q0 -45 32.5 -75t89.5 -30z" />
    <glyph glyph-name="nine" unicode="9" horiz-adv-x="580"
d="M247 214q-88 0 -152.5 66.5t-64.5 158.5q0 100 75.5 172.5t185.5 72.5t184 -71t74 -174q0 -79 -60 -170l-172 -269h-142v10l77 119q45 70 70 98q-28 -13 -75 -13zM161 441q0 -51 38.5 -85.5t91.5 -34.5q54 0 90.5 35.5t36.5 86.5q0 54 -36.5 89.5t-90.5 35.5
q-56 0 -93 -37.5t-37 -89.5z" />
    <glyph glyph-name="colon" unicode=":" horiz-adv-x="278"
d="M55 412q0 35 24.5 59.5t59.5 24.5t59.5 -24.5t24.5 -59.5t-24.5 -59.5t-59.5 -24.5t-59.5 24.5t-24.5 59.5zM55 70q0 35 24.5 59.5t59.5 24.5t59.5 -24.5t24.5 -59.5t-24.5 -59.5t-59.5 -24.5t-59.5 24.5t-24.5 59.5z" />
    <glyph glyph-name="semicolon" unicode=";" horiz-adv-x="285"
d="M66 412q0 38 23.5 61t59.5 23t59.5 -23t23.5 -61q0 -36 -24 -60t-59 -24t-59 24t-24 60zM117 -106h-86l46 240h143z" />
    <glyph glyph-name="less" unicode="&#x3c;" horiz-adv-x="517"
d="M450 0l-420 242v11l420 243h10v-132l-214 -116l214 -116v-132h-10z" />
    <glyph glyph-name="equal" unicode="="
d="M506 301h-449v118h449v-118zM506 92h-449v118h449v-118z" />
    <glyph glyph-name="greater" unicode="&#x3e;" horiz-adv-x="517"
d="M487 242l-420 -242h-10v132l214 116l-214 116v132h10l420 -243v-11z" />
    <glyph glyph-name="question" unicode="?" horiz-adv-x="458"
d="M204 362l42 36q26 23 38 42t12 47q0 31 -27 55.5t-72 24.5q-93 0 -152 -81h-10v132q24 26 71.5 46t108.5 20q98 0 154 -56t56 -136q0 -48 -19.5 -84.5t-64.5 -75.5l-35 -30q-37 -33 -37 -103h-129v7q0 99 64 156zM121 70q0 38 23.5 61t59.5 23t59.5 -23t23.5 -61
q0 -36 -23.5 -60t-59.5 -24t-59.5 24t-23.5 60z" />
    <glyph glyph-name="at" unicode="@" horiz-adv-x="969"
d="M692 472v-277q0 -56 42 -56q64 0 64 150q0 121 -87 203t-219 82q-144 0 -235.5 -89.5t-91.5 -231.5q0 -139 91.5 -226.5t225.5 -87.5q114 0 173 39h7v-122q-62 -32 -181 -32q-200 0 -323 122t-123 305q0 187 128 312.5t332 125.5q96 0 179 -35.5t137.5 -92.5t85.5 -127.5
t31 -141.5q0 -126 -59 -196t-145 -70q-82 0 -117 59q-19 -25 -56 -42t-85 -17q-52 0 -100 23t-83.5 77t-35.5 128q0 107 67.5 167.5t141.5 60.5q68 0 111 -39v29h125zM567 171v173q-33 27 -81 27t-81.5 -30.5t-33.5 -84.5q0 -58 33 -88.5t79 -30.5q56 0 84 34z" />
    <glyph glyph-name="A" unicode="A" horiz-adv-x="669"
d="M134 0h-140l275 670h132l273 -670h-144l-49 134h-297zM334 542h-2q-23 -75 -40 -119l-66 -177h214l-65 177q-12 33 -24.5 70t-16.5 49z" />
    <glyph glyph-name="B" unicode="B" horiz-adv-x="627"
d="M72 0v670h280q59 0 103.5 -16.5t68.5 -44.5t35 -59t11 -64q0 -56 -24.5 -94t-56.5 -52q38 -9 70.5 -50.5t32.5 -96.5q0 -87 -57 -140t-173 -53h-290zM337 554h-132v-161h140q94 0 94 85q0 34 -25 55t-77 21zM205 286v-170h155q100 0 100 87q0 37 -26 60t-75 23h-154z" />
    <glyph glyph-name="C" unicode="C" horiz-adv-x="637"
d="M594 168h10v-127q-81 -59 -218 -59q-157 0 -256.5 100t-99.5 253q0 152 101.5 252.5t254.5 100.5q125 0 206 -59v-126h-10q-78 67 -190 67q-95 0 -162 -68t-67 -167q0 -105 69.5 -169.5t159.5 -64.5q129 0 202 67z" />
    <glyph glyph-name="D" unicode="D" horiz-adv-x="670"
d="M72 670h213q93 0 162.5 -27.5t110 -75.5t60 -106.5t19.5 -127.5q0 -161 -90 -247t-261 -86h-214v670zM290 554h-88v-438h88q107 0 160.5 50.5t53.5 166.5q0 221 -214 221z" />
    <glyph glyph-name="E" unicode="E" horiz-adv-x="591"
d="M72 670h474v-116h-341v-143h318v-116h-318v-179h346v-116h-479v670z" />
    <glyph glyph-name="F" unicode="F" horiz-adv-x="561"
d="M72 670h459v-116h-326v-144h302v-115h-302v-295h-133v670z" />
    <glyph glyph-name="G" unicode="G" horiz-adv-x="667"
d="M624 373v-325q-93 -66 -234 -66q-156 0 -258 100.5t-102 252.5t101.5 252.5t254.5 100.5q128 0 207 -61v-125h-10q-73 66 -191 66q-97 0 -163 -67t-66 -166q0 -106 70.5 -169.5t161.5 -63.5q65 0 107 22v137h-168v112h290z" />
    <glyph glyph-name="H" unicode="H" horiz-adv-x="707"
d="M635 0h-132v296h-298v-296h-133v670h133v-258h298v258h132v-670z" />
    <glyph glyph-name="I" unicode="I" horiz-adv-x="277"
d="M205 0h-133v670h133v-670z" />
    <glyph glyph-name="J" unicode="J" horiz-adv-x="423"
d="M356 670v-475q0 -115 -44 -159q-54 -51 -167 -51q-70 0 -131 23v110q46 -16 111 -16q57 0 77 20q8 8 12 16t6.5 33t2.5 74v425h133z" />
    <glyph glyph-name="K" unicode="K" horiz-adv-x="621"
d="M352 365l278 -355v-10h-148l-216 278l-61 -67v-211h-133v670h133v-290l257 290h151v-10z" />
    <glyph glyph-name="L" unicode="L" horiz-adv-x="531"
d="M517 0h-445v670h133v-554h312v-116z" />
    <glyph glyph-name="M" unicode="M" horiz-adv-x="807"
d="M548 362l-90 -200h-106q-68 149 -90 200q-11 25 -31 72t-31 73h-1q0 -18 2 -67.5t2 -78.5v-361h-131v670h176l113 -252q11 -26 24.5 -60.5t18.5 -48.5h1q28 74 45 111l113 250h172v-670h-131v363q0 29 2 77t2 67h-1q-5 -12 -25.5 -63.5t-33.5 -81.5z" />
    <glyph glyph-name="N" unicode="N" horiz-adv-x="708"
d="M203 334v-334h-131v670h129l235 -361q20 -31 42 -66t28 -45h1q-2 50 -2 131v341h131v-670h-129l-236 354q-5 7 -69 111h-1q2 -50 2 -131z" />
    <glyph glyph-name="O" unicode="O" horiz-adv-x="772"
d="M30 335q0 152 101.5 252.5t254.5 100.5t254.5 -100.5t101.5 -252.5t-101 -252.5t-255 -100.5t-255 100.5t-101 252.5zM609 335q0 98 -63 166.5t-160 68.5t-160 -68.5t-63 -166.5q0 -97 63.5 -165.5t159.5 -68.5t159.5 68.5t63.5 165.5z" />
    <glyph glyph-name="P" unicode="P" horiz-adv-x="592"
d="M205 0h-133v670h269q105 0 167.5 -60.5t62.5 -154.5q0 -105 -68 -165.5t-170 -60.5h-128v-229zM205 554v-209h117q57 0 86.5 28.5t29.5 77.5q0 46 -27 74.5t-85 28.5h-121z" />
    <glyph glyph-name="Q" unicode="Q" horiz-adv-x="771"
d="M743 -8v-10h-137l-41 45q-73 -45 -179 -45q-154 0 -255 100.5t-101 252.5t101.5 252.5t254.5 100.5t254.5 -100.5t101.5 -252.5q0 -149 -92 -242zM609 335q0 98 -63 166.5t-160 68.5t-160 -68.5t-63 -166.5t64 -166t162 -68q62 0 94 18l-122 134v10h135l69 -77
q44 55 44 149z" />
    <glyph glyph-name="R" unicode="R" horiz-adv-x="616"
d="M72 0v670h263q107 0 166.5 -61.5t59.5 -153.5q0 -77 -38.5 -130.5t-106.5 -72.5l187 -242v-10h-145l-179 240h-74v-240h-133zM205 554v-205h114q55 0 82 29t27 77q0 45 -29 72t-84 27h-110z" />
    <glyph glyph-name="S" unicode="S" horiz-adv-x="524"
d="M255 422l88 -33q82 -31 120 -77.5t38 -122.5q0 -91 -67 -149t-181 -58q-119 0 -204 53v128h10q28 -26 81.5 -44.5t100.5 -18.5q64 0 95.5 25t31.5 61q0 34 -21 54.5t-70 38.5l-86 31q-71 26 -112.5 70.5t-41.5 121.5q0 76 65.5 131t172.5 55q103 0 169 -45v-125h-10
q-25 22 -68 37t-90 15q-49 0 -77.5 -19t-28.5 -48q0 -32 18.5 -48t66.5 -33z" />
    <glyph glyph-name="T" unicode="T" horiz-adv-x="591"
d="M362 0h-133v554h-216v116h565v-116h-216v-554z" />
    <glyph glyph-name="U" unicode="U" horiz-adv-x="669"
d="M334 -18q-121 0 -195 65.5t-74 188.5v434h133v-427q0 -69 35.5 -104t100.5 -35t101 35t36 104v427h133v-434q0 -123 -74.5 -188.5t-195.5 -65.5z" />
    <glyph glyph-name="V" unicode="V" horiz-adv-x="652"
d="M370 260l138 410h142l-254 -670h-141l-252 670h144l142 -410q4 -12 12.5 -38t15.5 -48t11 -37h2q10 40 40 123z" />
    <glyph glyph-name="W" unicode="W" horiz-adv-x="1001"
d="M645 0l-81 272q-25 81 -62 223h-2q-17 -68 -61 -222l-82 -273h-137l-214 670h138l84 -283q27 -94 59 -231h2q1 5 25.5 94.5t38.5 137.5l86 282h129l87 -285q49 -184 62 -229h2q31 139 60 231l83 283h132l-212 -670h-137z" />
    <glyph glyph-name="X" unicode="X" horiz-adv-x="653"
d="M-7 10l256 339l-234 311v10h154l159 -221l160 221h146v-10l-231 -306l260 -344v-10h-154l-185 255l-185 -255h-146v10z" />
    <glyph glyph-name="Y" unicode="Y" horiz-adv-x="612"
d="M608 660l-235 -360v-300h-133v300l-240 360v10h143l166 -257l161 257h138v-10z" />
    <glyph glyph-name="Z" unicode="Z" horiz-adv-x="557"
d="M35 554v116h516l-328 -554h302v-116h-520l329 554h-299z" />
    <glyph glyph-name="bracketleft" unicode="[" horiz-adv-x="347"
d="M81 -147v835h237v-97h-109v-641h109v-97h-237z" />
    <glyph glyph-name="backslash" unicode="\" horiz-adv-x="442"
d="M418 0h-135l-261 670h135z" />
    <glyph glyph-name="bracketright" unicode="]" horiz-adv-x="347"
d="M266 688v-835h-237v97h109v641h-109v97h237z" />
    <glyph glyph-name="asciicircum" unicode="^" horiz-adv-x="459"
d="M287 335l-57 161h-1l-57 -161h-132l140 335h99l140 -335h-132z" />
    <glyph glyph-name="underscore" unicode="_" horiz-adv-x="544"
d="M491 -156h-438v114h438v-114z" />
    <glyph glyph-name="grave" unicode="`" horiz-adv-x="362"
d="M186 549l-121 121h161l71 -121h-111z" />
    <glyph glyph-name="a" unicode="a" horiz-adv-x="512"
d="M258 224q-50 0 -77.5 -19t-27.5 -52q0 -31 22 -48t54 -17q63 0 99 40v85q-26 11 -70 11zM92 359h-10v114q20 13 68.5 25t96.5 12q97 0 154.5 -47t57.5 -132v-331h-124v38q-19 -21 -56 -36.5t-82 -15.5q-71 0 -121.5 42.5t-50.5 119.5q0 76 62 122t154 46q49 0 87 -15v19
q0 80 -102 80q-42 0 -78.5 -12t-55.5 -29z" />
    <glyph glyph-name="b" unicode="b" horiz-adv-x="601"
d="M300 396q-34 0 -65 -11.5t-46 -28.5v-213q37 -43 112 -43q62 0 102 41.5t40 108.5q0 65 -40.5 105.5t-102.5 40.5zM322 510q109 0 181 -73.5t72 -186.5t-73.5 -188.5t-178.5 -75.5q-48 0 -88 16.5t-61 42.5v-45h-116v670h131v-201q53 41 133 41z" />
    <glyph glyph-name="c" unicode="c" horiz-adv-x="490"
d="M446 147h10v-122q-64 -39 -162 -39q-117 0 -192.5 73t-75.5 190q0 111 77 186t193 75q90 0 154 -37v-120h-10q-50 42 -135 42q-62 0 -105 -40t-43 -106q0 -71 43.5 -109t106.5 -38q86 0 139 45z" />
    <glyph glyph-name="d" unicode="d" horiz-adv-x="601"
d="M301 396q-61 0 -102 -41t-41 -107t39.5 -107t102.5 -41q75 0 112 43v213q-15 17 -46 28.5t-65 11.5zM279 510q80 0 133 -41v201h131v-670h-116v45q-21 -26 -61 -42.5t-88 -16.5q-107 0 -179.5 73.5t-72.5 188.5q0 110 73.5 186t179.5 76z" />
    <glyph glyph-name="e" unicode="e" horiz-adv-x="529"
d="M289 -14q-119 0 -190.5 71.5t-71.5 186.5q0 114 70 190t177 76q108 0 170.5 -75t62.5 -200q0 -5 -0.5 -14t-0.5 -12q-1 -4 -1 -12h-351q19 -101 146 -101q99 0 162 50h10v-113q-64 -47 -183 -47zM153 294h229q-2 51 -31 81t-77 30q-47 0 -81.5 -29.5t-39.5 -81.5z" />
    <glyph glyph-name="f" unicode="f" horiz-adv-x="390"
d="M241 496h138v-104h-138v-392h-131v392h-98v104h98v21q0 88 35.5 126t119.5 38q48 0 93 -9v-107q-18 5 -49 5q-34 0 -51 -10t-17 -44v-20z" />
    <glyph glyph-name="g" unicode="g" horiz-adv-x="601"
d="M91 -29h11q71 -38 168 -38q83 0 117 29q16 14 20.5 29.5t4.5 43.5v22q-47 -40 -134 -40q-105 0 -177.5 65.5t-72.5 178.5q0 111 75.5 180t176.5 69q44 0 85 -15.5t62 -38.5v40h116v-449q0 -105 -43 -151q-69 -75 -225 -75q-52 0 -104.5 10t-79.5 24v116zM303 129
q64 0 109 41v187q-40 40 -109 40q-61 0 -102.5 -38.5t-41.5 -96.5q0 -62 40 -97.5t104 -35.5z" />
    <glyph glyph-name="h" unicode="h"
d="M189 354v-354h-131v670h131v-206q59 46 126 46q89 0 142 -49t53 -150v-311h-131v300q0 96 -98 96q-28 0 -53.5 -12.5t-38.5 -29.5z" />
    <glyph glyph-name="i" unicode="i" horiz-adv-x="247"
d="M189 0h-131v496h131v-496zM49 616q0 31 20.5 51.5t53.5 20.5t53.5 -20.5t20.5 -51.5t-20.5 -51.5t-53.5 -20.5t-53.5 20.5t-20.5 51.5z" />
    <glyph glyph-name="j" unicode="j" horiz-adv-x="251"
d="M62 -9v505h131v-510q0 -52 -9 -77.5t-31 -47.5q-36 -36 -115 -36q-63 0 -93 6v109q18 -5 50 -5q38 0 54 14q13 13 13 42zM53 616q0 31 20.5 51.5t53.5 20.5t53.5 -20.5t20.5 -51.5t-20.5 -51.5t-53.5 -20.5t-53.5 20.5t-20.5 51.5z" />
    <glyph glyph-name="k" unicode="k" horiz-adv-x="529"
d="M512 496v-10l-211 -227l233 -249v-10h-158l-187 205v-205h-131v670h131v-372l177 198h146z" />
    <glyph glyph-name="l" unicode="l" horiz-adv-x="247"
d="M189 0h-131v670h131v-670z" />
    <glyph glyph-name="m" unicode="m" horiz-adv-x="852"
d="M189 355v-355h-131v496h116v-48q20 24 56.5 43t75.5 19q101 0 152 -69q25 26 66 47.5t87 21.5q84 0 136 -49.5t52 -149.5v-311h-131v300q0 96 -89 96q-25 0 -49.5 -13.5t-38.5 -30.5q3 -19 3 -41v-311h-131v300q0 96 -89 96q-50 0 -85 -41z" />
    <glyph glyph-name="n" unicode="n"
d="M189 354v-354h-131v496h116v-46q23 25 61 42.5t80 17.5q89 0 142 -49t53 -150v-311h-131v300q0 96 -98 96q-28 0 -53.5 -12.5t-38.5 -29.5z" />
    <glyph glyph-name="o" unicode="o" horiz-adv-x="584"
d="M26 248q0 114 76 188t190 74q115 0 190.5 -73.5t75.5 -188.5t-75.5 -188.5t-190.5 -73.5t-190.5 73.5t-75.5 188.5zM157 248q0 -65 36.5 -106t98.5 -41t98.5 41t36.5 106t-36.5 106t-98.5 41t-98.5 -41t-36.5 -106z" />
    <glyph glyph-name="p" unicode="p" horiz-adv-x="601"
d="M300 99q61 0 102 41t41 108q0 66 -40 107.5t-102 41.5q-75 0 -112 -43v-215q15 -17 46 -28.5t65 -11.5zM322 -14q-80 0 -133 41v-192h-131v661h116v-45q21 26 61 42.5t88 16.5q107 0 179.5 -73.5t72.5 -188.5q0 -110 -73.5 -186t-179.5 -76z" />
    <glyph glyph-name="q" unicode="q" horiz-adv-x="601"
d="M301 99q34 0 65 11.5t46 28.5v215q-37 43 -112 43q-62 0 -102 -42t-40 -109q0 -66 40.5 -106.5t102.5 -40.5zM279 -14q-109 0 -181 73t-72 187q0 113 73.5 188.5t178.5 75.5q48 0 88 -16.5t61 -42.5v45h116v-661h-131v192q-53 -41 -133 -41z" />
    <glyph glyph-name="r" unicode="r" horiz-adv-x="377"
d="M365 503v-129q-26 8 -62 8q-37 0 -69.5 -13.5t-44.5 -32.5v-336h-131v496h116v-49q52 63 130 63q35 0 61 -7z" />
    <glyph glyph-name="s" unicode="s" horiz-adv-x="424"
d="M359 363h-10q-19 15 -53 26.5t-70 11.5q-66 0 -66 -38q0 -13 12.5 -24t22 -15t32.5 -12l62 -24q53 -21 82 -54t29 -95q0 -67 -55 -110t-144 -43q-96 0 -160 38v115h10q23 -18 64.5 -31.5t75.5 -13.5q86 0 86 47q0 20 -14 32.5t-49 25.5l-58 22q-118 45 -118 146
q0 59 50.5 101t129.5 42q84 0 141 -37v-110z" />
    <glyph glyph-name="t" unicode="t" horiz-adv-x="387"
d="M368 392h-122v-239q0 -32 15 -43q14 -10 52 -10q29 0 47 5v-109q-32 -6 -90 -6q-87 0 -122 35q-21 21 -27 47t-6 74v246h-106v104h106v130h131v-130h122v-104z" />
    <glyph glyph-name="u" unicode="u" horiz-adv-x="556"
d="M367 141v355h131v-496h-116v48q-20 -25 -58 -43.5t-80 -18.5q-82 0 -137 53.5t-55 156.5v300h131v-296q0 -49 24.5 -74.5t65.5 -25.5q28 0 55 12.5t39 28.5z" />
    <glyph glyph-name="v" unicode="v" horiz-adv-x="545"
d="M317 260l84 236h135l-196 -496h-134l-197 496h139l85 -238q30 -87 41 -130h1q5 13 17 53t25 79z" />
    <glyph glyph-name="w" unicode="w" horiz-adv-x="841"
d="M664 0h-145l-72 256q-22 83 -27 110h-1q-5 -27 -27 -110l-72 -256h-148l-155 496h127l80 -276q10 -33 24 -97h1q14 59 25 97l76 276h143l74 -276l27 -97h1q4 14 12 44.5t14 52.5l80 276h127z" />
    <glyph glyph-name="x" unicode="x" horiz-adv-x="538"
d="M1 10l196 247l-181 229v10h144l110 -147l110 147h138v-10l-176 -225l197 -251v-10h-143l-129 170l-127 -170h-139v10z" />
    <glyph glyph-name="y" unicode="y" horiz-adv-x="550"
d="M147 496l104 -259q12 -29 28 -79q18 50 29 78l100 260h138l-288 -661h-136l86 197l-199 464h138z" />
    <glyph glyph-name="z" unicode="z" horiz-adv-x="470"
d="M437 0h-427l240 382h-215v114h423l-241 -382h220v-114z" />
    <glyph glyph-name="braceleft" unicode="{" horiz-adv-x="318"
d="M152 272v-2q28 -13 38.5 -38t10.5 -83v-117q0 -50 14 -66t69 -16v-96h-31q-101 0 -140.5 33t-39.5 106v186q0 52 -40 58v68q40 6 40 58v186q0 73 39.5 106t140.5 33h31v-96q-55 0 -69 -16t-14 -66v-117q0 -58 -11 -83.5t-38 -37.5z" />
    <glyph glyph-name="bar" unicode="|" horiz-adv-x="290"
d="M209 688v-835h-128v835h128z" />
    <glyph glyph-name="braceright" unicode="}" horiz-adv-x="318"
d="M166 270v2q-27 12 -38 37.5t-11 83.5v117q0 50 -14 66t-69 16v96h31q101 0 140.5 -33t39.5 -106v-186q0 -52 40 -58v-68q-40 -6 -40 -58v-186q0 -73 -39.5 -106t-140.5 -33h-31v96q55 0 69 16t14 66v117q0 58 10.5 83t38.5 38z" />
    <glyph glyph-name="asciitilde" unicode="~" horiz-adv-x="521"
d="M68 211h-10v122q38 38 99 38q49 0 109 -36q3 -2 15 -8.5t19 -10t18.5 -8.5t23.5 -7.5t25 -2.5q52 0 87 32h10v-121q-13 -13 -42 -25.5t-61 -12.5q-9 0 -18 0.5t-17 2.5t-14.5 3.5t-14 5t-12 5t-12 5.5t-10 6t-10 6t-8.5 5q-58 33 -95 33q-50 0 -82 -32z" />
    <glyph glyph-name="uni00A0" unicode="&#xa0;" horiz-adv-x="232"
 />
    <glyph glyph-name="exclamdown" unicode="&#xa1;" horiz-adv-x="280"
d="M57 426q0 36 23.5 60t59.5 24t59.5 -24t23.5 -60q0 -38 -23.5 -61t-59.5 -23t-59.5 23t-23.5 61zM77 307h126v-472h-126v472z" />
    <glyph glyph-name="cent" unicode="&#xa2;" horiz-adv-x="514"
d="M456 154h10v-129q-48 -30 -117 -37v-92h-111v97q-91 18 -146.5 87.5t-55.5 168.5q0 93 55.5 162t145.5 91v97h111v-91q62 -6 112 -35v-125h-10q-54 45 -135 45q-63 0 -105.5 -38.5t-42.5 -105.5q0 -71 43 -108t107 -37q78 0 139 50z" />
    <glyph glyph-name="sterling" unicode="&#xa3;" horiz-adv-x="528"
d="M49 302v96h71q-26 62 -26 103q0 83 59.5 135t141.5 52q95 0 162 -54v-127h-10q-48 61 -128 61q-41 0 -66.5 -23.5t-25.5 -59.5q0 -23 32 -87h151v-96h-107q11 -30 11 -64q0 -36 -20.5 -68.5t-51.5 -50.5v-1h250v-118h-446v108q136 32 136 133q0 33 -16 61h-117z" />
    <glyph glyph-name="currency" unicode="&#xa4;" horiz-adv-x="540"
d="M44 163l48 48q-24 45 -24 97q0 51 24 97l-48 48l80 79l47 -48q47 26 99 26t99 -26l47 48l80 -79l-49 -48q25 -44 25 -97q0 -54 -25 -97l49 -48l-80 -79l-47 47q-44 -25 -99 -25t-99 25l-47 -47zM368 308q0 43 -28 71t-70 28t-70 -28t-28 -71q0 -44 28 -71.5t70 -27.5
t70 27.5t28 71.5z" />
    <glyph glyph-name="yen" unicode="&#xa5;" horiz-adv-x="721"
d="M428 0h-133v150h-159v96h159v50h-159v96h97l-205 267v11h149l187 -248l184 248h145v-11l-204 -267h98v-96h-159v-50h159v-96h-159v-150z" />
    <glyph glyph-name="brokenbar" unicode="&#xa6;" horiz-adv-x="292"
d="M210 354h-128v334h128v-334zM210 -146h-128v334h128v-334z" />
    <glyph glyph-name="section" unicode="&#xa7;" horiz-adv-x="490"
d="M254 580q-68 0 -68 -46q0 -17 17 -32.5t64 -44.5l71 -42q63 -38 90 -78t27 -92q0 -90 -79 -141q55 -53 55 -115q0 -81 -61 -124.5t-139 -43.5q-84 0 -158 46v118h10q20 -20 60 -38t77 -18q34 0 57 13t23 41q0 25 -16.5 42t-69.5 48l-78 49q-41 25 -71 66t-30 89
q0 95 87 139q-59 51 -59 114q0 64 47 111t125 47q85 0 157 -43v-123h-10q-56 58 -128 58zM154 284q0 -30 30 -54.5t94 -58.5q56 23 56 70q0 34 -25 56t-86 54q-29 -2 -49 -22t-20 -45z" />
    <glyph glyph-name="dieresis" unicode="&#xa8;" horiz-adv-x="478"
d="M65 611q0 30 19 49t51 19t51 -19t19 -49t-19 -49t-51 -19t-51 19t-19 49zM273 611q0 30 19 49t51 19t51 -19t19 -49t-19 -49t-51 -19t-51 19t-19 49z" />
    <glyph glyph-name="copyright" unicode="&#xa9;" horiz-adv-x="828"
d="M792 331q0 -158 -110 -267t-268 -109q-160 0 -269 109t-109 267t109 267t269 109q158 0 268 -109t110 -267zM703 331q0 122 -84 207.5t-205 85.5q-123 0 -206.5 -85t-83.5 -208q0 -122 83.5 -207t206.5 -85q122 0 205.5 85t83.5 207zM547 263h5v-91q-56 -36 -120 -36
q-88 0 -145 54.5t-57 142.5q0 87 58 142.5t146 55.5q58 0 111 -34v-86h-6q-39 39 -104 39q-53 0 -83.5 -34.5t-30.5 -82.5t31.5 -81.5t81.5 -33.5q72 0 113 45z" />
    <glyph glyph-name="ordfeminine" unicode="&#xaa;" horiz-adv-x="355"
d="M82 592h-4v68q35 24 97 24q124 0 124 -117v-184h-82v18q-31 -23 -79 -23q-40 0 -71 24t-31 70q0 48 35.5 74t84.5 26q37 0 59 -8v12q0 40 -57 40q-48 0 -76 -24zM171 512q-24 0 -39 -10t-15 -28q0 -15 11.5 -24t29.5 -9q34 0 56 20v44q-19 7 -43 7z" />
    <glyph glyph-name="guillemotleft" unicode="&#xab;" horiz-adv-x="588"
d="M303 445l-137 -193l127 -193v-10h-132l-128 203l137 203h133v-10zM552 445l-137 -193l127 -193v-10h-132l-128 203l137 203h133v-10z" />
    <glyph glyph-name="logicalnot" unicode="&#xac;" horiz-adv-x="570"
d="M509 419v-327h-133v209h-328v118h461z" />
    <glyph glyph-name="uni00AD" unicode="&#xad;" horiz-adv-x="390"
d="M335 200h-280v114h280v-114z" />
    <glyph glyph-name="registered" unicode="&#xae;" horiz-adv-x="828"
d="M593 138h-97l-99 147h-38v-147h-86v386h169q66 0 99 -34.5t33 -86.5q0 -88 -88 -110l107 -150v-5zM359 448v-89h68q61 0 61 44q0 45 -63 45h-66zM792 331q0 -158 -110 -267t-268 -109q-160 0 -269 109t-109 267t109 267t269 109q158 0 268 -109t110 -267zM703 331
q0 122 -84 207.5t-205 85.5q-123 0 -206.5 -85t-83.5 -208q0 -122 83.5 -207t206.5 -85q122 0 205.5 85t83.5 207z" />
    <glyph glyph-name="macron" unicode="&#xaf;" horiz-adv-x="445"
d="M380 586h-315v84h315v-84z" />
    <glyph glyph-name="degree" unicode="&#xb0;" horiz-adv-x="364"
d="M328 537q0 -61 -42 -102.5t-104 -41.5t-104 41.5t-42 102.5t42 102.5t104 41.5t104 -41.5t42 -102.5zM126 537q0 -24 16 -40.5t40 -16.5t39.5 16.5t15.5 40.5t-15.5 40t-39.5 16t-40 -16t-16 -40z" />
    <glyph glyph-name="plusminus" unicode="&#xb1;" horiz-adv-x="553"
d="M501 0h-449v107h449v-107zM338 141h-124v138h-162v107h162v138h124v-138h163v-107h-163v-138z" />
    <glyph glyph-name="twosuperior" unicode="&#xb2;" horiz-adv-x="363"
d="M55 297v61l122 138q37 41 37 66q0 44 -54 44q-29 0 -56 -13t-41 -34h-5v86q39 39 112 39q62 0 97.5 -30t35.5 -79q0 -52 -48 -110l-33 -39q-17 -20 -48 -51q14 2 66 2h70v-80h-255z" />
    <glyph glyph-name="threesuperior" unicode="&#xb3;" horiz-adv-x="346"
d="M283 670v-58l-82 -77q41 -2 74 -35.5t33 -81.5q0 -64 -42.5 -99.5t-103.5 -35.5q-71 0 -108 30v83h9q30 -30 91 -30q30 0 47 16t17 40t-18 40.5t-47 16.5q-38 0 -57 -13h-4v57l39 34q33 30 46 40q-34 -2 -48 -2h-75v75h229z" />
    <glyph glyph-name="acute" unicode="&#xb4;" horiz-adv-x="362"
d="M297 670l-121 -121h-111l71 121h161z" />
    <glyph glyph-name="mu" unicode="&#xb5;" horiz-adv-x="607"
d="M209 -165h-131v661h131v-290q0 -55 21 -80t70 -25q30 0 56.5 13.5t37.5 29.5v352h131v-496h-116v42q-15 -19 -53 -37.5t-71 -18.5q-48 0 -76 16v-167z" />
    <glyph glyph-name="paragraph" unicode="&#xb6;" horiz-adv-x="669"
d="M253 -165v452q-102 2 -163 47.5t-61 143.5q0 95 63.5 143.5t167.5 48.5h361v-105h-69v-730h-106v730h-84v-730h-109z" />
    <glyph glyph-name="periodcentered" unicode="&#xb7;" horiz-adv-x="264"
d="M49 324q0 38 23.5 61t59.5 23t59.5 -23t23.5 -61q0 -36 -23.5 -60t-59.5 -24t-59.5 24t-23.5 60z" />
    <glyph glyph-name="cedilla" unicode="&#xb8;" horiz-adv-x="322"
d="M169 -58h97v-152h-201v84h104v68z" />
    <glyph glyph-name="onesuperior" unicode="&#xb9;" horiz-adv-x="254"
d="M103 556l-58 -37h-10v90l96 61h62v-373h-90v259z" />
    <glyph glyph-name="ordmasculine" unicode="&#xba;" horiz-adv-x="397"
d="M199 448q33 0 55 21t22 56q0 33 -22 55.5t-55 22.5t-55 -22.5t-22 -55.5q0 -35 22 -56t55 -21zM199 367q-75 0 -119 46t-44 112t43.5 112.5t119.5 46.5q75 0 119 -46.5t44 -112.5t-44 -112t-119 -46z" />
    <glyph glyph-name="guillemotright" unicode="&#xbb;" horiz-adv-x="588"
d="M422 252l-137 193v10h133l137 -203l-128 -203h-132v10zM173 252l-137 193v10h133l137 -203l-128 -203h-132v10z" />
    <glyph glyph-name="onequarter" unicode="&#xbc;" horiz-adv-x="739"
d="M585 132v67q0 53 4 85q-7 -17 -36 -66l-24 -41q-2 -3 -29 -45h85zM410 62v57l155 254h97v-241h45v-70h-45v-62h-78v62h-174zM610 660l-395 -660h-98v10l395 660h98v-10zM101 556l-58 -37h-10v90l96 61h62v-373h-90v259z" />
    <glyph glyph-name="onehalf" unicode="&#xbd;" horiz-adv-x="774"
d="M482 0v61l122 138q37 41 37 66q0 44 -54 44q-29 0 -56 -13t-41 -34h-5v86q39 39 112 39q62 0 97.5 -30t35.5 -79q0 -52 -48 -110l-33 -39q-17 -20 -48 -51q14 2 66 2h70v-80h-255zM608 660l-395 -660h-98v10l395 660h98v-10zM101 556l-58 -37h-10v90l96 61h62v-373h-90
v259z" />
    <glyph glyph-name="threequarters" unicode="&#xbe;" horiz-adv-x="781"
d="M623 132v67q0 53 4 85q-7 -17 -36 -66l-24 -41q-1 -3 -29 -45h85zM448 60v60l154 253h102v-241h45v-72h-45v-60h-82v60h-174zM272 670v-58l-82 -77q41 -2 74 -35.5t33 -81.5q0 -64 -42.5 -99.5t-103.5 -35.5q-71 0 -108 30v83h9q30 -30 91 -30q30 0 47 16t17 40t-18 40.5
t-47 16.5q-38 0 -57 -13h-4v57l39 34q33 30 46 40q-34 -2 -48 -2h-75v75h229zM649 660l-395 -660h-98v10l395 660h98v-10z" />
    <glyph glyph-name="questiondown" unicode="&#xbf;" horiz-adv-x="448"
d="M251 126l-33 -24q-36 -27 -50 -45.5t-14 -42.5q0 -32 26 -52t78 -20q77 0 143 66h10v-126q-79 -61 -171 -61q-105 0 -160 53.5t-55 135.5q0 37 19 73.5t56 63.5l35 26q5 4 16.5 12t16.5 12t13.5 12.5t12.5 16.5t7 20t3 26v30h120v-31q0 -50 -13 -80t-60 -65zM345 426
q0 -38 -23.5 -61t-59.5 -23t-59.5 23t-23.5 61q0 36 23.5 60t59.5 24t59.5 -24t23.5 -60z" />
    <glyph glyph-name="Agrave" unicode="&#xc0;" horiz-adv-x="669"
d="M134 0h-140l275 670h132l273 -670h-144l-49 134h-297zM334 542h-2q-23 -75 -40 -119l-66 -177h214l-65 177q-12 33 -24.5 70t-16.5 49zM287 727l-121 121h161l71 -121h-111z" />
    <glyph glyph-name="Aacute" unicode="&#xc1;" horiz-adv-x="663"
d="M131 -8h-140l275 670h132l273 -670h-144l-49 134h-297zM331 534h-2q-23 -75 -40 -119l-66 -177h214l-65 177q-12 33 -24.5 70t-16.5 49zM496 848l-121 -121h-111l71 121h161z" />
    <glyph glyph-name="Acircumflex" unicode="&#xc2;" horiz-adv-x="669"
d="M134 0h-140l275 670h132l273 -670h-144l-49 134h-297zM334 542h-2q-23 -75 -40 -119l-66 -177h214l-65 177q-12 33 -24.5 70t-16.5 49zM408 848l94 -121h-119l-51 57l-51 -57h-119l94 121h152z" />
    <glyph glyph-name="Atilde" unicode="&#xc3;" horiz-adv-x="669"
d="M265 857q41 0 78 -29q25 -18 40 -18q27 0 27 41l96 -15q-1 -49 -29 -80.5t-73 -31.5q-38 0 -83 32q-23 15 -35 15q-27 0 -27 -41l-96 15q1 49 29 80.5t73 31.5zM134 0h-140l275 670h132l273 -670h-144l-49 134h-297zM334 542h-2q-23 -75 -40 -119l-66 -177h214l-65 177
q-12 33 -24.5 70t-16.5 49z" />
    <glyph glyph-name="Adieresis" unicode="&#xc4;" horiz-adv-x="669"
d="M134 0h-140l275 670h132l273 -670h-144l-49 134h-297zM334 542h-2q-23 -75 -40 -119l-66 -177h214l-65 177q-12 33 -24.5 70t-16.5 49zM159 789q0 30 19 49t51 19t51 -19t19 -49t-19 -49t-51 -19t-51 19t-19 49zM367 789q0 30 19 49t51 19t51 -19t19 -49t-19 -49t-51 -19
t-51 19t-19 49z" />
    <glyph glyph-name="Aring" unicode="&#xc5;" horiz-adv-x="669"
d="M134 0h-140l262 638q-29 29 -29 72q0 44 31.5 74.5t76.5 30.5q46 0 77.5 -30.5t31.5 -74.5q0 -43 -30 -73l260 -637h-144l-49 134h-297zM334 542h-2q-23 -75 -40 -119l-66 -177h214l-65 177q-12 33 -24.5 70t-16.5 49zM374 710q0 17 -11.5 28t-27.5 11q-17 0 -28.5 -11
t-11.5 -28t11.5 -27.5t28.5 -10.5q16 0 27.5 10.5t11.5 27.5z" />
    <glyph glyph-name="AE" unicode="&#xc6;" horiz-adv-x="946"
d="M319 670h581v-118h-343v-138h323v-118h-323v-178h349v-118h-482v134h-227l-66 -134h-145zM424 552h-28l-144 -306h172v306z" />
    <glyph glyph-name="Ccedilla" unicode="&#xc7;" horiz-adv-x="637"
d="M594 168h10v-127q-81 -59 -218 -59q-157 0 -256.5 100t-99.5 253q0 152 101.5 252.5t254.5 100.5q125 0 206 -59v-126h-10q-78 67 -190 67q-95 0 -162 -68t-67 -167q0 -105 69.5 -169.5t159.5 -64.5q129 0 202 67zM342 -58h97v-152h-201v84h104v68z" />
    <glyph glyph-name="Egrave" unicode="&#xc8;" horiz-adv-x="591"
d="M72 670h474v-116h-341v-143h318v-116h-318v-179h346v-116h-479v670zM275 727l-121 121h161l71 -121h-111z" />
    <glyph glyph-name="Eacute" unicode="&#xc9;" horiz-adv-x="591"
d="M72 670h474v-116h-341v-143h318v-116h-318v-179h346v-116h-479v670zM467 848l-121 -121h-111l71 121h161z" />
    <glyph glyph-name="Ecircumflex" unicode="&#xca;" horiz-adv-x="591"
d="M72 670h474v-116h-341v-143h318v-116h-318v-179h346v-116h-479v670zM384 848l94 -121h-119l-51 57l-51 -57h-119l94 121h152z" />
    <glyph glyph-name="Edieresis" unicode="&#xcb;" horiz-adv-x="591"
d="M72 670h474v-116h-341v-143h318v-116h-318v-179h346v-116h-479v670zM140 789q0 30 19 49t51 19t51 -19t19 -49t-19 -49t-51 -19t-51 19t-19 49zM348 789q0 30 19 49t51 19t51 -19t19 -49t-19 -49t-51 -19t-51 19t-19 49z" />
    <glyph glyph-name="Igrave" unicode="&#xcc;" horiz-adv-x="277"
d="M205 0h-133v670h133v-670zM106 727l-121 121h161l71 -121h-111z" />
    <glyph glyph-name="Iacute" unicode="&#xcd;" horiz-adv-x="277"
d="M205 0h-133v670h133v-670zM292 848l-121 -121h-111l71 121h161z" />
    <glyph glyph-name="Icircumflex" unicode="&#xce;" horiz-adv-x="277"
d="M205 0h-133v670h133v-670zM214 848l94 -121h-119l-51 57l-51 -57h-119l94 121h152z" />
    <glyph glyph-name="Idieresis" unicode="&#xcf;" horiz-adv-x="277"
d="M205 0h-133v670h133v-670zM-36 789q0 30 19 49t51 19t51 -19t19 -49t-19 -49t-51 -19t-51 19t-19 49zM172 789q0 30 19 49t51 19t51 -19t19 -49t-19 -49t-51 -19t-51 19t-19 49z" />
    <glyph glyph-name="Eth" unicode="&#xd0;" horiz-adv-x="682"
d="M1 289v96h83v285h213q93 0 162.5 -27.5t110 -75.5t60 -106.5t19.5 -127.5q0 -161 -90 -247t-261 -86h-214v289h-83zM302 554h-88v-169h155v-96h-155v-173h88q107 0 160.5 50.5t53.5 166.5q0 221 -214 221z" />
    <glyph glyph-name="Ntilde" unicode="&#xd1;" horiz-adv-x="708"
d="M203 334v-334h-131v670h129l235 -361q20 -31 42 -66t28 -45h1q-2 50 -2 131v341h131v-670h-129l-236 354q-5 7 -69 111h-1q2 -50 2 -131zM286 857q41 0 78 -29q25 -18 40 -18q27 0 27 41l96 -15q-1 -49 -29 -80.5t-73 -31.5q-38 0 -83 32q-22 15 -35 15q-27 0 -27 -41
l-96 15q1 49 29 80.5t73 31.5z" />
    <glyph glyph-name="Ograve" unicode="&#xd2;" horiz-adv-x="772"
d="M30 335q0 152 101.5 252.5t254.5 100.5t254.5 -100.5t101.5 -252.5t-101 -252.5t-255 -100.5t-255 100.5t-101 252.5zM609 335q0 98 -63 166.5t-160 68.5t-160 -68.5t-63 -166.5q0 -97 63.5 -165.5t159.5 -68.5t159.5 68.5t63.5 165.5zM333 727l-121 121h161l71 -121
h-111z" />
    <glyph glyph-name="Oacute" unicode="&#xd3;" horiz-adv-x="772"
d="M30 335q0 152 101.5 252.5t254.5 100.5t254.5 -100.5t101.5 -252.5t-101 -252.5t-255 -100.5t-255 100.5t-101 252.5zM609 335q0 98 -63 166.5t-160 68.5t-160 -68.5t-63 -166.5q0 -97 63.5 -165.5t159.5 -68.5t159.5 68.5t63.5 165.5zM552 848l-121 -121h-111l71 121
h161z" />
    <glyph glyph-name="Ocircumflex" unicode="&#xd4;" horiz-adv-x="772"
d="M30 335q0 152 101.5 252.5t254.5 100.5t254.5 -100.5t101.5 -252.5t-101 -252.5t-255 -100.5t-255 100.5t-101 252.5zM609 335q0 98 -63 166.5t-160 68.5t-160 -68.5t-63 -166.5q0 -97 63.5 -165.5t159.5 -68.5t159.5 68.5t63.5 165.5zM462 848l94 -121h-119l-51 57
l-51 -57h-119l94 121h152z" />
    <glyph glyph-name="Otilde" unicode="&#xd5;" horiz-adv-x="772"
d="M30 335q0 152 101.5 252.5t254.5 100.5t254.5 -100.5t101.5 -252.5t-101 -252.5t-255 -100.5t-255 100.5t-101 252.5zM609 335q0 98 -63 166.5t-160 68.5t-160 -68.5t-63 -166.5q0 -97 63.5 -165.5t159.5 -68.5t159.5 68.5t63.5 165.5zM317 857q41 0 78 -29
q25 -18 40 -18q27 0 27 41l96 -15q-1 -49 -29 -80.5t-73 -31.5q-38 0 -83 32q-22 15 -35 15q-27 0 -27 -41l-96 15q1 49 29 80.5t73 31.5z" />
    <glyph glyph-name="Odieresis" unicode="&#xd6;" horiz-adv-x="772"
d="M30 335q0 152 101.5 252.5t254.5 100.5t254.5 -100.5t101.5 -252.5t-101 -252.5t-255 -100.5t-255 100.5t-101 252.5zM609 335q0 98 -63 166.5t-160 68.5t-160 -68.5t-63 -166.5q0 -97 63.5 -165.5t159.5 -68.5t159.5 68.5t63.5 165.5zM212 789q0 30 19 49t51 19t51 -19
t19 -49t-19 -49t-51 -19t-51 19t-19 49zM420 789q0 30 19 49t51 19t51 -19t19 -49t-19 -49t-51 -19t-51 19t-19 49z" />
    <glyph glyph-name="multiply" unicode="&#xd7;" horiz-adv-x="565"
d="M282 166l-160 -160l-84 84l160 160l-161 162l84 84l161 -162l162 162l84 -84l-162 -162l161 -160l-84 -84z" />
    <glyph glyph-name="Oslash" unicode="&#xd8;" horiz-adv-x="772"
d="M30 335q0 152 101.5 252.5t254.5 100.5q115 0 207 -61l55 61l79 -72l-57 -63q72 -96 72 -218q0 -152 -101 -252.5t-255 -100.5q-104 0 -188 49l-57 -63l-79 71l53 59q-85 97 -85 237zM386 570q-97 0 -160 -68.5t-63 -166.5q0 -79 41 -138l304 336q-56 37 -122 37z
M609 335q0 65 -29 118l-296 -327q46 -25 102 -25q96 0 159.5 68.5t63.5 165.5z" />
    <glyph glyph-name="Ugrave" unicode="&#xd9;" horiz-adv-x="669"
d="M334 -18q-121 0 -195 65.5t-74 188.5v434h133v-427q0 -69 35.5 -104t100.5 -35t101 35t36 104v427h133v-434q0 -123 -74.5 -188.5t-195.5 -65.5zM299 727l-121 121h161l71 -121h-111z" />
    <glyph glyph-name="Uacute" unicode="&#xda;" horiz-adv-x="669"
d="M334 -18q-121 0 -195 65.5t-74 188.5v434h133v-427q0 -69 35.5 -104t100.5 -35t101 35t36 104v427h133v-434q0 -123 -74.5 -188.5t-195.5 -65.5zM493 848l-121 -121h-111l71 121h161z" />
    <glyph glyph-name="Ucircumflex" unicode="&#xdb;" horiz-adv-x="669"
d="M334 -18q-121 0 -195 65.5t-74 188.5v434h133v-427q0 -69 35.5 -104t100.5 -35t101 35t36 104v427h133v-434q0 -123 -74.5 -188.5t-195.5 -65.5zM409 848l94 -121h-119l-51 57l-51 -57h-119l94 121h152z" />
    <glyph glyph-name="Udieresis" unicode="&#xdc;" horiz-adv-x="669"
d="M334 -18q-121 0 -195 65.5t-74 188.5v434h133v-427q0 -69 35.5 -104t100.5 -35t101 35t36 104v427h133v-434q0 -123 -74.5 -188.5t-195.5 -65.5zM160 789q0 30 19 49t51 19t51 -19t19 -49t-19 -49t-51 -19t-51 19t-19 49zM368 789q0 30 19 49t51 19t51 -19t19 -49
t-19 -49t-51 -19t-51 19t-19 49z" />
    <glyph glyph-name="Yacute" unicode="&#xdd;" horiz-adv-x="612"
d="M464 848l-121 -121h-111l71 121h161zM608 660l-235 -360v-300h-133v300l-240 360v10h143l166 -257l161 257h138v-10z" />
    <glyph glyph-name="Thorn" unicode="&#xde;" horiz-adv-x="597"
d="M205 0h-133v670h133v-110h143q106 0 169 -60t63 -155t-63 -155t-169 -60h-143v-130zM205 248h131q56 0 83.5 27.5t27.5 69.5t-27.5 69.5t-83.5 27.5h-131v-194z" />
    <glyph glyph-name="germandbls" unicode="&#xdf;" horiz-adv-x="572"
d="M315 99q44 0 71.5 30.5t27.5 72.5q0 47 -35 73.5t-90 26.5h-37v105h38q38 0 60.5 24.5t22.5 59.5t-22.5 58.5t-64.5 23.5q-49 0 -73 -30t-24 -102v-441h-131v453q0 115 59.5 175t166.5 60q105 0 162.5 -57.5t57.5 -128.5q0 -99 -76 -140v-1q45 -13 81 -55.5t36 -113.5
q0 -96 -63.5 -151.5t-152.5 -55.5q-56 0 -92 17v116h15q26 -19 63 -19z" />
    <glyph glyph-name="agrave" unicode="&#xe0;" horiz-adv-x="512"
d="M258 224q-50 0 -77.5 -19t-27.5 -52q0 -31 22 -48t54 -17q63 0 99 40v85q-26 11 -70 11zM92 359h-10v114q20 13 68.5 25t96.5 12q97 0 154.5 -47t57.5 -132v-331h-124v38q-19 -21 -56 -36.5t-82 -15.5q-71 0 -121.5 42.5t-50.5 119.5q0 76 62 122t154 46q49 0 87 -15v19
q0 80 -102 80q-42 0 -78.5 -12t-55.5 -29zM222 549l-121 121h161l71 -121h-111z" />
    <glyph glyph-name="aacute" unicode="&#xe1;" horiz-adv-x="512"
d="M258 224q-50 0 -77.5 -19t-27.5 -52q0 -31 22 -48t54 -17q63 0 99 40v85q-26 11 -70 11zM92 359h-10v114q20 13 68.5 25t96.5 12q97 0 154.5 -47t57.5 -132v-331h-124v38q-19 -21 -56 -36.5t-82 -15.5q-71 0 -121.5 42.5t-50.5 119.5q0 76 62 122t154 46q49 0 87 -15v19
q0 80 -102 80q-42 0 -78.5 -12t-55.5 -29zM405 670l-121 -121h-111l71 121h161z" />
    <glyph glyph-name="acircumflex" unicode="&#xe2;" horiz-adv-x="512"
d="M258 224q-50 0 -77.5 -19t-27.5 -52q0 -31 22 -48t54 -17q63 0 99 40v85q-26 11 -70 11zM92 359h-10v114q20 13 68.5 25t96.5 12q97 0 154.5 -47t57.5 -132v-331h-124v38q-19 -21 -56 -36.5t-82 -15.5q-71 0 -121.5 42.5t-50.5 119.5q0 76 62 122t154 46q49 0 87 -15v19
q0 80 -102 80q-42 0 -78.5 -12t-55.5 -29zM327 670l94 -121h-119l-51 57l-51 -57h-119l94 121h152z" />
    <glyph glyph-name="atilde" unicode="&#xe3;" horiz-adv-x="512"
d="M258 224q-50 0 -77.5 -19t-27.5 -52q0 -31 22 -48t54 -17q63 0 99 40v85q-26 11 -70 11zM92 359h-10v114q20 13 68.5 25t96.5 12q97 0 154.5 -47t57.5 -132v-331h-124v38q-19 -21 -56 -36.5t-82 -15.5q-71 0 -121.5 42.5t-50.5 119.5q0 76 62 122t154 46q49 0 87 -15v19
q0 80 -102 80q-42 0 -78.5 -12t-55.5 -29zM182 679q41 0 78 -29q25 -18 40 -18q27 0 27 41l96 -15q-1 -49 -29 -80.5t-73 -31.5q-38 0 -83 32q-22 15 -35 15q-27 0 -27 -41l-96 15q1 49 29 80.5t73 31.5z" />
    <glyph glyph-name="adieresis" unicode="&#xe4;" horiz-adv-x="512"
d="M258 224q-50 0 -77.5 -19t-27.5 -52q0 -31 22 -48t54 -17q63 0 99 40v85q-26 11 -70 11zM92 359h-10v114q20 13 68.5 25t96.5 12q97 0 154.5 -47t57.5 -132v-331h-124v38q-19 -21 -56 -36.5t-82 -15.5q-71 0 -121.5 42.5t-50.5 119.5q0 76 62 122t154 46q49 0 87 -15v19
q0 80 -102 80q-42 0 -78.5 -12t-55.5 -29zM80 611q0 30 19 49t51 19t51 -19t19 -49t-19 -49t-51 -19t-51 19t-19 49zM288 611q0 30 19 49t51 19t51 -19t19 -49t-19 -49t-51 -19t-51 19t-19 49z" />
    <glyph glyph-name="aring" unicode="&#xe5;" horiz-adv-x="512"
d="M258 224q-50 0 -77.5 -19t-27.5 -52q0 -31 22 -48t54 -17q63 0 99 40v85q-26 11 -70 11zM92 359h-10v114q20 13 68.5 25t96.5 12q97 0 154.5 -47t57.5 -132v-331h-124v38q-19 -21 -56 -36.5t-82 -15.5q-71 0 -121.5 42.5t-50.5 119.5q0 76 62 122t154 46q49 0 87 -15v19
q0 80 -102 80q-42 0 -78.5 -12t-55.5 -29zM367 642q0 -44 -31.5 -74.5t-77.5 -30.5q-45 0 -76.5 30.5t-31.5 74.5t31.5 74.5t76.5 30.5q46 0 77.5 -30.5t31.5 -74.5zM297 642q0 17 -11.5 27.5t-27.5 10.5q-17 0 -28.5 -10.5t-11.5 -27.5t11.5 -28t28.5 -11q16 0 27.5 11
t11.5 28z" />
    <glyph glyph-name="ae" unicode="&#xe6;" horiz-adv-x="830"
d="M590 -14q-120 0 -193 73q-38 -37 -82.5 -55t-112.5 -18q-43 0 -81 14t-67.5 53t-29.5 97q0 79 60 124.5t151 45.5q25 0 55 -5.5t40 -11.5v17q0 80 -98 80q-84 0 -131 -36h-10v108q20 12 65.5 25t90.5 13q115 0 168 -59q69 59 160 59q108 0 170.5 -75t62.5 -200
q0 -5 -0.5 -14t-0.5 -12q-1 -4 -1 -12h-351q19 -101 146 -101q99 0 162 50h10v-113q-64 -47 -183 -47zM252 225q-48 0 -74.5 -20t-26.5 -51t23 -48.5t57 -17.5q63 0 99 40v79q0 1 -0.5 2t-0.5 3q-31 13 -77 13zM454 294h229q-2 51 -31 81t-77 30q-47 0 -81.5 -29.5
t-39.5 -81.5z" />
    <glyph glyph-name="ccedilla" unicode="&#xe7;" horiz-adv-x="490"
d="M446 147h10v-122q-64 -39 -162 -39q-117 0 -192.5 73t-75.5 190q0 111 77 186t193 75q90 0 154 -37v-120h-10q-50 42 -135 42q-62 0 -105 -40t-43 -106q0 -71 43.5 -109t106.5 -38q86 0 139 45zM254 -58h97v-152h-201v84h104v68z" />
    <glyph glyph-name="egrave" unicode="&#xe8;" horiz-adv-x="529"
d="M227 549l-121 121h161l71 -121h-111zM289 -14q-119 0 -190.5 71.5t-71.5 186.5q0 114 70 190t177 76q108 0 170.5 -75t62.5 -200q0 -5 -0.5 -14t-0.5 -12q-1 -4 -1 -12h-351q19 -101 146 -101q99 0 162 50h10v-113q-64 -47 -183 -47zM153 294h229q-2 51 -31 81t-77 30
q-47 0 -81.5 -29.5t-39.5 -81.5z" />
    <glyph glyph-name="eacute" unicode="&#xe9;" horiz-adv-x="529"
d="M427 670l-121 -121h-111l71 121h161zM289 -14q-119 0 -190.5 71.5t-71.5 186.5q0 114 70 190t177 76q108 0 170.5 -75t62.5 -200q0 -5 -0.5 -14t-0.5 -12q-1 -4 -1 -12h-351q19 -101 146 -101q99 0 162 50h10v-113q-64 -47 -183 -47zM153 294h229q-2 51 -31 81t-77 30
q-47 0 -81.5 -29.5t-39.5 -81.5z" />
    <glyph glyph-name="ecircumflex" unicode="&#xea;" horiz-adv-x="529"
d="M289 -14q-119 0 -190.5 71.5t-71.5 186.5q0 114 70 190t177 76q108 0 170.5 -75t62.5 -200q0 -5 -0.5 -14t-0.5 -12q-1 -4 -1 -12h-351q19 -101 146 -101q99 0 162 50h10v-113q-64 -47 -183 -47zM153 294h229q-2 51 -31 81t-77 30q-47 0 -81.5 -29.5t-39.5 -81.5z
M349 670l94 -121h-119l-51 57l-51 -57h-119l94 121h152z" />
    <glyph glyph-name="edieresis" unicode="&#xeb;" horiz-adv-x="529"
d="M289 -14q-119 0 -190.5 71.5t-71.5 186.5q0 114 70 190t177 76q108 0 170.5 -75t62.5 -200q0 -5 -0.5 -14t-0.5 -12q-1 -4 -1 -12h-351q19 -101 146 -101q99 0 162 50h10v-113q-64 -47 -183 -47zM153 294h229q-2 51 -31 81t-77 30q-47 0 -81.5 -29.5t-39.5 -81.5zM99 611
q0 30 19 49t51 19t51 -19t19 -49t-19 -49t-51 -19t-51 19t-19 49zM307 611q0 30 19 49t51 19t51 -19t19 -49t-19 -49t-51 -19t-51 19t-19 49z" />
    <glyph glyph-name="igrave" unicode="&#xec;" horiz-adv-x="247"
d="M90 549l-121 121h161l71 -121h-111zM189 0h-131v496h131v-496z" />
    <glyph glyph-name="iacute" unicode="&#xed;" horiz-adv-x="247"
d="M278 670l-121 -121h-111l71 121h161zM189 0h-131v496h131v-496z" />
    <glyph glyph-name="icircumflex" unicode="&#xee;" horiz-adv-x="247"
d="M199 670l94 -121h-119l-51 57l-51 -57h-119l94 121h152zM189 0h-131v496h131v-496z" />
    <glyph glyph-name="idieresis" unicode="&#xef;" horiz-adv-x="247"
d="M-51 611q0 30 19 49t51 19t51 -19t19 -49t-19 -49t-51 -19t-51 19t-19 49zM157 611q0 30 19 49t51 19t51 -19t19 -49t-19 -49t-51 -19t-51 19t-19 49zM189 0h-131v496h131v-496z" />
    <glyph glyph-name="eth" unicode="&#xf0;" horiz-adv-x="568"
d="M234 530l-123 -47l-28 76l103 39l-44 62v10h141l19 -27l88 34l29 -76l-67 -26l124 -167q66 -88 66 -170q0 -111 -73 -181.5t-184 -70.5q-113 0 -185.5 71.5t-72.5 180.5t70 176.5t172 67.5zM158 238q0 -60 35.5 -97t91.5 -37q55 0 90.5 37t35.5 97q0 36 -11.5 62.5
t-41.5 62.5q-29 13 -73 13q-55 0 -91 -39t-36 -99z" />
    <glyph glyph-name="ntilde" unicode="&#xf1;"
d="M189 354v-354h-131v496h116v-46q23 25 61 42.5t80 17.5q89 0 142 -49t53 -150v-311h-131v300q0 96 -98 96q-28 0 -53.5 -12.5t-38.5 -29.5zM206 679q41 0 78 -29q25 -18 40 -18q27 0 27 41l96 -15q-1 -49 -29 -80.5t-73 -31.5q-38 0 -83 32q-22 15 -35 15q-27 0 -27 -41
l-96 15q1 49 29 80.5t73 31.5z" />
    <glyph glyph-name="ograve" unicode="&#xf2;" horiz-adv-x="584"
d="M26 248q0 114 76 188t190 74q115 0 190.5 -73.5t75.5 -188.5t-75.5 -188.5t-190.5 -73.5t-190.5 73.5t-75.5 188.5zM157 248q0 -65 36.5 -106t98.5 -41t98.5 41t36.5 106t-36.5 106t-98.5 41t-98.5 -41t-36.5 -106zM251 549l-121 121h161l71 -121h-111z" />
    <glyph glyph-name="oacute" unicode="&#xf3;" horiz-adv-x="584"
d="M26 248q0 114 76 188t190 74q115 0 190.5 -73.5t75.5 -188.5t-75.5 -188.5t-190.5 -73.5t-190.5 73.5t-75.5 188.5zM157 248q0 -65 36.5 -106t98.5 -41t98.5 41t36.5 106t-36.5 106t-98.5 41t-98.5 -41t-36.5 -106zM447 670l-121 -121h-111l71 121h161z" />
    <glyph glyph-name="ocircumflex" unicode="&#xf4;" horiz-adv-x="584"
d="M26 248q0 114 76 188t190 74q115 0 190.5 -73.5t75.5 -188.5t-75.5 -188.5t-190.5 -73.5t-190.5 73.5t-75.5 188.5zM157 248q0 -65 36.5 -106t98.5 -41t98.5 41t36.5 106t-36.5 106t-98.5 41t-98.5 -41t-36.5 -106zM368 670l94 -121h-119l-51 57l-51 -57h-119l94 121h152
z" />
    <glyph glyph-name="otilde" unicode="&#xf5;" horiz-adv-x="584"
d="M26 248q0 114 76 188t190 74q115 0 190.5 -73.5t75.5 -188.5t-75.5 -188.5t-190.5 -73.5t-190.5 73.5t-75.5 188.5zM157 248q0 -65 36.5 -106t98.5 -41t98.5 41t36.5 106t-36.5 106t-98.5 41t-98.5 -41t-36.5 -106zM223 679q41 0 78 -29q25 -18 40 -18q27 0 27 41l96 -15
q-1 -49 -29 -80.5t-73 -31.5q-38 0 -83 32q-23 15 -35 15q-27 0 -27 -41l-96 15q1 49 29 80.5t73 31.5z" />
    <glyph glyph-name="odieresis" unicode="&#xf6;" horiz-adv-x="584"
d="M26 248q0 114 76 188t190 74q115 0 190.5 -73.5t75.5 -188.5t-75.5 -188.5t-190.5 -73.5t-190.5 73.5t-75.5 188.5zM157 248q0 -65 36.5 -106t98.5 -41t98.5 41t36.5 106t-36.5 106t-98.5 41t-98.5 -41t-36.5 -106zM118 611q0 30 19 49t51 19t51 -19t19 -49t-19 -49
t-51 -19t-51 19t-19 49zM326 611q0 30 19 49t51 19t51 -19t19 -49t-19 -49t-51 -19t-51 19t-19 49z" />
    <glyph glyph-name="divide" unicode="&#xf7;" horiz-adv-x="545"
d="M195 446q0 36 23.5 59t57.5 23t57.5 -23t23.5 -59t-23.5 -59t-57.5 -23t-57.5 23t-23.5 59zM508 200h-470v114h470v-114zM194 68q0 36 23.5 59t57.5 23t57.5 -23t23.5 -59t-23.5 -59t-57.5 -23t-57.5 23t-23.5 59z" />
    <glyph glyph-name="oslash" unicode="&#xf8;" horiz-adv-x="584"
d="M26 248q0 114 76 188t190 74q85 0 147 -41l36 41l68 -59l-37 -42q52 -68 52 -161q0 -115 -75.5 -188.5t-190.5 -73.5q-72 0 -134 32l-38 -42l-65 56l35 40q-64 72 -64 176zM157 248q0 -46 18 -80l184 210q-29 17 -67 17q-62 0 -98.5 -41t-36.5 -106zM292 101
q62 0 98.5 41t36.5 106q0 34 -10 61l-178 -199q24 -9 53 -9z" />
    <glyph glyph-name="ugrave" unicode="&#xf9;" horiz-adv-x="556"
d="M367 141v355h131v-496h-116v48q-20 -25 -58 -43.5t-80 -18.5q-82 0 -137 53.5t-55 156.5v300h131v-296q0 -49 24.5 -74.5t65.5 -25.5q28 0 55 12.5t39 28.5zM238 549l-121 121h161l71 -121h-111z" />
    <glyph glyph-name="uacute" unicode="&#xfa;" horiz-adv-x="556"
d="M367 141v355h131v-496h-116v48q-20 -25 -58 -43.5t-80 -18.5q-82 0 -137 53.5t-55 156.5v300h131v-296q0 -49 24.5 -74.5t65.5 -25.5q28 0 55 12.5t39 28.5zM430 670l-121 -121h-111l71 121h161z" />
    <glyph glyph-name="ucircumflex" unicode="&#xfb;" horiz-adv-x="556"
d="M349 670l94 -121h-119l-51 57l-51 -57h-119l94 121h152zM367 141v355h131v-496h-116v48q-20 -25 -58 -43.5t-80 -18.5q-82 0 -137 53.5t-55 156.5v300h131v-296q0 -49 24.5 -74.5t65.5 -25.5q28 0 55 12.5t39 28.5z" />
    <glyph glyph-name="udieresis" unicode="&#xfc;" horiz-adv-x="556"
d="M367 141v355h131v-496h-116v48q-20 -25 -58 -43.5t-80 -18.5q-82 0 -137 53.5t-55 156.5v300h131v-296q0 -49 24.5 -74.5t65.5 -25.5q28 0 55 12.5t39 28.5zM100 611q0 30 19 49t51 19t51 -19t19 -49t-19 -49t-51 -19t-51 19t-19 49zM308 611q0 30 19 49t51 19t51 -19
t19 -49t-19 -49t-51 -19t-51 19t-19 49z" />
    <glyph glyph-name="yacute" unicode="&#xfd;" horiz-adv-x="550"
d="M147 496l104 -259q12 -29 28 -79q18 50 29 78l100 260h138l-288 -661h-136l86 197l-199 464h138zM442 670l-121 -121h-111l71 121h161z" />
    <glyph glyph-name="thorn" unicode="&#xfe;" horiz-adv-x="601"
d="M300 396q-34 0 -65 -11.5t-46 -28.5v-213q37 -43 112 -43q62 0 102 41.5t40 108.5q0 65 -40.5 105.5t-102.5 40.5zM322 510q109 0 181 -73.5t72 -186.5t-73.5 -188.5t-178.5 -75.5q-79 0 -134 44v-195h-131v835h131v-201q53 41 133 41z" />
    <glyph glyph-name="ydieresis" unicode="&#xff;" horiz-adv-x="550"
d="M147 496l104 -259q12 -29 28 -79q18 50 29 78l100 260h138l-288 -661h-136l86 197l-199 464h138zM106 611q0 30 19 49t51 19t51 -19t19 -49t-19 -49t-51 -19t-51 19t-19 49zM314 611q0 30 19 49t51 19t51 -19t19 -49t-19 -49t-51 -19t-51 19t-19 49z" />
    <glyph glyph-name="Amacron" unicode="&#x100;" horiz-adv-x="669"
d="M134 0h-140l275 670h132l273 -670h-144l-49 134h-297zM334 542h-2q-23 -75 -40 -119l-66 -177h214l-65 177q-12 33 -24.5 70t-16.5 49zM491 764h-315v84h315v-84z" />
    <glyph glyph-name="amacron" unicode="&#x101;" horiz-adv-x="512"
d="M258 224q-50 0 -77.5 -19t-27.5 -52q0 -31 22 -48t54 -17q63 0 99 40v85q-26 11 -70 11zM92 359h-10v114q20 13 68.5 25t96.5 12q97 0 154.5 -47t57.5 -132v-331h-124v38q-19 -21 -56 -36.5t-82 -15.5q-71 0 -121.5 42.5t-50.5 119.5q0 76 62 122t154 46q49 0 87 -15v19
q0 80 -102 80q-42 0 -78.5 -12t-55.5 -29zM413 586h-315v84h315v-84z" />
    <glyph glyph-name="Abreve" unicode="&#x102;" horiz-adv-x="669"
d="M134 0h-140l275 670h132l273 -670h-144l-49 134h-297zM334 542h-2q-23 -75 -40 -119l-66 -177h214l-65 177q-12 33 -24.5 70t-16.5 49zM333 714q-68 0 -112 37t-49 97h103q3 -20 17 -34.5t41 -14.5t41 14.5t17 34.5h103q-5 -60 -49.5 -97t-111.5 -37z" />
    <glyph glyph-name="abreve" unicode="&#x103;" horiz-adv-x="512"
d="M258 224q-50 0 -77.5 -19t-27.5 -52q0 -31 22 -48t54 -17q63 0 99 40v85q-26 11 -70 11zM92 359h-10v114q20 13 68.5 25t96.5 12q97 0 154.5 -47t57.5 -132v-331h-124v38q-19 -21 -56 -36.5t-82 -15.5q-71 0 -121.5 42.5t-50.5 119.5q0 76 62 122t154 46q49 0 87 -15v19
q0 80 -102 80q-42 0 -78.5 -12t-55.5 -29zM260 542q-67 0 -111 34t-50 94h103q3 -20 18 -37.5t40 -17.5t40 17.5t18 37.5h103q-6 -60 -50 -94t-111 -34z" />
    <glyph glyph-name="Aogonek" unicode="&#x104;" horiz-adv-x="668"
d="M651 -112h3v-88q-20 -15 -67 -15q-39 0 -70.5 28.5t-31.5 80.5q0 61 45 106l-49 134h-297l-50 -134h-140l275 670h132l273 -670h-53q-41 -36 -41 -81q0 -22 11.5 -31t25.5 -9q22 0 34 9zM334 542h-2q-23 -75 -40 -119l-66 -177h214l-65 177q-12 33 -24.5 70t-16.5 49z
" />
    <glyph glyph-name="aogonek" unicode="&#x105;" horiz-adv-x="512"
d="M456 -112h3v-88q-20 -15 -67 -15q-39 0 -70.5 28.5t-31.5 80.5q0 61 45 106v38q-19 -21 -56 -36.5t-82 -15.5q-71 0 -121.5 42.5t-50.5 119.5q0 76 62 122t154 46q49 0 87 -15v19q0 80 -102 80q-42 0 -78.5 -12t-55.5 -29h-10v114q20 13 68.5 25t96.5 12q97 0 154.5 -47
t57.5 -132v-331h-33q-41 -36 -41 -81q0 -22 11.5 -31t25.5 -9q22 0 34 9zM258 224q-50 0 -77.5 -19t-27.5 -52q0 -31 22 -48t54 -17q63 0 99 40v85q-26 11 -70 11z" />
    <glyph glyph-name="Cacute" unicode="&#x106;" horiz-adv-x="637"
d="M536 848l-121 -121h-111l71 121h161zM594 168h10v-127q-81 -59 -218 -59q-157 0 -256.5 100t-99.5 253q0 152 101.5 252.5t254.5 100.5q125 0 206 -59v-126h-10q-78 67 -190 67q-95 0 -162 -68t-67 -167q0 -105 69.5 -169.5t159.5 -64.5q129 0 202 67z" />
    <glyph glyph-name="cacute" unicode="&#x107;" horiz-adv-x="490"
d="M446 147h10v-122q-64 -39 -162 -39q-117 0 -192.5 73t-75.5 190q0 111 77 186t193 75q90 0 154 -37v-120h-10q-50 42 -135 42q-62 0 -105 -40t-43 -106q0 -71 43.5 -109t106.5 -38q86 0 139 45zM444 670l-121 -121h-111l71 121h161z" />
    <glyph glyph-name="Ccircumflex" unicode="&#x108;" horiz-adv-x="637"
d="M446 848l94 -121h-119l-51 57l-51 -57h-119l94 121h152zM594 168h10v-127q-81 -59 -218 -59q-157 0 -256.5 100t-99.5 253q0 152 101.5 252.5t254.5 100.5q125 0 206 -59v-126h-10q-78 67 -190 67q-95 0 -162 -68t-67 -167q0 -105 69.5 -169.5t159.5 -64.5q129 0 202 67z
" />
    <glyph glyph-name="ccircumflex" unicode="&#x109;" horiz-adv-x="490"
d="M446 147h10v-122q-64 -39 -162 -39q-117 0 -192.5 73t-75.5 190q0 111 77 186t193 75q90 0 154 -37v-120h-10q-50 42 -135 42q-62 0 -105 -40t-43 -106q0 -71 43.5 -109t106.5 -38q86 0 139 45zM353 670l94 -121h-119l-51 57l-51 -57h-119l94 121h152z" />
    <glyph glyph-name="Cdotaccent" unicode="&#x10a;" horiz-adv-x="637"
d="M594 168h10v-127q-81 -59 -218 -59q-157 0 -256.5 100t-99.5 253q0 152 101.5 252.5t254.5 100.5q125 0 206 -59v-126h-10q-78 67 -190 67q-95 0 -162 -68t-67 -167q0 -105 69.5 -169.5t159.5 -64.5q129 0 202 67zM304 789q0 30 19 49t51 19t51 -19t19 -49t-19 -49
t-51 -19t-51 19t-19 49z" />
    <glyph glyph-name="cdotaccent" unicode="&#x10b;" horiz-adv-x="490"
d="M209 611q0 30 19 49t51 19t51 -19t19 -49t-19 -49t-51 -19t-51 19t-19 49zM446 147h10v-122q-64 -39 -162 -39q-117 0 -192.5 73t-75.5 190q0 111 77 186t193 75q90 0 154 -37v-120h-10q-50 42 -135 42q-62 0 -105 -40t-43 -106q0 -71 43.5 -109t106.5 -38q86 0 139 45z
" />
    <glyph glyph-name="Ccaron" unicode="&#x10c;" horiz-adv-x="637"
d="M594 168h10v-127q-81 -59 -218 -59q-157 0 -256.5 100t-99.5 253q0 152 101.5 252.5t254.5 100.5q125 0 206 -59v-126h-10q-78 67 -190 67q-95 0 -162 -68t-67 -167q0 -105 69.5 -169.5t159.5 -64.5q129 0 202 67zM533 848l-94 -121h-152l-94 121h119l51 -57l51 57h119z
" />
    <glyph glyph-name="ccaron" unicode="&#x10d;" horiz-adv-x="490"
d="M446 147h10v-122q-64 -39 -162 -39q-117 0 -192.5 73t-75.5 190q0 111 77 186t193 75q90 0 154 -37v-120h-10q-50 42 -135 42q-62 0 -105 -40t-43 -106q0 -71 43.5 -109t106.5 -38q86 0 139 45zM451 670l-94 -121h-152l-94 121h119l51 -57l51 57h119z" />
    <glyph glyph-name="Dcaron" unicode="&#x10e;" horiz-adv-x="670"
d="M72 670h213q93 0 162.5 -27.5t110 -75.5t60 -106.5t19.5 -127.5q0 -161 -90 -247t-261 -86h-214v670zM290 554h-88v-438h88q107 0 160.5 50.5t53.5 166.5q0 221 -214 221zM463 848l-94 -121h-152l-94 121h119l51 -57l51 57h119z" />
    <glyph glyph-name="dcaron" unicode="&#x10f;" horiz-adv-x="601"
d="M301 396q-61 0 -102 -41t-41 -107t39.5 -107t102.5 -41q75 0 112 43v213q-15 17 -46 28.5t-65 11.5zM279 510q80 0 133 -41v201h131v-670h-116v45q-21 -26 -61 -42.5t-88 -16.5q-107 0 -179.5 73.5t-72.5 188.5q0 110 73.5 186t179.5 76zM671 534h-98l36 136h142z" />
    <glyph glyph-name="Dcroat" unicode="&#x110;" horiz-adv-x="682"
d="M1 289v96h83v285h213q93 0 162.5 -27.5t110 -75.5t60 -106.5t19.5 -127.5q0 -161 -90 -247t-261 -86h-214v289h-83zM302 554h-88v-169h155v-96h-155v-173h88q107 0 160.5 50.5t53.5 166.5q0 221 -214 221z" />
    <glyph glyph-name="dcroat" unicode="&#x111;" horiz-adv-x="601"
d="M279 510q80 0 133 -41v71h-149v86h149v44h131v-44h69v-86h-69v-540h-116v45q-21 -26 -61 -42.5t-88 -16.5q-107 0 -179.5 73.5t-72.5 188.5q0 110 73.5 186t179.5 76zM301 396q-61 0 -102 -41t-41 -107t39.5 -107t102.5 -41q75 0 112 43v213q-15 17 -46 28.5t-65 11.5z
" />
    <glyph glyph-name="Emacron" unicode="&#x112;" horiz-adv-x="591"
d="M470 764h-315v84h315v-84zM72 670h474v-116h-341v-143h318v-116h-318v-179h346v-116h-479v670z" />
    <glyph glyph-name="emacron" unicode="&#x113;" horiz-adv-x="529"
d="M289 -14q-119 0 -190.5 71.5t-71.5 186.5q0 114 70 190t177 76q108 0 170.5 -75t62.5 -200q0 -5 -0.5 -14t-0.5 -12q-1 -4 -1 -12h-351q19 -101 146 -101q99 0 162 50h10v-113q-64 -47 -183 -47zM153 294h229q-2 51 -31 81t-77 30q-47 0 -81.5 -29.5t-39.5 -81.5z
M431 586h-315v84h315v-84z" />
    <glyph glyph-name="Ebreve" unicode="&#x114;" horiz-adv-x="591"
d="M322 720q-67 0 -111 34t-50 94h103q3 -20 18 -37.5t40 -17.5t40 17.5t18 37.5h103q-6 -60 -50 -94t-111 -34zM72 670h474v-116h-341v-143h318v-116h-318v-179h346v-116h-479v670z" />
    <glyph glyph-name="ebreve" unicode="&#x115;" horiz-adv-x="529"
d="M289 -14q-119 0 -190.5 71.5t-71.5 186.5q0 114 70 190t177 76q108 0 170.5 -75t62.5 -200q0 -5 -0.5 -14t-0.5 -12q-1 -4 -1 -12h-351q19 -101 146 -101q99 0 162 50h10v-113q-64 -47 -183 -47zM153 294h229q-2 51 -31 81t-77 30q-47 0 -81.5 -29.5t-39.5 -81.5z
M274 542q-67 0 -111 34t-50 94h103q3 -20 18 -37.5t40 -17.5t40 17.5t18 37.5h103q-6 -60 -50 -94t-111 -34z" />
    <glyph glyph-name="Edotaccent" unicode="&#x116;" horiz-adv-x="591"
d="M72 670h474v-116h-341v-143h318v-116h-318v-179h346v-116h-479v670zM246 789q0 30 19 49t51 19t51 -19t19 -49t-19 -49t-51 -19t-51 19t-19 49z" />
    <glyph glyph-name="edotaccent" unicode="&#x117;" horiz-adv-x="529"
d="M289 -14q-119 0 -190.5 71.5t-71.5 186.5q0 114 70 190t177 76q108 0 170.5 -75t62.5 -200q0 -5 -0.5 -14t-0.5 -12q-1 -4 -1 -12h-351q19 -101 146 -101q99 0 162 50h10v-113q-64 -47 -183 -47zM153 294h229q-2 51 -31 81t-77 30q-47 0 -81.5 -29.5t-39.5 -81.5z
M204 611q0 30 19 49t51 19t51 -19t19 -49t-19 -49t-51 -19t-51 19t-19 49z" />
    <glyph glyph-name="Eogonek" unicode="&#x118;" horiz-adv-x="591"
d="M72 670h474v-116h-341v-143h318v-116h-318v-179h346v-116q-41 -36 -41 -81q0 -22 11.5 -31t25.5 -9q22 0 34 9h3v-88q-20 -15 -67 -15q-39 0 -70.5 28.5t-31.5 80.5q0 61 45 106h-388v670z" />
    <glyph glyph-name="eogonek" unicode="&#x119;" horiz-adv-x="529"
d="M464 -112h3v-88q-20 -15 -67 -15q-39 0 -70.5 28.5t-31.5 80.5t36 95q-21 -3 -45 -3q-119 0 -190.5 71.5t-71.5 186.5q0 114 70 190t177 76q108 0 170.5 -75t62.5 -200q0 -5 -0.5 -14t-0.5 -12q-1 -4 -1 -12h-351q19 -101 146 -101q99 0 162 50h10v-113q-22 -13 -25 -15
q-54 -37 -54 -99q0 -22 11.5 -31t25.5 -9q22 0 34 9zM153 294h229q-2 51 -31 81t-77 30q-47 0 -81.5 -29.5t-39.5 -81.5z" />
    <glyph glyph-name="Ecaron" unicode="&#x11a;" horiz-adv-x="591"
d="M72 670h474v-116h-341v-143h318v-116h-318v-179h346v-116h-479v670zM483 848l-94 -121h-152l-94 121h119l51 -57l51 57h119z" />
    <glyph glyph-name="ecaron" unicode="&#x11b;" horiz-adv-x="529"
d="M289 -14q-119 0 -190.5 71.5t-71.5 186.5q0 114 70 190t177 76q108 0 170.5 -75t62.5 -200q0 -5 -0.5 -14t-0.5 -12q-1 -4 -1 -12h-351q19 -101 146 -101q99 0 162 50h10v-113q-64 -47 -183 -47zM153 294h229q-2 51 -31 81t-77 30q-47 0 -81.5 -29.5t-39.5 -81.5z
M443 670l-94 -121h-152l-94 121h119l51 -57l51 57h119z" />
    <glyph glyph-name="Gcircumflex" unicode="&#x11c;" horiz-adv-x="667"
d="M624 373v-325q-97 -66 -235 -66q-156 0 -257.5 100t-101.5 253q0 152 101.5 252.5t254.5 100.5q128 0 207 -61v-125h-10q-73 66 -191 66q-97 0 -163 -67t-66 -166q0 -106 70.5 -169.5t161.5 -63.5q67 0 107 21v138h-168v112h290zM448 848l94 -121h-119l-51 57l-51 -57
h-119l94 121h152z" />
    <glyph glyph-name="gcircumflex" unicode="&#x11d;" horiz-adv-x="601"
d="M377 670l94 -121h-119l-51 57l-51 -57h-119l94 121h152zM91 -29h11q71 -38 168 -38q83 0 117 29q16 14 20.5 29.5t4.5 43.5v22q-47 -40 -134 -40q-105 0 -177.5 65.5t-72.5 178.5q0 111 75.5 180t176.5 69q44 0 85 -15.5t62 -38.5v40h116v-449q0 -105 -43 -151
q-69 -75 -225 -75q-52 0 -104.5 10t-79.5 24v116zM303 129q64 0 109 41v187q-40 40 -109 40q-61 0 -102.5 -38.5t-41.5 -96.5q0 -62 40 -97.5t104 -35.5z" />
    <glyph glyph-name="Gbreve" unicode="&#x11e;" horiz-adv-x="667"
d="M624 373v-325q-97 -66 -235 -66q-156 0 -257.5 100t-101.5 253q0 152 101.5 252.5t254.5 100.5q128 0 207 -61v-125h-10q-73 66 -191 66q-97 0 -163 -67t-66 -166q0 -106 70.5 -169.5t161.5 -63.5q67 0 107 21v138h-168v112h290zM370 720q-67 0 -111 34t-50 94h103
q3 -20 18 -37.5t40 -17.5t40 17.5t18 37.5h103q-6 -60 -50 -94t-111 -34z" />
    <glyph glyph-name="gbreve" unicode="&#x11f;" horiz-adv-x="601"
d="M285 542q-67 0 -111 34t-50 94h103q3 -20 18 -37.5t40 -17.5t40 17.5t18 37.5h103q-6 -60 -50 -94t-111 -34zM91 -29h11q71 -38 168 -38q83 0 117 29q16 14 20.5 29.5t4.5 43.5v22q-47 -40 -134 -40q-105 0 -177.5 65.5t-72.5 178.5q0 111 75.5 180t176.5 69
q44 0 85 -15.5t62 -38.5v40h116v-449q0 -105 -43 -151q-69 -75 -225 -75q-52 0 -104.5 10t-79.5 24v116zM303 129q64 0 109 41v187q-40 40 -109 40q-61 0 -102.5 -38.5t-41.5 -96.5q0 -62 40 -97.5t104 -35.5z" />
    <glyph glyph-name="Gdotaccent" unicode="&#x120;" horiz-adv-x="667"
d="M624 373v-325q-97 -66 -235 -66q-156 0 -257.5 100t-101.5 253q0 152 101.5 252.5t254.5 100.5q128 0 207 -61v-125h-10q-73 66 -191 66q-97 0 -163 -67t-66 -166q0 -106 70.5 -169.5t161.5 -63.5q67 0 107 21v138h-168v112h290zM308 789q0 30 19 49t51 19t51 -19t19 -49
t-19 -49t-51 -19t-51 19t-19 49z" />
    <glyph glyph-name="gdotaccent" unicode="&#x121;" horiz-adv-x="601"
d="M224 611q0 30 19 49t51 19t51 -19t19 -49t-19 -49t-51 -19t-51 19t-19 49zM91 -29h11q71 -38 168 -38q83 0 117 29q16 14 20.5 29.5t4.5 43.5v22q-47 -40 -134 -40q-105 0 -177.5 65.5t-72.5 178.5q0 111 75.5 180t176.5 69q44 0 85 -15.5t62 -38.5v40h116v-449
q0 -105 -43 -151q-69 -75 -225 -75q-52 0 -104.5 10t-79.5 24v116zM303 129q64 0 109 41v187q-40 40 -109 40q-61 0 -102.5 -38.5t-41.5 -96.5q0 -62 40 -97.5t104 -35.5z" />
    <glyph glyph-name="Gcommaaccent" unicode="&#x122;" horiz-adv-x="667"
d="M624 373v-325q-97 -66 -235 -66q-156 0 -257.5 100t-101.5 253q0 152 101.5 252.5t254.5 100.5q128 0 207 -61v-125h-10q-73 66 -191 66q-97 0 -163 -67t-66 -166q0 -106 70.5 -169.5t161.5 -63.5q67 0 107 21v138h-168v112h290zM257 -210l53 148h144l-100 -148h-97z" />
    <glyph glyph-name="gcommaaccent" unicode="&#x123;" horiz-adv-x="601"
d="M91 -29h11q71 -38 168 -38q83 0 117 29q16 14 20.5 29.5t4.5 43.5v22q-47 -40 -134 -40q-105 0 -177.5 65.5t-72.5 178.5q0 111 75.5 180t176.5 69q44 0 85 -15.5t62 -38.5v40h116v-449q0 -105 -43 -151q-69 -75 -225 -75q-52 0 -104.5 10t-79.5 24v116zM303 129
q64 0 109 41v187q-40 40 -109 40q-61 0 -102.5 -38.5t-41.5 -96.5q0 -62 40 -97.5t104 -35.5zM405 698l-53 -148h-144l100 148h97z" />
    <glyph glyph-name="Hcircumflex" unicode="&#x124;" horiz-adv-x="707"
d="M431 848l94 -121h-119l-51 57l-51 -57h-119l94 121h152zM635 0h-132v296h-298v-296h-133v670h133v-258h298v258h132v-670z" />
    <glyph glyph-name="hcircumflex" unicode="&#x125;"
d="M194 848l94 -121h-119l-51 57l-51 -57h-119l94 121h152zM189 354v-354h-131v670h131v-206q59 46 126 46q89 0 142 -49t53 -150v-311h-131v300q0 96 -98 96q-28 0 -53.5 -12.5t-38.5 -29.5z" />
    <glyph glyph-name="Hbar" unicode="&#x126;" horiz-adv-x="721"
d="M642 0h-132v296h-298v-296h-133v496h-71v96h71v78h133v-78h298v78h132v-78h71v-96h-71v-496zM212 412h298v84h-298v-84z" />
    <glyph glyph-name="hbar" unicode="&#x127;"
d="M189 354v-354h-131v539h-81v86h81v45h131v-45h137v-86h-137v-75q59 46 126 46q89 0 142 -49t53 -150v-311h-131v300q0 96 -98 96q-28 0 -53.5 -12.5t-38.5 -29.5z" />
    <glyph glyph-name="Itilde" unicode="&#x128;" horiz-adv-x="277"
d="M205 0h-133v670h133v-670zM62 857q41 0 78 -29q25 -18 40 -18q27 0 27 41l96 -15q-1 -49 -29 -80.5t-73 -31.5q-38 0 -83 32q-22 15 -35 15q-27 0 -27 -41l-96 15q1 49 29 80.5t73 31.5z" />
    <glyph glyph-name="itilde" unicode="&#x129;" horiz-adv-x="247"
d="M56 679q41 0 78 -29q25 -18 40 -18q27 0 27 41l96 -15q-1 -49 -29 -80.5t-73 -31.5q-38 0 -83 32q-22 15 -35 15q-27 0 -27 -41l-96 15q1 49 29 80.5t73 31.5zM189 0h-131v496h131v-496z" />
    <glyph glyph-name="Imacron" unicode="&#x12a;" horiz-adv-x="277"
d="M296 764h-315v84h315v-84zM205 0h-133v670h133v-670z" />
    <glyph glyph-name="imacron" unicode="&#x12b;" horiz-adv-x="247"
d="M280 586h-315v84h315v-84zM189 0h-131v496h131v-496z" />
    <glyph glyph-name="Ibreve" unicode="&#x12c;" horiz-adv-x="277"
d="M138 720q-67 0 -111 34t-50 94h103q3 -20 18 -37.5t40 -17.5t40 17.5t18 37.5h103q-6 -60 -50 -94t-111 -34zM205 0h-133v670h133v-670z" />
    <glyph glyph-name="ibreve" unicode="&#x12d;" horiz-adv-x="247"
d="M123 542q-67 0 -111 34t-50 94h103q3 -20 18 -37.5t40 -17.5t40 17.5t18 37.5h103q-6 -60 -50 -94t-111 -34zM189 0h-131v496h131v-496z" />
    <glyph glyph-name="Iogonek" unicode="&#x12e;" horiz-adv-x="277"
d="M205 0h-42q-41 -36 -41 -81q0 -22 11.5 -31t25.5 -9q22 0 34 9h3v-88q-20 -15 -67 -15q-39 0 -70.5 28.5t-31.5 80.5q0 61 45 106v670h133v-670z" />
    <glyph glyph-name="iogonek" unicode="&#x12f;" horiz-adv-x="247"
d="M179 -112h3v-88q-20 -15 -67 -15q-39 0 -70.5 28.5t-31.5 80.5q0 61 45 106v496h131v-496h-40q-41 -36 -41 -81q0 -22 11.5 -31t25.5 -9q22 0 34 9zM49 616q0 31 20.5 51.5t53.5 20.5t53.5 -20.5t20.5 -51.5t-20.5 -51.5t-53.5 -20.5t-53.5 20.5t-20.5 51.5z" />
    <glyph glyph-name="Idotaccent" unicode="&#x130;" horiz-adv-x="277"
d="M70 789q0 30 19 49t51 19t51 -19t19 -49t-19 -49t-51 -19t-51 19t-19 49zM205 0h-133v670h133v-670z" />
    <glyph glyph-name="dotlessi" unicode="&#x131;" horiz-adv-x="247"
d="M189 0h-131v496h131v-496z" />
    <glyph glyph-name="IJ" unicode="&#x132;" horiz-adv-x="700"
d="M205 0h-133v670h133v-670zM633 670v-475q0 -115 -44 -159q-54 -51 -167 -51q-70 0 -131 23v110q46 -16 111 -16q57 0 77 20q8 8 12 16t6.5 33t2.5 74v425h133z" />
    <glyph glyph-name="ij" unicode="&#x133;" horiz-adv-x="498"
d="M189 0h-131v496h131v-496zM49 616q0 31 20.5 51.5t53.5 20.5t53.5 -20.5t20.5 -51.5t-20.5 -51.5t-53.5 -20.5t-53.5 20.5t-20.5 51.5zM309 -9v505h131v-510q0 -52 -9 -77.5t-31 -47.5q-36 -36 -115 -36q-63 0 -93 6v109q18 -5 50 -5q38 0 54 14q13 13 13 42zM300 616
q0 31 20.5 51.5t53.5 20.5t53.5 -20.5t20.5 -51.5t-20.5 -51.5t-53.5 -20.5t-53.5 20.5t-20.5 51.5z" />
    <glyph glyph-name="Jcircumflex" unicode="&#x134;" horiz-adv-x="423"
d="M363 848l94 -121h-119l-51 57l-51 -57h-119l94 121h152zM356 670v-475q0 -115 -44 -159q-54 -51 -167 -51q-70 0 -131 23v110q46 -16 111 -16q57 0 77 20q8 8 12 16t6.5 33t2.5 74v425h133z" />
    <glyph glyph-name="jcircumflex" unicode="&#x135;" horiz-adv-x="247"
d="M194 670l94 -121h-119l-51 57l-51 -57h-119l94 121h152zM58 -9v505h131v-510q0 -52 -9 -77.5t-31 -47.5q-36 -36 -115 -36q-63 0 -93 6v109q18 -5 50 -5q38 0 54 14q13 13 13 42z" />
    <glyph glyph-name="Kcommaaccent" unicode="&#x136;" horiz-adv-x="621"
d="M352 365l278 -355v-10h-148l-216 278l-61 -67v-211h-133v670h133v-290l257 290h151v-10zM210 -210l53 148h144l-100 -148h-97z" />
    <glyph glyph-name="kcommaaccent" unicode="&#x137;" horiz-adv-x="529"
d="M511 496v-11l-210 -226l232 -248v-11h-157l-187 205v-205h-131v670h131v-372l177 198h145zM157 -210l53 148h144l-100 -148h-97z" />
    <glyph glyph-name="kgreenlandic" unicode="&#x138;" horiz-adv-x="553"
d="M58 496h131v-198l176 198h164v-104h-105l-118 -128l227 -253v-11h-159l-185 205v-205h-131v496z" />
    <glyph glyph-name="Lacute" unicode="&#x139;" horiz-adv-x="531"
d="M517 0h-445v670h133v-554h312v-116zM293 848l-121 -121h-111l71 121h161z" />
    <glyph glyph-name="lacute" unicode="&#x13a;" horiz-adv-x="247"
d="M189 0h-131v670h131v-670zM291 848l-121 -121h-111l71 121h161z" />
    <glyph glyph-name="Lcommaaccent" unicode="&#x13b;" horiz-adv-x="531"
d="M517 0h-445v670h133v-554h312v-116zM183 -210l53 148h144l-100 -148h-97z" />
    <glyph glyph-name="lcommaaccent" unicode="&#x13c;" horiz-adv-x="247"
d="M189 0h-131v670h131v-670zM-5 -210l53 148h144l-100 -148h-97z" />
    <glyph glyph-name="Lcaron" unicode="&#x13d;" horiz-adv-x="531"
d="M517 0h-445v670h133v-554h312v-116zM373 534h-98l36 136h142z" />
    <glyph glyph-name="lcaron" unicode="&#x13e;" horiz-adv-x="247"
d="M189 0h-131v670h131v-670zM317 534h-98l36 136h142z" />
    <glyph glyph-name="Ldot" unicode="&#x13f;" horiz-adv-x="531"
d="M517 0h-445v670h133v-554h312v-116zM291 316q0 30 19 49t51 19t51 -19t19 -49t-19 -49t-51 -19t-51 19t-19 49z" />
    <glyph glyph-name="ldot" unicode="&#x140;" horiz-adv-x="378"
d="M244 317q0 30 19 49t51 19t51 -19t19 -49t-19 -49t-51 -19t-51 19t-19 49zM189 0h-131v670h131v-670z" />
    <glyph glyph-name="Lslash" unicode="&#x141;" horiz-adv-x="575"
d="M561 0h-445v234l-108 -41v121l108 41v315h133v-264l192 74v-121l-192 -74v-169h312v-116z" />
    <glyph glyph-name="lslash" unicode="&#x142;" horiz-adv-x="385"
d="M252 0h-131v254l-109 -41v115l109 41v301h131v-252l125 48v-115l-125 -47v-304z" />
    <glyph glyph-name="Nacute" unicode="&#x143;" horiz-adv-x="708"
d="M203 334v-334h-131v670h129l235 -361q20 -31 42 -66t28 -45h1q-2 50 -2 131v341h131v-670h-129l-236 354q-5 7 -69 111h-1q2 -50 2 -131zM509 848l-121 -121h-111l71 121h161z" />
    <glyph glyph-name="nacute" unicode="&#x144;"
d="M189 354v-354h-131v496h116v-46q23 25 61 42.5t80 17.5q89 0 142 -49t53 -150v-311h-131v300q0 96 -98 96q-28 0 -53.5 -12.5t-38.5 -29.5zM452 670l-121 -121h-111l71 121h161z" />
    <glyph glyph-name="Ncommaaccent" unicode="&#x145;" horiz-adv-x="708"
d="M203 334v-334h-131v670h129l235 -361q20 -31 42 -66t28 -45h1q-2 50 -2 131v341h131v-670h-129l-236 354q-5 7 -69 111h-1q2 -50 2 -131zM242 -210l53 148h144l-100 -148h-97z" />
    <glyph glyph-name="ncommaaccent" unicode="&#x146;"
d="M189 354v-354h-131v496h116v-46q23 25 61 42.5t80 17.5q89 0 142 -49t53 -150v-311h-131v300q0 96 -98 96q-28 0 -53.5 -12.5t-38.5 -29.5zM168 -210l53 148h144l-100 -148h-97z" />
    <glyph glyph-name="Ncaron" unicode="&#x147;" horiz-adv-x="708"
d="M203 334v-334h-131v670h129l235 -361q20 -31 42 -66t28 -45h1q-2 50 -2 131v341h131v-670h-129l-236 354q-5 7 -69 111h-1q2 -50 2 -131zM519 848l-94 -121h-152l-94 121h119l51 -57l51 57h119z" />
    <glyph glyph-name="ncaron" unicode="&#x148;"
d="M189 354v-354h-131v496h116v-46q23 25 61 42.5t80 17.5q89 0 142 -49t53 -150v-311h-131v300q0 96 -98 96q-28 0 -53.5 -12.5t-38.5 -29.5zM457 670l-94 -121h-152l-94 121h119l51 -57l51 57h119z" />
    <glyph glyph-name="napostrophe" unicode="&#x149;" horiz-adv-x="584"
d="M210 354v-354h-131v496h116v-46q23 25 61 42.5t80 17.5q89 0 142 -49t53 -150v-311h-131v300q0 96 -98 96q-28 0 -53.5 -12.5t-38.5 -29.5zM110 523h-90l38 147h135z" />
    <glyph glyph-name="Eng" unicode="&#x14a;" horiz-adv-x="708"
d="M203 334v-334h-131v670h129l235 -361q20 -31 42 -66t28 -45h1q-2 50 -2 131v341h131v-835h-245v107h114v66l-234 346q-5 7 -69 111h-1q2 -50 2 -131z" />
    <glyph glyph-name="eng" unicode="&#x14b;"
d="M189 354v-354h-131v496h116v-46q23 25 61 42.5t80 17.5q89 0 142 -49t53 -150v-326q0 -52 -9 -77.5t-31 -47.5q-36 -36 -115 -36q-66 0 -96 6v109q18 -5 53 -5q38 0 54 14q12 12 13 31v321q0 96 -98 96q-28 0 -53.5 -12.5t-38.5 -29.5z" />
    <glyph glyph-name="Omacron" unicode="&#x14c;" horiz-adv-x="772"
d="M30 335q0 152 101.5 252.5t254.5 100.5t254.5 -100.5t101.5 -252.5t-101 -252.5t-255 -100.5t-255 100.5t-101 252.5zM609 335q0 98 -63 166.5t-160 68.5t-160 -68.5t-63 -166.5q0 -97 63.5 -165.5t159.5 -68.5t159.5 68.5t63.5 165.5zM544 764h-315v84h315v-84z" />
    <glyph glyph-name="omacron" unicode="&#x14d;" horiz-adv-x="584"
d="M26 248q0 114 76 188t190 74q115 0 190.5 -73.5t75.5 -188.5t-75.5 -188.5t-190.5 -73.5t-190.5 73.5t-75.5 188.5zM157 248q0 -65 36.5 -106t98.5 -41t98.5 41t36.5 106t-36.5 106t-98.5 41t-98.5 -41t-36.5 -106zM450 586h-315v84h315v-84z" />
    <glyph glyph-name="Obreve" unicode="&#x14e;" horiz-adv-x="772"
d="M30 335q0 152 101.5 252.5t254.5 100.5t254.5 -100.5t101.5 -252.5t-101 -252.5t-255 -100.5t-255 100.5t-101 252.5zM609 335q0 98 -63 166.5t-160 68.5t-160 -68.5t-63 -166.5q0 -97 63.5 -165.5t159.5 -68.5t159.5 68.5t63.5 165.5zM387 720q-67 0 -111 34t-50 94h103
q3 -20 18 -37.5t40 -17.5t40 17.5t18 37.5h103q-6 -60 -50 -94t-111 -34z" />
    <glyph glyph-name="obreve" unicode="&#x14f;" horiz-adv-x="584"
d="M26 248q0 114 76 188t190 74q115 0 190.5 -73.5t75.5 -188.5t-75.5 -188.5t-190.5 -73.5t-190.5 73.5t-75.5 188.5zM157 248q0 -65 36.5 -106t98.5 -41t98.5 41t36.5 106t-36.5 106t-98.5 41t-98.5 -41t-36.5 -106zM292 542q-67 0 -111 34t-50 94h103q3 -20 18 -37.5
t40 -17.5t40 17.5t18 37.5h103q-6 -60 -50 -94t-111 -34z" />
    <glyph glyph-name="Ohungarumlaut" unicode="&#x150;" horiz-adv-x="772"
d="M30 335q0 152 101.5 252.5t254.5 100.5t254.5 -100.5t101.5 -252.5t-101 -252.5t-255 -100.5t-255 100.5t-101 252.5zM609 335q0 98 -63 166.5t-160 68.5t-160 -68.5t-63 -166.5q0 -97 63.5 -165.5t159.5 -68.5t159.5 68.5t63.5 165.5zM430 848l-123 -121h-102l73 121
h152zM637 848l-123 -121h-102l73 121h152z" />
    <glyph glyph-name="ohungarumlaut" unicode="&#x151;" horiz-adv-x="584"
d="M26 248q0 114 76 188t190 74q115 0 190.5 -73.5t75.5 -188.5t-75.5 -188.5t-190.5 -73.5t-190.5 73.5t-75.5 188.5zM157 248q0 -65 36.5 -106t98.5 -41t98.5 41t36.5 106t-36.5 106t-98.5 41t-98.5 -41t-36.5 -106zM345 670l-123 -121h-102l73 121h152zM552 670
l-123 -121h-102l73 121h152z" />
    <glyph glyph-name="OE" unicode="&#x152;" horiz-adv-x="1130"
d="M608 670h476v-118h-343v-138h323v-118h-323v-178h349v-118h-482v53q-95 -71 -222 -71q-154 0 -255 100.5t-101 252.5t101.5 252.5t254.5 100.5q126 0 222 -72v54zM609 335q0 98 -63 166.5t-160 68.5t-160 -68.5t-63 -166.5q0 -97 63.5 -165.5t159.5 -68.5t159.5 68.5
t63.5 165.5z" />
    <glyph glyph-name="oe" unicode="&#x153;" horiz-adv-x="921"
d="M681 -14q-126 0 -194 79q-74 -79 -195 -79q-115 0 -190.5 73.5t-75.5 188.5q0 114 76 188t190 74q121 0 197 -81q68 81 177 81q108 0 170.5 -75t62.5 -200q0 -5 -0.5 -14t-0.5 -12q-1 -4 -1 -12h-351q19 -101 146 -101q99 0 162 50h10v-113q-64 -47 -183 -47zM157 248
q0 -65 35.5 -105.5t99.5 -40.5q62 0 97.5 39t37.5 103v10q-2 63 -38 101.5t-97 38.5q-64 0 -99.5 -40.5t-35.5 -105.5zM545 294h229q-2 51 -31 81t-77 30q-47 0 -81.5 -29.5t-39.5 -81.5z" />
    <glyph glyph-name="Racute" unicode="&#x154;" horiz-adv-x="616"
d="M72 0v670h263q107 0 166.5 -61.5t59.5 -153.5q0 -77 -38.5 -130.5t-106.5 -72.5l187 -242v-10h-145l-179 240h-74v-240h-133zM205 554v-205h114q55 0 82 29t27 77q0 45 -29 72t-84 27h-110zM440 848l-121 -121h-111l71 121h161z" />
    <glyph glyph-name="racute" unicode="&#x155;" horiz-adv-x="377"
d="M365 503v-129q-26 8 -62 8q-37 0 -69.5 -13.5t-44.5 -32.5v-336h-131v496h116v-49q52 63 130 63q35 0 61 -7zM349 670l-121 -121h-111l71 121h161z" />
    <glyph glyph-name="Rcommaaccent" unicode="&#x156;" horiz-adv-x="616"
d="M72 0v670h263q107 0 166.5 -61.5t59.5 -153.5q0 -77 -38.5 -130.5t-106.5 -72.5l187 -242v-10h-145l-179 240h-74v-240h-133zM205 554v-205h114q55 0 82 29t27 77q0 45 -29 72t-84 27h-110zM202 -210l53 148h144l-100 -148h-97z" />
    <glyph glyph-name="rcommaaccent" unicode="&#x157;" horiz-adv-x="377"
d="M365 503v-129q-26 8 -62 8q-37 0 -69.5 -13.5t-44.5 -32.5v-336h-131v496h116v-49q52 63 130 63q35 0 61 -7zM8 -210l53 148h144l-100 -148h-97z" />
    <glyph glyph-name="Rcaron" unicode="&#x158;" horiz-adv-x="616"
d="M72 0v670h263q107 0 166.5 -61.5t59.5 -153.5q0 -77 -38.5 -130.5t-106.5 -72.5l187 -242v-10h-145l-179 240h-74v-240h-133zM205 554v-205h114q55 0 82 29t27 77q0 45 -29 72t-84 27h-110zM452 848l-94 -121h-152l-94 121h119l51 -57l51 57h119z" />
    <glyph glyph-name="rcaron" unicode="&#x159;" horiz-adv-x="377"
d="M365 503v-129q-26 8 -62 8q-37 0 -69.5 -13.5t-44.5 -32.5v-336h-131v496h116v-49q52 63 130 63q35 0 61 -7zM370 670l-94 -121h-152l-94 121h119l51 -57l51 57h119z" />
    <glyph glyph-name="Sacute" unicode="&#x15a;" horiz-adv-x="524"
d="M407 848l-121 -121h-111l71 121h161zM255 422l88 -33q82 -31 120 -77.5t38 -122.5q0 -91 -67 -149t-181 -58q-119 0 -204 53v128h10q28 -26 81.5 -44.5t100.5 -18.5q64 0 95.5 25t31.5 61q0 34 -21 54.5t-70 38.5l-86 31q-71 26 -112.5 70.5t-41.5 121.5q0 76 65.5 131
t172.5 55q103 0 169 -45v-125h-10q-25 22 -68 37t-90 15q-49 0 -77.5 -19t-28.5 -48q0 -32 18.5 -48t66.5 -33z" />
    <glyph glyph-name="sacute" unicode="&#x15b;" horiz-adv-x="424"
d="M368 670l-121 -121h-111l71 121h161zM359 363h-10q-19 15 -53 26.5t-70 11.5q-66 0 -66 -38q0 -13 12.5 -24t22 -15t32.5 -12l62 -24q53 -21 82 -54t29 -95q0 -67 -55 -110t-144 -43q-96 0 -160 38v115h10q23 -18 64.5 -31.5t75.5 -13.5q86 0 86 47q0 20 -14 32.5
t-49 25.5l-58 22q-118 45 -118 146q0 59 50.5 101t129.5 42q84 0 141 -37v-110z" />
    <glyph glyph-name="Scircumflex" unicode="&#x15c;" horiz-adv-x="524"
d="M336 848l94 -121h-119l-51 57l-51 -57h-119l94 121h152zM255 422l88 -33q82 -31 120 -77.5t38 -122.5q0 -91 -67 -149t-181 -58q-119 0 -204 53v128h10q28 -26 81.5 -44.5t100.5 -18.5q64 0 95.5 25t31.5 61q0 34 -21 54.5t-70 38.5l-86 31q-71 26 -112.5 70.5
t-41.5 121.5q0 76 65.5 131t172.5 55q103 0 169 -45v-125h-10q-25 22 -68 37t-90 15q-49 0 -77.5 -19t-28.5 -48q0 -32 18.5 -48t66.5 -33z" />
    <glyph glyph-name="scircumflex" unicode="&#x15d;" horiz-adv-x="424"
d="M281 670l94 -121h-119l-51 57l-51 -57h-119l94 121h152zM359 363h-10q-19 15 -53 26.5t-70 11.5q-66 0 -66 -38q0 -13 12.5 -24t22 -15t32.5 -12l62 -24q53 -21 82 -54t29 -95q0 -67 -55 -110t-144 -43q-96 0 -160 38v115h10q23 -18 64.5 -31.5t75.5 -13.5q86 0 86 47
q0 20 -14 32.5t-49 25.5l-58 22q-118 45 -118 146q0 59 50.5 101t129.5 42q84 0 141 -37v-110z" />
    <glyph glyph-name="Scedilla" unicode="&#x15e;" horiz-adv-x="524"
d="M238 -58h97v-152h-201v84h104v68zM255 422l88 -33q82 -31 120 -77.5t38 -122.5q0 -91 -67 -149t-181 -58q-119 0 -204 53v128h10q28 -26 81.5 -44.5t100.5 -18.5q64 0 95.5 25t31.5 61q0 34 -21 54.5t-70 38.5l-86 31q-71 26 -112.5 70.5t-41.5 121.5q0 76 65.5 131
t172.5 55q103 0 169 -45v-125h-10q-25 22 -68 37t-90 15q-49 0 -77.5 -19t-28.5 -48q0 -32 18.5 -48t66.5 -33z" />
    <glyph glyph-name="scedilla" unicode="&#x15f;" horiz-adv-x="424"
d="M199 -58h97v-152h-201v84h104v68zM359 363h-10q-19 15 -53 26.5t-70 11.5q-66 0 -66 -38q0 -13 12.5 -24t22 -15t32.5 -12l62 -24q53 -21 82 -54t29 -95q0 -67 -55 -110t-144 -43q-96 0 -160 38v115h10q23 -18 64.5 -31.5t75.5 -13.5q86 0 86 47q0 20 -14 32.5t-49 25.5
l-58 22q-118 45 -118 146q0 59 50.5 101t129.5 42q84 0 141 -37v-110z" />
    <glyph glyph-name="Scaron" unicode="&#x160;" horiz-adv-x="524"
d="M255 422l88 -33q82 -31 120 -77.5t38 -122.5q0 -91 -67 -149t-181 -58q-119 0 -204 53v128h10q28 -26 81.5 -44.5t100.5 -18.5q64 0 95.5 25t31.5 61q0 34 -21 54.5t-70 38.5l-86 31q-71 26 -112.5 70.5t-41.5 121.5q0 76 65.5 131t172.5 55q103 0 169 -45v-125h-10
q-25 22 -68 37t-90 15q-49 0 -77.5 -19t-28.5 -48q0 -32 18.5 -48t66.5 -33zM418 848l-94 -121h-152l-94 121h119l51 -57l51 57h119z" />
    <glyph glyph-name="scaron" unicode="&#x161;" horiz-adv-x="424"
d="M376 670l-94 -121h-152l-94 121h119l51 -57l51 57h119zM359 363h-10q-19 15 -53 26.5t-70 11.5q-66 0 -66 -38q0 -13 12.5 -24t22 -15t32.5 -12l62 -24q53 -21 82 -54t29 -95q0 -67 -55 -110t-144 -43q-96 0 -160 38v115h10q23 -18 64.5 -31.5t75.5 -13.5q86 0 86 47
q0 20 -14 32.5t-49 25.5l-58 22q-118 45 -118 146q0 59 50.5 101t129.5 42q84 0 141 -37v-110z" />
    <glyph glyph-name="uni0162" unicode="&#x162;" horiz-adv-x="591"
d="M362 0h-133v554h-216v116h565v-116h-216v-554zM265 -58h97v-152h-201v84h104v68z" />
    <glyph glyph-name="uni0163" unicode="&#x163;" horiz-adv-x="387"
d="M368 392h-122v-239q0 -32 15 -43q14 -10 52 -10q29 0 47 5v-109q-32 -6 -90 -6q-87 0 -122 35q-21 21 -27 47t-6 74v246h-106v104h106v130h131v-130h122v-104zM198 -58h97v-152h-201v84h104v68z" />
    <glyph glyph-name="Tcaron" unicode="&#x164;" horiz-adv-x="591"
d="M362 0h-133v554h-216v116h565v-116h-216v-554zM463 848l-94 -121h-152l-94 121h119l51 -57l51 57h119z" />
    <glyph glyph-name="tcaron" unicode="&#x165;" horiz-adv-x="387"
d="M368 392h-122v-239q0 -32 15 -43q14 -10 52 -10q29 0 47 5v-109q-32 -6 -90 -6q-87 0 -122 35q-21 21 -27 47t-6 74v246h-106v104h106v130h131v-130h122v-104zM394 534h-98l36 136h142z" />
    <glyph glyph-name="Tbar" unicode="&#x166;" horiz-adv-x="595"
d="M364 0h-133v307h-112v96h112v151h-216v116h565v-116h-216v-151h112v-96h-112v-307z" />
    <glyph glyph-name="tbar" unicode="&#x167;" horiz-adv-x="392"
d="M371 324v-104h-122v-67q0 -32 15 -43q14 -10 52 -10q29 0 47 5v-109q-32 -6 -90 -6q-87 0 -122 35q-21 21 -27 47t-6 74v74h-106v104h106v68h-106v104h106v130h131v-130h122v-104h-122v-68h122z" />
    <glyph glyph-name="Utilde" unicode="&#x168;" horiz-adv-x="669"
d="M334 -18q-121 0 -195 65.5t-74 188.5v434h133v-427q0 -69 35.5 -104t100.5 -35t101 35t36 104v427h133v-434q0 -123 -74.5 -188.5t-195.5 -65.5zM265 857q41 0 78 -29q25 -18 40 -18q27 0 27 41l96 -15q-1 -49 -29 -80.5t-73 -31.5q-38 0 -83 32q-23 15 -35 15
q-27 0 -27 -41l-96 15q1 49 29 80.5t73 31.5z" />
    <glyph glyph-name="utilde" unicode="&#x169;" horiz-adv-x="556"
d="M367 141v355h131v-496h-116v48q-20 -25 -58 -43.5t-80 -18.5q-82 0 -137 53.5t-55 156.5v300h131v-296q0 -49 24.5 -74.5t65.5 -25.5q28 0 55 12.5t39 28.5zM203 679q41 0 78 -29q25 -18 40 -18q27 0 27 41l96 -15q-1 -49 -29 -80.5t-73 -31.5q-38 0 -83 32
q-22 15 -35 15q-27 0 -27 -41l-96 15q1 49 29 80.5t73 31.5z" />
    <glyph glyph-name="Umacron" unicode="&#x16a;" horiz-adv-x="669"
d="M334 -18q-121 0 -195 65.5t-74 188.5v434h133v-427q0 -69 35.5 -104t100.5 -35t101 35t36 104v427h133v-434q0 -123 -74.5 -188.5t-195.5 -65.5zM492 764h-315v84h315v-84z" />
    <glyph glyph-name="umacron" unicode="&#x16b;" horiz-adv-x="556"
d="M367 141v355h131v-496h-116v48q-20 -25 -58 -43.5t-80 -18.5q-82 0 -137 53.5t-55 156.5v300h131v-296q0 -49 24.5 -74.5t65.5 -25.5q28 0 55 12.5t39 28.5zM433 586h-315v84h315v-84z" />
    <glyph glyph-name="Ubreve" unicode="&#x16c;" horiz-adv-x="669"
d="M334 -18q-121 0 -195 65.5t-74 188.5v434h133v-427q0 -69 35.5 -104t100.5 -35t101 35t36 104v427h133v-434q0 -123 -74.5 -188.5t-195.5 -65.5zM334 720q-67 0 -111 34t-50 94h103q3 -20 18 -37.5t40 -17.5t40 17.5t18 37.5h103q-6 -60 -50 -94t-111 -34z" />
    <glyph glyph-name="ubreve" unicode="&#x16d;" horiz-adv-x="556"
d="M367 141v355h131v-496h-116v48q-20 -25 -58 -43.5t-80 -18.5q-82 0 -137 53.5t-55 156.5v300h131v-296q0 -49 24.5 -74.5t65.5 -25.5q28 0 55 12.5t39 28.5zM267 542q-67 0 -111 34t-50 94h103q3 -20 18 -37.5t40 -17.5t40 17.5t18 37.5h103q-6 -60 -50 -94t-111 -34z
" />
    <glyph glyph-name="Uring" unicode="&#x16e;" horiz-adv-x="669"
d="M334 -18q-121 0 -195 65.5t-74 188.5v434h133v-427q0 -69 35.5 -104t100.5 -35t101 35t36 104v427h133v-434q0 -123 -74.5 -188.5t-195.5 -65.5zM443 714q0 -44 -31.5 -74.5t-77.5 -30.5q-45 0 -76.5 30.5t-31.5 74.5t31.5 74.5t76.5 30.5q46 0 77.5 -30.5t31.5 -74.5z
M374 714q0 17 -11.5 28.5t-28.5 11.5q-18 0 -29.5 -11.5t-11.5 -28.5t11.5 -29t29.5 -12q17 0 28.5 12t11.5 29z" />
    <glyph glyph-name="uring" unicode="&#x16f;" horiz-adv-x="556"
d="M367 141v355h131v-496h-116v48q-20 -25 -58 -43.5t-80 -18.5q-82 0 -137 53.5t-55 156.5v300h131v-296q0 -49 24.5 -74.5t65.5 -25.5q28 0 55 12.5t39 28.5zM387 642q0 -44 -31.5 -74.5t-77.5 -30.5q-45 0 -76.5 30.5t-31.5 74.5t31.5 74.5t76.5 30.5q46 0 77.5 -30.5
t31.5 -74.5zM318 642q0 17 -11.5 28.5t-28.5 11.5q-18 0 -29.5 -11.5t-11.5 -28.5t11.5 -29t29.5 -12q17 0 28.5 12t11.5 29z" />
    <glyph glyph-name="Uhungarumlaut" unicode="&#x170;" horiz-adv-x="669"
d="M334 -18q-121 0 -195 65.5t-74 188.5v434h133v-427q0 -69 35.5 -104t100.5 -35t101 35t36 104v427h133v-434q0 -123 -74.5 -188.5t-195.5 -65.5zM380 848l-123 -121h-102l73 121h152zM587 848l-123 -121h-102l73 121h152z" />
    <glyph glyph-name="uhungarumlaut" unicode="&#x171;" horiz-adv-x="556"
d="M367 141v355h131v-496h-116v48q-20 -25 -58 -43.5t-80 -18.5q-82 0 -137 53.5t-55 156.5v300h131v-296q0 -49 24.5 -74.5t65.5 -25.5q28 0 55 12.5t39 28.5zM322 670l-123 -121h-102l73 121h152zM529 670l-123 -121h-102l73 121h152z" />
    <glyph glyph-name="Uogonek" unicode="&#x172;" horiz-adv-x="669"
d="M436 -112h3v-88q-20 -15 -67 -15q-39 0 -70.5 28.5t-31.5 80.5q0 50 30 90q-107 9 -171 74t-64 178v434h133v-427q0 -69 35.5 -104t100.5 -35t101 35t36 104v427h133v-434q0 -107 -57.5 -170.5t-154.5 -78.5q-27 -32 -27 -68q0 -22 11.5 -31t25.5 -9q22 0 34 9z" />
    <glyph glyph-name="uogonek" unicode="&#x173;" horiz-adv-x="556"
d="M367 141v355h131v-496h-25q-41 -36 -41 -81q0 -22 11.5 -31t25.5 -9q22 0 34 9h3v-88q-20 -15 -67 -15q-39 0 -70.5 28.5t-31.5 80.5q0 61 45 106v48q-20 -25 -58 -43.5t-80 -18.5q-82 0 -137 53.5t-55 156.5v300h131v-296q0 -49 24.5 -74.5t65.5 -25.5q28 0 55 12.5
t39 28.5z" />
    <glyph glyph-name="Wcircumflex" unicode="&#x174;" horiz-adv-x="1001"
d="M645 0l-81 272q-25 81 -62 223h-2q-17 -68 -61 -222l-82 -273h-137l-214 670h138l84 -283q27 -94 59 -231h2q1 5 25.5 94.5t38.5 137.5l86 282h129l87 -285q49 -184 62 -229h2q31 139 60 231l83 283h132l-212 -670h-137zM577 848l94 -121h-119l-51 57l-51 -57h-119
l94 121h152z" />
    <glyph glyph-name="wcircumflex" unicode="&#x175;" horiz-adv-x="841"
d="M664 0h-145l-72 256q-22 83 -27 110h-1q-5 -27 -27 -110l-72 -256h-148l-155 496h127l80 -276q10 -33 24 -97h1q14 59 25 97l76 276h143l74 -276l27 -97h1q4 14 12 44.5t14 52.5l80 276h127zM496 670l94 -121h-119l-51 57l-51 -57h-119l94 121h152z" />
    <glyph glyph-name="Ycircumflex" unicode="&#x176;" horiz-adv-x="612"
d="M381 848l94 -121h-119l-51 57l-51 -57h-119l94 121h152zM608 660l-235 -360v-300h-133v300l-240 360v10h143l166 -257l161 257h138v-10z" />
    <glyph glyph-name="ycircumflex" unicode="&#x177;" horiz-adv-x="550"
d="M355 670l94 -121h-119l-51 57l-51 -57h-119l94 121h152zM147 496l104 -259q12 -29 28 -79q18 50 29 78l100 260h138l-288 -661h-136l86 197l-199 464h138z" />
    <glyph glyph-name="Ydieresis" unicode="&#x178;" horiz-adv-x="612"
d="M136 789q0 30 19 49t51 19t51 -19t19 -49t-19 -49t-51 -19t-51 19t-19 49zM344 789q0 30 19 49t51 19t51 -19t19 -49t-19 -49t-51 -19t-51 19t-19 49zM608 660l-235 -360v-300h-133v300l-240 360v10h143l166 -257l161 257h138v-10z" />
    <glyph glyph-name="Zacute" unicode="&#x179;" horiz-adv-x="557"
d="M35 554v116h516l-328 -554h302v-116h-520l329 554h-299zM439 848l-121 -121h-111l71 121h161z" />
    <glyph glyph-name="zacute" unicode="&#x17a;" horiz-adv-x="470"
d="M397 670l-121 -121h-111l71 121h161zM437 0h-427l240 382h-215v114h423l-241 -382h220v-114z" />
    <glyph glyph-name="Zdotaccent" unicode="&#x17b;" horiz-adv-x="557"
d="M210 789q0 30 19 49t51 19t51 -19t19 -49t-19 -49t-51 -19t-51 19t-19 49zM35 554v116h516l-328 -554h302v-116h-520l329 554h-299z" />
    <glyph glyph-name="zdotaccent" unicode="&#x17c;" horiz-adv-x="470"
d="M171 611q0 30 19 49t51 19t51 -19t19 -49t-19 -49t-51 -19t-51 19t-19 49zM437 0h-427l240 382h-215v114h423l-241 -382h220v-114z" />
    <glyph glyph-name="Zcaron" unicode="&#x17d;" horiz-adv-x="557"
d="M35 554v116h516l-328 -554h302v-116h-520l329 554h-299zM457 848l-94 -121h-152l-94 121h119l51 -57l51 57h119z" />
    <glyph glyph-name="zcaron" unicode="&#x17e;" horiz-adv-x="470"
d="M437 0h-427l240 382h-215v114h423l-241 -382h220v-114zM408 670l-94 -121h-152l-94 121h119l51 -57l51 57h119z" />
    <glyph glyph-name="florin" unicode="&#x192;" horiz-adv-x="473"
d="M280 392l-73 -412q-8 -43 -20.5 -71t-40.5 -52q-42 -36 -122 -36q-51 0 -90 9l19 109q22 -6 55 -6q59 0 70 57l71 402h-80v104h98l6 29q10 46 21.5 72.5t39.5 50.5q42 36 122 36q51 0 90 -9l-19 -109q-22 6 -55 6q-59 0 -70 -57l-4 -19h138v-104h-156z" />
    <glyph glyph-name="Aringacute" unicode="&#x1fa;" horiz-adv-x="669"
d="M134 0h-140l262 638q-29 29 -29 72q0 44 31.5 74.5t76.5 30.5q46 0 77.5 -30.5t31.5 -74.5q0 -43 -30 -73l260 -637h-144l-49 134h-297zM334 542h-2q-23 -75 -40 -119l-66 -177h214l-65 177q-12 33 -24.5 70t-16.5 49zM374 710q0 17 -11.5 28t-27.5 11q-17 0 -28.5 -11
t-11.5 -28t11.5 -27.5t28.5 -10.5q16 0 27.5 10.5t11.5 27.5zM510 962l-121 -121h-111l71 121h161z" />
    <glyph glyph-name="aringacute" unicode="&#x1fb;" horiz-adv-x="512"
d="M258 224q-50 0 -77.5 -19t-27.5 -52q0 -31 22 -48t54 -17q63 0 99 40v85q-26 11 -70 11zM92 359h-10v114q20 13 68.5 25t96.5 12q97 0 154.5 -47t57.5 -132v-331h-124v38q-19 -21 -56 -36.5t-82 -15.5q-71 0 -121.5 42.5t-50.5 119.5q0 76 62 122t154 46q49 0 87 -15v19
q0 80 -102 80q-42 0 -78.5 -12t-55.5 -29zM430 891l-121 -121h-111l71 121h161zM366 639q0 -44 -31.5 -74.5t-77.5 -30.5q-45 0 -76.5 30.5t-31.5 74.5t31.5 74.5t76.5 30.5q46 0 77.5 -30.5t31.5 -74.5zM296 639q0 17 -11.5 28t-27.5 11q-17 0 -28.5 -11t-11.5 -28
t11.5 -27.5t28.5 -10.5q16 0 27.5 10.5t11.5 27.5z" />
    <glyph glyph-name="AEacute" unicode="&#x1fc;" horiz-adv-x="946"
d="M319 670h581v-118h-343v-138h323v-118h-323v-178h349v-118h-482v134h-227l-66 -134h-145zM424 552h-28l-144 -306h172v306zM695 848l-121 -121h-111l71 121h161z" />
    <glyph glyph-name="aeacute" unicode="&#x1fd;" horiz-adv-x="830"
d="M590 -14q-120 0 -193 73q-38 -37 -82.5 -55t-112.5 -18q-43 0 -81 14t-67.5 53t-29.5 97q0 79 60 124.5t151 45.5q25 0 55 -5.5t40 -11.5v17q0 80 -98 80q-84 0 -131 -36h-10v108q20 12 65.5 25t90.5 13q115 0 168 -59q69 59 160 59q108 0 170.5 -75t62.5 -200
q0 -5 -0.5 -14t-0.5 -12q-1 -4 -1 -12h-351q19 -101 146 -101q99 0 162 50h10v-113q-64 -47 -183 -47zM252 225q-48 0 -74.5 -20t-26.5 -51t23 -48.5t57 -17.5q63 0 99 40v79q0 1 -0.5 2t-0.5 3q-31 13 -77 13zM454 294h229q-2 51 -31 81t-77 30q-47 0 -81.5 -29.5
t-39.5 -81.5zM587 670l-121 -121h-111l71 121h161z" />
    <glyph glyph-name="Oslashacute" unicode="&#x1fe;" horiz-adv-x="772"
d="M30 335q0 152 101.5 252.5t254.5 100.5q115 0 207 -61l55 61l79 -72l-57 -63q72 -96 72 -218q0 -152 -101 -252.5t-255 -100.5q-104 0 -188 49l-57 -63l-79 71l53 59q-85 97 -85 237zM386 570q-97 0 -160 -68.5t-63 -166.5q0 -79 41 -138l304 336q-56 37 -122 37z
M609 335q0 65 -29 118l-296 -327q46 -25 102 -25q96 0 159.5 68.5t63.5 165.5zM553 848l-121 -121h-111l71 121h161z" />
    <glyph glyph-name="oslashacute" unicode="&#x1ff;" horiz-adv-x="584"
d="M26 248q0 114 76 188t190 74q85 0 147 -41l36 41l68 -59l-37 -42q52 -68 52 -161q0 -115 -75.5 -188.5t-190.5 -73.5q-72 0 -134 32l-38 -42l-65 56l35 40q-64 72 -64 176zM157 248q0 -46 18 -80l184 210q-29 17 -67 17q-62 0 -98.5 -41t-36.5 -106zM292 101
q62 0 98.5 41t36.5 106q0 34 -10 61l-178 -199q24 -9 53 -9zM452 670l-121 -121h-111l71 121h161z" />
    <glyph glyph-name="uni0218" unicode="&#x218;" horiz-adv-x="524"
d="M255 422l88 -33q82 -31 120 -77.5t38 -122.5q0 -91 -67 -149t-181 -58q-119 0 -204 53v128h10q28 -26 81.5 -44.5t100.5 -18.5q64 0 95.5 25t31.5 61q0 34 -21 54.5t-70 38.5l-86 31q-71 26 -112.5 70.5t-41.5 121.5q0 76 65.5 131t172.5 55q103 0 169 -45v-125h-10
q-25 22 -68 37t-90 15q-49 0 -77.5 -19t-28.5 -48q0 -32 18.5 -48t66.5 -33zM144 -210l53 148h144l-100 -148h-97z" />
    <glyph glyph-name="uni0219" unicode="&#x219;" horiz-adv-x="424"
d="M359 363h-10q-19 15 -53 26.5t-70 11.5q-66 0 -66 -38q0 -13 12.5 -24t22 -15t32.5 -12l62 -24q53 -21 82 -54t29 -95q0 -67 -55 -110t-144 -43q-96 0 -160 38v115h10q23 -18 64.5 -31.5t75.5 -13.5q86 0 86 47q0 20 -14 32.5t-49 25.5l-58 22q-118 45 -118 146
q0 59 50.5 101t129.5 42q84 0 141 -37v-110zM86 -210l53 148h144l-100 -148h-97z" />
    <glyph glyph-name="uni021A" unicode="&#x21a;" horiz-adv-x="591"
d="M362 0h-133v554h-216v116h565v-116h-216v-554zM176 -210l53 148h144l-100 -148h-97z" />
    <glyph glyph-name="uni021B" unicode="&#x21b;" horiz-adv-x="387"
d="M368 392h-122v-239q0 -32 15 -43q14 -10 52 -10q29 0 47 5v-109q-32 -6 -90 -6q-87 0 -122 35q-21 21 -27 47t-6 74v246h-106v104h106v130h131v-130h122v-104zM105 -210l53 148h144l-100 -148h-97z" />
    <glyph glyph-name="apostrophemod" unicode="&#x2bc;" horiz-adv-x="269"
d="M136 430h-86l46 240h143z" />
    <glyph glyph-name="circumflex" unicode="&#x2c6;" horiz-adv-x="470"
d="M311 670l94 -121h-119l-51 57l-51 -57h-119l94 121h152z" />
    <glyph glyph-name="caron" unicode="&#x2c7;" horiz-adv-x="470"
d="M405 670l-94 -121h-152l-94 121h119l51 -57l51 57h119z" />
    <glyph glyph-name="breve" unicode="&#x2d8;" horiz-adv-x="452"
d="M226 542q-67 0 -111 34t-50 94h103q3 -20 18 -37.5t40 -17.5t40 17.5t18 37.5h103q-6 -60 -50 -94t-111 -34z" />
    <glyph glyph-name="dotaccent" unicode="&#x2d9;" horiz-adv-x="270"
d="M65 611q0 30 19 49t51 19t51 -19t19 -49t-19 -49t-51 -19t-51 19t-19 49z" />
    <glyph glyph-name="ring" unicode="&#x2da;" horiz-adv-x="347"
d="M282 630q0 -44 -31.5 -74.5t-77.5 -30.5q-45 0 -76.5 30.5t-31.5 74.5t31.5 74.5t76.5 30.5q46 0 77.5 -30.5t31.5 -74.5zM213 630q0 17 -11.5 28.5t-28.5 11.5q-18 0 -29.5 -11.5t-11.5 -28.5t11.5 -29t29.5 -12q17 0 28.5 12t11.5 29z" />
    <glyph glyph-name="ogonek" unicode="&#x2db;" horiz-adv-x="299"
d="M231 -112h3v-88q-20 -15 -67 -15q-39 0 -70.5 28.5t-31.5 80.5q0 63 48 109h88v-3q-41 -36 -41 -81q0 -22 11.5 -31t25.5 -9q22 0 34 9z" />
    <glyph glyph-name="tilde" unicode="&#x2dc;" horiz-adv-x="473"
d="M167 679q41 0 78 -29q25 -18 40 -18q27 0 27 41l96 -15q-1 -49 -29 -80.5t-73 -31.5q-38 0 -83 32q-22 15 -35 15q-27 0 -27 -41l-96 15q1 49 29 80.5t73 31.5z" />
    <glyph glyph-name="hungarumlaut" unicode="&#x2dd;" horiz-adv-x="562"
d="M290 670l-123 -121h-102l73 121h152zM497 670l-123 -121h-102l73 121h152z" />
    <glyph glyph-name="uni0394" unicode="&#x394;" horiz-adv-x="726"
d="M428 670l275 -670h-680l275 670h130zM517 118l-154 386l-155 -386h309z" />
    <glyph glyph-name="uni03A9" unicode="&#x3a9;" horiz-adv-x="864"
d="M432 688q154 0 255 -96.5t101 -245.5q0 -73 -35 -135.5t-80 -92.5h155v-118h-345v102q52 10 112 79.5t60 158.5q0 96 -63 162t-160 66t-160 -66t-63 -162q0 -89 60 -158.5t112 -79.5v-102h-345v118h155q-44 29 -79.5 92t-35.5 136q0 149 101 245.5t255 96.5z" />
    <glyph glyph-name="uni03BC" unicode="&#x3bc;" horiz-adv-x="607"
d="M209 -165h-131v661h131v-290q0 -55 21 -80t70 -25q30 0 56.5 13.5t37.5 29.5v352h131v-496h-116v42q-15 -19 -53 -37.5t-71 -18.5q-48 0 -76 16v-167z" />
    <glyph glyph-name="pi" unicode="&#x3c0;" horiz-adv-x="681"
d="M266 382v-382h-131v382h-110v114h611v-114h-129v-227q0 -29 13 -42q16 -14 54 -14q35 0 53 5v-109q-30 -6 -96 -6q-79 0 -115 36q-22 20 -31 46.5t-9 78.5v232h-110z" />
    <glyph glyph-name="Wgrave" unicode="&#x1e80;" horiz-adv-x="1001"
d="M645 0l-81 272q-25 81 -62 223h-2q-17 -68 -61 -222l-82 -273h-137l-214 670h138l84 -283q27 -94 59 -231h2q1 5 25.5 94.5t38.5 137.5l86 282h129l87 -285q49 -184 62 -229h2q31 139 60 231l83 283h132l-212 -670h-137zM439 727l-121 121h161l71 -121h-111z" />
    <glyph glyph-name="wgrave" unicode="&#x1e81;" horiz-adv-x="841"
d="M664 0h-145l-72 256q-22 83 -27 110h-1q-5 -27 -27 -110l-72 -256h-148l-155 496h127l80 -276q10 -33 24 -97h1q14 59 25 97l76 276h143l74 -276l27 -97h1q4 14 12 44.5t14 52.5l80 276h127zM362 549l-121 121h161l71 -121h-111z" />
    <glyph glyph-name="Wacute" unicode="&#x1e82;" horiz-adv-x="1001"
d="M645 0l-81 272q-25 81 -62 223h-2q-17 -68 -61 -222l-82 -273h-137l-214 670h138l84 -283q27 -94 59 -231h2q1 5 25.5 94.5t38.5 137.5l86 282h129l87 -285q49 -184 62 -229h2q31 139 60 231l83 283h132l-212 -670h-137zM665 848l-121 -121h-111l71 121h161z" />
    <glyph glyph-name="wacute" unicode="&#x1e83;" horiz-adv-x="841"
d="M664 0h-145l-72 256q-22 83 -27 110h-1q-5 -27 -27 -110l-72 -256h-148l-155 496h127l80 -276q10 -33 24 -97h1q14 59 25 97l76 276h143l74 -276l27 -97h1q4 14 12 44.5t14 52.5l80 276h127zM591 670l-121 -121h-111l71 121h161z" />
    <glyph glyph-name="Wdieresis" unicode="&#x1e84;" horiz-adv-x="1001"
d="M645 0l-81 272q-25 81 -62 223h-2q-17 -68 -61 -222l-82 -273h-137l-214 670h138l84 -283q27 -94 59 -231h2q1 5 25.5 94.5t38.5 137.5l86 282h129l87 -285q49 -184 62 -229h2q31 139 60 231l83 283h132l-212 -670h-137zM326 789q0 30 19 49t51 19t51 -19t19 -49t-19 -49
t-51 -19t-51 19t-19 49zM534 789q0 30 19 49t51 19t51 -19t19 -49t-19 -49t-51 -19t-51 19t-19 49z" />
    <glyph glyph-name="wdieresis" unicode="&#x1e85;" horiz-adv-x="841"
d="M664 0h-145l-72 256q-22 83 -27 110h-1q-5 -27 -27 -110l-72 -256h-148l-155 496h127l80 -276q10 -33 24 -97h1q14 59 25 97l76 276h143l74 -276l27 -97h1q4 14 12 44.5t14 52.5l80 276h127zM246 611q0 30 19 49t51 19t51 -19t19 -49t-19 -49t-51 -19t-51 19t-19 49z
M454 611q0 30 19 49t51 19t51 -19t19 -49t-19 -49t-51 -19t-51 19t-19 49z" />
    <glyph glyph-name="Ygrave" unicode="&#x1ef2;" horiz-adv-x="612"
d="M608 660l-235 -360v-300h-133v300l-240 360v10h143l166 -257l161 257h138v-10zM265 727l-121 121h161l71 -121h-111z" />
    <glyph glyph-name="ygrave" unicode="&#x1ef3;" horiz-adv-x="550"
d="M147 496l104 -259q12 -29 28 -79q18 50 29 78l100 260h138l-288 -661h-136l86 197l-199 464h138zM233 549l-121 121h161l71 -121h-111z" />
    <glyph glyph-name="enspace" unicode="&#x2002;" horiz-adv-x="500"
 />
    <glyph glyph-name="emspace" unicode="&#x2003;" horiz-adv-x="1000"
 />
    <glyph glyph-name="threeperemspace" unicode="&#x2004;" horiz-adv-x="333"
 />
    <glyph glyph-name="fourperemspace" unicode="&#x2005;" horiz-adv-x="250"
 />
    <glyph glyph-name="thinspace" unicode="&#x2009;" horiz-adv-x="133"
 />
    <glyph glyph-name="hairspace" unicode="&#x200a;" horiz-adv-x="75"
 />
    <glyph glyph-name="endash" unicode="&#x2013;" horiz-adv-x="618"
d="M563 200h-508v114h508v-114z" />
    <glyph glyph-name="emdash" unicode="&#x2014;" horiz-adv-x="809"
d="M754 200h-699v114h699v-114z" />
    <glyph glyph-name="quoteleft" unicode="&#x2018;" horiz-adv-x="262"
d="M140 670h86l-46 -240h-143z" />
    <glyph glyph-name="quoteright" unicode="&#x2019;" horiz-adv-x="252"
d="M132 430h-86l46 240h143z" />
    <glyph glyph-name="quotesinglbase" unicode="&#x201a;" horiz-adv-x="264"
d="M113 -109h-86l46 240h143z" />
    <glyph glyph-name="quotedblleft" unicode="&#x201c;" horiz-adv-x="472"
d="M140 670h86l-46 -240h-143zM350 670h86l-46 -240h-143z" />
    <glyph glyph-name="quotedblright" unicode="&#x201d;" horiz-adv-x="462"
d="M132 430h-86l46 240h143zM342 430h-86l46 240h143z" />
    <glyph glyph-name="quotedblbase" unicode="&#x201e;" horiz-adv-x="484"
d="M113 -109h-86l46 240h143zM333 -109h-86l46 240h143z" />
    <glyph glyph-name="dagger" unicode="&#x2020;" horiz-adv-x="516"
d="M484 496v-116h-162v-527h-128v527h-162v116h162v192h128v-192h162z" />
    <glyph glyph-name="daggerdbl" unicode="&#x2021;" horiz-adv-x="554"
d="M502 496v-116h-162v-219h162v-116h-162v-192h-128v192h-160v116h160v219h-160v116h160v192h128v-192h162z" />
    <glyph glyph-name="bullet" unicode="&#x2022;" horiz-adv-x="432"
d="M370 287q0 -64 -44.5 -109t-109.5 -45t-109.5 45t-44.5 109t44.5 109t109.5 45t109.5 -45t44.5 -109z" />
    <glyph glyph-name="ellipsis" unicode="&#x2026;" horiz-adv-x="872"
d="M45 70q0 38 23.5 61t59.5 23t59.5 -23t23.5 -61q0 -36 -23.5 -60t-59.5 -24t-59.5 24t-23.5 60zM353 70q0 38 23.5 61t59.5 23t59.5 -23t23.5 -61q0 -36 -23.5 -60t-59.5 -24t-59.5 24t-23.5 60zM661 70q0 38 23.5 61t59.5 23t59.5 -23t23.5 -61q0 -36 -23.5 -60
t-59.5 -24t-59.5 24t-23.5 60z" />
    <glyph glyph-name="perthousand" unicode="&#x2030;" horiz-adv-x="1239"
d="M1046 -8q-73 0 -117 52.5t-44 134.5t44 135t117 53t117 -53t44 -135t-44 -134.5t-117 -52.5zM1046 87q28 0 44 24t16 68q0 45 -16 69.5t-44 24.5t-44 -24.5t-16 -69.5q0 -44 16 -68t44 -24zM694 660l-408 -660h-112v10l406 660h114v-10zM193 303q-73 0 -117 52.5
t-44 134.5t44 135t117 53t117 -53t44 -135t-44 -134.5t-117 -52.5zM193 398q28 0 44 24t16 68q0 45 -16 69.5t-44 24.5t-44 -24.5t-16 -69.5q0 -44 16 -68t44 -24zM675 -9q-73 0 -117 52.5t-44 134.5t44 135t117 53t117 -53t44 -135t-44 -134.5t-117 -52.5zM675 86
q28 0 44 24t16 68q0 45 -16 69.5t-44 24.5t-44 -24.5t-16 -69.5q0 -44 16 -68t44 -24z" />
    <glyph glyph-name="guilsinglleft" unicode="&#x2039;" horiz-adv-x="339"
d="M303 445l-137 -193l127 -193v-10h-132l-128 203l137 203h133v-10z" />
    <glyph glyph-name="guilsinglright" unicode="&#x203a;" horiz-adv-x="339"
d="M173 252l-137 193v10h133l137 -203l-128 -203h-132v10z" />
    <glyph glyph-name="fraction" unicode="&#x2044;" horiz-adv-x="477"
d="M486 660l-395 -660h-98v10l395 660h98v-10z" />
    <glyph glyph-name="Euro" unicode="&#x20ac;" horiz-adv-x="633"
d="M36 363v96h92q29 108 109 168.5t183 60.5q50 0 94 -14t67 -33v-121h-10q-22 22 -61.5 37t-83.5 15q-50 0 -93 -29t-67 -84h211v-96h-233q-1 -9 -1 -26q0 -22 1 -33h233v-96h-208q25 -52 67 -79t90 -27q44 0 86.5 15.5t63.5 36.5h10v-121q-22 -18 -68.5 -32.5t-95.5 -14.5
q-102 0 -181.5 58.5t-110.5 163.5h-94v96h77q-1 11 -1 33q0 17 1 26h-77z" />
    <glyph glyph-name="trademark" unicode="&#x2122;" horiz-adv-x="926"
d="M265 264h-85v326h-126v80h338v-80h-127v-326zM697 359h-89l-84 206q1 -16 1 -65v-237h-81v407h119l89 -220q14 37 45 110t45 110h116v-406h-81v236q0 23 0.5 43t0.5 23z" />
    <glyph glyph-name="Omega" unicode="&#x2126;" horiz-adv-x="864"
d="M432 688q154 0 255 -96.5t101 -245.5q0 -73 -35 -135.5t-80 -92.5h155v-118h-345v102q52 10 112 79.5t60 158.5q0 96 -63 162t-160 66t-160 -66t-63 -162q0 -89 60 -158.5t112 -79.5v-102h-345v118h155q-44 29 -79.5 92t-35.5 136q0 149 101 245.5t255 96.5z" />
    <glyph glyph-name="arrowleft" unicode="&#x2190;" horiz-adv-x="760"
d="M274 318h441v-119h-441l144 -140v-11h-151l-212 210l212 211h151v-11z" />
    <glyph glyph-name="arrowup" unicode="&#x2191;" horiz-adv-x="551"
d="M335 369v-441h-119v441l-140 -144h-11v151l210 212l211 -212v-151h-11z" />
    <glyph glyph-name="arrowright" unicode="&#x2192;" horiz-adv-x="760"
d="M55 318h441l-144 140v11h151l212 -211l-212 -210h-151v11l144 140h-441v119z" />
    <glyph glyph-name="arrowdown" unicode="&#x2193;" horiz-adv-x="551"
d="M335 588v-441l140 144h11v-151l-211 -212l-210 212v151h11l140 -144v441h119z" />
    <glyph glyph-name="uni2196" unicode="&#x2196;" horiz-adv-x="613"
d="M504 -11l-312 311l3 -200l-8 -8l-107 107v297h298l107 -106l-8 -8l-201 3l312 -312z" />
    <glyph glyph-name="uni2197" unicode="&#x2197;" horiz-adv-x="613"
d="M421 300l-312 -311l-84 84l312 312l-201 -3l-8 8l107 106h298v-297l-107 -107l-8 8z" />
    <glyph glyph-name="uni2198" unicode="&#x2198;" horiz-adv-x="613"
d="M109 507l312 -311l-3 200l8 8l107 -107v-297h-298l-107 106l8 8l201 -3l-312 312z" />
    <glyph glyph-name="uni2199" unicode="&#x2199;" horiz-adv-x="613"
d="M192 196l312 311l84 -84l-312 -312l201 3l8 -8l-107 -106h-298v297l107 107l8 -8z" />
    <glyph glyph-name="partialdiff" unicode="&#x2202;" horiz-adv-x="568"
d="M283 670l193 -262q66 -88 66 -170q0 -111 -73 -181.5t-184 -70.5q-113 0 -185.5 71t-72.5 179q0 109 70 177.5t172 68.5l-127 178v10h141zM158 236q0 -59 35.5 -95.5t91.5 -36.5q55 0 90.5 37t35.5 97q0 36 -11.5 62.5t-41.5 62.5q-29 13 -73 13q-55 0 -91 -39t-36 -101z
" />
    <glyph glyph-name="Delta" unicode="&#x2206;" horiz-adv-x="726"
d="M428 670l275 -670h-680l275 670h130zM517 118l-154 386l-155 -386h309z" />
    <glyph glyph-name="product" unicode="&#x220f;" horiz-adv-x="870"
d="M730 -165h-133v718h-323v-718h-133v718h-110v117h808v-117h-109v-718z" />
    <glyph glyph-name="summation" unicode="&#x2211;" horiz-adv-x="593"
d="M210 553l226 -301l-226 -300h342v-117h-516v97l241 320l-241 321v97h516v-117h-342z" />
    <glyph glyph-name="minus" unicode="&#x2212;" horiz-adv-x="573"
d="M516 200h-459v114h459v-114z" />
    <glyph glyph-name="uni2219" unicode="&#x2219;" horiz-adv-x="264"
d="M49 324q0 38 23.5 61t59.5 23t59.5 -23t23.5 -61q0 -36 -23.5 -60t-59.5 -24t-59.5 24t-23.5 60z" />
    <glyph glyph-name="radical" unicode="&#x221a;" horiz-adv-x="622"
d="M27 496h220l98 -298l144 472h133l-208 -670h-131l-131 380h-125v116z" />
    <glyph glyph-name="infinity" unicode="&#x221e;" horiz-adv-x="924"
d="M455 219l-51 63q-4 5 -16 20.5t-16.5 21t-15.5 17.5t-17 17t-16 13.5t-18 11.5t-18.5 6t-20.5 3q-45 0 -68 -24.5t-23 -59.5t24 -59.5t67 -24.5q61 0 118 48h5v-116q-59 -51 -136 -51q-93 0 -151 60.5t-58 142.5q0 87 61.5 144.5t155.5 57.5q112 0 208 -114l51 -64
q43 -58 72 -83.5t65 -25.5q45 0 68 24.5t23 59.5t-24 59.5t-67 24.5q-61 0 -118 -48h-5v116q59 51 136 51q93 0 151 -60.5t58 -142.5q0 -87 -61.5 -144.5t-155.5 -57.5q-116 0 -207 114z" />
    <glyph glyph-name="integral" unicode="&#x222b;" horiz-adv-x="510"
d="M367 515l-95 -535q-8 -43 -20.5 -71t-40.5 -52q-42 -36 -122 -36q-51 0 -90 9l19 109q22 -6 55 -6q59 0 70 57l95 535q8 43 20.5 71t40.5 52q42 36 122 36q51 0 90 -9l-19 -109q-22 6 -55 6q-59 0 -70 -57z" />
    <glyph glyph-name="approxequal" unicode="&#x2248;" horiz-adv-x="583"
d="M504 224h10v-117q-43 -41 -126 -41q-49 0 -118 32t-110 32q-52 0 -90 -32h-10v113q40 40 102 40q48 0 113 -34t111 -34q68 0 118 41zM504 434h10v-119q-24 -23 -51.5 -34t-74.5 -11q-45 0 -115.5 34.5t-112.5 34.5q-52 0 -90 -32h-10v110q38 40 102 40q48 0 113 -32
t111 -32q68 0 118 41z" />
    <glyph glyph-name="notequal" unicode="&#x2260;" horiz-adv-x="579"
d="M514 92h-231l-38 -92h-118l38 92h-100v118h148l38 91h-186v118h236l38 91h118l-38 -91h95v-118h-144l-38 -91h182v-118z" />
    <glyph glyph-name="lessequal" unicode="&#x2264;" horiz-adv-x="574"
d="M51 376l457 148v-115l-246 -75l246 -75v-115l-457 148v84zM508 0h-457v107h457v-107z" />
    <glyph glyph-name="greaterequal" unicode="&#x2265;" horiz-adv-x="574"
d="M66 524l457 -148v-84l-457 -148v115l246 75l-246 75v115zM524 0h-458v107h458v-107z" />
    <glyph glyph-name="dotmath" unicode="&#x22c5;" horiz-adv-x="451"
d="M44 237q0 76 53 129t129 53t128.5 -53t52.5 -129t-52.5 -129t-128.5 -53t-129 53t-53 129z" />
    <glyph glyph-name="lozenge" unicode="&#x25ca;" horiz-adv-x="516"
d="M258 523l-103 -188l103 -188l103 188zM483 335l-174 -335h-102l-174 335l174 335h102z" />
    <glyph glyph-name="commaaccent" unicode="&#xf6c3;" horiz-adv-x="327"
d="M65 -210l53 148h144l-100 -148h-97z" />
    <glyph glyph-name="uniF8FF" unicode="&#xf8ff;" horiz-adv-x="806"
d="M50 335q0 147 103 250t250 103t250 -103t103 -250t-102.5 -250t-250.5 -103t-250.5 103t-102.5 250z" />
    <glyph glyph-name="n.ss03"
d="M189 382v-382h-131v496h447v-496h-131v382h-185z" />
    <glyph glyph-name="ucircumflex.ss03" horiz-adv-x="557"
d="M350 670l94 -121h-119l-51 57l-51 -57h-119l94 121h152zM368 114v382h131v-496h-441v496h131v-382h179z" />
    <glyph glyph-name="ugrave.ss03" horiz-adv-x="557"
d="M239 549l-121 121h161l71 -121h-111zM368 114v382h131v-496h-441v496h131v-382h179z" />
    <glyph glyph-name="udieresis.ss03" horiz-adv-x="557"
d="M101 611q0 30 19 49t51 19t51 -19t19 -49t-19 -49t-51 -19t-51 19t-19 49zM309 611q0 30 19 49t51 19t51 -19t19 -49t-19 -49t-51 -19t-51 19t-19 49zM368 114v382h131v-496h-441v496h131v-382h179z" />
    <glyph glyph-name="uacute.ss03" horiz-adv-x="557"
d="M431 670l-121 -121h-111l71 121h161zM368 114v382h131v-496h-441v496h131v-382h179z" />
    <glyph glyph-name="hcircumflex.ss03"
d="M194 848l94 -121h-119l-51 57l-51 -57h-119l94 121h152zM189 382v-382h-131v670h131v-174h316v-496h-131v382h-185z" />
    <glyph glyph-name="brokenbar.case" horiz-adv-x="302"
d="M215 420h-128v334h128v-334zM215 -80h-128v334h128v-334z" />
    <glyph glyph-name="ntilde.ss03"
d="M206 679q41 0 78 -29q25 -18 40 -18q27 0 27 41l96 -15q-1 -49 -29 -80.5t-73 -31.5q-38 0 -83 32q-22 15 -35 15q-27 0 -27 -41l-96 15q1 49 29 80.5t73 31.5zM189 382v-382h-131v496h447v-496h-131v382h-185z" />
    <glyph glyph-name="uogonek.ss03" horiz-adv-x="557"
d="M368 114v382h131v-496h-25q-41 -36 -41 -81q0 -22 11.5 -31t25.5 -9q22 0 34 9h3v-88q-20 -15 -67 -15q-39 0 -70.5 28.5t-31.5 80.5q0 61 45 106h-325v496h131v-382h179z" />
    <glyph glyph-name="eng.ss03"
d="M189 382v-382h-131v496h447v-661h-245v107h114v440h-185z" />
    <glyph glyph-name="ncaron.ss03"
d="M457 670l-94 -121h-152l-94 121h119l51 -57l51 57h119zM189 382v-382h-131v496h447v-496h-131v382h-185z" />
    <glyph glyph-name="uhungarumlaut.ss03" horiz-adv-x="557"
d="M323 670l-123 -121h-102l73 121h152zM530 670l-123 -121h-102l73 121h152zM368 114v382h131v-496h-441v496h131v-382h179z" />
    <glyph glyph-name="uring.ss03" horiz-adv-x="557"
d="M388 642q0 -44 -31.5 -74.5t-77.5 -30.5q-45 0 -76.5 30.5t-31.5 74.5t31.5 74.5t76.5 30.5q46 0 77.5 -30.5t31.5 -74.5zM319 642q0 17 -11.5 28.5t-28.5 11.5q-18 0 -29.5 -11.5t-11.5 -28.5t11.5 -29t29.5 -12q17 0 28.5 12t11.5 29zM368 114v382h131v-496h-441v496
h131v-382h179z" />
    <glyph glyph-name="ubreve.ss03" horiz-adv-x="557"
d="M268 542q-67 0 -111 34t-50 94h103q3 -20 18 -37.5t40 -17.5t40 17.5t18 37.5h103q-6 -60 -50 -94t-111 -34zM368 114v382h131v-496h-441v496h131v-382h179z" />
    <glyph glyph-name="umacron.ss03" horiz-adv-x="557"
d="M434 586h-315v84h315v-84zM368 114v382h131v-496h-441v496h131v-382h179z" />
    <glyph glyph-name="utilde.ss03" horiz-adv-x="557"
d="M204 679q41 0 78 -29q25 -18 40 -18q27 0 27 41l96 -15q-1 -49 -29 -80.5t-73 -31.5q-38 0 -83 32q-22 15 -35 15q-27 0 -27 -41l-96 15q1 49 29 80.5t73 31.5zM368 114v382h131v-496h-441v496h131v-382h179z" />
    <glyph glyph-name="nacute.ss03"
d="M452 670l-121 -121h-111l71 121h161zM189 382v-382h-131v496h447v-496h-131v382h-185z" />
    <glyph glyph-name="ncommaaccent.ss03"
d="M168 -210l53 148h144l-100 -148h-97zM189 382v-382h-131v496h447v-496h-131v382h-185z" />
    <glyph glyph-name="napostrophe.ss03"
d="M89 523h-90l38 147h135zM189 382v-382h-131v496h447v-496h-131v382h-185z" />
    <glyph glyph-name="hbar.ss03"
d="M189 382v-382h-131v539h-81v86h81v45h131v-45h137v-86h-137v-43h316v-496h-131v382h-185z" />
    <glyph glyph-name="acute.uc" horiz-adv-x="370"
d="M305 670l-124 -95h-116l74 95h166z" />
    <glyph glyph-name="grave.uc" horiz-adv-x="370"
d="M189 575l-124 95h166l74 -95h-116z" />
    <glyph glyph-name="dieresis.uc" horiz-adv-x="463"
d="M65 619q0 26 17.5 43t42.5 17t42.5 -17t17.5 -43t-17.5 -43t-42.5 -17t-42.5 17t-17.5 43zM278 619q0 26 17.5 43t42.5 17t42.5 -17t17.5 -43t-17.5 -43t-42.5 -17t-42.5 17t-17.5 43z" />
    <glyph glyph-name="tilde.uc" horiz-adv-x="473"
d="M170 679q42 0 75 -26q25 -18 40 -18q27 0 27 41l96 -15q-1 -48 -30.5 -77.5t-74.5 -29.5q-42 0 -80 27q-22 15 -35 15q-27 0 -27 -41l-96 15q1 48 30.5 78.5t74.5 30.5z" />
    <glyph glyph-name="macron.uc" horiz-adv-x="445"
d="M380 586h-315v84h315v-84z" />
    <glyph glyph-name="breve.uc" horiz-adv-x="404"
d="M202 552q-56 0 -94 33t-43 85h87q7 -43 50 -43t50 43h87q-5 -52 -43 -85t-94 -33z" />
    <glyph glyph-name="dotaccent.uc" horiz-adv-x="250"
d="M65 619q0 26 17.5 43t42.5 17t42.5 -17t17.5 -43t-17.5 -43t-42.5 -17t-42.5 17t-17.5 43z" />
    <glyph glyph-name="ring.uc" horiz-adv-x="347"
d="M282 619q0 -44 -31.5 -74.5t-77.5 -30.5q-45 0 -76.5 30.5t-31.5 74.5t31.5 74.5t76.5 30.5q46 0 77.5 -30.5t31.5 -74.5zM212 619q0 17 -11.5 27.5t-27.5 10.5q-17 0 -28.5 -10.5t-11.5 -27.5t11.5 -28t28.5 -11q16 0 27.5 11t11.5 28z" />
    <glyph glyph-name="hungarumlaut.uc" horiz-adv-x="578"
d="M187 575h-122l76 95h161zM398 575h-122l76 95h161z" />
    <glyph glyph-name="caron.uc" horiz-adv-x="464"
d="M280 670h119l-88 -95h-158l-88 95h119l48 -47z" />
    <glyph glyph-name="circumflex.uc" horiz-adv-x="464"
d="M399 575h-119l-48 47l-48 -47h-119l88 95h158z" />
    <glyph glyph-name="uni00AD.case" horiz-adv-x="394"
d="M337 262h-280v114h280v-114z" />
    <glyph glyph-name="endash.case" horiz-adv-x="622"
d="M565 262h-508v114h508v-114z" />
    <glyph glyph-name="emdash.case" horiz-adv-x="813"
d="M756 262h-699v114h699v-114z" />
    <glyph glyph-name="hyphen.case" horiz-adv-x="394"
d="M337 262h-280v114h280v-114z" />
    <glyph glyph-name="guillemotleft.case" horiz-adv-x="601"
d="M309 512l-137 -193l127 -193v-10h-132l-128 203l137 203h133v-10zM558 512l-137 -193l127 -193v-10h-132l-128 203l137 203h133v-10z" />
    <glyph glyph-name="guillemotright.case" horiz-adv-x="601"
d="M429 319l-137 193v10h133l137 -203l-128 -203h-132v10zM180 319l-137 193v10h133l137 -203l-128 -203h-132v10z" />
    <glyph glyph-name="guilsinglleft.case" horiz-adv-x="351"
d="M308 512l-137 -193l127 -193v-10h-131l-128 203l137 203h132v-10z" />
    <glyph glyph-name="guilsinglright.case" horiz-adv-x="351"
d="M180 319l-137 193v10h132l137 -203l-128 -203h-131v10z" />
    <glyph glyph-name="parenleft.case" horiz-adv-x="339"
d="M35 339q0 212 166 408h125v-9q-77 -91 -122.5 -186.5t-45.5 -212.5q0 -118 44 -219t114 -199v-9h-125q-156 203 -156 427z" />
    <glyph glyph-name="parenright.case" horiz-adv-x="339"
d="M304 339q0 -224 -156 -427h-125v9q70 98 114 199t44 219q0 117 -45.5 212.5t-122.5 186.5v9h125q166 -196 166 -408z" />
    <glyph glyph-name="bracketleft.case" horiz-adv-x="359"
d="M86 -88v835h237v-97h-109v-641h109v-97h-237z" />
    <glyph glyph-name="bracketright.case" horiz-adv-x="359"
d="M273 747v-835h-237v97h109v641h-109v97h237z" />
    <glyph glyph-name="braceleft.case" horiz-adv-x="327"
d="M156 331v-2q28 -13 38.5 -38t10.5 -83v-117q0 -50 14 -66t69 -16v-96h-31q-101 0 -140.5 33t-39.5 106v186q0 52 -40 58v68q40 6 40 58v186q0 73 39.5 106t140.5 33h31v-96q-55 0 -69 -16t-14 -66v-117q0 -58 -11 -83.5t-38 -37.5z" />
    <glyph glyph-name="braceright.case" horiz-adv-x="327"
d="M171 329v2q-27 12 -38 37.5t-11 83.5v117q0 50 -14 66t-69 16v96h31q101 0 140.5 -33t39.5 -106v-186q0 -52 40 -58v-68q-40 -6 -40 -58v-186q0 -73 -39.5 -106t-140.5 -33h-31v96q55 0 69 16t14 66v117q0 58 10.5 83t38.5 38z" />
    <glyph glyph-name="bar.case" horiz-adv-x="300"
d="M214 752v-835h-128v835h128z" />
    <glyph glyph-name="minus.case" horiz-adv-x="573"
d="M516 267h-459v114h459v-114z" />
    <glyph glyph-name="multiply.case" horiz-adv-x="581"
d="M290 241l-160 -160l-84 84l160 160l-161 162l84 84l161 -162l162 162l84 -84l-162 -162l161 -160l-84 -84z" />
    <glyph glyph-name="plus.case" horiz-adv-x="548"
d="M338 85h-131v182h-170v114h170v182h131v-182h173v-114h-173v-182z" />
    <glyph glyph-name="less.case" horiz-adv-x="531"
d="M452 76l-420 242v11l420 243h10v-132l-214 -116l214 -116v-132h-10z" />
    <glyph glyph-name="equal.case"
d="M506 370h-449v118h449v-118zM506 161h-449v118h449v-118z" />
    <glyph glyph-name="greater.case" horiz-adv-x="531"
d="M499 317l-420 -242h-10v132l214 116l-214 116v132h10l420 -243v-11z" />
    <glyph glyph-name="notequal.case" horiz-adv-x="601"
d="M525 161h-231l-38 -92h-118l38 92h-100v118h148l38 91h-186v118h236l38 92h118l-38 -92h95v-118h-144l-38 -91h182v-118z" />
    <glyph glyph-name="plusminus.case" horiz-adv-x="569"
d="M509 62h-449v107h449v-107zM346 203h-124v138h-162v107h162v138h124v-138h163v-107h-163v-138z" />
    <glyph glyph-name="lessequal.case" horiz-adv-x="590"
d="M59 438l457 148v-115l-246 -75l246 -75v-115l-457 148v84zM516 62h-457v107h457v-107z" />
    <glyph glyph-name="greaterequal.case" horiz-adv-x="591"
d="M74 586l457 -148v-84l-457 -148v115l246 75l-246 75v115zM532 62h-458v107h458v-107z" />
    <glyph glyph-name="logicalnot.case" horiz-adv-x="564"
d="M503 476v-327h-133v209h-328v118h461z" />
    <glyph glyph-name="approxequal.case" horiz-adv-x="584"
d="M504 287h10v-117q-43 -41 -126 -41q-49 0 -118 32t-110 32q-52 0 -90 -32h-10v113q40 40 102 40q48 0 113 -34t111 -34q68 0 118 41zM504 497h10v-119q-24 -23 -51.5 -34t-74.5 -11q-45 0 -115.5 34.5t-112.5 34.5q-52 0 -90 -32h-10v110q38 40 102 40q48 0 113 -32
t111 -32q68 0 118 41z" />
    <glyph glyph-name="divide.case" horiz-adv-x="552"
d="M198 513q0 36 23.5 59t57.5 23t57.5 -23t23.5 -59t-23.5 -59t-57.5 -23t-57.5 23t-23.5 59zM511 267h-470v114h470v-114zM197 135q0 36 23.5 59t57.5 23t57.5 -23t23.5 -59t-23.5 -59t-57.5 -23t-57.5 23t-23.5 59z" />
    <glyph glyph-name="two.posf" horiz-adv-x="482"
d="M49 0v120l173 118q30 20 42 29t25.5 27t13.5 37q0 30 -23 46.5t-63 16.5q-38 0 -80 -19.5t-74 -51.5h-10v123q76 64 177 64q92 0 148 -46.5t56 -121.5q0 -35 -11.5 -64.5t-34 -52t-42 -37t-47.5 -30.5q-92 -51 -97 -53v-1q28 3 87 3h145v-107h-385z" />
    <glyph glyph-name="zero.posf" horiz-adv-x="604"
d="M37 248q0 111 75.5 186.5t188.5 75.5q114 0 190 -75.5t76 -186.5q0 -112 -76 -187t-190 -75t-189 75t-75 187zM160 248q0 -64 41.5 -105t99.5 -41q59 0 101.5 41t42.5 105t-42.5 105t-101.5 41q-58 0 -99.5 -41t-41.5 -105z" />
    <glyph glyph-name="three.posf" horiz-adv-x="508"
d="M111 141v95l104 101q37 37 53 49q-4 0 -31.5 -1.5t-42.5 -1.5h-150v113h398v-68l-160 -161q82 -10 138.5 -71t56.5 -147q0 -107 -74 -167.5t-183 -60.5q-54 0 -103.5 16.5t-72.5 36.5v120h10q25 -25 70 -41.5t86 -16.5q61 0 98.5 33t37.5 80q0 49 -34.5 83.5t-101.5 34.5
q-30 0 -58 -9t-36 -17h-5z" />
    <glyph glyph-name="four.posf" horiz-adv-x="567"
d="M15 0v88l277 408h152v-392h96v-104h-96v-165h-127v165h-302zM317 104v95q0 103 4 150q-54 -90 -78 -124l-83 -121h157z" />
    <glyph glyph-name="five.posf" horiz-adv-x="526"
d="M150 120h-101v376h403v-114h-278v-120q40 28 102 28q91 0 157 -63t66 -164t-71.5 -172t-192.5 -71q-53 0 -105 18t-81 42v124h10q30 -30 78.5 -49.5t98.5 -19.5q55 0 93.5 36.5t38.5 91.5q0 52 -33.5 83.5t-83.5 31.5q-34 0 -61 -16.5t-40 -41.5z" />
    <glyph glyph-name="six.posf" horiz-adv-x="597"
d="M95 400l209 270h149v-10l-120 -157q-30 -38 -35 -43q16 7 48 7q85 0 151 -62.5t66 -163.5q0 -109 -75 -182t-188 -73q-111 0 -187.5 72.5t-76.5 179.5q0 87 59 162zM432 238q0 60 -37.5 97t-94.5 37q-56 0 -94.5 -37.5t-38.5 -96.5t38.5 -96.5t94.5 -37.5q57 0 94.5 37.5
t37.5 96.5z" />
    <glyph glyph-name="seven.posf" horiz-adv-x="500"
d="M27 496h483l-322 -661h-141l266 547h-286v114z" />
    <glyph glyph-name="eight.posf" horiz-adv-x="583"
d="M291 -14q-118 0 -185.5 60.5t-67.5 155.5q0 49 31.5 97.5t68.5 65.5q-29 15 -50.5 51t-21.5 74q0 88 60.5 141t164.5 53t165.5 -54t61.5 -139q0 -36 -22 -73.5t-49 -52.5q37 -18 67 -64.5t30 -96.5q0 -96 -67 -157t-186 -61zM288 408h7q41 0 66.5 25t25.5 55q0 35 -26 58
t-70 23t-69 -23t-25 -58q0 -30 25 -55t66 -25zM291 101q58 0 90 30t32 75q0 43 -32 71.5t-85 28.5h-10q-52 0 -84.5 -28.5t-32.5 -71.5q0 -45 32.5 -75t89.5 -30z" />
    <glyph glyph-name="nine.posf" horiz-adv-x="581"
d="M494 96l-202 -261h-149v10l113 148q30 38 35 43q-16 -7 -48 -7q-85 0 -151 62.5t-66 163.5q0 109 75 182t188 73q111 0 187.5 -72.5t76.5 -179.5q0 -87 -59 -162zM157 258q0 -60 37.5 -97t94.5 -37q56 0 94.5 37.5t38.5 96.5t-38.5 96.5t-94.5 37.5q-57 0 -94.5 -37.5
t-37.5 -96.5z" />
    <glyph glyph-name="Eng.ss01" horiz-adv-x="708"
d="M203 334v-334h-131v670h129l235 -361q20 -31 42 -66t28 -45h1q-2 50 -2 131v341h131v-685q0 -52 -9 -77.5t-31 -47.5q-36 -36 -115 -36q-66 0 -96 6v109q18 -5 53 -5q38 0 54 14q12 12 13 31v29l-234 346q-5 7 -69 111h-1q2 -50 2 -131z" />
    <glyph glyph-name="u.ss03" horiz-adv-x="557"
d="M368 114v382h131v-496h-441v496h131v-382h179z" />
    <glyph glyph-name="h.ss03"
d="M189 382v-382h-131v670h131v-174h316v-496h-131v382h-185z" />
    <glyph glyph-name="m.ss03" horiz-adv-x="852"
d="M189 382v-382h-131v496h736v-496h-131v382h-171v-382h-132v382h-171z" />
    <glyph glyph-name="idotaccent" horiz-adv-x="247"
d="M189 0h-131v496h131v-496zM49 616q0 31 20.5 51.5t53.5 20.5t53.5 -20.5t20.5 -51.5t-20.5 -51.5t-53.5 -20.5t-53.5 20.5t-20.5 51.5z" />
    <glyph glyph-name="zero.tlf" horiz-adv-x="570"
d="M286 -14q-126 0 -194.5 95.5t-68.5 254.5q0 151 72.5 249.5t189.5 98.5q118 0 190 -98.5t72 -249.5q0 -158 -68 -254t-193 -96zM285 569q-61 0 -96 -66.5t-35 -166.5q0 -98 33 -166t98 -68q47 0 77.5 35t42 85t11.5 114q0 101 -34 167t-97 66z" />
    <glyph glyph-name="two.tlf" horiz-adv-x="570"
d="M237 114h265v-114h-434v91l231 261q20 23 31 37t22 37.5t11 45.5q0 46 -31.5 72t-86.5 26q-48 0 -93 -23.5t-69 -54.5h-10v124q26 26 77.5 47t114.5 21q97 0 162.5 -54t65.5 -139q0 -41 -17 -82t-32 -61.5t-46 -56.5l-73 -83q-22 -25 -50 -54t-38 -40z" />
    <glyph glyph-name="three.tlf" horiz-adv-x="570"
d="M140 311v95l104 104q41 41 54 49q-4 0 -32 -1.5t-43 -1.5h-150v114h398v-70l-160 -163q84 -15 139.5 -74t55.5 -144q0 -108 -74.5 -170.5t-183.5 -62.5q-54 0 -103 16.5t-72 36.5v120h10q25 -25 70 -41.5t86 -16.5q61 0 98.5 35.5t37.5 82.5q0 49 -34.5 83.5t-101.5 34.5
q-30 0 -58 -9t-36 -17h-5z" />
    <glyph glyph-name="four.tlf" horiz-adv-x="570"
d="M25 119v99l269 452h148v-437h91v-114h-91v-119h-126v119h-291zM320 510h-2q-19 -47 -66 -130l-85 -147h149v128q0 42 2 87t2 62z" />
    <glyph glyph-name="five.tlf" horiz-adv-x="570"
d="M172 286h-101v384h403v-114h-278v-128q40 28 102 28q91 0 157 -63t66 -164t-71.5 -172t-192.5 -71q-53 0 -105 18t-81 42v124h10q30 -30 78.5 -49.5t98.5 -19.5q55 0 93.5 36.5t38.5 91.5q0 52 -33.5 83.5t-83.5 31.5q-34 0 -61 -16.5t-40 -41.5z" />
    <glyph glyph-name="six.tlf" horiz-adv-x="570"
d="M328 456q88 0 154.5 -66.5t66.5 -158.5q0 -100 -74.5 -172.5t-183.5 -72.5q-111 0 -186 71t-75 174q0 79 60 170l173 269h142v-10l-78 -119q-45 -70 -70 -98q28 13 71 13zM418 229q0 53 -38 86.5t-92 33.5q-52 0 -89.5 -35.5t-37.5 -86.5q0 -53 38 -89t92 -36
q56 0 91.5 37.5t35.5 89.5z" />
    <glyph glyph-name="seven.tlf" horiz-adv-x="570"
d="M64 670h483l-327 -670h-141l271 556h-286v114z" />
    <glyph glyph-name="eight.tlf" horiz-adv-x="570"
d="M284 -14q-118 0 -185.5 60.5t-67.5 155.5q0 49 31.5 97.5t68.5 65.5q-29 15 -50.5 51t-21.5 74q0 88 60.5 141t164.5 53t165.5 -54t61.5 -139q0 -36 -22 -73.5t-49 -52.5q37 -18 67 -64.5t30 -96.5q0 -96 -67 -157t-186 -61zM281 408h7q41 0 66.5 25t25.5 55q0 35 -26 58
t-70 23t-69 -23t-25 -58q0 -30 25 -55t66 -25zM284 101q58 0 90 30t32 75q0 43 -32 71.5t-85 28.5h-10q-52 0 -84.5 -28.5t-32.5 -71.5q0 -45 32.5 -75t89.5 -30z" />
    <glyph glyph-name="nine.tlf" horiz-adv-x="570"
d="M243 214q-88 0 -152.5 66.5t-64.5 158.5q0 100 75.5 172.5t185.5 72.5t184 -71t74 -174q0 -79 -60 -170l-172 -269h-142v10l77 119q45 70 70 98q-28 -13 -75 -13zM157 441q0 -51 38.5 -85.5t91.5 -34.5q54 0 90.5 35.5t36.5 86.5q0 54 -36.5 89.5t-90.5 35.5
q-56 0 -93 -37.5t-37 -89.5z" />
    <glyph glyph-name="question.ss01" horiz-adv-x="534"
d="M369 199h-282l224 364h-264v107h461l-224 -365h85v-106zM133 70q0 38 23.5 61t59.5 23t59.5 -23t23.5 -61q0 -36 -23.5 -60t-59.5 -24t-59.5 24t-23.5 60z" />
    <glyph glyph-name="ampersand.ss01" horiz-adv-x="656"
d="M643 0h-126l-35 51q-73 -69 -190 -69q-105 0 -179.5 63t-74.5 171q0 81 46.5 142t124.5 93l-145 219h399v-107h-188l138 -214q18 -27 40 -63t27 -43q8 31 6 83l-2 50h111v-63q0 -49 -11 -101t-28 -77l87 -125v-10zM419 140l-147 219q-103 -44 -103 -136q0 -57 38.5 -90.5
t91.5 -33.5q82 0 120 41z" />
    <glyph glyph-name="at.ss01" horiz-adv-x="1024"
d="M812 221v328h-595v-587h469v-114h-600v815h857v-424q0 -213 -188 -213q-88 0 -124 57q-44 -57 -141 -57q-52 0 -100 23t-83.5 77t-35.5 128q0 96 62.5 161t153.5 65q29 0 58.5 -11t45.5 -27v30h125v-268q0 -35 9 -49.5t33 -14.5q54 0 54 81zM591 171v172q-35 28 -81 28
q-47 0 -81 -32t-34 -83q0 -58 33 -88.5t79 -30.5q56 0 84 34z" />
    <glyph glyph-name="one.ss01" horiz-adv-x="355"
d="M25 554v116h245v-670h-131v554h-114z" />
    <glyph glyph-name="G.ss01" horiz-adv-x="667"
d="M624 373v-325q-97 -66 -235 -66q-156 0 -257.5 100t-101.5 253q0 152 101.5 252.5t254.5 100.5q128 0 207 -61v-125h-10q-73 66 -191 66q-97 0 -163 -67t-66 -166q0 -106 70.5 -169.5t161.5 -63.5q67 0 107 21v138h-244v112h366z" />
    <glyph glyph-name="J.ss01" horiz-adv-x="428"
d="M356 0h-342v116h209v554h133v-670z" />
    <glyph glyph-name="K.ss01" horiz-adv-x="621"
d="M630 0h-156l-269 294v-294h-133v670h133v-206l60 -64l204 270h144v-10l-265 -349l282 -301v-10z" />
    <glyph glyph-name="Q.ss01" horiz-adv-x="772"
d="M30 335q0 152 101.5 252.5t254.5 100.5t254.5 -100.5t101.5 -252.5q0 -95 -42 -173.5t-116 -124.5l175 -192v-10h-151l-144 155q-43 -8 -78 -8q-154 0 -255 100.5t-101 252.5zM609 335q0 98 -63 166.5t-160 68.5t-160 -68.5t-63 -166.5q0 -97 63.5 -165.5t159.5 -68.5
t159.5 68.5t63.5 165.5z" />
    <glyph glyph-name="R.ss01" horiz-adv-x="616"
d="M205 310v-310h-133v670h262q112 0 169.5 -63.5t57.5 -152.5q0 -78 -41 -132.5t-113 -71.5l196 -240v-10h-147zM205 554v-78l121 -133q45 4 73.5 33.5t28.5 77.5q0 44 -28.5 72t-83.5 28h-111z" />
    <glyph glyph-name="S.ss01" horiz-adv-x="556"
d="M80 152h10q68 -56 160 -56q60 0 100.5 25.5t51.5 72.5q-40 -22 -116 -22q-110 0 -181.5 69.5t-71.5 187.5q0 109 75 184t193 75q97 0 167 -38v-116h-10q-58 44 -145 44q-58 0 -101 -27.5t-55 -76.5q42 23 112 23q107 0 180.5 -70t73.5 -182q0 -124 -79 -193.5t-189 -69.5
q-99 0 -175 47v123zM157 371q17 -43 58 -67.5t97 -24.5q51 0 87 20q-43 93 -160 93q-51 0 -82 -21z" />
    <glyph glyph-name="U.ss01" horiz-adv-x="665"
d="M72 0v670h133v-552h255v552h133v-670h-521z" />
    <glyph glyph-name="e.ss01" horiz-adv-x="522"
d="M294 -14q-117 0 -192 72t-75 191q0 111 75 186t185 75q62 0 114 -20t82 -45v-248h-329q9 -48 50 -74.5t102 -26.5q90 0 156 49h10v-114q-69 -45 -178 -45zM296 405q-56 0 -95.5 -30t-47.5 -81h219v93q-27 18 -76 18z" />
    <glyph glyph-name="f.ss01" horiz-adv-x="390"
d="M241 0h-131v392h-98v104h98v174h248v-107h-117v-67h138v-104h-138v-392z" />
    <glyph glyph-name="g.ss01" horiz-adv-x="601"
d="M278 17q-105 0 -177.5 65.5t-72.5 178.5q0 111 75.5 180t176.5 69q46 0 85.5 -15.5t61.5 -38.5v40h116v-661h-452v112h321v110q-47 -40 -134 -40zM303 129q64 0 109 41v187q-40 40 -109 40q-61 0 -102.5 -38.5t-41.5 -96.5q0 -62 40 -97.5t104 -35.5z" />
    <glyph glyph-name="j.ss01" horiz-adv-x="247"
d="M49 616q0 31 20.5 51.5t53.5 20.5t53.5 -20.5t20.5 -51.5t-20.5 -51.5t-53.5 -20.5t-53.5 20.5t-20.5 51.5zM58 -53v549h131v-661h-248v112h117z" />
    <glyph glyph-name="r.ss01" horiz-adv-x="376"
d="M189 384v-384h-131v496h307v-112h-176z" />
    <glyph glyph-name="t.ss01" horiz-adv-x="403"
d="M119 0v392h-106v104h106v130h131v-130h122v-104h-122v-276h114v-116h-245z" />
    <glyph glyph-name="ae.ss01" horiz-adv-x="826"
d="M101 364h-10v108q20 12 65.5 25t90.5 13q114 0 170 -64q75 64 175 64q119 0 196 -65v-248h-331q9 -48 49 -74.5t100 -26.5q91 0 156 51h10v-116q-70 -45 -180 -45q-118 0 -192 77q-77 -77 -198 -77q-43 0 -81 14t-67.5 53t-29.5 97q0 79 60 124.5t151 45.5q25 0 55 -5.5
t40 -11.5v17q0 80 -98 80q-84 0 -131 -36zM252 225q-48 0 -74.5 -20t-26.5 -51t23 -48.5t57 -17.5q63 0 99 40v84q-31 13 -78 13zM594 405q-52 0 -92 -31.5t-46 -79.5h217v93q-29 18 -79 18z" />
    <glyph glyph-name="aeacute.ss01" horiz-adv-x="826"
d="M101 364h-10v108q20 12 65.5 25t90.5 13q114 0 170 -64q75 64 175 64q119 0 196 -65v-248h-331q9 -48 49 -74.5t100 -26.5q91 0 156 51h10v-116q-70 -45 -180 -45q-118 0 -192 77q-77 -77 -198 -77q-43 0 -81 14t-67.5 53t-29.5 97q0 79 60 124.5t151 45.5q25 0 55 -5.5
t40 -11.5v17q0 80 -98 80q-84 0 -131 -36zM252 225q-48 0 -74.5 -20t-26.5 -51t23 -48.5t57 -17.5q63 0 99 40v84q-31 13 -78 13zM594 405q-52 0 -92 -31.5t-46 -79.5h217v93q-29 18 -79 18zM588 670l-121 -121h-111l71 121h161z" />
    <glyph glyph-name="eacute.ss01" horiz-adv-x="522"
d="M294 -14q-117 0 -192 72t-75 191q0 111 75 186t185 75q62 0 114 -20t82 -45v-248h-329q9 -48 50 -74.5t102 -26.5q90 0 156 49h10v-114q-69 -45 -178 -45zM296 405q-56 0 -95.5 -30t-47.5 -81h219v93q-27 18 -76 18zM445 670l-121 -121h-111l71 121h161z" />
    <glyph glyph-name="ecircumflex.ss01" horiz-adv-x="522"
d="M294 -14q-117 0 -192 72t-75 191q0 111 75 186t185 75q62 0 114 -20t82 -45v-248h-329q9 -48 50 -74.5t102 -26.5q90 0 156 49h10v-114q-69 -45 -178 -45zM296 405q-56 0 -95.5 -30t-47.5 -81h219v93q-27 18 -76 18zM361 670l94 -121h-119l-51 57l-51 -57h-119l94 121
h152z" />
    <glyph glyph-name="edieresis.ss01" horiz-adv-x="522"
d="M294 -14q-117 0 -192 72t-75 191q0 111 75 186t185 75q62 0 114 -20t82 -45v-248h-329q9 -48 50 -74.5t102 -26.5q90 0 156 49h10v-114q-69 -45 -178 -45zM296 405q-56 0 -95.5 -30t-47.5 -81h219v93q-27 18 -76 18zM114 611q0 30 19 49t51 19t51 -19t19 -49t-19 -49
t-51 -19t-51 19t-19 49zM322 611q0 30 19 49t51 19t51 -19t19 -49t-19 -49t-51 -19t-51 19t-19 49z" />
    <glyph glyph-name="egrave.ss01" horiz-adv-x="522"
d="M294 -14q-117 0 -192 72t-75 191q0 111 75 186t185 75q62 0 114 -20t82 -45v-248h-329q9 -48 50 -74.5t102 -26.5q90 0 156 49h10v-114q-69 -45 -178 -45zM296 405q-56 0 -95.5 -30t-47.5 -81h219v93q-27 18 -76 18zM253 549l-121 121h161l71 -121h-111z" />
    <glyph glyph-name="emacron.ss01" horiz-adv-x="522"
d="M443 586h-315v84h315v-84zM294 -14q-117 0 -192 72t-75 191q0 111 75 186t185 75q62 0 114 -20t82 -45v-248h-329q9 -48 50 -74.5t102 -26.5q90 0 156 49h10v-114q-69 -45 -178 -45zM296 405q-56 0 -95.5 -30t-47.5 -81h219v93q-27 18 -76 18z" />
    <glyph glyph-name="ebreve.ss01" horiz-adv-x="522"
d="M290 542q-67 0 -111 34t-50 94h103q3 -20 18 -37.5t40 -17.5t40 17.5t18 37.5h103q-6 -60 -50 -94t-111 -34zM294 -14q-117 0 -192 72t-75 191q0 111 75 186t185 75q62 0 114 -20t82 -45v-248h-329q9 -48 50 -74.5t102 -26.5q90 0 156 49h10v-114q-69 -45 -178 -45z
M296 405q-56 0 -95.5 -30t-47.5 -81h219v93q-27 18 -76 18z" />
    <glyph glyph-name="edotaccent.ss01" horiz-adv-x="522"
d="M294 -14q-117 0 -192 72t-75 191q0 111 75 186t185 75q62 0 114 -20t82 -45v-248h-329q9 -48 50 -74.5t102 -26.5q90 0 156 49h10v-114q-69 -45 -178 -45zM296 405q-56 0 -95.5 -30t-47.5 -81h219v93q-27 18 -76 18zM223 611q0 30 19 49t51 19t51 -19t19 -49t-19 -49
t-51 -19t-51 19t-19 49z" />
    <glyph glyph-name="eogonek.ss01" horiz-adv-x="523"
d="M464 -112h3v-88q-20 -15 -67 -15q-39 0 -70.5 28.5t-31.5 80.5q0 53 36 94q-26 -2 -40 -2q-117 0 -192 72t-75 191q0 111 75 186t185 75q62 0 114 -20t82 -45v-248h-329q9 -48 50 -74.5t102 -26.5q90 0 156 49h10v-114q-4 -3 -12.5 -7.5t-11.5 -6.5q-55 -41 -55 -98
q0 -22 11.5 -31t25.5 -9q22 0 34 9zM296 405q-56 0 -95.5 -30t-47.5 -81h219v93q-27 18 -76 18z" />
    <glyph glyph-name="ecaron.ss01" horiz-adv-x="522"
d="M294 -14q-117 0 -192 72t-75 191q0 111 75 186t185 75q62 0 114 -20t82 -45v-248h-329q9 -48 50 -74.5t102 -26.5q90 0 156 49h10v-114q-69 -45 -178 -45zM296 405q-56 0 -95.5 -30t-47.5 -81h219v93q-27 18 -76 18zM458 670l-94 -121h-152l-94 121h119l51 -57l51 57h119
z" />
    <glyph glyph-name="Gcircumflex.ss01" horiz-adv-x="667"
d="M624 373v-325q-97 -66 -235 -66q-156 0 -257.5 100t-101.5 253q0 152 101.5 252.5t254.5 100.5q128 0 207 -61v-125h-10q-73 66 -191 66q-97 0 -163 -67t-66 -166q0 -106 70.5 -169.5t161.5 -63.5q67 0 107 21v138h-244v112h366zM448 848l94 -121h-119l-51 57l-51 -57
h-119l94 121h152z" />
    <glyph glyph-name="gcircumflex.ss01" horiz-adv-x="601"
d="M369 670l94 -121h-119l-51 57l-51 -57h-119l94 121h152zM278 17q-105 0 -177.5 65.5t-72.5 178.5q0 111 75.5 180t176.5 69q46 0 85.5 -15.5t61.5 -38.5v40h116v-661h-452v112h321v110q-47 -40 -134 -40zM303 129q64 0 109 41v187q-40 40 -109 40q-61 0 -102.5 -38.5
t-41.5 -96.5q0 -62 40 -97.5t104 -35.5z" />
    <glyph glyph-name="Gbreve.ss01" horiz-adv-x="667"
d="M624 373v-325q-97 -66 -235 -66q-156 0 -257.5 100t-101.5 253q0 152 101.5 252.5t254.5 100.5q128 0 207 -61v-125h-10q-73 66 -191 66q-97 0 -163 -67t-66 -166q0 -106 70.5 -169.5t161.5 -63.5q67 0 107 21v138h-244v112h366zM370 720q-67 0 -111 34t-50 94h103
q3 -20 18 -37.5t40 -17.5t40 17.5t18 37.5h103q-6 -60 -50 -94t-111 -34z" />
    <glyph glyph-name="gbreve.ss01" horiz-adv-x="601"
d="M290 542q-67 0 -111 34t-50 94h103q3 -20 18 -37.5t40 -17.5t40 17.5t18 37.5h103q-6 -60 -50 -94t-111 -34zM278 17q-105 0 -177.5 65.5t-72.5 178.5q0 111 75.5 180t176.5 69q46 0 85.5 -15.5t61.5 -38.5v40h116v-661h-452v112h321v110q-47 -40 -134 -40zM303 129
q64 0 109 41v187q-40 40 -109 40q-61 0 -102.5 -38.5t-41.5 -96.5q0 -62 40 -97.5t104 -35.5z" />
    <glyph glyph-name="Gdotaccent.ss01" horiz-adv-x="667"
d="M624 373v-325q-97 -66 -235 -66q-156 0 -257.5 100t-101.5 253q0 152 101.5 252.5t254.5 100.5q128 0 207 -61v-125h-10q-73 66 -191 66q-97 0 -163 -67t-66 -166q0 -106 70.5 -169.5t161.5 -63.5q67 0 107 21v138h-244v112h366zM308 789q0 30 19 49t51 19t51 -19t19 -49
t-19 -49t-51 -19t-51 19t-19 49z" />
    <glyph glyph-name="gdotaccent.ss01" horiz-adv-x="601"
d="M278 17q-105 0 -177.5 65.5t-72.5 178.5q0 111 75.5 180t176.5 69q46 0 85.5 -15.5t61.5 -38.5v40h116v-661h-452v112h321v110q-47 -40 -134 -40zM303 129q64 0 109 41v187q-40 40 -109 40q-61 0 -102.5 -38.5t-41.5 -96.5q0 -62 40 -97.5t104 -35.5zM223 611q0 30 19 49
t51 19t51 -19t19 -49t-19 -49t-51 -19t-51 19t-19 49z" />
    <glyph glyph-name="Gcommaaccent.ss01" horiz-adv-x="667"
d="M624 373v-325q-97 -66 -235 -66q-156 0 -257.5 100t-101.5 253q0 152 101.5 252.5t254.5 100.5q128 0 207 -61v-125h-10q-73 66 -191 66q-97 0 -163 -67t-66 -166q0 -106 70.5 -169.5t161.5 -63.5q67 0 107 21v138h-244v112h366zM257 -210l53 148h144l-100 -148h-97z" />
    <glyph glyph-name="gcommaaccent.ss01" horiz-adv-x="601"
d="M278 17q-105 0 -177.5 65.5t-72.5 178.5q0 111 75.5 180t176.5 69q46 0 85.5 -15.5t61.5 -38.5v40h116v-661h-452v112h321v110q-47 -40 -134 -40zM303 129q64 0 109 41v187q-40 40 -109 40q-61 0 -102.5 -38.5t-41.5 -96.5q0 -62 40 -97.5t104 -35.5zM411 697l-53 -148
h-144l100 148h97z" />
    <glyph glyph-name="ij.ss01" horiz-adv-x="494"
d="M189 0h-131v496h131v-496zM49 616q0 31 20.5 51.5t53.5 20.5t53.5 -20.5t20.5 -51.5t-20.5 -51.5t-53.5 -20.5t-53.5 20.5t-20.5 51.5zM296 616q0 31 20.5 51.5t53.5 20.5t53.5 -20.5t20.5 -51.5t-20.5 -51.5t-53.5 -20.5t-53.5 20.5t-20.5 51.5zM305 -53v549h131v-661
h-248v112h117z" />
    <glyph glyph-name="IJ.ss01" horiz-adv-x="705"
d="M205 0h-133v670h133v-670zM633 0h-342v116h209v554h133v-670z" />
    <glyph glyph-name="Jcircumflex.ss01" horiz-adv-x="419"
d="M356 848l94 -121h-119l-51 57l-51 -57h-119l94 121h152zM347 0h-333v116h200v554h133v-670z" />
    <glyph glyph-name="jcircumflex.ss01" horiz-adv-x="247"
d="M58 -53v549h131v-661h-248v112h117zM194 670l94 -121h-119l-51 57l-51 -57h-119l94 121h152z" />
    <glyph glyph-name="Kcommaaccent.ss01" horiz-adv-x="621"
d="M630 0h-156l-269 294v-294h-133v670h133v-206l60 -64l204 270h144v-10l-265 -349l282 -301v-10zM206 -210l53 148h144l-100 -148h-97z" />
    <glyph glyph-name="eng.ss01"
d="M189 354v-354h-131v496h116v-46q23 25 61 42.5t80 17.5q89 0 142 -49t53 -150v-476h-245v107h114v358q0 96 -98 96q-28 0 -53.5 -12.5t-38.5 -29.5z" />
    <glyph glyph-name="oe.ss01" horiz-adv-x="918"
d="M854 147h10v-116q-70 -45 -180 -45q-125 0 -195 85q-73 -85 -197 -85q-115 0 -190.5 73.5t-75.5 188.5q0 114 76 188t190 74q125 0 198 -86q76 86 194 86q119 0 196 -65v-248h-331q9 -48 49 -74.5t100 -26.5q91 0 156 51zM157 248q0 -65 35.5 -105.5t99.5 -40.5
t99.5 40.5t35.5 105.5t-35.5 105.5t-99.5 40.5t-99.5 -40.5t-35.5 -105.5zM686 405q-52 0 -92 -31.5t-46 -79.5h217v93q-29 18 -79 18z" />
    <glyph glyph-name="Racute.ss01" horiz-adv-x="616"
d="M205 310v-310h-133v670h262q112 0 169.5 -63.5t57.5 -152.5q0 -78 -41 -132.5t-113 -71.5l196 -240v-10h-147zM205 554v-78l121 -133q45 4 73.5 33.5t28.5 77.5q0 44 -28.5 72t-83.5 28h-111zM444 848l-121 -121h-111l71 121h161z" />
    <glyph glyph-name="racute.ss01" horiz-adv-x="381"
d="M189 384v-384h-131v496h312v-112h-181zM358 670l-121 -121h-111l71 121h161z" />
    <glyph glyph-name="Rcommaaccent.ss01" horiz-adv-x="616"
d="M205 310v-310h-133v670h262q112 0 169.5 -63.5t57.5 -152.5q0 -78 -41 -132.5t-113 -71.5l196 -240v-10h-147zM205 554v-78l121 -133q45 4 73.5 33.5t28.5 77.5q0 44 -28.5 72t-83.5 28h-111zM204 -210l53 148h144l-100 -148h-97z" />
    <glyph glyph-name="rcommaaccent.ss01" horiz-adv-x="381"
d="M189 384v-384h-131v496h312v-112h-181zM4 -210l53 148h144l-100 -148h-97z" />
    <glyph glyph-name="Rcaron.ss01" horiz-adv-x="616"
d="M205 310v-310h-133v670h262q112 0 169.5 -63.5t57.5 -152.5q0 -78 -41 -132.5t-113 -71.5l196 -240v-10h-147zM205 554v-78l121 -133q45 4 73.5 33.5t28.5 77.5q0 44 -28.5 72t-83.5 28h-111zM467 848l-94 -121h-152l-94 121h119l51 -57l51 57h119z" />
    <glyph glyph-name="rcaron.ss01" horiz-adv-x="381"
d="M189 384v-384h-131v496h312v-112h-181zM378 670l-94 -121h-152l-94 121h119l51 -57l51 57h119z" />
    <glyph glyph-name="Scircumflex.ss01" horiz-adv-x="556"
d="M358 848l94 -121h-119l-51 57l-51 -57h-119l94 121h152zM80 152h10q68 -56 160 -56q60 0 100.5 25.5t51.5 72.5q-40 -22 -116 -22q-110 0 -181.5 69.5t-71.5 187.5q0 109 75 184t193 75q97 0 167 -38v-116h-10q-58 44 -145 44q-58 0 -101 -27.5t-55 -76.5q42 23 112 23
q107 0 180.5 -70t73.5 -182q0 -124 -79 -193.5t-189 -69.5q-99 0 -175 47v123zM157 371q17 -43 58 -67.5t97 -24.5q51 0 87 20q-43 93 -160 93q-51 0 -82 -21z" />
    <glyph glyph-name="Sacute.ss01" horiz-adv-x="556"
d="M445 848l-121 -121h-111l71 121h161zM80 152h10q68 -56 160 -56q60 0 100.5 25.5t51.5 72.5q-40 -22 -116 -22q-110 0 -181.5 69.5t-71.5 187.5q0 109 75 184t193 75q97 0 167 -38v-116h-10q-58 44 -145 44q-58 0 -101 -27.5t-55 -76.5q42 23 112 23q107 0 180.5 -70
t73.5 -182q0 -124 -79 -193.5t-189 -69.5q-99 0 -175 47v123zM157 371q17 -43 58 -67.5t97 -24.5q51 0 87 20q-43 93 -160 93q-51 0 -82 -21z" />
    <glyph glyph-name="Scaron.ss01" horiz-adv-x="556"
d="M80 152h10q68 -56 160 -56q60 0 100.5 25.5t51.5 72.5q-40 -22 -116 -22q-110 0 -181.5 69.5t-71.5 187.5q0 109 75 184t193 75q97 0 167 -38v-116h-10q-58 44 -145 44q-58 0 -101 -27.5t-55 -76.5q42 23 112 23q107 0 180.5 -70t73.5 -182q0 -124 -79 -193.5t-189 -69.5
q-99 0 -175 47v123zM157 371q17 -43 58 -67.5t97 -24.5q51 0 87 20q-43 93 -160 93q-51 0 -82 -21zM449 848l-94 -121h-152l-94 121h119l51 -57l51 57h119z" />
    <glyph glyph-name="Scedilla.ss01" horiz-adv-x="556"
d="M254 -58h97v-152h-201v84h104v68zM80 152h10q68 -56 160 -56q60 0 100.5 25.5t51.5 72.5q-40 -22 -116 -22q-110 0 -181.5 69.5t-71.5 187.5q0 109 75 184t193 75q97 0 167 -38v-116h-10q-58 44 -145 44q-58 0 -101 -27.5t-55 -76.5q42 23 112 23q107 0 180.5 -70
t73.5 -182q0 -124 -79 -193.5t-189 -69.5q-99 0 -175 47v123zM157 371q17 -43 58 -67.5t97 -24.5q51 0 87 20q-43 93 -160 93q-51 0 -82 -21z" />
    <glyph glyph-name="uni0218.ss01" horiz-adv-x="556"
d="M80 152h10q68 -56 160 -56q60 0 100.5 25.5t51.5 72.5q-40 -22 -116 -22q-110 0 -181.5 69.5t-71.5 187.5q0 109 75 184t193 75q97 0 167 -38v-116h-10q-58 44 -145 44q-58 0 -101 -27.5t-55 -76.5q42 23 112 23q107 0 180.5 -70t73.5 -182q0 -124 -79 -193.5t-189 -69.5
q-99 0 -175 47v123zM157 371q17 -43 58 -67.5t97 -24.5q51 0 87 20q-43 93 -160 93q-51 0 -82 -21zM160 -210l53 148h144l-100 -148h-97z" />
    <glyph glyph-name="uni0163.ss01" horiz-adv-x="403"
d="M119 0v392h-106v104h106v130h131v-130h122v-104h-122v-276h114v-116h-245zM184 -58h97v-152h-201v84h104v68z" />
    <glyph glyph-name="uni021B.ss01" horiz-adv-x="403"
d="M119 0v392h-106v104h106v130h131v-130h122v-104h-122v-276h114v-116h-245zM110 -210l53 148h144l-100 -148h-97z" />
    <glyph glyph-name="tcaron.ss01" horiz-adv-x="403"
d="M119 0v392h-106v104h106v130h131v-130h122v-104h-122v-276h114v-116h-245zM398 534h-98l36 136h142z" />
    <glyph glyph-name="tbar.ss01" horiz-adv-x="431"
d="M137 324v68h-106v104h106v130h131v-130h122v-104h-122v-68h122v-104h-122v-104h114v-116h-245v220h-106v104h106z" />
    <glyph glyph-name="Uacute.ss01" horiz-adv-x="666"
d="M72 0v670h133v-552h256v552h133v-670h-522zM489 848l-121 -121h-111l71 121h161z" />
    <glyph glyph-name="Ucircumflex.ss01" horiz-adv-x="666"
d="M72 0v670h133v-552h256v552h133v-670h-522zM409 848l94 -121h-119l-51 57l-51 -57h-119l94 121h152z" />
    <glyph glyph-name="Umacron.ss01" horiz-adv-x="666"
d="M72 0v670h133v-552h256v552h133v-670h-522zM491 764h-315v84h315v-84z" />
    <glyph glyph-name="Uogonek.ss01" horiz-adv-x="666"
d="M72 0v670h133v-552h256v552h133v-670h-203q-41 -36 -41 -81q0 -22 11.5 -31t25.5 -9q22 0 34 9h3v-88q-20 -15 -67 -15q-39 0 -70.5 28.5t-31.5 80.5q0 61 45 106h-228z" />
    <glyph glyph-name="Utilde.ss01" horiz-adv-x="666"
d="M72 0v670h133v-552h256v552h133v-670h-522zM264 857q41 0 78 -29q25 -18 40 -18q27 0 27 41l96 -15q-1 -49 -29 -80.5t-73 -31.5q-38 0 -83 32q-22 15 -35 15q-27 0 -27 -41l-96 15q1 49 29 80.5t73 31.5z" />
    <glyph glyph-name="Uhungarumlaut.ss01" horiz-adv-x="666"
d="M72 0v670h133v-552h256v552h133v-670h-522zM374 848l-123 -121h-102l73 121h152zM581 848l-123 -121h-102l73 121h152z" />
    <glyph glyph-name="Udieresis.ss01" horiz-adv-x="666"
d="M159 789q0 30 19 49t51 19t51 -19t19 -49t-19 -49t-51 -19t-51 19t-19 49zM367 789q0 30 19 49t51 19t51 -19t19 -49t-19 -49t-51 -19t-51 19t-19 49zM72 0v670h133v-552h256v552h133v-670h-522z" />
    <glyph glyph-name="Uring.ss01" horiz-adv-x="666"
d="M72 0v670h133v-552h256v552h133v-670h-522zM442 714q0 -44 -31.5 -74.5t-77.5 -30.5q-45 0 -76.5 30.5t-31.5 74.5t31.5 74.5t76.5 30.5q46 0 77.5 -30.5t31.5 -74.5zM373 714q0 17 -11.5 28.5t-28.5 11.5q-18 0 -29.5 -11.5t-11.5 -28.5t11.5 -29t29.5 -12q17 0 28.5 12
t11.5 29z" />
    <glyph glyph-name="Ugrave.ss01" horiz-adv-x="666"
d="M72 0v670h133v-552h256v552h133v-670h-522zM294 727l-121 121h161l71 -121h-111z" />
    <glyph glyph-name="Ubreve.ss01" horiz-adv-x="666"
d="M72 0v670h133v-552h256v552h133v-670h-522zM333 720q-67 0 -111 34t-50 94h103q3 -20 18 -37.5t40 -17.5t40 17.5t18 37.5h103q-6 -60 -50 -94t-111 -34z" />
    <glyph glyph-name="fi.ss01" horiz-adv-x="637"
d="M241 0h-131v392h-98v104h98v174h248v-107h-117v-67h138v-104h-138v-392zM579 0h-131v496h131v-496zM439 616q0 31 20.5 51.5t53.5 20.5t53.5 -20.5t20.5 -51.5t-20.5 -51.5t-53.5 -20.5t-53.5 20.5t-20.5 51.5z" />
    <glyph glyph-name="fl.ss01" horiz-adv-x="637"
d="M241 0h-131v392h-98v104h98v174h248v-107h-117v-67h138v-104h-138v-392zM579 0h-131v670h131v-670z" />
    <glyph glyph-name="dollar.ss01" horiz-adv-x="559"
d="M332 -104h-111v88q-78 7 -139 45v123h10q68 -56 160 -56q60 0 100.5 25.5t51.5 72.5q-40 -22 -116 -22q-110 0 -181.5 69.5t-71.5 187.5q0 89 51.5 157t138.5 92v93h111v-84q73 -5 134 -37v-116h-10q-58 44 -145 44q-58 0 -101 -27.5t-55 -76.5q42 23 112 23
q107 0 180.5 -70t73.5 -182q0 -101 -54.5 -167t-138.5 -87v-95zM159 371q17 -43 58 -67.5t97 -24.5q51 0 87 20q-43 93 -160 93q-51 0 -82 -21z" />
    <glyph glyph-name="florin.ss01" horiz-adv-x="506"
d="M-34 -165v118h126l79 439h-77v104h97l31 174h238v-114h-128l-10 -60h138v-104h-158l-99 -557h-237z" />
    <glyph glyph-name="germandbls.ss01" horiz-adv-x="600"
d="M189 0h-131v670h480l-126 -265h175l-199 -405h-136l144 302h-164l111 252h-154v-554z" />
    <glyph glyph-name="registered.ss01" horiz-adv-x="860"
d="M770 670v-670h-680v670h680zM678 87v496h-496v-496h496zM605 138h-97l-99 147h-38v-147h-86v386h169q66 0 99 -34.5t33 -86.5q0 -88 -88 -110l107 -150v-5zM371 448v-89h68q61 0 61 44q0 45 -63 45h-66z" />
    <glyph glyph-name="registered.alt" horiz-adv-x="540"
d="M504 459q0 -98 -67.5 -165.5t-166.5 -67.5t-166.5 67.5t-67.5 165.5t67.5 165.5t166.5 67.5q98 0 166 -67.5t68 -165.5zM449 459q0 76 -52 128.5t-127 52.5q-76 0 -127.5 -52.5t-51.5 -128.5t51.5 -128.5t127.5 -52.5q75 0 127 53t52 128zM381 339h-61l-61 92h-23v-92
h-54v240h105q41 0 61.5 -22t20.5 -54q0 -53 -55 -67l67 -94v-3zM236 532v-56h42q37 0 37 27q0 29 -39 29h-40z" />
    <glyph glyph-name="registered.alt.ss01" horiz-adv-x="546"
d="M484 670v-415h-422v415h422zM426 310v305h-306v-305h306zM382 342v-3h-65l-61 92h-21v-92h-56v240h107q41 0 61.5 -22t20.5 -54q0 -54 -53 -67zM235 532v-56h40q37 0 37 27q0 29 -39 29h-38z" />
    <glyph glyph-name="copyright.ss01" horiz-adv-x="860"
d="M571 263h5v-91q-56 -36 -120 -36q-88 0 -145 54.5t-57 142.5q0 87 58 142.5t146 55.5q58 0 111 -34v-86h-6q-39 39 -104 39q-53 0 -83.5 -34.5t-30.5 -82.5t31.5 -81.5t81.5 -33.5q72 0 113 45zM770 670v-670h-680v670h680zM678 87v496h-496v-496h496z" />
    <glyph glyph-name="pi.ss01" horiz-adv-x="682"
d="M269 382v-382h-131v382h-110v114h611v-114h-129v-268h114v-114h-245v382h-110z" />
    <glyph glyph-name="integral.ss01" horiz-adv-x="514"
d="M10 -165v118h126l130 717h238v-118h-128l-130 -717h-236z" />
    <glyph glyph-name="questiondown.ss01" horiz-adv-x="527"
d="M156 297h282l-217 -355h264v-107h-461l217 356h-85v106zM389 426q0 -38 -23.5 -61t-59.5 -23t-59.5 23t-23.5 61q0 36 23.5 60t59.5 24t59.5 -24t23.5 -60z" />
    <glyph glyph-name="onesuperior.ss01" horiz-adv-x="249"
d="M30 590v80h158v-373h-90v293h-68z" />
    <glyph glyph-name="onequarter.ss01" horiz-adv-x="737"
d="M581 132v67q0 53 4 85q-7 -17 -36 -66l-24 -41q-1 -3 -29 -45h85zM406 62v57l155 254h97v-241h45v-70h-45v-62h-78v62h-174zM606 660l-395 -660h-98v10l395 660h98v-10zM30 590v80h158v-373h-90v293h-68z" />
    <glyph glyph-name="onehalf.ss01" horiz-adv-x="774"
d="M480 0v61l122 138q37 41 37 66q0 44 -54 44q-29 0 -56 -13t-41 -34h-5v86q39 39 112 39q62 0 97.5 -30t35.5 -79q0 -52 -48 -110l-33 -39q-16 -20 -48 -51q14 2 66 2h70v-80h-255zM30 590v80h158v-373h-90v293h-68zM606 660l-395 -660h-98v10l395 660h98v-10z" />
    <glyph glyph-name="at.case.ss01" horiz-adv-x="988"
d="M812 283v328h-595v-587h469v-114h-600v815h857v-424q0 -213 -188 -213q-88 0 -124 57q-44 -57 -141 -57q-52 0 -100 23t-83.5 77t-35.5 128q0 96 62.5 161t153.5 65q29 0 58.5 -11t45.5 -27v30h125v-268q0 -35 9 -49.5t33 -14.5q54 0 54 81zM591 233v172q-35 28 -81 28
q-47 0 -81 -32t-34 -83q0 -58 33 -88.5t79 -30.5q56 0 84 34z" />
    <glyph glyph-name="at.case" horiz-adv-x="965"
d="M697 534v-277q0 -56 42 -56q64 0 64 150q0 121 -87 203t-219 82q-144 0 -235.5 -89.5t-91.5 -231.5q0 -139 91.5 -226.5t225.5 -87.5q114 0 173 39h7v-122q-62 -32 -181 -32q-200 0 -323 122t-123 305q0 187 128 312.5t332 125.5q96 0 179 -35.5t137.5 -92.5t85.5 -127.5
t31 -141.5q0 -126 -59 -196t-145 -70q-82 0 -117 59q-19 -25 -56 -42t-85 -17q-52 0 -100 23t-83.5 77t-35.5 128q0 107 67.5 167.5t141.5 60.5q68 0 111 -39v29h125zM572 233v173q-33 27 -81 27t-81.5 -30.5t-33.5 -84.5q0 -58 33 -88.5t79 -30.5q56 0 84 34z" />
    <glyph glyph-name="one.tlf" horiz-adv-x="570"
d="M110 0v114h121v404l-104 -67h-10v123l149 96h96v-556h121v-114h-373z" />
    <glyph glyph-name="one.tlf.ss01" horiz-adv-x="570"
d="M115 554v116h246v-556h121v-114h-373v114h121v440h-115z" />
    <glyph glyph-name="one.posf" horiz-adv-x="350"
d="M268 0h-131v352l-95 -60h-10v116l141 88h95v-496z" />
    <glyph glyph-name="one.posf.ss01" horiz-adv-x="344"
d="M26 380v116h236v-496h-131v380h-105z" />
    </font>
</defs>
</svg>
